<svg id="Layer_6" enable-background="new 0 0 64 64" height="512" viewBox="0 0 64 64" width="512" xmlns="http://www.w3.org/2000/svg"><g><g><g><path d="m32 40.99v6h-4v-5.86l2-1.14 2.04.91z" fill="#5d9cec"/></g><g><path d="m22 55.99.16.17c-2.16 2.24-2.16 5.83-2.16 5.83h-3s-7 0-7-9c0-9.22 1-18 1-18l7 2z" fill="#75b1f2"/></g><g><path d="m30 54.99c-4-1.2-6.4-.32-7.84 1.17l-.16-.17-4-19-.15-.98.15-.02s2.15 1.72 5.04 2.91l-.04.09v5l5-2.86v5.86h4v-6l.04-.09 6.96 3.09s0-4.8-2.83-8.76c.52-.96.96-2.09 1.3-3.39l.53.15c18 6 17 16 17 23s-7 7-7 7h-18z" fill="#75b1f2"/></g><g><path d="m39 43.99-6.96-3.09-2.04-.91-.03-.17c2.55-.46 4.72-1.89 6.2-4.59 2.83 3.96 2.83 8.76 2.83 8.76z" fill="#5d9cec"/></g><g><path d="m30 39.99-2 1.14-5 2.86v-5l.04-.09c1.51.62 3.24 1.09 4.96 1.09.68 0 1.34-.06 1.97-.17z" fill="#5d9cec"/></g><g><path d="m30 54.99v7h-10s0-3.59 2.16-5.83c1.44-1.49 3.84-2.37 7.84-1.17z" fill="#f0d0b4"/></g><g><path d="m36.17 35.23c-1.48 2.7-3.65 4.13-6.2 4.59-.63.11-1.29.17-1.97.17-1.72 0-3.45-.47-4.96-1.09-2.89-1.19-5.04-2.91-5.04-2.91l-.15.02-1.85-12.02s-1-7 3-8 6 3 6 3l8-5s1.37 1.6 2.7 4.15c1.44 2.78 2.82 6.68 2.3 10.85-.13 1.03-.31 1.98-.53 2.85-.34 1.3-.78 2.43-1.3 3.39z" fill="#f0d0b4"/></g><g><path d="m17.85 36.01.15.98-7-2s-.59-2.36 0-5c.49-2.22 1.81-4.63 5-6z" fill="#f0d0b4"/></g><g><path d="m30.51 6.05.49-.06 7 1s0 6-2 11l-.3.15c-1.33-2.55-2.7-4.15-2.7-4.15-1.64 1.634-4.348 3.223-8 5 0 0-2-4-6-3s-3 8-3 8c-3.19 1.37-4.51 3.78-5 6 0 0-5-3-5-13s15-15 24-15z" fill="#656d78"/></g></g><g><path d="m38.646 31.161c.135-.644.255-1.316.346-2.043.513-4.103-.684-7.909-2.062-10.757 2.046-5.12 2.07-11.115 2.07-11.368v-.867l-7.612-1.088-.506-4.045h-.882c-10.218 0-25 5.697-25 16 0 8.485 3.471 12.24 4.895 13.422-.299 1.752-.18 3.421.094 4.627-.132 1.208-.989 9.438-.989 17.951 0 9.886 7.92 10 8 10h2 1 10 1 17c2.767 0 8-1.672 8-8l.005-1.045c.048-7.115.107-16.842-17.359-22.787zm-31.646-14.168c0-8.998 13.741-13.67 22.119-13.983l.889 7.107 1.984-.248-.347-2.773 5.328.761c-.072 1.542-.342 4.909-1.336 8.145-.969-1.574-1.788-2.552-1.879-2.658l-1.519 1.301c.057.066 5.699 6.773 4.768 14.226-.84 6.718-3.87 10.124-9.008 10.124-4.181 0-8.488-3.109-9.247-3.683l-1.762-11.46c-.009-.061-.788-6.128 2.252-6.889 3.169-.791 4.797 2.347 4.863 2.478l1.789-.895c-.816-1.632-3.367-4.467-7.137-3.522-4.008 1.001-3.974 6.402-3.822 8.383-2.318 1.188-3.693 2.955-4.439 4.83-1.33-1.429-3.496-4.748-3.496-11.244zm17 23.318c.785.252 1.606.446 2.444.562l-2.444 1.397zm5 1.405 1.057-.604.943.42v4.462h-2zm3.583-1.669c1.296-.596 2.532-1.52 3.58-2.925 1.042 1.934 1.5 3.929 1.692 5.269zm-20.718-5.847c-.256-1.587-.609-6.206 3.359-8.68l1.551 10.082zm5.135 26.793c-.245 0-6-.091-6-8 0-7.104.605-14.021.871-16.711l5.274 1.507 3.835 18.217c-1.328 1.686-1.768 3.773-1.91 4.987zm12 0h-7.915c.176-1.26.712-3.407 2.349-4.625 1.331-.99 3.205-1.194 5.566-.612zm25.005-7.058-.005 1.058c0 5.795-5.389 5.996-6 6h-17v-5.24l17.268-4.797-.535-1.928-2.051.57-2.712-10.847-1.939.484 2.725 10.899-13.766 3.824c-2.958-.829-5.405-.657-7.288.511l-3.453-16.403c.751.466 1.689.99 2.752 1.47v6.181l5-2.858v5.134h6v-5.573l7 3.112v-1.539c0-.205-.033-4.776-2.661-8.826.299-.62.561-1.318.798-2.067 15.962 5.483 15.914 13.987 15.867 20.835z"/><path d="m31.899 32.341c-.098.146-.297.188-.442.089l-1.003-.668c-.917-.612-2.148-.49-2.926.29l-2.235 2.234 1.414 1.414 2.236-2.235c.105-.106.275-.124.401-.039l1.003.668c.517.344 1.134.465 1.741.345.607-.122 1.131-.473 1.475-.988l1.269-1.902-1.664-1.109z"/><path d="m50.422 30.601-1.869-3.738-5.749 1.15.392 1.961 4.251-.85 2.131 4.262 7.918-4.525-.992-1.736z"/><path d="m48.726 17.305-3.621 7.241 1.79.894 2.379-4.758 2.664 2.664 6.703-5.584-1.282-1.537-5.297 4.416z"/><path d="m48.438 9.845 2.884 2.884 4.592-10.33-1.828-.812-3.408 7.67-3.115-3.115-4.147 12.441-2.969-1.484-.894 1.789 5.031 2.515z"/><path d="m20.447 23.099-.894 1.789 2.987 1.493-1.372 2.057 1.664 1.11 2.628-3.943z"/><path d="m29.806 23.649 3.878 1.292.632-1.896-2.122-.708.776-3.102-1.94-.484z"/><path d="m28.53 14.912c-2.246-2.11-5.164-2.858-5.287-2.889l-.486 1.939c.025.007 2.533.649 4.404 2.406z"/><path d="m31.707 13.286c-2.143-2.143-5.259-3.198-5.391-3.241l-.633 1.896c.028.01 2.797.946 4.609 2.759z"/></g></g></svg>