<svg id="Capa_1" enable-background="new 0 0 511.041 511.041" height="512" viewBox="0 0 511.041 511.041" width="512" xmlns="http://www.w3.org/2000/svg"><g><g><circle cx="377.434" cy="171.592" fill="#99e6fc" r="88.127"/><circle cx="134.607" cy="171.592" fill="#fef48b" r="88.127"/><path d="m334.643 171.592c0-40.833 27.786-75.178 65.471-85.181-7.233-1.92-14.842-2.946-22.68-2.946-48.671 0-88.127 39.456-88.127 88.127s39.456 88.127 88.127 88.127c7.838 0 15.447-1.026 22.68-2.946-37.685-10.003-65.471-44.347-65.471-85.181z" fill="#62dbfb"/><path d="m91.816 171.592c0-40.833 27.791-75.18 65.477-85.183-7.234-1.92-14.848-2.944-22.686-2.944-48.671 0-88.127 39.456-88.127 88.127s39.456 88.127 88.127 88.127c7.838 0 15.448-1.026 22.682-2.946-37.686-10.003-65.473-44.347-65.473-85.181z" fill="#fef056"/><path d="m84.485 186.598c-3.089 0-5.191 3.11-4.072 5.989 8.435 21.705 29.543 37.133 54.194 37.133s45.759-15.428 54.194-37.133c1.119-2.879-.983-5.989-4.072-5.989z" fill="#fd8087"/><path d="m354.342 451.371-95.525-142.683c-1.571-2.347-5.021-2.347-6.592 0l-95.525 142.683v19.188h197.642z" fill="#e8ad8c"/><g fill="#dc8758"><circle cx="256.021" cy="404.26" r="23.46"/><path d="m387.591 489.747h-264.141v-24.342c0-7.751 6.283-14.034 14.034-14.034h236.074c7.751 0 14.034 6.283 14.034 14.034v24.342z"/><path d="m495.176 308.864h-479.311c-4.62 0-8.365-3.745-8.365-8.365v-32.416c0-4.62 3.745-8.365 8.365-8.365h479.312c4.62 0 8.365 3.745 8.365 8.365v32.417c-.001 4.619-3.746 8.364-8.366 8.364z"/></g><path d="m406.345 223.987c-19.274 3.739-38.549 3.739-57.823 0-2.226-.432-3.844-2.367-3.844-4.634 0-18.09 14.665-32.756 32.756-32.756 18.09 0 32.755 14.665 32.755 32.756 0 2.268-1.618 4.203-3.844 4.634z" fill="#fd8087"/></g><g><path d="m495.177 252.219h-66.377c26.593-17.002 44.26-46.79 44.26-80.627 0-52.729-42.898-95.627-95.627-95.627s-95.627 42.898-95.627 95.627c0 33.837 17.667 63.625 44.26 80.627h-30.605c-4.143 0-7.5 3.357-7.5 7.5s3.357 7.5 7.5 7.5h199.715c.477 0 .864.388.864.865v32.416c0 .477-.388.864-.864.864h-479.312c-.477 0-.864-.388-.864-.864v-32.415c0-.478.388-.865.864-.865h247.635c4.143 0 7.5-3.357 7.5-7.5s-3.357-7.5-7.5-7.5h-77.525c26.593-17.002 44.26-46.79 44.26-80.627 0-52.729-42.898-95.627-95.627-95.627-12.433 0-24.54 2.359-35.987 7.012-3.837 1.56-5.684 5.936-4.124 9.772 1.559 3.837 5.934 5.685 9.772 4.124 9.645-3.921 19.852-5.908 30.339-5.908 44.458 0 80.627 36.169 80.627 80.627s-36.169 80.627-80.627 80.627-80.627-36.17-80.627-80.628c0-22.586 9.102-43.521 25.627-58.947 3.027-2.826 3.19-7.572.364-10.601-2.825-3.027-7.571-3.191-10.601-.364-19.313 18.03-30.391 43.512-30.391 69.912 0 33.837 17.667 63.625 44.26 80.627h-67.375c-8.748 0-15.864 7.117-15.864 15.865v32.416c0 8.748 7.116 15.864 15.864 15.864h225.329l-88.42 127.508h-15.29c-11.873 0-21.533 9.66-21.533 21.533v16.842h-5.323c-4.143 0-7.5 3.357-7.5 7.5s3.357 7.5 7.5 7.5h290.9c4.143 0 7.5-3.357 7.5-7.5s-3.357-7.5-7.5-7.5h-6.437v-16.842c0-11.873-9.66-21.533-21.533-21.533h-15.29l-88.42-127.508h225.329c8.748 0 15.864-7.116 15.864-15.864v-32.415c.001-8.749-7.115-15.866-15.863-15.866zm-198.37-80.627c0-44.458 36.169-80.627 80.627-80.627s80.627 36.169 80.627 80.627-36.169 80.627-80.627 80.627-80.627-36.169-80.627-80.627zm24.419 287.28 33.123.001 19.209-.001c3.608 0 6.533 2.925 6.533 6.533v16.842h-249.141v-16.842c0-3.608 2.925-6.533 6.533-6.533h151.153c4.107 0 7.688-3.165 7.811-7.27.127-4.247-3.278-7.73-7.497-7.73h-117.923l84.494-121.847 84.494 121.847h-19.102c-4.219 0-7.623 3.482-7.497 7.73.122 4.104 3.703 7.269 7.81 7.27z"/><path d="m74.69 184.264c-2.22 3.244-2.693 7.371-1.268 11.039 9.743 25.071 34.332 41.916 61.185 41.916s51.441-16.845 61.185-41.915c1.426-3.669.952-7.796-1.268-11.04-2.213-3.235-5.874-5.166-9.794-5.166h-100.246c-3.92 0-7.581 1.931-9.794 5.166zm105.248 9.834c-8.491 16.992-26.163 28.121-45.33 28.121s-36.839-11.129-45.33-28.121z"/><path d="m111.592 140.238v-6.729c0-4.143-3.357-7.5-7.5-7.5s-7.5 3.357-7.5 7.5v6.729c0 4.143 3.357 7.5 7.5 7.5s7.5-3.358 7.5-7.5z"/><path d="m172.622 140.238v-6.729c0-4.143-3.357-7.5-7.5-7.5s-7.5 3.357-7.5 7.5v6.729c0 4.143 3.357 7.5 7.5 7.5s7.5-3.358 7.5-7.5z"/><path d="m377.434 179.098c-22.196 0-40.255 18.059-40.255 40.255 0 5.835 4.169 10.881 9.916 11.998 10.065 1.952 20.202 2.928 30.34 2.928 10.137 0 20.273-.976 30.339-2.928.001-.001.002-.001.003-.001 5.744-1.116 9.913-6.162 9.913-11.997-.001-22.196-18.059-40.255-40.256-40.255zm-25.152 37.96c1.163-12.854 12-22.96 25.152-22.96s23.988 10.105 25.151 22.96c-16.702 2.959-33.604 2.959-50.303 0z"/><path d="m344.021 137.988v1.545c0 4.143 3.357 7.5 7.5 7.5s7.5-3.357 7.5-7.5v-8.705c0-.491-.051-.97-.141-1.435.556-.475 1.115-.947 1.649-1.448l2.112-1.98c3.021-2.834 3.175-7.58.342-10.602-2.833-3.02-7.579-3.175-10.602-.342l-2.112 1.98c-4.08 3.825-9.111 6.542-14.55 7.856l-5.639 1.362c-4.026.973-6.501 5.025-5.528 9.052.829 3.435 3.9 5.74 7.284 5.74.583 0 1.176-.068 1.768-.212l5.639-1.362c1.623-.392 3.213-.891 4.778-1.449z"/><path d="m424.786 126.219-5.639-1.362c-5.438-1.314-10.47-4.031-14.55-7.856l-2.112-1.98c-3.023-2.834-7.77-2.679-10.602.342-2.833 3.021-2.68 7.768.342 10.602l2.112 1.98c.535.501 1.093.974 1.649 1.448-.09.465-.141.944-.141 1.435v8.705c0 4.143 3.357 7.5 7.5 7.5s7.5-3.357 7.5-7.5v-1.545c1.566.559 3.155 1.058 4.777 1.449l5.639 1.362c.593.144 1.185.212 1.768.212 3.384 0 6.455-2.307 7.284-5.74.974-4.026-1.5-8.079-5.527-9.052z"/><path d="m255.521 40.071c4.143 0 7.5-3.357 7.5-7.5v-11.277c0-4.143-3.357-7.5-7.5-7.5s-7.5 3.357-7.5 7.5v11.276c0 4.143 3.357 7.501 7.5 7.501z"/><path d="m210.646 47.11 8.84 7.001c1.378 1.091 3.021 1.62 4.651 1.62 2.213 0 4.404-.975 5.885-2.844 2.571-3.247 2.023-7.964-1.224-10.536l-8.84-7.001c-3.247-2.57-7.964-2.022-10.536 1.224-2.571 3.247-2.024 7.964 1.224 10.536z"/><path d="m286.904 55.731c1.631 0 3.273-.529 4.651-1.62l8.84-7.001c3.247-2.572 3.795-7.289 1.224-10.536-2.571-3.246-7.287-3.794-10.536-1.224l-8.84 7.001c-3.247 2.572-3.795 7.289-1.224 10.536 1.481 1.869 3.672 2.844 5.885 2.844z"/><path d="m256.021 373.3c-17.071 0-30.96 13.889-30.96 30.96s13.889 30.959 30.96 30.959 30.96-13.888 30.96-30.959-13.889-30.96-30.96-30.96zm0 46.919c-8.801 0-15.96-7.159-15.96-15.959 0-8.801 7.159-15.96 15.96-15.96s15.96 7.159 15.96 15.96c-.001 8.8-7.16 15.959-15.96 15.959z"/></g></g></svg>