<svg id="Capa_1" enable-background="new 0 0 512 512" height="512" viewBox="0 0 512 512" width="512" xmlns="http://www.w3.org/2000/svg"><g><path d="m136 330c-8.291 0-15 6.709-15 15v152c0 8.291 6.709 15 15 15s15-6.709 15-15v-152c0-8.291-6.709-15-15-15z" fill="#fd697f"/><path d="m151 497v-152c0-8.291-6.709-15-15-15v182c8.291 0 15-6.709 15-15z" fill="#fc445f"/><path d="m507.609 4.391c-2.713-2.714-6.463-4.391-10.609-4.391h-90c-8.291 0-15 6.709-15 15s6.709 15 15 15h53.789l-99.536 99.536c-5.859 5.859-5.859 15.352 0 21.211s15.352 5.859 21.211 0l99.536-99.536v53.789c0 8.291 6.709 15 15 15s15-6.709 15-15v-90c0-4.146-1.677-7.896-4.391-10.609z" fill="#b7e4f8"/><path d="m382.464 150.747 99.536-99.536v53.789c0 8.291 6.709 15 15 15s15-6.709 15-15v-90c0-4.146-1.677-7.896-4.391-10.609l-146.356 146.356c5.859 5.859 15.351 5.859 21.211 0z" fill="#6fc8f1"/><path d="m382.416 129.584c-24.444-24.445-58.194-39.584-95.416-39.584-75.948 0-135 62.8-135 135 0 35.242 13.883 67.099 36.075 91.165l2.175 5.585 4.486 11.519 17.264 3.878c21.471 14.405 47.258 22.853 75 22.853 74.443 0 135-60.557 135-135 0-37.222-15.139-70.972-39.584-95.416zm-95.416 200.416c-18.631 0-35.891-5.288-51.075-13.835l-11.078-17.294-11.179-.538-1.668-.082c-18.499-18.939-30-44.753-30-73.251 0-61.234 51.866-105 105-105 28.945 0 55.195 11.777 74.209 30.791s30.791 45.264 30.791 74.209c0 57.891-47.109 105-105 105z" fill="#b7e4f8"/><path d="m212 337.147c21.471 14.405 47.258 22.853 75 22.853 74.443 0 135-60.557 135-135 0-37.222-15.139-70.972-39.584-95.416l-21.207 21.207c19.014 19.014 30.791 45.264 30.791 74.209 0 57.891-47.109 105-105 105-18.631 0-35.891-5.288-51.075-13.835l-11.078-17.294-11.179-.538-23.417 23.417 4.486 11.519z" fill="#6fc8f1"/><path d="m196 421h-60-60c-8.291 0-15 6.709-15 15s6.709 15 15 15h60 60c8.291 0 15-6.709 15-15s-6.709-15-15-15z" fill="#fd697f"/><path d="m211 436c0-8.291-6.709-15-15-15h-60v30h60c8.291 0 15-6.709 15-15z" fill="#fc445f"/><path d="m136 90c-74.443 0-136 60.557-136 135s61.557 135 136 135c27.742 0 54.529-8.448 76-22.853-8.866-5.949-16.71-13.156-23.925-20.982-15.184 8.547-33.444 13.835-52.075 13.835-57.891 0-106-47.109-106-105s48.109-105 106-105c56.618 0 106 46.434 106 105 0 28.499-11.501 54.313-30 73.251 6.985 7.152 15.152 12.977 23.925 17.913 22.192-24.065 36.075-55.922 36.075-91.164 0-72.561-60.381-135-136-135z" fill="#fd697f"/><g fill="#fc445f"><path d="m188.075 316.165c-15.184 8.547-33.444 13.835-52.075 13.835v30c27.742 0 54.529-8.448 76-22.853-8.866-5.949-16.71-13.157-23.925-20.982z"/><path d="m242 225c0 28.499-11.501 54.313-30 73.251 6.985 7.152 15.152 12.977 23.925 17.913 22.192-24.065 36.075-55.922 36.075-91.164 0-72.561-60.381-135-136-135v30c56.618 0 106 46.434 106 105z"/></g></g></svg>