<svg id="Capa_1" enable-background="new 0 0 512 512" height="512" viewBox="0 0 512 512" width="512" xmlns="http://www.w3.org/2000/svg"><g><path d="m415.209 79.221h73.689c3.833 0 5.921-4.477 3.456-7.413l-14.037-16.722c-1.408-1.678-1.408-4.125 0-5.802l14.037-16.722c2.465-2.936.377-7.413-3.456-7.413h-73.689z" fill="#e28086"/><path d="m415.209 17.422c-4.267 0-7.726 3.459-7.726 7.726v137.278c0 4.267 3.459 7.726 7.726 7.726s7.726-3.459 7.726-7.726v-137.278c.001-4.267-3.459-7.726-7.726-7.726z" fill="#407093"/><g><g><g><g><path d="m57.807 338.203c-5.996 0-10.856 4.86-10.856 10.856v113.052h43.369v-114.811l-8.928-9.097z" fill="#ffe07d"/><path d="m135.775 338.203h-54.383v123.908h65.238v-113.052c0-5.995-4.86-10.856-10.855-10.856z" fill="#ffd064"/><path d="m217.016 243.339c-5.995 0-10.856 4.86-10.856 10.856v207.917h43.369v-208.087l-8.928-10.686z" fill="#cbe2ff"/><path d="m294.984 243.339h-54.383v218.773h65.238v-207.917c.001-5.996-4.86-10.856-10.855-10.856z" fill="#bed8fb"/><path d="m376.226 135.244c-5.996 0-10.856 4.86-10.856 10.856v316.012h43.369v-314.71l-8.928-12.158z" fill="#8fddc1"/><path d="m454.193 135.244h-54.383v326.867h65.238v-316.011c.001-5.996-4.859-10.856-10.855-10.856z" fill="#77ceaf"/></g><path d="m432.43 454.601h-412.441c-11.04 0-19.989 8.949-19.989 19.988s8.949 19.989 19.989 19.989h426.773l5.657-6.358v-13.631c0-11.039-8.95-19.988-19.989-19.988z" fill="#4a80aa"/><path d="m492.011 454.601h-65.238c11.039 0 19.989 8.949 19.989 19.989v19.989h45.25c11.039 0 19.989-8.949 19.989-19.989-.001-11.04-8.95-19.989-19.99-19.989z" fill="#407093"/></g><g><path d="m338.746 68.985-41.222-10.055c-4.147-1.014-8.326 1.529-9.337 5.675-1.012 4.145 1.53 8.326 5.675 9.337l21.653 5.282-283.79 152.561c-3.759 2.021-5.168 6.705-3.147 10.464 1.395 2.595 4.059 4.069 6.812 4.069 1.235 0 2.488-.297 3.652-.923l286.258-153.888-5.946 24.375c-1.012 4.145 1.53 8.326 5.675 9.337.615.15 1.231.222 1.837.222 3.479 0 6.639-2.367 7.5-5.897l10.055-41.223c1.012-4.144-1.529-8.325-5.675-9.336z" fill="#e8ae4d"/></g></g></g></g></svg>