<?xml version="1.0" encoding="iso-8859-1"?>
<!-- Generator: Adobe Illustrator 19.0.0, SVG Export Plug-In . SVG Version: 6.00 Build 0)  -->
<svg version="1.1" id="Capa_1" xmlns="http://www.w3.org/2000/svg" xmlns:xlink="http://www.w3.org/1999/xlink" x="0px" y="0px"
	 viewBox="0 0 480 480" style="enable-background:new 0 0 480 480;" xml:space="preserve">
<path style="fill:#63C8CD;" d="M61.897,336l22.72-32l-30.72-32l32-32v232h48V336h72v56h48v-72c0-17.673-14.327-32-32-32h-56v-56
	l112-80l-24-32l-104,72l-24,48l-24-48h-32l-51.68,57.44c-11.374,12.636-10.882,31.959,1.12,44L61.897,336z"/>
<path style="fill:#EF9F35;" d="M149.897,192h-32h-16l24,48L149.897,192z"/>
<circle style="fill:#63C8CD;" cx="117.897" cy="144" r="48"/>
<path style="fill:#EF9F35;" d="M173.897,392v80h160v-80h-80h-48H173.897z"/>
<path style="fill:#F7D04F;" d="M403.657,24.88c-5.966,21.847-23.033,38.914-44.88,44.88c-1.237,0.334-1.97,1.607-1.636,2.844
	c0.215,0.798,0.838,1.421,1.636,1.636c21.847,5.966,38.914,23.033,44.88,44.88c0.334,1.237,1.607,1.97,2.844,1.636
	c0.798-0.215,1.421-0.838,1.636-1.636c5.966-21.847,23.033-38.914,44.88-44.88c1.237-0.334,1.97-1.607,1.636-2.844
	c-0.215-0.798-0.838-1.421-1.636-1.636c-21.847-5.966-38.914-23.033-44.88-44.88c-0.334-1.237-1.607-1.97-2.844-1.636
	C404.496,23.459,403.873,24.082,403.657,24.88z"/>
<g>
	<path style="fill:#3C3C48;" d="M56.217,341.68c1.663,1.665,3.975,2.514,6.32,2.32c2.375-0.183,4.545-1.414,5.92-3.36l9.44-13.36
		V472c0,4.418,3.582,8,8,8h48c4.418,0,8-3.582,8-8V344h56v40h-24c-4.418,0-8,3.582-8,8v80c0,4.418,3.582,8,8,8h160
		c4.418,0,8-3.582,8-8v-80c0-4.418-3.582-8-8-8h-72v-64c0-22.091-17.909-40-40-40h-48v-43.92l108.64-77.6
		c1.76-1.246,2.943-3.15,3.28-5.28c0.319-2.123-0.229-4.285-1.52-6l-24-32c-2.586-3.438-7.428-4.216-10.96-1.76l-82,56.72
		c14.5-27.318,4.108-61.219-23.21-75.718s-61.219-4.108-75.718,23.21C56.75,139.617,60.973,166.639,78.778,184h-8.88
		c-2.257,0.005-4.408,0.964-5.92,2.64l-51.68,57.44c-14.189,15.853-13.486,40.038,1.6,55.04L56.217,341.68z M77.897,285.68
		L65.097,272l12.8-12.8V285.68z M325.897,464h-144v-64h144V464z M136.937,200l-11.04,22.08L114.857,200H136.937z M77.897,144
		c0-22.091,17.909-40,40-40c22.091,0,40,17.909,40,40s-17.909,40-40,40S77.897,166.091,77.897,144z M24.137,254.8l49.36-54.8h23.44
		l21.84,43.6c2.015,3.932,6.835,5.487,10.768,3.472c1.493-0.765,2.708-1.979,3.472-3.472l23.12-46.16l96-66.48l14.48,19.28
		l-105.36,75.28c-2.098,1.493-3.348,3.905-3.36,6.48v56c0,4.418,3.582,8,8,8h56c13.255,0,24,10.745,24,24v64h-32v-48
		c0-4.418-3.582-8-8-8h-72c-4.418,0-8,3.582-8,8v128h-32V240c-0.016-3.23-1.973-6.133-4.96-7.36c-2.979-1.253-6.42-0.59-8.72,1.68
		l-32,32c-3.049,3.111-3.049,8.089,0,11.2l26.16,27.28l-13.52,18.88L25.017,288C15.878,278.956,15.49,264.316,24.137,254.8
		L24.137,254.8z"/>
	<path style="fill:#3C3C48;" d="M469.897,64c-30.928,0-56-25.072-56-56c0-4.418-3.582-8-8-8s-8,3.582-8,8c0,30.928-25.072,56-56,56
		c-4.418,0-8,3.582-8,8s3.582,8,8,8c30.928,0,56,25.072,56,56c0,4.418,3.582,8,8,8s8-3.582,8-8c0-30.928,25.072-56,56-56
		c4.418,0,8-3.582,8-8S474.316,64,469.897,64z M405.897,103.04C399,89.74,388.158,78.898,374.857,72
		c13.3-6.898,24.142-17.74,31.04-31.04c6.898,13.3,17.74,24.142,31.04,31.04C423.637,78.898,412.795,89.74,405.897,103.04z"/>
	<path style="fill:#3C3C48;" d="M249.174,217.527l21.806-15.989l9.461,12.903l-21.806,15.989L249.174,217.527z"/>
	<path style="fill:#3C3C48;" d="M289.222,188.233l79.979-58.686l9.465,12.9l-79.979,58.686L289.222,188.233z"/>
	<path style="fill:#3C3C48;" d="M289.441,121.327l47.993-31.995l8.875,13.313l-47.993,31.995L289.441,121.327z"/>
</g>
<g>
</g>
<g>
</g>
<g>
</g>
<g>
</g>
<g>
</g>
<g>
</g>
<g>
</g>
<g>
</g>
<g>
</g>
<g>
</g>
<g>
</g>
<g>
</g>
<g>
</g>
<g>
</g>
<g>
</g>
</svg>
