<?xml version="1.0" encoding="iso-8859-1"?>
<!-- Generator: Adobe Illustrator 19.0.0, SVG Export Plug-In . SVG Version: 6.00 Build 0)  -->
<svg version="1.1" id="Capa_1" xmlns="http://www.w3.org/2000/svg" xmlns:xlink="http://www.w3.org/1999/xlink" x="0px" y="0px"
	 viewBox="0 0 488.146 488.146" style="enable-background:new 0 0 488.146 488.146;" xml:space="preserve">
<g>
	<path style="fill:#7D8F9F;" d="M244.092,344.146c-4.418,0-8-3.582-8-8v-104c0-4.418,3.582-8,8-8s8,3.582,8,8v104
		C252.092,340.564,248.51,344.146,244.092,344.146z"/>
	<path style="fill:#7D8F9F;" d="M436.092,344.146c-4.418,0-8-3.582-8-8v-48h-368v48c0,4.418-3.582,8-8,8s-8-3.582-8-8v-64h400v64
		C444.092,340.564,440.51,344.146,436.092,344.146z"/>
</g>
<circle style="fill:#FFD884;" cx="244.092" cy="120.146" r="112"/>
<path style="fill:#E3472C;" d="M204.092,184.146h80v-24c0.002-10.609-4.211-20.785-11.712-28.288
	c-15.621-15.621-40.947-15.621-56.568,0c-7.504,7.502-11.72,17.677-11.72,28.288V184.146z"/>
<path style="fill:#88D0EF;" d="M244.092,160.146c-4.418,0-8-3.582-8-8v-32c0-4.418,3.582-8,8-8s8,3.582,8,8v32
	C252.092,156.564,248.51,160.146,244.092,160.146z"/>
<g>
	<path style="fill:#E3472C;" d="M12.092,480.146h80v-24c0.002-10.609-4.211-20.785-11.712-28.288
		c-15.621-15.621-40.947-15.621-56.568,0c-7.504,7.502-11.72,17.677-11.72,28.288V480.146z"/>
	<circle style="fill:#E3472C;" cx="52.092" cy="376.146" r="40"/>
	<path style="fill:#E3472C;" d="M204.092,480.146h80v-24c0.002-10.609-4.211-20.785-11.712-28.288
		c-15.621-15.621-40.947-15.621-56.568,0c-7.504,7.502-11.72,17.677-11.72,28.288V480.146z"/>
	<circle style="fill:#E3472C;" cx="244.092" cy="376.146" r="40"/>
	<path style="fill:#E3472C;" d="M396.092,480.146h80v-24c0.002-10.609-4.211-20.785-11.712-28.288
		c-15.621-15.621-40.947-15.621-56.568,0c-7.504,7.502-11.72,17.677-11.72,28.288V480.146z"/>
	<circle style="fill:#E3472C;" cx="436.092" cy="376.146" r="40"/>
	<circle style="fill:#E3472C;" cx="244.092" cy="80.146" r="40"/>
</g>
<path d="M292.092,80.146c0.008-26.51-21.476-48.006-47.986-48.014c-26.51-0.008-48.006,21.476-48.014,47.986
	c-0.005,16.102,8.065,31.134,21.488,40.028c-2.672,1.78-5.161,3.819-7.432,6.088c-9.024,8.975-14.085,21.185-14.056,33.912v24
	c0,4.418,3.582,8,8,8h80c4.418,0,8-3.582,8-8v-24c0.036-12.735-5.026-24.956-14.056-33.936c-2.27-2.263-4.76-4.294-7.432-6.064
	C284.019,111.257,292.087,96.238,292.092,80.146z M276.092,160.146v16h-64v-16c-0.022-8.489,3.351-16.635,9.368-22.624
	c4.05-3.96,9.113-6.728,14.632-8v22.624c0,4.418,3.582,8,8,8s8-3.582,8-8v-22.608c5.52,1.271,10.583,4.039,14.632,8
	C272.737,143.523,276.109,151.662,276.092,160.146z M244.092,112.146c-17.673,0-32-14.327-32-32s14.327-32,32-32s32,14.327,32,32
	S261.765,112.146,244.092,112.146z"/>
<path d="M484.092,376.146c-0.043-23.397-16.934-43.361-40-47.28v-48.72c0-4.418-3.582-8-8-8h-184v-32.408
	c66.127-4.418,116.151-61.606,111.733-127.733S302.219-4.147,236.092,0.272S119.941,61.878,124.359,128.005
	c4.007,59.97,51.763,107.726,111.733,111.733v32.408h-184c-4.418,0-8,3.582-8,8v48.72C17.98,333.231,0.351,357.938,4.717,384.05
	c2.195,13.132,9.753,24.759,20.863,32.096c-2.672,1.78-5.161,3.819-7.432,6.088c-9.024,8.975-14.085,21.185-14.056,33.912v24
	c0,4.418,3.582,8,8,8h80c4.418,0,8-3.582,8-8v-24c0.036-12.735-5.026-24.956-14.056-33.936c-2.27-2.263-4.76-4.294-7.432-6.064
	c22.092-14.59,28.173-44.325,13.584-66.417c-7.337-11.11-18.964-18.668-32.096-20.863v-40.72h176v40.72
	c-26.112,4.366-43.741,29.073-39.375,55.184c2.195,13.132,9.753,24.759,20.863,32.096c-2.672,1.78-5.161,3.819-7.432,6.088
	c-9.024,8.975-14.085,21.185-14.056,33.912v24c0,4.418,3.582,8,8,8h80c4.418,0,8-3.582,8-8v-24
	c0.036-12.735-5.026-24.956-14.056-33.936c-2.27-2.263-4.76-4.294-7.432-6.064c22.092-14.59,28.173-44.325,13.584-66.417
	c-7.337-11.11-18.964-18.668-32.096-20.863v-40.72h176v40.72c-26.112,4.366-43.741,29.073-39.375,55.184
	c2.195,13.132,9.753,24.759,20.863,32.096c-2.672,1.78-5.161,3.819-7.432,6.088c-9.024,8.975-14.085,21.185-14.056,33.912v24
	c0,4.418,3.582,8,8,8h80c4.418,0,8-3.582,8-8v-24c0.036-12.735-5.026-24.956-14.056-33.936c-2.27-2.263-4.76-4.294-7.432-6.064
	C476.019,407.257,484.087,392.238,484.092,376.146z M84.092,456.146v16h-64v-16c-0.022-8.489,3.351-16.635,9.368-22.624
	c12.671-12.079,32.593-12.079,45.264,0C80.741,439.511,84.114,447.656,84.092,456.146z M84.092,376.146c0,17.673-14.327,32-32,32
	s-32-14.327-32-32s14.327-32,32-32S84.092,358.473,84.092,376.146z M276.092,456.146v16h-64v-16
	c-0.022-8.489,3.351-16.635,9.368-22.624c12.671-12.079,32.593-12.079,45.264,0C272.741,439.511,276.114,447.656,276.092,456.146z
	 M276.092,376.146c0,17.673-14.327,32-32,32s-32-14.327-32-32s14.327-32,32-32S276.092,358.473,276.092,376.146z M244.092,224.146
	c-57.438,0-104-46.562-104-104s46.562-104,104-104s104,46.562,104,104C348.026,177.556,301.502,224.079,244.092,224.146z
	 M468.092,456.146v16h-64v-16c-0.022-8.489,3.351-16.635,9.368-22.624c12.671-12.079,32.593-12.079,45.264,0
	C464.741,439.511,468.114,447.656,468.092,456.146L468.092,456.146z M436.092,408.146c-17.673,0-32-14.327-32-32s14.327-32,32-32
	s32,14.327,32,32S453.765,408.146,436.092,408.146z"/>
<g>
</g>
<g>
</g>
<g>
</g>
<g>
</g>
<g>
</g>
<g>
</g>
<g>
</g>
<g>
</g>
<g>
</g>
<g>
</g>
<g>
</g>
<g>
</g>
<g>
</g>
<g>
</g>
<g>
</g>
</svg>
