<svg id="Capa_1" enable-background="new 0 0 512 512" height="512" viewBox="0 0 512 512" width="512" xmlns="http://www.w3.org/2000/svg"><g><g><path d="m256 335.811v104.438c50.288 0 100.577-5.124 150.077-15.372l.001-.001c15.011-3.107 25.775-16.329 25.775-31.658v-57.407z" fill="#676fb2"/><path d="m80.146 335.811v57.407c0 15.328 10.765 28.55 25.775 31.658l.001.001c49.501 10.248 99.789 15.372 150.077 15.372v-104.438z" fill="#4c5699"/></g><g><path d="m329.344 430.837c-13.531-16.99-32.729-29.202-54.674-33.68-6.036-1.232-12.28-1.878-18.671-1.878-29.626 0-56.091 13.894-73.343 35.558-12.947 16.258-20.707 36.89-20.707 59.319v14.344h94.051 94.052v-14.345c0-7.327-.828-14.463-2.395-21.317-3.229-14.125-9.595-27.055-18.313-38.001z" fill="#c9aaf2"/><path d="m274.67 397.157c-6.036-1.232-12.279-1.878-18.671-1.878-29.626 0-56.091 13.894-73.343 35.557-8.717 10.947-15.083 23.876-18.313 38.002-1.567 6.854-2.395 13.989-2.395 21.317v14.345h37.372v-14.345c0-45.794 32.433-84.228 75.35-92.998z" fill="#b28ae4"/><path d="m256 370.997-45.964 36.407c5.248 32.35 25.606 48.538 45.964 48.543 20.356.005 40.712-16.17 45.964-48.543z" fill="#c8866a"/></g><g><path d="m182.507 431.024c-8.642 10.907-14.953 23.769-18.164 37.815-1.567 6.854-2.395 13.989-2.395 21.317v14.344h37.371v-32.552c.001-15.327-6.05-30.026-16.812-40.924z" fill="#c8866a"/><path d="m329.493 431.024c-10.762 10.898-16.813 25.598-16.813 40.925v32.551h37.371v-14.345c0-7.327-.828-14.463-2.395-21.317-3.21-14.046-9.521-26.907-18.163-37.814z" fill="#db9e82"/></g><g><path d="m431.968 195.04h-351.936c-23.458 0-42.475 19.017-42.475 42.475s19.017 42.475 42.475 42.475h351.935c23.458 0 42.475-19.017 42.475-42.475s-19.016-42.475-42.474-42.475z" fill="#c8866a"/><path d="m285.305 63.99c-9.532-1.598-19.319-2.443-29.305-2.443s-19.773.845-29.304 2.443c-83.234 13.954-146.664 86.326-146.664 173.525s63.43 159.57 146.663 173.525c9.532 1.598 19.319 2.443 29.304 2.443 9.986 0 19.773-.845 29.305-2.443 83.234-13.955 146.663-86.326 146.663-173.525s-63.429-159.57-146.662-173.525z" fill="#db9e82"/><path d="m138.404 237.759c0-87.353 63.544-159.855 146.901-173.769-9.532-1.598-19.319-2.443-29.305-2.443s-19.773.845-29.304 2.443c-83.234 13.954-146.664 86.326-146.664 173.525s63.43 159.57 146.663 173.525c9.532 1.598 19.319 2.443 29.304 2.443 9.986 0 19.773-.845 29.305-2.443-83.356-13.915-146.9-85.93-146.9-173.281z" fill="#c8866a"/></g><g><g><g><ellipse cx="161.691" cy="276.407" fill="#ff8e9e" rx="33.691" ry="26.83"/></g><g><ellipse cx="350.309" cy="276.407" fill="#ff8e9e" rx="33.691" ry="26.83"/></g></g></g><g><path d="m350.037 78.159c-19.077-11.31-40.396-19.318-63.228-23.146-10.165-1.704-20.531-2.568-30.809-2.568-10.277 0-20.643.864-30.809 2.568-62.126 10.416-113.108 51.679-137.929 106.629-4.688 10.378-7.116 21.636-7.116 33.024v178.69h57.645v-144.93h17.674c54.391 0 107.759-17.868 151.204-50.472l31.967 31.966c9.759 9.761 22.151 15.934 35.573 17.859v145.577h57.645v-213.381c0-45.186-36.631-81.816-81.817-81.816z" fill="#676fb2"/><path d="m350.037 78.159c-18.251-44.903-64.732-70.659-121.925-70.659-79.705 0-148.079 76.342-148.079 156.046v31.494l.114-.049v178.366h57.645v-144.93h17.674c20.55 0 40.953-2.55 60.731-7.483 2.909-18.54 8.829-36.69 17.725-53.69 23.908-45.69 66.648-78.023 116.115-89.095z" fill="#4c5699"/></g><path d="m313.982 278.667-8.112-12.618c-4.48-6.969-13.76-8.986-20.729-4.506l-29.141 18.734-29.142-18.734c-6.969-4.48-16.249-2.462-20.729 4.506l-8.112 12.618c-4.48 6.969-2.462 16.249 4.506 20.729l11.867 7.629-11.867 7.629c-6.969 4.48-8.986 13.76-4.506 20.729l8.112 12.618c4.48 6.969 13.76 8.986 20.729 4.506l29.142-18.733 29.142 18.734c6.969 4.48 16.249 2.462 20.729-4.506l8.112-12.618c4.48-6.969 2.462-16.249-4.506-20.729l-11.867-7.629 11.867-7.629c6.968-4.48 8.985-13.761 4.505-20.73z" fill="#efedff"/><g><path d="m191.826 256.579v-13.772c0-4.143-3.358-7.5-7.5-7.5s-7.5 3.357-7.5 7.5v13.772c0 4.143 3.358 7.5 7.5 7.5s7.5-3.357 7.5-7.5z"/><path d="m327.674 264.079c4.143 0 7.5-3.357 7.5-7.5v-13.772c0-4.143-3.357-7.5-7.5-7.5-4.142 0-7.5 3.357-7.5 7.5v13.772c0 4.143 3.358 7.5 7.5 7.5z"/><path d="m281.086 358.816c10.437 6.711 24.386 3.673 31.093-6.759l8.112-12.618c6.708-10.438 3.676-24.386-6.76-31.094l-2.053-1.32 2.053-1.32c10.436-6.708 13.468-20.656 6.76-31.094l-8.112-12.618c-6.709-10.435-20.658-13.466-31.093-6.759l-25.086 16.127-25.086-16.127c-10.436-6.709-24.383-3.677-31.093 6.759l-8.112 12.618c-6.708 10.438-3.676 24.386 6.76 31.094l2.053 1.32-2.053 1.32c-10.436 6.708-13.468 20.656-6.759 31.094l8.112 12.618c6.709 10.436 20.658 13.468 31.093 6.759l25.085-16.127zm26.588-27.488-8.112 12.618c-2.236 3.479-6.884 4.49-10.365 2.253l-19.328-12.426 27.74-17.833 7.812 5.022c3.478 2.237 4.489 6.888 2.253 10.366zm-103.348-48.605 8.112-12.618c2.236-3.477 6.886-4.488 10.365-2.253l19.328 12.426-27.74 17.833-7.812-5.022c-3.478-2.237-4.489-6.888-2.253-10.366zm18.477 63.476c-3.479 2.234-8.128 1.227-10.365-2.253l-8.111-12.618c-2.236-3.479-1.226-8.129 2.253-10.365 53.846-34.616 28.435-18.278 82.617-53.111 3.479-2.235 8.128-1.226 10.365 2.253l8.112 12.618c2.236 3.479 1.225 8.129-2.253 10.365-54.951 35.325-26.859 17.265-82.618 53.111z"/><path d="m481.942 237.515c0-25.047-18.523-45.845-42.589-49.426v-28.113c0-47.576-37.392-86.579-84.331-89.175-20.357-44.436-67.385-70.801-126.911-70.801-39.63 0-79.511 18.415-109.417 50.522-29.336 31.496-46.162 72.692-46.162 113.028l.013 24.551c-24.017 3.624-42.488 24.401-42.488 49.413 0 25.031 18.498 45.819 42.541 49.42l.035 65.205c.002 4.141 3.359 7.496 7.5 7.496h.004c4.142-.002 7.499-3.362 7.496-7.504l-.102-188.585c.001-77.743 67.006-148.546 140.58-148.546 55.202 0 98.185 24.666 114.978 65.983 6.074 14.932 2.183 32.093-4.694 46.607-1.774 3.743-.178 8.216 3.565 9.989 3.743 1.775 8.216.178 9.989-3.565 7.074-14.927 11.095-31.524 8.203-47.649 36.208 4.952 64.201 36.063 64.201 73.61v233.242c0 11.713-8.326 21.938-19.797 24.313-22.249 4.606-45.012 8.199-67.73 10.722-5.152-6.833-11.148-12.988-17.909-18.378 17.052-6.224 33.161-14.982 47.792-26.07v8.048c0 4.143 3.357 7.5 7.5 7.5s7.5-3.357 7.5-7.5v-164.073c0-3.73-2.742-6.895-6.435-7.424-11.914-1.71-22.749-7.151-31.335-15.739l-26.212-26.212c6.299-5.458 12.094-11.3 17.144-17.533 2.607-3.218 2.112-7.94-1.106-10.548-3.219-2.608-7.941-2.112-10.548 1.106-26.296 32.459-75.063 53.811-108.834 62.231-29.579 7.395-51.317 7.384-70.309 7.286-2.12-.011-4.211-.021-6.282-.021-4.142 0-7.5 3.357-7.5 7.5v163.427c0 4.143 3.358 7.5 7.5 7.5s7.5-3.357 7.5-7.5v-8.049c14.63 11.087 30.738 19.845 47.788 26.069-6.858 5.471-12.686 11.493-17.883 18.382-22.731-2.523-45.502-6.118-67.754-10.725-11.471-2.374-19.796-12.6-19.796-24.313v-11.082c0-4.143-3.358-7.5-7.5-7.5s-7.5 3.357-7.5 7.5v11.082c0 18.789 13.355 35.192 31.756 39.003 20.341 4.21 41.105 7.593 61.882 10.104-7.695 14.668-11.836 31.127-11.836 47.83v14.347c0 4.143 3.358 7.5 7.5 7.5h188.104c4.143 0 7.5-3.357 7.5-7.5v-14.345c0-7.756-.869-15.49-2.584-22.987-1.968-8.611-5.097-16.99-9.229-24.846 20.768-2.512 41.525-5.893 61.86-10.103 18.4-3.81 31.755-20.212 31.755-39.002v-106.277c24.064-3.581 42.587-24.378 42.587-49.425zm-436.884 0c0-16.718 11.794-30.727 27.496-34.162l.037 68.333c-15.721-3.422-27.533-17.44-27.533-34.171zm260.122 259.485h-98.36v-25.052c0-15.069-5.064-29.389-14.37-41.006 3.852-4.216 8.078-8.019 12.648-11.383 8.788 30.201 31.028 43.883 50.9 43.887h.011c19.868 0 42.103-13.678 50.892-43.882 4.572 3.364 8.798 7.165 12.648 11.378-9.305 11.616-14.369 25.937-14.369 41.006zm-85.074-79.559c11.73 2.333 23.743 3.542 35.894 3.542 12.15 0 24.164-1.208 35.894-3.542-7.272 22.646-23.178 31.006-35.886 31.006-.002 0-.005 0-.007 0-12.709-.004-28.621-8.367-35.895-31.006zm-74.815-181.488c19.098.087 47.543-.535 72.98-7.803 25.826-6.474 59.895-20.138 87.634-40.354l27.427 27.426c9.333 9.334 20.77 15.741 33.377 18.754v130.502c-30.696 26.787-69.876 41.504-110.709 41.504s-80.013-14.718-110.709-41.504zm24.157 254.202c0-16.846 4.659-32.851 13.522-46.824 5.746 8.375 8.85 18.266 8.85 28.617v25.052h-22.372zm173.104 6.845h-22.372v-25.052c0-10.351 3.103-20.24 8.848-28.614 5.264 8.354 9.128 17.6 11.317 27.177 1.465 6.403 2.207 13.013 2.207 19.645zm96.802-225.302v-68.367c15.749 3.4 27.589 17.433 27.589 34.184s-11.84 30.783-27.589 34.183z"/></g></g></svg>