<svg id="Filled_Outline" height="512" viewBox="0 0 512 512" width="512" xmlns="http://www.w3.org/2000/svg" data-name="Filled Outline"><circle cx="256" cy="56" fill="#f4cda5" r="32"/><path d="m320 137.333v26.667l-21.333 20h-85.334l-21.333-20v-26.667c0-18.383 15.947-33.333 35.556-33.333h56.888c19.609 0 35.556 14.95 35.556 33.333z" fill="#1a76d2"/><path d="m224 136h64v48h-64z" fill="#b0bec5"/><circle cx="424" cy="360" fill="#f4cda5" r="32"/><path d="m488 441.333v26.667l-21.333 20h-85.334l-21.333-20v-26.667c0-18.383 15.947-33.333 35.556-33.333h56.888c19.609 0 35.556 14.95 35.556 33.333z" fill="#1a76d2"/><path d="m392 440h64v48h-64z" fill="#b0bec5"/><circle cx="256" cy="360" fill="#f4cda5" r="32"/><path d="m320 441.333v26.667l-21.333 20h-85.334l-21.333-20v-26.667c0-18.383 15.947-33.333 35.556-33.333h56.888c19.609 0 35.556 14.95 35.556 33.333z" fill="#1a76d2"/><path d="m224 440h64v48h-64z" fill="#b0bec5"/><circle cx="88" cy="360" fill="#f4cda5" r="32"/><path d="m152 441.333v26.667l-21.333 20h-85.334l-21.333-20v-26.667c0-18.383 15.947-33.333 35.556-33.333h56.888c19.609 0 35.556 14.95 35.556 33.333z" fill="#1a76d2"/><path d="m56 440h64v48h-64z" fill="#b0bec5"/><path d="m128 360a40 40 0 1 0 -40 40 40.045 40.045 0 0 0 40-40zm-40 24a24 24 0 1 1 24-24 24.028 24.028 0 0 1 -24 24z"/><path d="m120 400h-64a40.045 40.045 0 0 0 -40 40v24a8 8 0 0 0 2.343 5.657l24 24a8 8 0 0 0 5.657 2.343h80a8 8 0 0 0 5.657-2.343l24-24a8 8 0 0 0 2.343-5.657v-24a40.045 40.045 0 0 0 -40-40zm-8 80h-48v-32h48zm32-19.313-16 16v-36.687a8 8 0 0 0 -8-8h-64a8 8 0 0 0 -8 8v36.687l-16-16v-20.687a24.027 24.027 0 0 1 24-24h64a24.027 24.027 0 0 1 24 24z"/><path d="m464 360a40 40 0 1 0 -40 40 40.045 40.045 0 0 0 40-40zm-40 24a24 24 0 1 1 24-24 24.028 24.028 0 0 1 -24 24z"/><path d="m456 400h-64a40.045 40.045 0 0 0 -40 40v24a8 8 0 0 0 2.343 5.657l24 24a8 8 0 0 0 5.657 2.343h80a8 8 0 0 0 5.657-2.343l24-24a8 8 0 0 0 2.343-5.657v-24a40.045 40.045 0 0 0 -40-40zm-8 80h-48v-32h48zm32-19.313-16 16v-36.687a8 8 0 0 0 -8-8h-64a8 8 0 0 0 -8 8v36.687l-16-16v-20.687a24.027 24.027 0 0 1 24-24h64a24.027 24.027 0 0 1 24 24z"/><path d="m296 360a40 40 0 1 0 -40 40 40.045 40.045 0 0 0 40-40zm-40 24a24 24 0 1 1 24-24 24.028 24.028 0 0 1 -24 24z"/><path d="m288 400h-64a40.045 40.045 0 0 0 -40 40v24a8 8 0 0 0 2.343 5.657l24 24a8 8 0 0 0 5.657 2.343h80a8 8 0 0 0 5.657-2.343l24-24a8 8 0 0 0 2.343-5.657v-24a40.045 40.045 0 0 0 -40-40zm-8 80h-48v-32h48zm32-19.313-16 16v-36.687a8 8 0 0 0 -8-8h-64a8 8 0 0 0 -8 8v36.687l-16-16v-20.687a24.027 24.027 0 0 1 24-24h64a24.027 24.027 0 0 1 24 24z"/><path d="m296 56a40 40 0 1 0 -40 40 40.045 40.045 0 0 0 40-40zm-40 24a24 24 0 1 1 24-24 24.028 24.028 0 0 1 -24 24z"/><path d="m210.343 189.657a8 8 0 0 0 5.657 2.343h80a8 8 0 0 0 5.657-2.343l24-24a8 8 0 0 0 2.343-5.657v-24a40.045 40.045 0 0 0 -40-40h-64a40.045 40.045 0 0 0 -40 40v24a8 8 0 0 0 2.343 5.657zm69.657-13.657h-48v-32h48zm-80-40a24.027 24.027 0 0 1 24-24h64a24.027 24.027 0 0 1 24 24v20.687l-16 16v-36.687a8 8 0 0 0 -8-8h-64a8 8 0 0 0 -8 8v36.687l-16-16z"/><path d="m248 208v68.687l-10.343-10.344-11.314 11.314 24 24a8 8 0 0 0 11.314 0l24-24-11.314-11.314-10.343 10.343v-68.686z"/><path d="m88 304a7.976 7.976 0 0 0 5.657-2.343l24-24-11.314-11.314-10.343 10.344v-28.687h128a8 8 0 0 0 8-8v-32h-16v24h-128a8 8 0 0 0 -8 8v36.687l-10.343-10.344-11.314 11.314 24 24a7.976 7.976 0 0 0 5.657 2.343z"/><path d="m296 208h-16v32a8 8 0 0 0 8 8h128v28.686l-10.343-10.343-11.314 11.314 24 24a8 8 0 0 0 11.314 0l24-24-11.314-11.314-10.343 10.343v-36.686a8 8 0 0 0 -8-8h-128z"/></svg>