<?xml version="1.0" encoding="UTF-8"?>
<!DOCTYPE svg PUBLIC "-//W3C//DTD SVG 1.1//EN" "http://www.w3.org/Graphics/SVG/1.1/DTD/svg11.dtd">
<svg xmlns="http://www.w3.org/2000/svg" xmlns:xlink="http://www.w3.org/1999/xlink" version="1.1" width="809px" height="776px" viewBox="-0.5 -0.5 809 776"><defs><linearGradient x1="0%" y1="100%" x2="0%" y2="0%" id="mx-gradient-2267ab-1-3399ff-1-s-0"><stop offset="0%" style="stop-color:#3399FF"/><stop offset="100%" style="stop-color:#2267AB"/></linearGradient></defs><g><rect x="0.07" y="0" width="804.5" height="770" rx="115.5" ry="115.5" fill="#000000" stroke="#000000" transform="translate(2,3)" opacity="0.25"/><rect x="0.07" y="0" width="804.5" height="770" rx="115.5" ry="115.5" fill="url(#mx-gradient-2267ab-1-3399ff-1-s-0)" stroke="#0e8088" pointer-events="all"/><path d="M 200.64 665.99 L 196.64 665.99 L 197.44 145.14 L 193.79 145.13 L 199.5 103.99 L 205.08 145.15 L 201.44 145.14 Z" fill="#ff9933" stroke="none" pointer-events="all"/><rect x="119.51" y="474.34" width="18.33" height="187.29" fill="#050505" stroke="none" pointer-events="all"/><rect x="72.52" y="452.67" width="18.33" height="205.63" fill="#050505" stroke="none" transform="rotate(5,81.69,555.48)" pointer-events="all"/><rect x="118.8" y="645.57" width="47.67" height="18.33" fill="#050505" stroke="none" pointer-events="all"/><rect x="63.8" y="645.59" width="47.67" height="18.33" fill="#050505" stroke="none" pointer-events="all"/><ellipse cx="333.71" cy="231.24" rx="56.14560070188235" ry="64.16640080215127" fill="#050505" stroke="none" pointer-events="all"/><rect x="333.59" y="340.32" width="67.83" height="14.67" rx="2.2" ry="2.2" fill="#ffaa00" stroke="none" transform="rotate(-195,367.51,347.66)" pointer-events="all"/><rect x="298.19" y="354.99" width="91.67" height="18.33" fill="#050505" stroke="none" transform="rotate(-15,344.02,364.16)" pointer-events="all"/><ellipse cx="366.28" cy="267.46" rx="9.16662868602161" ry="9.16662868602161" fill="#ffffff" stroke="none" pointer-events="all"/><ellipse cx="512.29" cy="211.79" rx="56.14560070188235" ry="64.16640080215127" fill="#050505" stroke="none" pointer-events="all"/><rect x="568.44" y="179.69" width="5.5" height="23.83" rx="0.82" ry="0.82" fill="#ffaa00" stroke="none" pointer-events="all"/><rect x="501.3" y="179.39" width="71.5" height="3.67" rx="0.55" ry="0.55" fill="#ffaa00" stroke="none" pointer-events="all"/><path d="M 631.16 84.06 Q 642.14 84.06 642.14 181.23 Q 642.14 278.39 631.16 278.39 Z" fill-opacity="0.5" fill="#ffaa00" stroke="none" pointer-events="all"/><path d="M 572.8 85.62 L 631.16 182.78 L 572.8 279.95 Z" fill-opacity="0.2" fill="#ffaa00" stroke="none" transform="rotate(180,601.98,182.78)" pointer-events="all"/><path d="M 292.82 157.13 C 288.53 157.13 287.46 175.38 290.89 179.03 C 287.46 187.06 291.32 204.58 294.11 197.28 C 296.03 211.88 302.46 211.88 304.61 197.28 C 308.89 197.28 308.89 182.68 306.21 175.38 C 308.89 160.78 304.61 146.18 300.86 153.48 C 298.18 142.53 293.89 142.53 292.82 157.13 Z" fill="#050505" stroke="#000000" stroke-miterlimit="10" pointer-events="all"/><path d="M 487.84 130.43 C 466.94 130.43 461.72 148.68 478.44 152.33 C 461.72 160.36 480.53 177.88 494.11 170.58 C 503.52 185.19 534.87 185.19 545.32 170.58 C 566.22 170.58 566.22 155.98 553.16 148.68 C 566.22 134.08 545.32 119.48 527.03 126.78 C 513.97 115.83 493.07 115.83 487.84 130.43 Z" fill="#050505" stroke="#000000" stroke-miterlimit="10" pointer-events="all"/><ellipse cx="556.19" cy="192.55" rx="9.16662868602161" ry="9.16662868602161" fill="#ffffff" stroke="none" pointer-events="all"/><rect x="525.67" y="271.9" width="116.47" height="18.33" fill="#050505" stroke="none" transform="rotate(-30,583.9,281.07)" pointer-events="all"/><rect x="128.86" y="390.35" width="85.49" height="18.33" fill="#050505" stroke="none" pointer-events="all"/><path d="M 35.54 295.57 Q 197.23 295.57 197.23 350.76 Q 197.23 405.95 35.54 405.95 Z" fill="#000000" stroke="none" transform="rotate(-90,116.39,350.76)" pointer-events="all"/><path d="M 90.07 401.52 Q 143.22 401.52 143.22 456.71 Q 143.22 511.9 90.07 511.9 Z" fill="#000000" stroke="none" transform="rotate(90,116.64,456.71)" pointer-events="all"/><rect x="304.42" y="471" width="18.33" height="187.29" fill="#050505" stroke="none" pointer-events="all"/><rect x="306.93" y="639.96" width="47.67" height="18.33" fill="#050505" stroke="none" pointer-events="all"/><path d="M 214.35 298.03 Q 376.03 298.03 376.03 353.22 Q 376.03 408.41 214.35 408.41 Z" fill="#000000" stroke="none" transform="rotate(-90,295.19,353.22)" pointer-events="all"/><path d="M 268.87 403.98 Q 322.02 403.98 322.02 459.17 Q 322.02 514.36 268.87 514.36 Z" fill="#000000" stroke="none" transform="rotate(90,295.45,459.17)" pointer-events="all"/><rect x="509.11" y="471.88" width="18.33" height="187.29" fill="#050505" stroke="none" pointer-events="all"/><rect x="471.29" y="451.28" width="18.33" height="205.63" fill="#050505" stroke="none" transform="rotate(10,480.46,554.09)" pointer-events="all"/><rect x="423.62" y="643.3" width="47.67" height="18.33" fill="#050505" stroke="none" pointer-events="all"/><rect x="511.62" y="640.84" width="47.67" height="18.33" fill="#050505" stroke="none" pointer-events="all"/><path d="M 425.14 293.11 Q 586.83 293.11 586.83 348.31 Q 586.83 403.5 425.14 403.5 Z" fill="#000000" stroke="none" transform="rotate(-90,505.99,348.31)" pointer-events="all"/><path d="M 479.67 399.06 Q 532.82 399.06 532.82 454.25 Q 532.82 509.45 479.67 509.45 Z" fill="#000000" stroke="none" transform="rotate(90,506.24,454.25)" pointer-events="all"/><rect x="267.61" y="471" width="18.33" height="187.29" fill="#050505" stroke="none" pointer-events="all"/><rect x="270.12" y="639.96" width="47.67" height="18.33" fill="#050505" stroke="none" pointer-events="all"/><path d="M 309.78 137.49 C 305.49 137.49 304.42 155.74 307.85 159.39 C 304.42 167.42 308.28 184.94 311.06 177.64 C 312.99 192.24 319.42 192.24 321.57 177.64 C 325.85 177.64 325.85 163.04 323.17 155.74 C 325.85 141.14 321.57 126.54 317.82 133.84 C 315.14 122.89 310.85 122.89 309.78 137.49 Z" fill="#050505" stroke="#000000" stroke-miterlimit="10" pointer-events="all"/><path d="M 328.35 149.33 C 324.06 149.33 322.99 167.59 326.42 171.24 C 322.99 179.27 326.85 196.79 329.64 189.49 C 331.56 204.09 337.99 204.09 340.14 189.49 C 344.42 189.49 344.42 174.89 341.74 167.59 C 344.42 152.98 340.14 138.38 336.39 145.68 C 333.71 134.73 329.42 134.73 328.35 149.33 Z" fill="#050505" stroke="#000000" stroke-miterlimit="10" pointer-events="all"/><path d="M 343.02 133.04 C 338.73 133.04 337.66 151.29 341.09 154.94 C 337.66 162.97 341.52 180.49 344.3 173.19 C 346.23 187.79 352.66 187.79 354.8 173.19 C 359.09 173.19 359.09 158.59 356.41 151.29 C 359.09 136.69 354.8 122.09 351.05 129.39 C 348.37 118.44 344.09 118.44 343.02 133.04 Z" fill="#050505" stroke="#000000" stroke-miterlimit="10" pointer-events="all"/><path d="M 364.45 166.55 C 360.16 166.55 359.09 184.8 362.52 188.45 C 359.09 196.48 362.95 214 365.73 206.7 C 367.66 221.3 374.09 221.3 376.24 206.7 C 380.52 206.7 380.52 192.1 377.84 184.8 C 380.52 170.2 376.24 155.6 372.48 162.9 C 369.81 151.95 365.52 151.95 364.45 166.55 Z" fill="#050505" stroke="#000000" stroke-miterlimit="10" transform="rotate(75,369.81,184.8)" pointer-events="all"/><path d="M 391.8 175.84 C 387.51 175.84 386.44 194.1 389.87 197.75 C 386.44 205.78 390.3 223.3 393.09 216 C 395.02 230.6 401.45 230.6 403.59 216 C 407.87 216 407.87 201.4 405.2 194.1 C 407.87 179.49 403.59 164.89 399.84 172.19 C 397.16 161.24 392.87 161.24 391.8 175.84 Z" fill="#050505" stroke="#000000" stroke-miterlimit="10" transform="rotate(75,397.16,194.1)" pointer-events="all"/><path d="M 385.88 195.97 C 381.59 195.97 380.52 214.23 383.95 217.88 C 380.52 225.91 384.38 243.43 387.17 236.13 C 389.09 250.73 395.52 250.73 397.67 236.13 C 401.95 236.13 401.95 221.53 399.27 214.23 C 401.95 199.62 397.67 185.02 393.92 192.32 C 391.24 181.37 386.95 181.37 385.88 195.97 Z" fill="#050505" stroke="#000000" stroke-miterlimit="10" transform="rotate(75,391.24,214.23)" pointer-events="all"/><ellipse cx="112.81" cy="215.95" rx="56.14560070188235" ry="64.16640080215127" fill="#050505" stroke="none" pointer-events="all"/><ellipse cx="155.74" cy="212.61" rx="9.16662868602161" ry="9.16662868602161" fill="#ffffff" stroke="none" pointer-events="all"/><path d="M 48.98 148.69 C 28.08 148.69 22.86 166.94 39.58 170.59 C 22.86 178.62 41.67 196.14 55.25 188.84 C 64.66 203.45 96.01 203.45 106.46 188.84 C 127.36 188.84 127.36 174.24 114.3 166.94 C 127.36 152.34 106.46 137.74 88.17 145.04 C 75.11 134.09 54.21 134.09 48.98 148.69 Z" fill="#050505" stroke="#000000" stroke-miterlimit="10" transform="rotate(-15,75.11,166.94)" pointer-events="all"/><path d="M 86.53 126.67 C 65.63 126.67 60.4 144.93 77.12 148.58 C 60.4 156.61 79.21 174.13 92.8 166.83 C 102.2 181.43 133.55 181.43 144 166.83 C 164.9 166.83 164.9 152.23 151.84 144.93 C 164.9 130.32 144 115.72 125.72 123.02 C 112.65 112.07 91.75 112.07 86.53 126.67 Z" fill="#050505" stroke="#000000" stroke-miterlimit="10" pointer-events="all"/><path d="M 32.63 176.01 C 18.68 176.01 15.19 194.26 26.35 197.91 C 15.19 205.94 27.74 223.46 36.81 216.16 C 43.08 230.76 64 230.76 70.97 216.16 C 84.92 216.16 84.92 201.56 76.2 194.26 C 84.92 179.66 70.97 165.06 58.77 172.36 C 50.06 161.41 36.11 161.41 32.63 176.01 Z" fill="#050505" stroke="#000000" stroke-miterlimit="10" transform="rotate(-15,50.06,194.26)" pointer-events="all"/><path d="M 23.92 240.03 C 3.02 240.03 -2.2 258.28 14.52 261.93 C -2.2 269.96 16.61 287.48 30.19 280.18 C 39.6 294.78 70.95 294.78 81.4 280.18 C 102.3 280.18 102.3 265.58 89.23 258.28 C 102.3 243.68 81.4 229.08 63.11 236.38 C 50.05 225.43 29.15 225.43 23.92 240.03 Z" fill="#050505" stroke="#000000" stroke-miterlimit="10" transform="rotate(-100,50.05,258.28)" pointer-events="all"/><path d="M 642.14 288.77 Q 803.82 288.77 803.82 343.96 Q 803.82 399.15 642.14 399.15 Z" fill="#000000" stroke="none" transform="rotate(-90,722.98,343.96)" pointer-events="all"/><rect x="726.1" y="467.76" width="18.33" height="187.07" fill="#050505" stroke="none" pointer-events="all"/><rect x="669.18" y="449.31" width="18.33" height="199.61" fill="#ffaa00" stroke="none" transform="rotate(15,678.35,549.12)" pointer-events="all"/><rect x="644.37" y="638.95" width="47.67" height="18.33" fill="#ffaa00" stroke="none" pointer-events="all"/><rect x="728.62" y="636.5" width="47.67" height="18.33" fill="#050505" stroke="none" pointer-events="all"/><path d="M 696.66 394.72 Q 749.81 394.72 749.81 449.91 Q 749.81 505.1 696.66 505.1 Z" fill="#000000" stroke="none" transform="rotate(90,723.23,449.91)" pointer-events="all"/><ellipse cx="734.13" cy="208.21" rx="55.324382324100995" ry="63.22786551325827" fill="#050505" stroke="none" pointer-events="all"/><rect x="711.58" y="198.24" width="23.9" height="25.19" rx="3.59" ry="3.59" fill="#ffaa00" stroke="none" pointer-events="all"/><rect x="714.28" y="226" width="3.08" height="18.51" rx="0.46" ry="0.46" fill="#ffaa00" stroke="none" pointer-events="all"/><rect x="729.7" y="226" width="3.08" height="18.51" rx="0.46" ry="0.46" fill="#ffaa00" stroke="none" pointer-events="all"/><rect x="721.99" y="229.08" width="3.08" height="8.48" rx="0.46" ry="0.46" fill="#ffaa00" stroke="none" pointer-events="all"/><rect x="714.28" y="173.56" width="3.08" height="21.59" rx="0.46" ry="0.46" fill="#ffaa00" stroke="none" pointer-events="all"/><rect x="729.7" y="176.65" width="3.08" height="18.51" rx="0.46" ry="0.46" fill="#ffaa00" stroke="none" pointer-events="all"/><rect x="721.99" y="179.73" width="3.08" height="8.48" rx="0.46" ry="0.46" fill="#ffaa00" stroke="none" pointer-events="all"/><rect x="742.04" y="195.15" width="15.42" height="3.08" rx="0.46" ry="0.46" fill="#ffaa00" stroke="none" pointer-events="all"/><rect x="742.04" y="205.95" width="6.17" height="3.08" rx="0.46" ry="0.46" fill="#ffaa00" stroke="none" pointer-events="all"/><rect x="742.04" y="215.97" width="12.34" height="3.08" rx="0.46" ry="0.46" fill="#ffaa00" stroke="none" pointer-events="all"/><rect x="692.69" y="195.15" width="15.42" height="3.08" rx="0.46" ry="0.46" fill="#ffaa00" stroke="none" pointer-events="all"/><rect x="698.86" y="205.95" width="6.17" height="3.08" rx="0.46" ry="0.46" fill="#ffaa00" stroke="none" pointer-events="all"/><rect x="692.69" y="215.97" width="12.34" height="3.08" rx="0.46" ry="0.46" fill="#ffaa00" stroke="none" pointer-events="all"/><ellipse cx="760.89" cy="166.25" rx="10.17814420457328" ry="10.17814420457328" fill="#ffaa00" stroke="none" pointer-events="all"/><ellipse cx="762.99" cy="167.66" rx="27.499886058064824" ry="27.499886058064824" fill-opacity="0.5" fill="#ffaa00" stroke="none" pointer-events="all"/><rect x="626.83" y="376.09" width="193.42" height="15.42" fill="#ffaa00" stroke="none" transform="rotate(90,723.54,383.8)" pointer-events="all"/></g></svg>