<?xml version="1.0" encoding="iso-8859-1"?>
<!-- Generator: Adobe Illustrator 19.0.0, SVG Export Plug-In . SVG Version: 6.00 Build 0)  -->
<svg version="1.1" id="Capa_1" xmlns="http://www.w3.org/2000/svg" xmlns:xlink="http://www.w3.org/1999/xlink" x="0px" y="0px"
	 viewBox="0 0 432 432" style="enable-background:new 0 0 432 432;" xml:space="preserve">
<polygon style="fill:#FFB398;" points="8,192 48,240 136,240 168,272 240,272 344,392 344,328 392,328 424,296 424,152 392,120 
	360,120 360,88 328,56 272,56 256,40 128,40 88,72 56,72 8,120 "/>
<g>
	<path style="fill:#FE946F;" d="M144,240h-16v-48c0-2.125,0.844-4.156,2.344-5.656l32-32c1.5-1.5,3.535-2.344,5.656-2.344h92.688
		l21.656-21.656l11.313,11.313l-24,24c-1.5,1.5-3.535,2.344-5.656,2.344h-92.688L144,195.313V240z"/>
	<path style="fill:#FE946F;" d="M280,224h-88v-16h84.688l21.656-21.656l11.313,11.313l-24,24C284.156,223.156,282.121,224,280,224z"
		/>
	<path style="fill:#FE946F;" d="M256,104h-16V80c0-2.125,0.844-4.156,2.344-5.656l24-24l11.313,11.313L256,83.313V104z"/>
	<path style="fill:#FE946F;" d="M352,328h-16v-20.688l-21.656-21.656c-1.5-1.5-2.344-3.531-2.344-5.656v-32
		c0-2.125,0.844-4.156,2.344-5.656l24-24c1.5-1.5,3.535-2.344,5.656-2.344h24v16h-20.688L328,251.313v25.375l21.656,21.656
		c1.5,1.5,2.344,3.531,2.344,5.656V328z"/>
	<path style="fill:#FE946F;" d="M320,144h-8v-16h4.688l13.656-13.656c1.5-1.5,3.535-2.344,5.656-2.344h24v16h-20.688l-13.656,13.656
		C324.156,143.156,322.121,144,320,144z"/>
	<path style="fill:#FE946F;" d="M120,120h-16V99.313L82.344,77.656l11.313-11.313l24,24c1.5,1.5,2.344,3.531,2.344,5.656V120z"/>
	<path style="fill:#FE946F;" d="M64,184H48v-16c0-2.125,0.844-4.156,2.344-5.656l16-16c1.5-1.5,3.535-2.344,5.656-2.344h48v16
		H75.313L64,171.313V184z"/>
	<path style="fill:#FE946F;" d="M400,208h-16v-12.688L372.688,184H344v-16h32c2.121,0,4.156,0.844,5.656,2.344l16,16
		c1.5,1.5,2.344,3.531,2.344,5.656V208z"/>
	<path style="fill:#FE946F;" d="M176,120h-16v-16c0-2.125,0.844-4.156,2.344-5.656l16-16c1.5-1.5,3.535-2.344,5.656-2.344h16v16
		h-12.688L176,107.313V120z"/>
	<path style="fill:#FE946F;" d="M392,288h-16c-2.121,0-4.156-0.844-5.656-2.344l-16-16l11.313-11.313L379.313,272H392V288z"/>
	<rect x="288" y="264" style="fill:#FE946F;" width="32" height="16"/>
	<polygon style="fill:#FE946F;" points="8,192 136,192 176,232 272,232 344,392 240,272 168,272 136,240 48,240 	"/>
	<polygon style="fill:#FE946F;" points="328,56 328,120 360,120 360,88 	"/>
	<polygon style="fill:#FE946F;" points="344,328 392,328 424,296 344,296 	"/>
	<polygon style="fill:#FE946F;" points="128,40 128,96 112,96 88,72 	"/>
	<polyline style="fill:#FE946F;" points="392,128 392,296 424,296 424,152 392,128 	"/>
</g>
<path d="M429.656,146.344l-32-32c-1.5-1.5-3.535-2.344-5.656-2.344h-24V88c0-2.125-0.844-4.156-2.344-5.656l-32-32
	c-1.5-1.5-3.535-2.344-5.656-2.344h-52.688l-13.656-13.656c-1.5-1.5-3.535-2.344-5.656-2.344H128c-1.816,0-3.578,0.617-4.996,1.75
	L85.195,64H56c-2.121,0-4.156,0.844-5.656,2.344l-48,48C0.844,115.844,0,117.875,0,120v72c0,1.875,0.656,3.688,1.855,5.125l40,48
	c1.52,1.82,3.77,2.875,6.145,2.875h84.688l29.656,29.656c1.5,1.5,3.535,2.344,5.656,2.344h68.348l101.605,117.242
	c1.551,1.789,3.773,2.758,6.047,2.758c0.938,0,1.883-0.164,2.797-0.508c3.129-1.164,5.203-4.156,5.203-7.492v-56h40
	c2.121,0,4.156-0.844,5.656-2.344l32-32c1.5-1.5,2.344-3.531,2.344-5.656V152C432,149.875,431.156,147.844,429.656,146.344z
	 M416,292.688L388.688,320H352v-16c0-2.125-0.844-4.156-2.344-5.656L328,276.688v-25.375L347.313,232H368v-16h-24
	c-2.121,0-4.156,0.844-5.656,2.344l-24,24c-1.5,1.5-2.344,3.531-2.344,5.656v16h-24v16h24c0,2.125,0.844,4.156,2.344,5.656
	L336,307.313V328v42.555L257.523,280H272v-16h-32h-68.688L144,236.688v-41.375L171.313,168H264c2.121,0,4.156-0.844,5.656-2.344
	l24-24l-11.313-11.313L260.688,152H168c-2.121,0-4.156,0.844-5.656,2.344l-32,32c-1.5,1.5-2.344,3.531-2.344,5.656v40H51.746
	L16,189.102v-65.789L59.313,80h25.375L104,99.313V120h16V96c0-2.125-0.844-4.156-2.344-5.656L99.977,72.665L130.805,48h121.883l8,8
	l-18.344,18.344c-1.5,1.5-2.344,3.531-2.344,5.656v24h16V83.313L275.313,64h49.375L352,91.313V112h-16
	c-2.121,0-4.156,0.844-5.656,2.344L316.688,128H312v16h8c2.121,0,4.156-0.844,5.656-2.344L339.313,128H360h28.688L416,155.313
	V292.688z"/>
<path d="M276.688,208H192v16h88c2.121,0,4.156-0.844,5.656-2.344l24-24l-11.313-11.313L276.688,208z"/>
<path d="M66.344,146.344l-16,16c-1.5,1.5-2.344,3.531-2.344,5.656v16h16v-12.688L75.313,160H120v-16H72
	C69.879,144,67.844,144.844,66.344,146.344z"/>
<path d="M376,168h-32v16h28.688L384,195.313V208h16v-16c0-2.125-0.844-4.156-2.344-5.656l-16-16
	C380.156,168.844,378.121,168,376,168z"/>
<path d="M178.344,82.344l-16,16c-1.5,1.5-2.344,3.531-2.344,5.656v16h16v-12.688L187.313,96H200V80h-16
	C181.879,80,179.844,80.844,178.344,82.344z"/>
<path d="M365.656,258.344l-11.313,11.313l16,16c1.5,1.5,3.535,2.344,5.656,2.344h16v-16h-12.688L365.656,258.344z"/>
<g>
</g>
<g>
</g>
<g>
</g>
<g>
</g>
<g>
</g>
<g>
</g>
<g>
</g>
<g>
</g>
<g>
</g>
<g>
</g>
<g>
</g>
<g>
</g>
<g>
</g>
<g>
</g>
<g>
</g>
</svg>
