<svg height="512" viewBox="0 0 512 512" width="512" xmlns="http://www.w3.org/2000/svg"><g id="Filled_outline" data-name="Filled outline"><path d="m192 112h128a0 0 0 0 1 0 0v112a40 40 0 0 1 -40 40h-48a40 40 0 0 1 -40-40v-112a0 0 0 0 1 0 0z" fill="#fec9a3"/><path d="m192 112h128v32h-128z" fill="#f35244"/><path d="m344 72h-112a40 40 0 0 0 -40 40h128a24 24 0 0 0 24-24z" fill="#92563a"/><path d="m192 176h-25.373a50.976 50.976 0 0 1 -36.284-15.03 19.408 19.408 0 0 0 -25.245-1.793l-7.498 5.623-19.2-25.6 7.5-5.623a51.567 51.567 0 0 1 67.073 4.766 19.187 19.187 0 0 0 13.654 5.657h25.373z" fill="#de4132"/><path d="m192 144h-8.934a63.68 63.68 0 0 1 -49.966-24.017 32.023 32.023 0 0 0 -30.242-11.571l-20.225 3.37-5.263-31.564 20.23-3.371a64.045 64.045 0 0 1 60.49 23.146 31.833 31.833 0 0 0 24.976 12.007h8.934z" fill="#de4132"/><path d="m184 152h8a0 0 0 0 1 0 0v48a0 0 0 0 1 0 0h-8a24 24 0 0 1 -24-24 24 24 0 0 1 24-24z" fill="#feb784"/><path d="m344 152h8a0 0 0 0 1 0 0v48a0 0 0 0 1 0 0h-8a24 24 0 0 1 -24-24 24 24 0 0 1 24-24z" fill="#feb784" transform="matrix(-1 0 0 -1 672 352)"/><path d="m424 72h64v48h-64z" fill="#f7ad7c"/><path d="m448 120h-40a16 16 0 0 1 -16-16v-40h24v24h8a24 24 0 0 1 24 24z" fill="#fec093"/><rect fill="#fec9a3" height="64" rx="16" width="96" x="392" y="24"/><path d="m488 120v97.56a31.967 31.967 0 0 1 -10.83 23.99l-125.17 110.45v144h-192v-160l-80 32v56h-56v-80.77a24.007 24.007 0 0 1 13.78-21.72l110.89-52.18a56.008 56.008 0 0 1 23.85-5.33h163.48l80-64v-80z" fill="#e0e0de"/><path d="m352 368v128h-192v-38.34c65.79-14.08 131.78-42.08 192-89.66z" fill="#dbdbd9"/><path d="m24 488h56v-24h16v-24l-16-16h-56z" fill="#fec9a3"/><path d="m224 264 16 24-8 144 24 24 24-24-16-144 16-24z" fill="#348fd9"/><path d="m210.971 152.572-5.942 14.856 15 6a16.007 16.007 0 1 0 26.971 5.065l3.968-9.921z"/><path d="m301.029 152.572-40 16 3.971 9.921a16 16 0 1 0 26.979-5.067l15-6z"/><path d="m229.323 216.242 5.354 15.077a63.055 63.055 0 0 1 42.646 0l5.354-15.077a78.86 78.86 0 0 0 -53.354 0z"/><path d="m472 16h-64a24.027 24.027 0 0 0 -24 24v64a24.027 24.027 0 0 0 24 24h72v89.56a24.013 24.013 0 0 1 -8.121 18l-125.172 110.44a8 8 0 0 0 -2.707 6v144h16v-140.39l122.465-108.057a40.019 40.019 0 0 0 13.535-29.993v-177.56a24.027 24.027 0 0 0 -24-24zm-64 96a8.009 8.009 0 0 1 -8-8v-9.376a23.885 23.885 0 0 0 8 1.376h16a16.019 16.019 0 0 1 16 16zm43.7-16h20.3a23.885 23.885 0 0 0 8-1.376v17.376h-24a31.793 31.793 0 0 0 -4.3-16zm20.3-16h-8v-24h-16v24h-16v-24h-16v24h-8a8.009 8.009 0 0 1 -8-8v-32a8.009 8.009 0 0 1 8-8h64a8.009 8.009 0 0 1 8 8v32a8.009 8.009 0 0 1 -8 8z"/><path d="m424 200v-56h-16v52.155l-74.807 59.845h-17.454a47.806 47.806 0 0 0 12.261-32v-16a32 32 0 0 0 0-64v-25.013a32.056 32.056 0 0 0 24-30.987v-16a8 8 0 0 0 -8-8h-112a48.069 48.069 0 0 0 -47.321 40h-1.613a23.875 23.875 0 0 1 -18.734-9 72.046 72.046 0 0 0 -68.053-26.04l-20.224 3.367a8 8 0 0 0 -6.576 9.206l5.259 31.567a8 8 0 0 0 9.207 6.576l20.226-3.37a23.924 23.924 0 0 1 4.1-.313 58.771 58.771 0 0 0 -27.171 11.185l-7.5 5.62a8 8 0 0 0 -1.6 11.202l19.2 25.6a8 8 0 0 0 11.2 1.6l7.5-5.621a11.366 11.366 0 0 1 14.785 1.046 58.591 58.591 0 0 0 27.948 15.707 32.053 32.053 0 0 0 31.367 25.668v16a47.729 47.729 0 0 0 3.775 18.687l14.737-6.234a31.776 31.776 0 0 1 -2.512-12.453v-72h112v72a32.036 32.036 0 0 1 -32 32h-107.482a64.4 64.4 0 0 0 -27.25 6.091l-110.893 52.185a32.131 32.131 0 0 0 -18.375 28.954v144.77a8 8 0 0 0 8 8h56a8 8 0 0 0 8-8v-16h8a8 8 0 0 0 8-8v-24a8 8 0 0 0 -2.343-5.657l-13.657-13.657v-47.27l64-25.6v148.184h16v-160a8 8 0 0 0 -10.971-7.428l-80 32a8 8 0 0 0 -5.029 7.428v48h-40v-72.77a16.064 16.064 0 0 1 9.188-14.477l110.892-52.185a48.322 48.322 0 0 1 20.438-4.568h47.2l12.145 18.219-7.851 141.337a8 8 0 0 0 2.33 6.1l24 24a8 8 0 0 0 11.314 0l24-24a8 8 0 0 0 2.294-6.54l-15.679-141.1 12.01-18.016h51.719a8 8 0 0 0 5-1.753l80-64a8 8 0 0 0 3-6.247zm-80-24a16.019 16.019 0 0 1 -16 16v-32a16.019 16.019 0 0 1 16 16zm-112-96h104v8a16.019 16.019 0 0 1 -16 16h-118.987a32.054 32.054 0 0 1 30.987-24zm-130.46 20.521-12.334 2.055-2.63-15.782 12.334-2.056a56.028 56.028 0 0 1 52.928 20.253 39.8 39.8 0 0 0 31.228 15.009h.934v16h-.934a55.719 55.719 0 0 1 -43.722-21.014 40 40 0 0 0 -37.8-14.465zm-1.24 52.257-1.1.825-9.6-12.8 1.1-.825a43.508 43.508 0 0 1 56.612 4.022 27.113 27.113 0 0 0 15.82 7.774 32.091 32.091 0 0 0 -9.529 14.246 42.866 42.866 0 0 1 -17.603-10.707 27.443 27.443 0 0 0 -35.7-2.535zm67.7 23.222a16.019 16.019 0 0 1 16-16v32a16.019 16.019 0 0 1 -16-16zm32-40v-16h112v16zm-123.313 296 11.313 11.313v12.687h-8a8 8 0 0 0 -8 8v16h-40v-48zm179.313 12.686-15.813-15.813 7.8-140.429a7.994 7.994 0 0 0 -1.331-4.882l-7.708-11.562h26.1l-7.708 11.562a8 8 0 0 0 -1.3 5.321l15.575 140.179z"/></g></svg>