<svg id="Capa_1" enable-background="new 0 0 512 512" height="512" viewBox="0 0 512 512" width="512" xmlns="http://www.w3.org/2000/svg"><g><g><g><g><g><g><g><path d="m240.012 473.265h-239.126c6.686-51.591 50.798-91.449 104.223-91.449h30.679c53.425 0 97.538 39.858 104.224 91.449z" fill="#8dcafc"/><path d="m240.012 473.265h-239.126c6.686-51.591 50.798-91.449 104.223-91.449h30.679c53.425 0 97.538 39.858 104.224 91.449z" fill="#8dcafc"/><path d="m240.001 473.265h-34.295c-6.624-51.014-49.82-90.542-102.421-91.429.598-.021 1.216-.021 1.813-.021h30.689c53.426.001 97.528 39.848 104.214 91.45z" fill="#64b9fc"/><g><g><path d="m61.1 452.682v20.583h-15.453v-20.583c0-4.265 3.461-7.726 7.726-7.726s7.727 3.461 7.727 7.726z" fill="#64b9fc"/></g><g><path d="m195.25 452.682v20.583h-15.453v-20.583c0-4.265 3.451-7.726 7.726-7.726 4.266 0 7.727 3.461 7.727 7.726z" fill="#64b9fc"/></g></g><path d="m2.746 462.965c-1.794 7.695-2.746 15.714-2.746 23.957v3.602c0 5.69 4.612 10.302 10.302 10.302h220.291c5.69 0 10.302-4.612 10.302-10.302v-3.602c0-8.242-.952-16.261-2.746-23.957z" fill="#fc9744"/><path d="m203.834 462.965c1.795 7.694 2.748 15.711 2.748 23.953v13.907h24.006c5.69 0 10.302-4.612 10.302-10.302v-3.605c0-8.241-.951-16.258-2.745-23.953z" fill="#fb8627"/><g><g><path d="m45.649 462.965h15.453v37.86h-15.453z" fill="#fb8627"/></g><g><path d="m179.793 462.965h15.453v37.86h-15.453z" fill="#fb8627"/></g></g></g><path d="m141.114 360.347v40.723c0 11.414-9.251 20.665-20.665 20.665s-20.665-9.251-20.665-20.665v-40.723z" fill="#fdb0a0"/><path d="m141.114 360.347v39.858c-6.428 1.473-13.114 2.277-19.965 2.328h-.701c-7.098 0-14.021-.793-20.665-2.297v-39.889z" fill="#f9a08f"/><g><g><path d="m21.884 231.468h197.126v59.112h-197.126z" fill="#756f6f"/><g><g><g><g><g><g><g><g><circle cx="200.737" cy="298.516" fill="#fdb0a0" r="25.361"/></g><g><circle cx="40.158" cy="298.516" fill="#fdb0a0" r="25.361"/></g></g></g></g></g><path d="m193.565 255.093v52.805c0 40.33-32.247 73.736-72.566 74.033-40.638.298-73.672-32.544-73.672-73.108v-53.73c0-40.383 32.736-73.119 73.119-73.119 20.197 0 38.468 8.179 51.699 21.409 13.231 13.242 21.42 31.513 21.42 51.71z" fill="#ffcec0"/><path d="m193.565 255.093v9.859c-12.029-3.51-22.941-10.625-31.289-20.654-6.254-7.509-13.783-11.157-23.047-11.157-4.743 0-8.668.968-10.582 1.542-2.648.798-5.413 1.212-8.2 1.212-2.786 0-5.552-.415-8.221-1.212-1.893-.574-5.818-1.542-10.561-1.542-9.253 0-16.793 3.648-23.036 11.157-8.359 10.029-19.271 17.144-31.3 20.654v-9.859c0-40.383 32.736-73.119 73.119-73.119 20.197 0 38.468 8.179 51.699 21.409 13.229 13.242 21.418 31.513 21.418 51.71z" fill="#fdb0a0"/><g><g><g id="XMLID_283_"><path d="m154.833 298.307c-4.267 0-7.762-3.459-7.762-7.726s3.424-7.726 7.691-7.726h.07c4.267 0 7.726 3.459 7.726 7.726s-3.458 7.726-7.725 7.726z" fill="#5b5555"/></g></g><g><g id="XMLID_282_"><path d="m86.131 298.307c-4.267 0-7.761-3.459-7.761-7.726s3.425-7.726 7.692-7.726h.069c4.267 0 7.726 3.459 7.726 7.726s-3.459 7.726-7.726 7.726z" fill="#5b5555"/></g></g></g></g></g></g><path d="m231.367 226.682c-5.7-9.849-12.187-23.307-17.286-40.089-10.61-34.916-63.646-49.024-88.081-33.445-3.411 2.175-7.694 2.175-11.106 0-24.435-15.579-77.471-1.471-88.081 33.445-5.099 16.782-11.586 30.24-17.286 40.089-5.012 8.66 1.267 19.488 11.273 19.488h9.454c12.388 0 23.969-5.734 31.857-15.286 20.298-24.58 47.155-19.3 56.254-16.567.678.204 1.373.307 2.081.307.708 0 1.403-.103 2.081-.307 9.099-2.733 35.956-8.013 56.254 16.567 7.888 9.552 19.469 15.286 31.857 15.286h9.454c10.008-.001 16.287-10.828 11.275-19.488z" fill="#efe2dd"/><path d="m220.094 246.167h-9.12c-4.578 0-9.048-.779-13.266-2.229 5.309-3.619 7.586-11.001 3.967-17.257-5.704-9.851-12.188-23.309-17.281-40.086-6.172-20.289-26.652-33.543-47.528-38.049 26.688-6.939 67.985 7.682 77.213 38.049 5.105 16.778 11.588 30.236 17.293 40.086 5.008 8.665-1.271 19.486-11.278 19.486z" fill="#e0d3ce"/><g><path d="m128.175 151.89v61.059c-2.277.422-4.183.927-5.645 1.37-.68.206-1.37.299-2.081.299s-1.401-.093-2.081-.299c-1.463-.443-3.369-.948-5.645-1.37v-61.059c.752.381 1.473.814 2.174 1.257 3.41 2.174 7.695 2.174 11.105 0 .7-.443 1.421-.876 2.173-1.257z" fill="#e0d3ce"/></g></g></g></g></g></g><g><g><g><path d="m307.958 266.241v-49.965c0-35.719 28.956-64.675 64.675-64.675h37.839c35.719 0 64.675 28.956 64.675 64.675v49.965z" fill="#fb8627"/><path d="m475.151 216.281v49.962h-34.321v-49.962c0-35.719-28.955-64.685-64.674-64.685h34.321c35.719 0 64.674 28.966 64.674 64.685z" fill="#fb7722"/></g><g><g><g><g><path d="m512 486.925v3.595c0 5.687-4.615 10.302-10.302 10.302h-82.281v-81.384h-55.331v81.384h-82.682c-5.687 0-10.302-4.615-10.302-10.302v-3.595c0-58.051 47.059-105.109 105.109-105.109h30.679c58.051 0 105.11 47.059 105.11 105.109z" fill="#26d192"/><path d="m353.785 409.136h75.935v59.009h-75.935z" fill="#5b5555"/><path d="m408.56 409.136h21.16v59.009h-21.16z" fill="#433f43"/><path d="m353.785 457.843h75.935v42.979h-75.935z" fill="#faf7f7"/><path d="m408.556 457.843h21.163v42.979h-21.163z" fill="#efe2dd"/><path d="m511.996 486.917v3.605c0 5.69-4.612 10.302-10.302 10.302h-24.006v-13.907c0-57.447-46.091-104.118-103.297-105.082.602-.022 1.215-.022 1.818-.022h30.684c58.047.001 105.103 47.057 105.103 105.104z" fill="#1ec186"/><g><g><ellipse cx="353.583" cy="399.521" fill="#faf7f7" rx="22.029" ry="33.243"/><g><path d="m375.614 399.525c0 .556-.01 1.102-.031 1.648-15.298-2.637-29.329-8.993-41.145-18.1 3.791-10.034 10.941-16.792 19.141-16.792 12.166 0 22.035 14.886 22.035 33.244z" fill="#efe2dd"/></g><ellipse cx="429.52" cy="399.521" fill="#faf7f7" rx="22.029" ry="33.243"/><path d="m448.582 382.877c-11.796 9.189-25.806 15.618-41.063 18.275-.021-.536-.031-1.082-.031-1.628 0-18.358 9.869-33.244 22.036-33.244 8.148.001 15.257 6.676 19.058 16.597z" fill="#efe2dd"/></g></g></g><path d="m412.217 360.347v40.723c0 11.414-9.251 20.665-20.665 20.665s-20.665-9.251-20.665-20.665v-40.723z" fill="#fdb0a0"/><path d="m412.217 360.347v39.858c-6.428 1.483-13.104 2.277-19.955 2.328h-.711c-7.098 0-14.01-.793-20.665-2.297v-39.889z" fill="#f9a08f"/><g><g><g><g><g><g><g><g><g><g><circle cx="471.842" cy="298.516" fill="#fdb0a0" r="25.361"/></g><g><circle cx="311.263" cy="298.516" fill="#fdb0a0" r="25.361"/></g></g></g></g></g><path d="m333.326 210.877c-9.34 12.28-14.893 27.597-14.893 44.216v53.73c0 40.564 33.034 73.406 73.672 73.108 40.319-.298 72.566-33.704 72.566-74.033v-52.805c0-16.622-5.556-31.933-14.895-44.216z" fill="#ffcec0"/><path d="m432.151 266.544c-20.638 0-33.644 9.082-35.67 24.531h-9.454c-2.027-15.45-15.033-24.531-35.67-24.531-22.515 0-35.957 10.803-35.957 28.898 0 8.745.623 18.818 5.242 27.214 5.767 10.484 16.101 15.8 30.715 15.8 19.553 0 31.962-11.488 35.139-31.929h10.236c.63 5.548 1.958 11.135 4.705 16.129 5.767 10.484 16.101 15.8 30.715 15.8 22.851 0 35.956-15.678 35.956-43.014 0-18.095-13.442-28.898-35.957-28.898zm-80.794 56.46c-17.236 0-20.504-9.686-20.504-27.561 0-3.677 0-13.446 20.504-13.446s20.504 9.769 20.504 13.446c-.001 24.428-10.958 27.561-20.504 27.561zm80.794 0c-17.236 0-20.504-9.686-20.504-27.561 0-3.677 0-13.446 20.504-13.446s20.504 9.769 20.504 13.446c0 24.428-10.957 27.561-20.504 27.561z" fill="#fdb0a0"/><path d="m464.674 255.094v52.8c0 12.963-3.329 25.21-9.196 35.868-1.078-3.158-2.315-6.444-3.713-9.879-11.97-29.35 2.859-36.946-3.755-58.721-10.146-33.436-37.533-32.913-50.186-30.705-2.283.405-4.534-.203-6.273-1.494-1.739 1.291-3.99 1.899-6.273 1.494-12.642-2.209-40.04-2.731-50.186 30.705-6.604 21.775 8.226 29.371-3.755 58.721-1.451 3.553-2.721 6.967-3.841 10.221-5.772-10.455-9.058-22.49-9.058-35.281v-53.728c0-16.622 5.548-31.931 14.894-44.211h116.448c9.335 12.278 14.894 27.588 14.894 44.21z" fill="#fdb0a0"/><path d="m432.151 255.519c-20.638 0-33.644 9.081-35.67 24.531h-9.454c-2.027-15.45-15.033-24.531-35.67-24.531-22.515 0-35.957 10.803-35.957 28.898 0 8.745.623 18.818 5.242 27.214 5.767 10.484 16.101 15.8 30.715 15.8 19.553 0 31.962-11.488 35.139-31.929h10.236c.63 5.548 1.958 11.135 4.705 16.129 5.767 10.484 16.101 15.8 30.715 15.8 22.851 0 35.956-15.678 35.956-43.014 0-18.095-13.442-28.898-35.957-28.898zm-80.794 56.46c-17.236 0-20.504-9.686-20.504-27.561 0-3.677 0-13.446 20.504-13.446s20.504 9.769 20.504 13.446c-.001 24.428-10.958 27.561-20.504 27.561zm80.794 0c-17.236 0-20.504-9.686-20.504-27.561 0-3.677 0-13.446 20.504-13.446s20.504 9.769 20.504 13.446c0 24.428-10.957 27.561-20.504 27.561z" fill="#efe2dd"/><g><g><g id="XMLID_286_"><path d="m425.938 298.307c-4.267 0-7.761-3.459-7.761-7.726s3.424-7.726 7.691-7.726h.07c4.267 0 7.726 3.459 7.726 7.726s-3.459 7.726-7.726 7.726z" fill="#5b5555"/></g></g><g><g id="XMLID_285_"><path d="m357.236 298.307c-4.267 0-7.761-3.459-7.761-7.726s3.425-7.726 7.692-7.726h.069c4.267 0 7.726 3.459 7.726 7.726s-3.458 7.726-7.726 7.726z" fill="#5b5555"/></g></g></g></g></g></g></g></g></g></g><g><g><path d="m316.754 500.825v-48.138c0-4.268 3.459-7.726 7.726-7.726s7.726 3.459 7.726 7.726v48.138z" fill="#1ec186"/></g><g><path d="m450.898 500.825v-48.138c0-4.268 3.459-7.726 7.726-7.726s7.726 3.459 7.726 7.726v48.138z" fill="#1ec186"/></g></g></g><g><path d="m388.557 218.799c.982 4.142 5.076 6.756 9.269 6.024 12.649-2.207 40.04-2.73 50.188 30.705 6.607 21.769-8.223 29.364 3.755 58.717 6.059 14.847 9.002 27.104 10.321 36.604 1.013 7.301 11.093 8.28 13.501 1.313 4.174-12.076 5.95-28.734-1.52-49.269-7.062-19.413 5.935-32.903 6.557-53.789 1.037-34.81-17.849-59.822-57.053-59.822-36.68.002-37.594 18.658-35.018 29.517z" fill="#fc9744"/><path d="m480.624 249.109c-.619 20.879-13.613 34.375-6.551 53.781 7.468 20.537 5.691 37.197 1.517 49.275-2.408 6.967-12.487 5.989-13.501-1.313-1.319-9.502-4.264-21.76-10.325-36.611-11.309-27.728 1.302-36.039-2.849-55.232.64-3.137 1.088-6.412 1.195-9.901.896-29.979-12.984-52.682-41.896-58.411 4.246-.907 9.314-1.408 15.363-1.408 39.198 0 58.092 25.007 57.047 59.82z" fill="#fb8627"/><path d="m394.549 218.799c-.982 4.142-5.076 6.756-9.269 6.024-12.649-2.207-40.04-2.73-50.188 30.705-6.607 21.769 8.223 29.364-3.755 58.717-6.059 14.847-9.002 27.104-10.321 36.604-1.013 7.301-11.093 8.28-13.501 1.313-4.174-12.076-5.95-28.734 1.52-49.269 7.062-19.413-5.935-32.903-6.557-53.789-1.037-34.81 17.849-59.822 57.053-59.822 36.679.002 37.593 18.658 35.018 29.517z" fill="#fc9744"/></g></g></g></g></g><g><g><g><path d="m320.904 89.485c17.881-17.926 17.869-46.953-.04-64.862-16.074-16.074-41.104-17.731-59.026-4.974-3.477 2.475-8.197 2.475-11.675 0-17.922-12.758-42.952-11.101-59.026 4.974-17.909 17.909-17.922 46.936-.04 64.862l58.676 58.678c3.44 3.44 9.016 3.44 12.456 0z" fill="#fb4a59"/><path d="m320.907 89.484-58.676 58.676c-3.444 3.444-9.019 3.444-12.463 0l-11.644-11.644 55.999-55.999c17.879-17.924 17.871-46.953-.044-64.859-1.638-1.647-3.373-3.135-5.188-4.483 11.582.123 23.138 4.606 31.972 13.449 17.906 17.906 17.924 46.936.044 64.86z" fill="#f82f40"/></g></g><g><g><g id="XMLID_289_"><path d="m379.101 63.956c-.008 0-.016 0-.024 0l-10.888-.033c-4.267-.013-7.716-3.483-7.703-7.749.013-4.26 3.47-7.703 7.726-7.703h.024l10.888.033c4.267.013 7.716 3.483 7.703 7.75-.013 4.258-3.47 7.702-7.726 7.702z" fill="#fb6672"/></g><g id="XMLID_288_"><path d="m363.581 36.709c-2.627 0-5.189-1.34-6.636-3.758-2.192-3.661-1.002-8.406 2.659-10.599l9.445-5.656c3.661-2.193 8.405-1.002 10.598 2.659 2.192 3.661 1.002 8.406-2.659 10.599l-9.445 5.656c-1.243.745-2.611 1.099-3.962 1.099z" fill="#fb6672"/></g><g id="XMLID_98_"><path d="m372.828 96.823c-1.366 0-2.749-.362-4.001-1.123l-9.413-5.713c-3.648-2.213-4.81-6.966-2.597-10.614 2.214-3.647 6.967-4.81 10.614-2.596l9.413 5.713c3.648 2.213 4.81 6.966 2.597 10.614-1.454 2.395-4.002 3.719-6.613 3.719z" fill="#fb6672"/></g></g><g><g id="XMLID_292_"><path d="m132.899 63.956c-4.257 0-7.713-3.444-7.726-7.703-.013-4.267 3.436-7.736 7.703-7.75l10.888-.033h.024c4.257 0 7.713 3.444 7.726 7.703.013 4.267-3.436 7.736-7.703 7.749l-10.888.033c-.008.001-.016.001-.024.001z" fill="#fb6672"/></g><g id="XMLID_291_"><path d="m148.419 36.709c-1.351 0-2.719-.354-3.962-1.099l-9.445-5.656c-3.661-2.192-4.852-6.938-2.659-10.599 2.191-3.661 6.936-4.852 10.598-2.659l9.445 5.656c3.661 2.192 4.852 6.938 2.659 10.599-1.447 2.418-4.009 3.758-6.636 3.758z" fill="#fb6672"/></g><g id="XMLID_290_"><path d="m139.172 96.823c-2.611 0-5.159-1.323-6.613-3.718-2.214-3.648-1.051-8.4 2.597-10.614l9.413-5.713c3.648-2.216 8.4-1.052 10.614 2.596s1.051 8.4-2.597 10.614l-9.413 5.713c-1.252.76-2.636 1.122-4.001 1.122z" fill="#fb6672"/></g></g></g></g></g></svg>