<svg height="512" viewBox="0 0 256 256" width="512" xmlns="http://www.w3.org/2000/svg"><path d="m169.952 62.3c0-.017-3.258-21.71-3.258-21.728a8.149 8.149 0 0 0 .046-.917v-8.18a8.724 8.724 0 1 0 -17.448 0v-5.711a8.725 8.725 0 0 0 -17.449 0v-5.487a8.724 8.724 0 0 0 -17.448 0v-4.491a8.714 8.714 0 0 0 -8.719-8.718h-.011a8.715 8.715 0 0 0 -8.719 8.718v22.356h-.011a14.1 14.1 0 0 0 -13.02 12.539c-1.17 10.428-.689 6.126-2.088 18.814a14.192 14.192 0 0 0 1.939 8.833c6.561 10.909 4.7 7.468 14.075 25.513 2.662 5.162 2.272 9.131 2.272 13.433h55.167v-15.039a12.6 12.6 0 0 1 2.673-7.778l5.254-6.814a33.772 33.772 0 0 0 6.745-25.343z" fill="#ffb69f"/><path d="m159.085 117.268h-62.775a5.737 5.737 0 0 0 -5.736 5.732v21h74.246v-21a5.736 5.736 0 0 0 -5.735-5.732z" fill="#fc5d3d"/><path d="m88.043 144h79.309a2.926 2.926 0 0 1 2.926 2.926v99.504a0 0 0 0 1 0 0h-85.161a0 0 0 0 1 0 0v-99.507a2.926 2.926 0 0 1 2.926-2.923z" fill="#4c4945"/><path d="m215.114 145.293a12.857 12.857 0 1 0 12.526 15.707 12.871 12.871 0 0 0 -12.526-15.707z" fill="#ffb69f"/><g fill="#72c1e8"><path d="m240.918 240.25a8.324 8.324 0 1 1 -16.632.707l-.685-15.948a8.5 8.5 0 0 0 -16.974 0l-.685 15.948a8.324 8.324 0 1 1 -16.632-.707c1.572-36.849 2.866-66.853 2.875-67.066a13.029 13.029 0 0 1 10.403-12.184 12.844 12.844 0 0 0 25.052 0 13.018 13.018 0 0 1 10.4 12.183c.011.185 1.303 30.141 2.878 67.067z"/><path d="m232.29 119.669a7.014 7.014 0 1 1 9.92 9.92c-2.739 2.739-14.466 4.546-14.466 4.546s1.807-11.727 4.546-14.466z"/><path d="m206.226 115.853a7.015 7.015 0 1 1 14.029 0c0 3.873-7.014 13.444-7.014 13.444s-7.015-9.571-7.015-13.444z"/></g><path d="m40.888 145.293a12.857 12.857 0 1 0 12.526 15.707 12.87 12.87 0 0 0 -12.526-15.707z" fill="#ffb69f"/><path d="m66.693 240.25a8.324 8.324 0 1 1 -16.633.707l-.684-15.948a8.5 8.5 0 0 0 -16.975 0l-.684 15.948a8.324 8.324 0 1 1 -16.633-.707c1.572-36.849 2.866-66.853 2.875-67.066a13.031 13.031 0 0 1 10.404-12.184 12.843 12.843 0 0 0 25.051 0 13.018 13.018 0 0 1 10.4 12.183c.012.185 1.304 30.141 2.879 67.067z" fill="#72c1e8"/><path d="m23.71 119.669a7.014 7.014 0 1 0 -9.92 9.92c2.739 2.739 14.466 4.546 14.466 4.546s-1.807-11.727-4.546-14.466z" fill="#72c1e8"/><path d="m49.774 115.853a7.015 7.015 0 1 0 -14.029 0c0 3.873 7.014 13.444 7.014 13.444s7.015-9.571 7.015-13.444z" fill="#72c1e8"/><path d="m152.491 133.133h-4.86a2.5 2.5 0 0 1 0-5h4.86a2.5 2.5 0 0 1 0 5zm-14.86 0h-35a2.5 2.5 0 0 1 0-5h35a2.5 2.5 0 0 1 0 5z" fill="#ffcbc2"/><path d="m147.3 91.811a2.5 2.5 0 0 1 -.735-3.458c.543-.838 1.139-1.686 1.822-2.594a2.5 2.5 0 0 1 4 3c-.612.816-1.144 1.571-1.625 2.313a2.5 2.5 0 0 1 -3.462.739zm7.793-10.39a2.5 2.5 0 0 1 -.792-3.446c3.215-5.133 3.469-10.471 2.548-16.6a2.5 2.5 0 1 1 4.943-.745c1.111 7.366.648 13.769-3.253 20a2.5 2.5 0 0 1 -3.448.791z" fill="#fbe0e2"/><path d="m159.805 238.1a2.5 2.5 0 0 1 -2.5-2.5v-.916a2.5 2.5 0 0 1 5 0v.916a2.5 2.5 0 0 1 -2.5 2.5zm0-10.916a2.5 2.5 0 0 1 -2.5-2.5v-66.139h-39.859a2.5 2.5 0 0 1 0-5h42.359a2.5 2.5 0 0 1 2.5 2.5v68.642a2.5 2.5 0 0 1 -2.5 2.5z" fill="#7c7b7a"/><path d="m147.71 60.729a2.5 2.5 0 0 0 -.37-3.51 2.558 2.558 0 0 0 -3.51.361c-7.591 9.568-12.6 22.587-9.06 34.359a2.5 2.5 0 0 0 4.79-1.439c-3.268-10.832 2.569-23 8.15-29.771z"/><path d="m82.08 67.219a2.5 2.5 0 1 0 -2.221-2.76 2.5 2.5 0 0 0 2.221 2.76z"/><path d="m167.32 141.5v-18.5a8.244 8.244 0 0 0 -8.235-8.236h-1.305v-12.524a10.155 10.155 0 0 1 2.14-6.24l5.269-6.831a36.462 36.462 0 0 0 7.241-27.21l-3.22-21.483c.018-.257.03-.524.03-.819v-8.18a11.2 11.2 0 0 0 -17.94-8.977 11.2 11.2 0 0 0 -17.506-5.66 11.211 11.211 0 0 0 -17.739-5.273 11.216 11.216 0 0 0 -21.605 4.223v20.2a16.574 16.574 0 0 0 -13.02 14.42c-.18 1.609-.321 2.88-.44 3.909a2.5 2.5 0 1 0 4.94.79c.08-.687.388-3.361.469-4.15a11.587 11.587 0 0 1 10.58-10.31l17.331.6a5.5 5.5 0 0 1 5 3.759c.093.273 3.535 10.674 3.631 10.9a5.472 5.472 0 0 1 -5.185 7.24h-4.1a41.192 41.192 0 0 0 -6.333-13.133 2.559 2.559 0 0 0 -3.509-.35 2.484 2.484 0 0 0 -.36 3.51s7.909 9.874 7.279 26.46a2.5 2.5 0 0 0 5 .16 52.985 52.985 0 0 0 -.878-11.647h2.905a10.475 10.475 0 0 0 9.9-13.911c-.009-.026-.2-.562-1.288-3.842a11.479 11.479 0 0 0 5.485-3.68 11.227 11.227 0 0 0 17.44 0 11.249 11.249 0 0 0 16.013 1.485l2.169 14.439v.01a31.366 31.366 0 0 1 -6.25 23.46l-5.239 6.8h-.011a15.228 15.228 0 0 0 -3.2 9.33v12.528h-50.152c.008-4.09-.3-7.723-2.567-12.079-9.701-18.688-7.673-14.833-14.15-25.648a11.715 11.715 0 0 1 -1.28-3.031 2.531 2.531 0 0 0 -3.061-1.769 2.487 2.487 0 0 0 -1.769 3.05v.01a16.686 16.686 0 0 0 1.82 4.31c6.6 10.93 5.152 8.372 14 25.381 1.9 3.735 2.013 6.464 2.007 9.778h-1.317a8.245 8.245 0 0 0 -8.236 8.231v18.5h-.034a5.423 5.423 0 0 0 -5.42 5.419v99.51a2.5 2.5 0 0 0 5 0v-99.51a.422.422 0 0 1 .42-.419h79.31a.424.424 0 0 1 .43.419v41.991a2.5 2.5 0 0 0 5 0v-41.991a5.431 5.431 0 0 0 -5.46-5.419zm-9.3-116.252a6.231 6.231 0 0 1 6.219 6.229v8.18a6.224 6.224 0 1 1 -12.448 0v-8.18a6.236 6.236 0 0 1 6.23-6.229zm-17.448-5.7a6.225 6.225 0 0 1 6.219 6.218c0 8.6 0 13.925 0 13.9a6.224 6.224 0 1 1 -12.447 0v-13.902a6.231 6.231 0 0 1 6.229-6.218zm-17.46-5.487a6.231 6.231 0 0 1 6.23 6.218c0 .622 0 19.984 0 19.383a6.251 6.251 0 0 1 -4.545 5.985c-.116-.341-.733-2.2-.735-2.206a10.548 10.548 0 0 0 -7.165-6.818v-16.346a6.225 6.225 0 0 1 6.216-6.218zm-17.452-4.492v-.05l.02.05a6.239 6.239 0 0 1 6.21 6.221v20.369l-12.451-.433v-19.936a6.256 6.256 0 0 1 6.221-6.221zm-12.586 113.431a3.239 3.239 0 0 1 3.236-3.236h62.775a3.239 3.239 0 0 1 3.235 3.236v18.5h-69.246z"/><circle cx="170.28" cy="198.91" r="2.5"/><path d="m170.28 206.41a2.5 2.5 0 0 0 -2.5 2.5v37.519a2.5 2.5 0 0 0 5 0v-37.519a2.5 2.5 0 0 0 -2.5-2.5z"/><path d="m238.06 231.819a2.5 2.5 0 0 0 4.99-.21 2.5 2.5 0 1 0 -4.99.21z"/><path d="m240.8 237.75a2.507 2.507 0 0 0 -2.38 2.609 5.825 5.825 0 0 1 -11.64.5l-.68-15.96a11 11 0 0 0 -21.97 0l-.691 15.95a5.82 5.82 0 1 1 -11.629-.49c.508-11.974.987-23.171 1.4-32.87a8.789 8.789 0 0 0 12.878-6.988l1.612-18.254a2.5 2.5 0 1 0 -4.98-.44l-1.613 18.255a3.787 3.787 0 0 1 -7.556-.5v-.01c.006-.147 1.127-26.119 1.127-26.266a10.574 10.574 0 0 1 6.293-9.167 15.344 15.344 0 0 0 28.278 0 10.6 10.6 0 0 1 6.3 9.179c0 .107.438 10.328 1.125 26.3a3.786 3.786 0 0 1 -7.556.46l-1.612-18.255a2.5 2.5 0 0 0 -4.981.44l1.613 18.255a8.788 8.788 0 0 0 12.875 6.988c.192 4.476.4 9.272.616 14.329a2.5 2.5 0 1 0 4.99-.21c0-.034-2.08-48.5-2.08-48.529a15.494 15.494 0 0 0 -10.126-13.876 15.329 15.329 0 1 0 -30.581 0 15.5 15.5 0 0 0 -10.143 13.871c-.009.181-1.29 29.78-2.879 67.03a10.825 10.825 0 1 0 21.629.96l.681-15.939a5.976 5.976 0 0 1 5.989-5.731h.011a6.008 6.008 0 0 1 5.98 5.72l.69 15.95a10.825 10.825 0 1 0 21.63-.92 2.517 2.517 0 0 0 -2.62-2.391zm-25.686-89.958a10.351 10.351 0 0 1 10.086 12.655 10.171 10.171 0 0 1 -1.509 3.466 10.328 10.328 0 0 1 -18.661-3.466v-.015a10.37 10.37 0 0 1 10.084-12.64z"/><path d="m243.978 117.9a9.523 9.523 0 0 0 -13.456 0c-3.079 3.078-4.795 12.912-5.249 15.852a2.5 2.5 0 0 0 2.852 2.852c2.94-.453 12.774-2.171 15.853-5.25a9.523 9.523 0 0 0 0-13.454zm-3.536 9.919c-1.046 1.046-5.279 2.32-9.593 3.212.9-4.332 2.192-8.579 3.209-9.6a4.514 4.514 0 1 1 6.384 6.384z"/><path d="m203.727 115.852c0 4.354 5.738 12.523 7.5 14.922a2.5 2.5 0 0 0 4.033 0c1.759-2.4 7.5-10.568 7.5-14.922a9.514 9.514 0 1 0 -19.028 0zm14.028 0c0 1.481-2.093 5.374-4.514 9.056-2.426-3.7-4.514-7.618-4.514-9.056a4.514 4.514 0 1 1 9.028 0z"/><path d="m66.314 173.072a15.49 15.49 0 0 0 -10.126-13.872 15.329 15.329 0 1 0 -30.582 0 15.5 15.5 0 0 0 -10.145 13.882c-.5 11.655-1.758 40.881-2.873 67.02a10.824 10.824 0 1 0 21.627.964l.684-15.949a5.977 5.977 0 0 1 5.99-5.729 6.038 6.038 0 0 1 5.989 5.73l.684 15.943a10.824 10.824 0 1 0 21.628-.917c-.134-3.161-2.807-65.696-2.876-67.072zm-25.425-25.28a10.357 10.357 0 1 1 -10.089 12.665 10.352 10.352 0 0 1 10.089-12.665zm17.487 98.639a5.8 5.8 0 0 1 -5.817-5.581l-.685-15.941a11 11 0 0 0 -21.974-.009l-.684 15.953a5.824 5.824 0 1 1 -11.637-.5c.509-11.934.989-23.149 1.4-32.867a8.789 8.789 0 0 0 12.886-6.986l1.613-18.254a2.5 2.5 0 0 0 -4.981-.44l-1.612 18.255a3.788 3.788 0 0 1 -7.557-.5l1.128-26.27a10.512 10.512 0 0 1 6.287-9.177 15.308 15.308 0 0 0 14.146 9.386 15.515 15.515 0 0 0 14.14-9.39 10.511 10.511 0 0 1 6.291 9.19c.011.235.455 10.533 1.13 26.281a3.787 3.787 0 0 1 -7.556.481l-1.613-18.255a2.5 2.5 0 1 0 -4.98.44l1.612 18.253a8.789 8.789 0 0 0 12.876 6.988c.418 9.74.9 20.959 1.405 32.866v.008a5.805 5.805 0 0 1 -5.818 6.069z"/><path d="m30.727 133.754c-.454-2.94-2.17-12.774-5.249-15.852a9.514 9.514 0 1 0 -13.456 13.454c3.079 3.079 12.913 4.8 15.853 5.25a2.5 2.5 0 0 0 2.852-2.852zm-15.169-5.933a4.514 4.514 0 1 1 6.384-6.384c1.047 1.047 2.321 5.281 3.212 9.6-4.315-.896-8.554-2.169-9.596-3.216z"/><path d="m42.76 106.338a9.526 9.526 0 0 0 -9.515 9.514c0 4.354 5.739 12.523 7.5 14.922a2.5 2.5 0 0 0 4.033 0c1.759-2.4 7.5-10.568 7.5-14.922a9.524 9.524 0 0 0 -9.518-9.514zm0 18.572c-2.421-3.682-4.515-7.577-4.515-9.058a4.514 4.514 0 1 1 9.028 0c0 1.481-2.092 5.376-4.513 9.058z"/><path d="m208.27 30.359a2.558 2.558 0 0 0 -3.2 1.511l-29.21 81.139a2.5 2.5 0 1 0 4.7 1.691l29.21-81.141a2.5 2.5 0 0 0 -1.5-3.2z"/><path d="m202.84 89.83a2.487 2.487 0 0 0 3.41-.92l18.26-31.821a2.513 2.513 0 0 0 -.93-3.41 2.558 2.558 0 0 0 -3.41.92l-18.26 31.82a2.5 2.5 0 0 0 .93 3.411z"/><path d="m50.932 31.87a2.5 2.5 0 1 0 -4.705 1.693l29.209 81.142a2.5 2.5 0 0 0 4.7-1.694z"/><path d="m49.75 88.91a2.5 2.5 0 0 0 4.34-2.491l-18.26-31.819a2.558 2.558 0 0 0 -3.41-.92 2.5 2.5 0 0 0 -.93 3.41z"/></svg>