<svg id="Capa_1" enable-background="new 0 0 512.293 512.293" height="512" viewBox="0 0 512.293 512.293" width="512" xmlns="http://www.w3.org/2000/svg"><g><g><path d="m98.761 335.247h-91.261v-21.546c0-137.323 111.323-248.646 248.646-248.646 137.324 0 248.646 111.323 248.646 248.646v21.546h-91.261z" fill="#f9f7f8"/><g><path d="m401.426 379.857h97.362c3.317 0 6.006-2.689 6.006-6.006v-50.605h-497.294v50.605c0 3.317 2.689 6.006 6.006 6.006h97.362z" fill="#a79ba7"/></g><path d="m185.638 130.482-10.672 1.167-13.228-3.972c-45.651 23.267-81.659 62.845-100.282 111.01-1.035 2.677.957 5.561 3.827 5.561h34.602c1.59 0 3.022-.927 3.701-2.364 9.842-20.808 23.951-39.6 41.616-55.07 11.265-9.865 23.694-18.099 36.925-24.582l3.51-10.429v-21.321z" fill="#ade194"/><path d="m350.556 127.676c-28.37-14.46-60.46-22.62-94.41-22.62s-66.04 8.16-94.41 22.62l19.94 33.66.45.9c22.89-11.23 48.17-17.18 74.02-17.18s51.13 5.95 74.02 17.18l7.684-1.466 15.693-22.77z" fill="#fef48b"/><g id="XMLID_201_"><g><path d="m450.836 238.686c1.04 2.68-.96 5.56-3.83 5.56h-34.6c-1.59 0-3.02-.93-3.7-2.36-9.84-20.81-23.95-39.6-41.62-55.07-11.27-9.87-23.69-18.11-36.92-24.58l.45-.9 19.94-33.66c45.65 23.26 81.66 62.85 100.28 111.01z" fill="#fd8087"/></g></g><path d="m256.146 172.333c-81.306 0-147.452 66.146-147.452 147.452 0 5.221.277 10.379.809 15.461h293.286c.532-5.083.809-10.24.809-15.461.001-81.305-66.146-147.452-147.452-147.452z" fill="#efedef"/><path d="m364.943 252 25.952-57.308c1.845-4.074-2.287-8.286-6.396-6.519l-57.795 24.85-15.568 14.412 40.105 40.97z" fill="#918291"/><path d="m121.497 379.857h269.299c7.777-17.365 12.293-36.495 12.759-56.61h-294.817c.466 20.115 4.982 39.246 12.759 56.61z" fill="#918291"/><circle cx="256.146" cy="319.786" fill="#fd8087" r="127.452"/><g fill="#fe646f"><path d="m176.186 319.786c0-62.274 44.685-114.118 103.726-125.245-7.694-1.45-15.649-2.208-23.765-2.208-70.39 0-127.452 57.062-127.452 127.452s57.062 127.452 127.452 127.452c8.116 0 16.079-.763 23.774-2.213-59.042-11.126-103.735-62.964-103.735-125.238z"/><path d="m308.468 388.51c-34.881 7.311-69.762 7.311-104.643 0-2.669-.56-4.593-2.898-4.593-5.626 0-27.527 22.315-49.842 49.842-49.842h14.144c27.527 0 49.842 22.315 49.842 49.842.001 2.728-1.923 5.067-4.592 5.626z"/></g></g><g><path d="m478.779 186.957c-21.258-37.255-51.803-68.859-88.334-91.396-3.522-2.175-8.146-1.081-10.32 2.445-2.175 3.525-1.08 8.146 2.445 10.321 34.4 21.223 63.164 50.983 83.181 86.064 20.635 36.163 31.542 77.42 31.542 119.311v3.045h-83.762c-4.143 0-7.5 3.358-7.5 7.5s3.357 7.5 7.5 7.5h83.762v40.61h-95.867c-4.143 0-7.5 3.358-7.5 7.5s3.357 7.5 7.5 7.5h97.362c7.446 0 13.505-6.059 13.505-13.506v-60.15c0-44.493-11.589-88.321-33.514-126.744z"/><path d="m412.055 231.838c-1.932-3.663-6.467-5.067-10.133-3.135-3.664 1.933-5.067 6.469-3.135 10.133 1.173 2.223 2.2 4.27 3.146 6.269 1.918 4.034 6.028 6.641 10.474 6.641h34.601c3.833 0 7.415-1.889 9.581-5.054 2.158-3.154 2.622-7.163 1.243-10.711-19.269-49.84-56.157-90.677-103.868-114.987-30.514-15.552-63.424-23.438-97.816-23.438s-67.303 7.886-97.815 23.438c-47.714 24.31-84.603 65.147-103.867 114.976-1.383 3.559-.919 7.567 1.239 10.722 2.166 3.165 5.748 5.054 9.581 5.054h34.601c4.445 0 8.556-2.606 10.479-6.654 9.535-20.163 22.919-37.871 39.782-52.634 10.697-9.369 22.564-17.27 35.282-23.489 21.886-10.738 46.339-16.414 70.716-16.414s48.83 5.676 70.725 16.418c5.359 2.62 10.74 5.655 15.994 9.02 3.485 2.233 8.126 1.217 10.36-2.27 2.234-3.488 1.218-8.127-2.271-10.361-3.414-2.187-6.883-4.23-10.367-6.145l12.764-21.551c39.946 22.121 71.129 56.949 88.627 99.078h-27.423c-.772-1.575-1.598-3.195-2.5-4.906zm-271.788-50.665c-17.882 15.654-32.185 34.346-42.532 55.573h-27.42c17.493-42.123 48.679-76.955 88.627-99.078l12.762 21.548c-11.216 6.14-21.771 13.492-31.437 21.957zm44.926-28.617-12.838-21.677c26.335-12.151 54.481-18.323 83.792-18.323s57.456 6.173 83.792 18.323l-12.839 21.677c-22.26-9.82-46.638-15-70.954-15-24.318 0-48.698 5.181-70.953 15z"/><path d="m110.867 372.357h-95.867v-40.61h83.762c4.143 0 7.5-3.358 7.5-7.5s-3.357-7.5-7.5-7.5h-83.762v-3.045c0-64.413 25.084-124.97 70.63-170.516 45.547-45.547 106.104-70.63 170.517-70.63 34.159 0 67.182 7.006 98.149 20.822 3.783 1.689 8.217-.01 9.905-3.793s-.011-8.217-3.794-9.905c-32.903-14.681-67.981-22.124-104.261-22.124-68.42 0-132.743 26.644-181.123 75.023-48.379 48.379-75.023 112.703-75.023 181.123v60.15c0 7.447 6.059 13.506 13.505 13.506h97.362c4.143 0 7.5-3.358 7.5-7.5s-3.357-7.501-7.5-7.501z"/><path d="m397.728 197.785c2.128-4.698 1.169-10.113-2.443-13.795s-9.008-4.745-13.748-2.708l-54.771 23.55c-20.556-12.675-44.747-19.999-70.619-19.999-22.322 0-44.447 5.57-63.98 16.108-3.646 1.966-5.007 6.516-3.04 10.162 1.966 3.645 6.518 5.007 10.161 3.04 17.354-9.361 37.015-14.309 56.859-14.309 66.142 0 119.952 53.81 119.952 119.952s-53.811 119.952-119.952 119.952-119.952-53.81-119.952-119.952c0-33.137 13.911-65.116 38.167-87.736 3.029-2.825 3.194-7.571.37-10.6-2.824-3.028-7.57-3.196-10.601-.37-27.287 25.447-42.937 61.424-42.937 98.706 0 74.413 60.539 134.952 134.952 134.952s134.952-60.539 134.952-134.952c0-24.543-6.589-47.575-18.086-67.426zm-56.641 17.217 40.206-17.287-18.108 39.985c-6.457-8.4-13.878-16.022-22.098-22.698z"/><path d="m229.512 294.048-42.347-31.651c-3.318-2.48-8.019-1.802-10.498 1.517-2.479 3.318-1.8 8.018 1.518 10.498l16.471 12.311v11.263c0 4.142 3.357 7.5 7.5 7.5s7.5-3.358 7.5-7.5v-.051l10.876 8.129c1.348 1.007 2.922 1.493 4.484 1.493 2.284 0 4.541-1.04 6.014-3.01 2.479-3.319 1.799-8.02-1.518-10.499z"/><path d="m311.138 305.485c4.143 0 7.5-3.358 7.5-7.5v-11.263l16.471-12.311c3.317-2.479 3.997-7.18 1.518-10.498-2.48-3.316-7.178-3.996-10.498-1.517l-42.347 31.651c-3.317 2.479-3.997 7.18-1.518 10.498 1.474 1.97 3.729 3.01 6.014 3.01 1.562 0 3.137-.486 4.484-1.493l10.876-8.129v.051c0 4.143 3.357 7.501 7.5 7.501z"/><path d="m249.074 325.543c-31.618 0-57.342 25.724-57.342 57.342 0 6.231 4.438 11.684 10.554 12.966 5.422 1.137 11.14 2.139 16.997 2.979 4.096.588 7.901-2.259 8.488-6.359.588-4.1-2.259-7.901-6.359-8.489-5.039-.723-9.962-1.571-14.656-2.524.755-22.689 19.448-40.914 42.318-40.914h14.145c22.87 0 41.563 18.225 42.318 40.915-17.578 3.581-35.427 5.259-53.111 4.987-4.177-.041-7.552 3.242-7.614 7.384-.063 4.142 3.242 7.551 7.384 7.614 1.309.02 2.617.03 3.928.03 17.961 0 36.069-1.888 53.883-5.622 6.116-1.282 10.555-6.734 10.555-12.966 0-31.618-25.724-57.342-57.342-57.342h-14.146z"/></g></g></svg>