<?xml version="1.0" encoding="iso-8859-1"?>
<!-- Generator: Adobe Illustrator 19.0.0, SVG Export Plug-In . SVG Version: 6.00 Build 0)  -->
<svg version="1.1" id="Layer_1" xmlns="http://www.w3.org/2000/svg" xmlns:xlink="http://www.w3.org/1999/xlink" x="0px" y="0px"
	 viewBox="0 0 512 512" style="enable-background:new 0 0 512 512;" xml:space="preserve">
<rect x="38.993" y="10" style="fill:#884024;" width="434.01" height="492"/>
<rect x="74.02" y="45.01" style="fill:#D98325;" width="363.97" height="421.98"/>
<path style="fill:#FFB35E;" d="M241.018,290.966v28.597c0,0-35.911,7.531-93.214,64.835c26.196,37.329,80.016,35.991,116.035,31.407
	c23.577-28.816,53.584-52.792,93.315-52.792c0,0-46.02,6.868-65.49-25.768c0-48.353,0-102.71,0-102.71
	S284.502,290.966,241.018,290.966z"/>
<g>
	<path style="fill:#1C237A;" d="M230.751,146.74c0,0-50.203,2.548-50.203,64.865c0,47.808,0,142.365,0,142.365
		s41.082-27.967,60.469-34.406C241.018,296.096,230.751,146.74,230.751,146.74z"/>
	<path style="fill:#1C237A;" d="M96.066,466.916c0,0,132.945,0,316.973,0c0-79.025-25.323-103.903-55.885-103.903
		c-39.731,0-69.739,23.976-93.315,52.792c-35.666,4.539-88.767,5.872-115.239-30.343C109.277,425.024,96.066,466.916,96.066,466.916
		z"/>
</g>
<path style="fill:#FFB35E;" d="M241.018,153c-27.971,0-50.646,30.885-50.646,68.983s22.675,68.983,50.646,68.983
	c27.971,0,50.646-30.885,50.646-68.983C291.664,192.622,275.333,153,241.018,153z"/>
<path style="fill:#1C237A;" d="M241.018,153c23.577,0,50.646,15.281,50.646,71.603c0,61.997,0,112.643,0,112.643
	s13.971,31.007,65.49,25.768V222.745c0-61.5-30.235-93.104-90.486-87.865c-47.153,6.876-58.158,34.212-58.158,34.212"/>
<path d="M473.007,0H38.993c-5.523,0-10,4.477-10,10v492c0,5.523,4.477,10,10,10h434.014c5.523,0,10-4.477,10-10V10
	C483.007,4.477,478.53,0,473.007,0z M463.007,492H48.993V20h414.014L463.007,492L463.007,492z"/>
<path d="M148.852,55.011h0.131c5.523,0,9.999-4.477,10-9.999v-0.001c0-5.523-4.477-10-10-10h-0.131c-5.523,0-10,4.477-10,10v0.001
	C138.853,50.534,143.33,55.011,148.852,55.011z"/>
<path d="M74.017,476.917h22.049h316.973h24.944c5.523,0,10-4.477,10-10V45.012c0-5.523-4.477-10-10-10H183.34
	c-5.523,0-10,4.477-10,10l0,0c0,5.523,4.477,10,10,10h244.643v401.904h-5.088c-0.973-33.776-6.973-59.624-17.88-76.92
	c-9.231-14.639-22.198-23.534-37.862-26.151v-131.1c0-34.938-9.269-61.15-27.55-77.911c-17.408-15.96-42.237-22.663-73.802-19.917
	c-0.193,0.017-0.385,0.039-0.577,0.067c-22.085,3.221-37.194,10.696-47.32,18.353c-4.069,1.828-8.404,4.146-12.736,7.084
	c-15.794,10.715-34.621,31.828-34.621,71.56v128.097c-9.187,7.595-19.145,16.578-29.794,27.226c-0.025,0.025-0.05,0.05-0.075,0.075
	c-0.046,0.047-0.092,0.095-0.137,0.142c-30.709,32.199-45.918,65.287-51.474,79.394h-5.052V55.012H114.5c5.523,0,10-4.477,10-10l0,0
	c0-5.523-4.477-10-10-10H74.017c-5.523,0-10,4.477-10,10v421.904C64.017,472.439,68.494,476.917,74.017,476.917z M326.088,159.577
	c13.978,12.815,21.065,34.068,21.065,63.168v130.854c-30.276,0.449-42.274-14-45.49-18.968V224.602
	c0-28.079-6.402-49.473-19.028-63.588c-6.891-7.705-14.679-12.259-22.202-14.86c2.341-0.503,4.803-0.952,7.391-1.335
	C293.428,142.641,313.032,147.606,326.088,159.577z M213.267,179.122C220.9,168.725,230.755,163,241.018,163
	c25.858,0,40.245,21.305,40.628,60.02c-0.19,15.919-4.738,30.739-12.876,41.824c-7.633,10.396-17.489,16.123-27.751,16.123
	c-10.262,0-20.118-5.726-27.751-16.123c-8.315-11.326-12.895-26.548-12.895-42.861S204.952,190.448,213.267,179.122z M243.07,329.35
	c4.631-0.971,7.947-5.055,7.947-9.787v-19.657c11.454-2.42,22.004-9.001,30.646-19.174v56.514c0,1.417,0.301,2.817,0.883,4.108
	c0.422,0.937,6.893,14.702,25.061,23.947c-16.979,8.834-33.206,22.466-48.917,41.056c-46.957,5.406-78.964-1.538-97.401-21.18
	C211.397,336.993,242.824,329.407,243.07,329.35z M197.145,276.679c9.176,12.498,20.955,20.498,33.873,23.227v12.377
	c-8.056,3.039-21.944,9.47-40.469,22.485v-68.833C192.492,269.728,194.686,273.33,197.145,276.679z M147.462,399.642
	c12.929,13.35,30.676,22.085,52.932,26.024c18.342,3.248,39.508,3.266,64.708,0.059c2.539-0.323,4.856-1.607,6.477-3.587
	c24.109-29.468,48.973-45.424,75.721-48.544c3.242-0.046,6.634-0.229,10.179-0.571c28.561,0.215,43.823,28.418,45.42,83.893h-292.11
	C116.746,443.628,128.26,421.843,147.462,399.642z"/>
<g>
</g>
<g>
</g>
<g>
</g>
<g>
</g>
<g>
</g>
<g>
</g>
<g>
</g>
<g>
</g>
<g>
</g>
<g>
</g>
<g>
</g>
<g>
</g>
<g>
</g>
<g>
</g>
<g>
</g>
</svg>
