<?xml version="1.0"?>
<svg xmlns="http://www.w3.org/2000/svg" id="Layer_1" enable-background="new 0 0 512 512" height="512px" viewBox="0 0 512 512" width="512px" class=""><g><g><g><g><g id="XMLID_3349_"><g id="XMLID_3350_"><g id="XMLID_3367_"><g id="XMLID_3368_"><g id="XMLID_3369_"><g id="XMLID_3370_"><g id="XMLID_3371_"><g id="XMLID_3372_"><g id="XMLID_3373_"><g id="XMLID_3374_"><g id="XMLID_3375_"><g id="XMLID_3376_"><g id="XMLID_3377_"><g id="XMLID_3378_"><g id="XMLID_3379_"><circle cx="256" cy="256" fill="#4f4359" r="256" data-original="#4F4359" class="" style="fill:#000000" data-old_color="#4f4359"/></g></g></g></g></g></g></g></g></g></g></g></g></g></g></g></g></g><g><path d="m511.98 257.604-125.738-125.737-254.376 254.376 125.737 125.737c140.11-.862 253.515-114.266 254.377-254.376z" fill="#372a44" data-original="#372A44" class="" data-old_color="#372a44" style="fill:#000000"/><g><g><g><g id="XMLID_3320_"><g id="XMLID_3321_"><g id="XMLID_3322_"><g id="XMLID_3336_"><g id="XMLID_3337_"><g id="XMLID_3338_"><g id="XMLID_3339_"><g id="XMLID_3340_"><g id="XMLID_3341_"><g id="XMLID_3342_"><g id="XMLID_3343_"><g id="XMLID_3344_"><g id="XMLID_3345_"><g id="XMLID_3346_"><g id="XMLID_3347_"><circle cx="255.999" cy="256" fill="#fed940" r="179.923" data-original="#FED940" class="active-path" data-old_color="#fed940" style="fill:#FFA200"/></g></g></g></g></g></g></g></g></g></g></g></g></g></g></g></g></g><g><g><g id="XMLID_3244_"><g id="XMLID_3245_"><g id="XMLID_3246_"><g id="XMLID_3247_"><g id="XMLID_3248_"><g id="XMLID_3249_"><g id="XMLID_3250_"><g id="XMLID_3251_"><g id="XMLID_3291_"><g id="XMLID_3307_"><g id="XMLID_3308_"><g id="XMLID_3309_"><g id="XMLID_3310_"><g id="XMLID_3311_"><g><path d="m435.923 256c0 99.367-80.557 179.924-179.924 179.924v-359.848c99.368 0 179.924 80.557 179.924 179.924z" fill="#ffc024" data-original="#FFC024" class="" data-old_color="#ffc024" style="fill:#FFA200"/></g></g></g></g></g></g></g></g></g></g></g></g></g></g></g></g></g><g><circle cx="193.811" cy="185" fill="#7f6866" r="28.644" data-original="#7F6866" class="" data-old_color="#7f6866" style="fill:#000000"/><circle cx="318.189" cy="185" fill="#634c4c" r="28.644" data-original="#634C4C" class="" data-old_color="#634c4c" style="fill:#000000"/></g><g><path d="m329.449 353.377h-146.9c-20.237 0-36.794-16.558-36.794-36.794v-21.026c0-20.237 16.557-36.794 36.794-36.794h146.9c20.237 0 36.794 16.557 36.794 36.794v21.026c.001 20.237-16.557 36.794-36.794 36.794z" fill="#fff" data-original="#FFF" class=""/><path d="m366.24 295.56v21.02c0 20.24-16.55 36.8-36.79 36.8h-73.45v-94.62h73.45c20.24 0 36.79 16.56 36.79 36.8z" fill="#efe8e6" data-original="#EFE8E6" class=""/><g><g><path d="m194.4 258.76h30v94.62h-30z" fill="#efe8e6" data-original="#EFE8E6" class=""/></g><g><path d="m287.6 258.76h30v94.62h-30z" fill="#e0d4d1" data-original="#E0D4D1" class=""/></g></g></g></g></g></g></g> </svg>
