<svg height="512" viewBox="0 0 52 59" width="512" xmlns="http://www.w3.org/2000/svg"><g id="Page-1" fill="none" fill-rule="evenodd"><g id="051---Survival-Guide" fill-rule="nonzero" transform="translate(-1)"><path id="Shape" d="m53 43v14c-.0032948 1.1032019-.8967981 1.9967052-2 2h-43c-3.75067297-.000293-6.83181997-2.9622553-6.98-6.71.01729172-.7322075.09758819-1.4615672.24-2.18.00234825-.0168486.00568737-.0335442.01-.05.87030247-2.9943501 3.61174103-5.0555209 6.73-5.06h43c1.1032019-.0032948 1.9967052-.8967981 2-2z" fill="#f5efca"/><path id="Shape" d="m53 3v40c0 1.6568542-1.3431458 3-3 3h-43c-3.3137085 0-6 2.6862915-6 6v-46c0-3.3137085 2.6862915-6 6-6h43c1.6568542 0 3 1.34314575 3 3z" fill="#3b97d3"/><path id="Shape" d="m53 49v2h-34c-.5522847 0-1-.4477153-1-1s.4477153-1 1-1z" fill="#e4c05c"/><path id="Shape" d="m12 51h-5c-.55228475 0-1-.4477153-1-1s.44771525-1 1-1h5c.5522847 0 1 .4477153 1 1s-.4477153 1-1 1z" fill="#e4c05c"/><path id="Shape" d="m41 55h-34c-.55228475 0-1-.4477153-1-1s.44771525-1 1-1h34c.5522847 0 1 .4477153 1 1s-.4477153 1-1 1z" fill="#e4c05c"/><path id="Shape" d="m53 53v2h-5c-.5522847 0-1-.4477153-1-1s.4477153-1 1-1z" fill="#e4c05c"/><g fill="#f3d55b"><path id="Shape" d="m23 6c-.5522847 0-1 .44771525-1 1v8c0 .5522847-.4477153 1-1 1s-1-.4477153-1-1v-8c0-.55228475-.4477153-1-1-1s-1 .44771525-1 1v8c0 1.6568542 1.3431458 3 3 3s3-1.3431458 3-3v-8c0-.55228475-.4477153-1-1-1z"/><path id="Shape" d="m33 6h-2c-.5522847 0-1 .44771525-1 1v10c0 .5522847.4477153 1 1 1h2c1.6568542 0 3-1.3431458 3-3v-6c0-1.65685425-1.3431458-3-3-3zm1 9c0 .5522847-.4477153 1-1 1h-1v-8h1c.5522847 0 1 .44771525 1 1z"/><path id="Shape" d="m27 6c-.5522847 0-1 .44771525-1 1v10c0 .5522847.4477153 1 1 1s1-.4477153 1-1v-10c0-.55228475-.4477153-1-1-1z"/><path id="Shape" d="m43 13c.5522847 0 1-.4477153 1-1s-.4477153-1-1-1h-3v-3h3c.5522847 0 1-.44771525 1-1s-.4477153-1-1-1h-4c-.5522847 0-1 .44771525-1 1v10c0 .5522847.4477153 1 1 1h4c.5522847 0 1-.4477153 1-1s-.4477153-1-1-1h-3v-3z"/><path id="Shape" d="m13 8c.5522847 0 1 .44771525 1 1s.4477153 1 1 1 1-.44771525 1-1c0-1.65685425-1.3431458-3-3-3s-3 1.34314575-3 3v6c0 1.6568542 1.3431458 3 3 3s3-1.3431458 3-3v-2c0-.5522847-.4477153-1-1-1h-1c-.5522847 0-1 .4477153-1 1s.4477153 1 1 1v1c0 .5522847-.4477153 1-1 1s-1-.4477153-1-1v-6c0-.55228475.4477153-1 1-1z"/></g><path id="Shape" d="m49 22c-1.98 4.43-7.23 9.12-14.45 10.67-2.25.49-4.02.86-5.42 1.16.0599094-.2512885.0495307-.5142157-.03-.76l-1.82-5.69c-.0761909-.2568265-.2298642-.4838439-.44-.65 6.2832773-2.0709749 12.7489376-3.5408998 19.31-4.39.98-.13 1.94-.25 2.85-.34z" fill="#bdc3c7"/><path id="Shape" d="m29.13 33.83c-.1115778.4952564-.4766975.8946061-.96 1.05l-1.58.5c-.7395846.2417942-1.5363907-.1543832-1.79-.89h-.01c0-.01-.01-.03-.01-.04l-1.81-5.68c-.0950192-.2890582-.0950192-.6009418 0-.89v-.01h.01c.1396716-.4353642.4831354-.7750947.92-.91l1.57-.51c.4745898-.1452626.9904653-.0398282 1.37.28.2101358.1661561.3638091.3931735.44.65l1.82 5.69c.0795307.2457843.0899094.5087115.03.76z" fill="#f29c1f"/><path id="Shape" d="m15.33 37.9c-1.0229977.6158236-1.9666943 1.3546608-2.81 2.2-2.43 2.56-9.11.18-7.52-3.37.66504457-1.0144773 1.58606137-1.8354585 2.67-2.38.75764127.9691207 1.70321219 1.7752369 2.78 2.37 1.4340312.9623998 3.1646846 1.3808774 4.88 1.18z" fill="#d25627"/><path id="Shape" d="m24.79 34.49c-3.3357748.5043956-6.5398568 1.659632-9.43 3.4h-.01c-.0051905.0057054-.0123214.0092708-.02.01-1.7153154.2008774-3.4459688-.2176002-4.88-1.18-1.07678781-.5947631-2.02235873-1.4008793-2.78-2.37.53-.32 1.11-.65 1.73-.97h.01c4.3931535-2.1317352 8.9231376-3.9691181 13.56-5.5-.0950192.2890582-.0950192.6009418 0 .89l1.81 5.68c0 .01.01.03.01.04z" fill="#e57e25"/><path id="Shape" d="m5 9c-.55228475 0-1-.44771525-1-1v-2c0-1.65685425 1.34314575-3 3-3h2c.55228475 0 1 .44771525 1 1s-.44771525 1-1 1h-2c-.55228475 0-1 .44771525-1 1v2c0 .55228475-.44771525 1-1 1z" fill="#fff"/><path id="Shape" d="m48 43h-3c-.5522847 0-1-.4477153-1-1s.4477153-1 1-1h3v-3c0-.5522847.4477153-1 1-1s1 .4477153 1 1v3c0 1.1045695-.8954305 2-2 2z" fill="#fff"/><path id="Shape" d="m25 22h-14c-.5522847 0-1-.4477153-1-1s.4477153-1 1-1h14c.5522847 0 1 .4477153 1 1s-.4477153 1-1 1z" fill="#ecf0f1"/><path id="Shape" d="m17 26h-6c-.5522847 0-1-.4477153-1-1s.4477153-1 1-1h6c.5522847 0 1 .4477153 1 1s-.4477153 1-1 1z" fill="#ecf0f1"/><path id="Shape" d="m3.02 52.49c.32963416 2.6094139 2.57019412 4.5526688 5.2 4.51h42.78c1.1032019-.0032948 1.9967052-.8967981 2-2v2c-.0032948 1.1032019-.8967981 1.9967052-2 2h-43c-3.75067297-.000293-6.83181997-2.9622553-6.98-6.71-.01694733-.095682-.02365184-.1928974-.02-.29-.00126681-.6389999.08623606-1.2750784.26-1.89.00234825-.0168486.00568737-.0335442.01-.05.87030247-2.9943501 3.61174103-5.0555209 6.73-5.06h43c1.1032019-.0032948 1.9967052-.8967981 2-2v2c-.0032948 1.1032019-.8967981 1.9967052-2 2h-43c-1.4112231.0013387-2.75638175.5980357-3.70453582 1.6432899-.94815406 1.0452542-1.41128946 2.4420379-1.27546418 3.8467101z" fill="#2980ba"/></g></g></svg>