<?xml version="1.0"?>
<svg xmlns="http://www.w3.org/2000/svg" id="Layer_1" enable-background="new 0 0 512 512" height="512px" viewBox="0 0 512 512" width="512px" class=""><g><g><g><g><g id="XMLID_1150_"><g id="XMLID_1151_"><g id="XMLID_1152_"><g id="XMLID_1153_"><g id="XMLID_1154_"><g id="XMLID_1155_"><g id="XMLID_1166_"><g id="XMLID_1167_"><g id="XMLID_1168_"><g id="XMLID_1169_"><g id="XMLID_1170_"><g id="XMLID_1171_"><g id="XMLID_1172_"><g id="XMLID_1173_"><g id="XMLID_1174_"><circle cx="256" cy="256" fill="#4f4359" r="256" data-original="#4F4359" class="" data-old_color="#4f4359" style="fill:#000000"/></g></g></g></g></g></g></g></g></g></g></g></g></g></g></g></g></g><path d="m511.98 257.605-125.738-125.738-254.376 254.376 125.737 125.737c140.11-.862 253.515-114.266 254.377-254.375z" fill="#372a44" data-original="#372A44" class="" data-old_color="#372a44" style="fill:#000000"/><g><g><g><g id="XMLID_997_"><g id="XMLID_998_"><g id="XMLID_999_"><g id="XMLID_1000_"><g id="XMLID_1031_"><g id="XMLID_1062_"><g id="XMLID_1125_"><g id="XMLID_1126_"><g id="XMLID_1127_"><g id="XMLID_1128_"><g id="XMLID_1129_"><g id="XMLID_1130_"><g id="XMLID_1131_"><g id="XMLID_1132_"><g id="XMLID_1133_"><circle cx="255.999" cy="256" fill="#fed940" r="179.922" data-original="#FED940" class="" style="fill:#FF0000" data-old_color="#fed940"/></g></g></g></g></g></g></g></g></g></g></g></g></g></g></g></g></g><g><g><g id="XMLID_951_"><g id="XMLID_952_"><g id="XMLID_953_"><g id="XMLID_954_"><g id="XMLID_955_"><g id="XMLID_956_"><g id="XMLID_957_"><g id="XMLID_958_"><g id="XMLID_959_"><g id="XMLID_960_"><g id="XMLID_961_"><g id="XMLID_962_"><g id="XMLID_963_"><g id="XMLID_973_"><g><path d="m435.923 256c0 99.367-80.557 179.924-179.924 179.924v-359.848c99.368 0 179.924 80.557 179.924 179.924z" fill="#ffc024" data-original="#FFC024" class="" data-old_color="#ffc024" style="fill:#FF0000"/></g></g></g></g></g></g></g></g></g></g></g></g></g></g></g></g></g></g><path d="m362.39 250c0 12.61-1.73 24.75-4.96 36.17-3.42 12.17-8.54 23.51-15.03 33.66-3.36 5.27-7.1 10.21-11.17 14.79-19.25 21.66-45.85 35.05-75.23 35.05-35.59 0-67.09-19.65-86.4-49.84-6.49-10.15-11.61-21.49-15.03-33.66-3.23-11.42-4.96-23.56-4.96-36.17z" fill="#7f6866" data-original="#7F6866" class="active-path" style="fill:#000000" data-old_color="#7f6866"/><path d="m362.39 250c0 12.61-1.73 24.75-4.96 36.17-3.42 12.17-8.54 23.51-15.03 33.66-3.36 5.27-7.1 10.21-11.17 14.79-19.25 21.66-45.85 35.05-75.23 35.05v-119.67z" fill="#634c4c" data-original="#634C4C" class="" style="fill:#000000" data-old_color="#634c4c"/><g><g><path d="m235.793 205.385h-30c0-10.354-8.424-18.777-18.778-18.777s-18.777 8.423-18.777 18.777h-30c0-26.896 21.881-48.777 48.777-48.777s48.778 21.881 48.778 48.777z" fill="#7f6866" data-original="#7F6866" class="active-path" style="fill:#000000" data-old_color="#7f6866"/></g><g><path d="m373.762 205.385h-30c0-10.354-8.423-18.777-18.777-18.777s-18.778 8.423-18.778 18.777h-30c0-26.896 21.881-48.777 48.777-48.777 26.896-.001 48.778 21.881 48.778 48.777z" fill="#634c4c" data-original="#634C4C" class="" style="fill:#000000" data-old_color="#634c4c"/></g></g></g></g> </svg>
