<svg id="Layer_1" enable-background="new 0 0 128 128" height="512" viewBox="0 0 128 128" width="512" xmlns="http://www.w3.org/2000/svg"><path d="m121.234 91.297h-5.708v-.762c0-1.856-1.51-3.366-3.366-3.366h-.516c-.922 0-1.758.374-2.366.976-.608-.602-1.444-.976-2.365-.976h-.516c-.922 0-1.758.374-2.366.976-.609-.602-1.444-.976-2.366-.976h-.515c-.461 0-.9.094-1.3.262.263-.826.409-1.74.409-2.708 0-1.023-.166-1.983-.458-2.845.036-.103.065-.209.065-.324v-15.062-1.656c0-15.865-12.907-28.772-28.772-28.772h-10.189c-15.865 0-28.772 12.907-28.772 28.772v16.718c0 .115.03.221.065.324-.292.862-.458 1.822-.458 2.845 0 .968.146 1.882.409 2.708-.4-.168-.839-.262-1.3-.262h-.515c-.922 0-1.758.374-2.366.976-.609-.602-1.444-.976-2.366-.976h-.516c-.922 0-1.757.374-2.365.976-.609-.602-1.444-.976-2.366-.976h-.515c-1.856 0-3.366 1.51-3.366 3.366v.762h-5.708c-.553 0-1 .448-1 1s.447 1 1 1h5.792c.334 1.507 1.676 2.639 3.282 2.639h.516c.922 0 1.758-.374 2.366-.976.608.602 1.444.976 2.365.976h.516c.922 0 1.758-.374 2.366-.976.609.602 1.444.976 2.366.976h.515c.922 0 1.758-.374 2.366-.976.609.602 1.444.976 2.366.976h.515c1.606 0 2.949-1.132 3.282-2.639h.03 53.182.03c.334 1.507 1.676 2.639 3.282 2.639h.515c.922 0 1.758-.374 2.366-.976.609.602 1.444.976 2.366.976h.515c.922 0 1.758-.374 2.366-.976.609.602 1.444.976 2.366.976h.516c.922 0 1.757-.374 2.365-.976.609.602 1.444.976 2.366.976h.516c1.606 0 2.949-1.132 3.282-2.639h5.792c.553 0 1-.448 1-1s-.447-1-1-1z" fill="#e6e7e8"/><path d="m32.843 74.93c.576 0 1.122.17 1.62.473v-9.295s5.507-.81 9.881-3.402c4.373-2.592 6.85-7.397 6.85-7.397s5.865 6.542 17.069 9.935c9.822 2.975 21.274 2.376 21.274 2.376v7.783c.497-.302 1.044-.473 1.62-.473 1.642 0 3.055 1.365 3.711 3.332v-17.426c0-15.338-12.434-27.772-27.772-27.772h-10.19c-15.338 0-27.772 12.434-27.772 27.772v17.427c.655-1.968 2.067-3.333 3.709-3.333z" fill="#0089ef"/><path d="m89.537 81.139v-5.736-7.783s-11.452.599-21.274-2.376c-11.204-3.393-17.069-9.935-17.069-9.935s-2.477 4.805-6.85 7.397c-4.374 2.592-9.881 3.402-9.881 3.402v9.295 5.736c0 2.477.332 4.875.946 7.159h53.182c.613-2.284.946-4.682.946-7.159z" fill="#fff"/><path d="m31.582 84.17h.515c1.141 0 2.093.808 2.316 1.882.151-.092.299-.193.441-.307-.253-1.499-.391-3.036-.391-4.606v-5.736c-.497-.302-1.044-.473-1.62-.473-2.266 0-4.104 2.594-4.104 5.794 0 1.605.462 3.057 1.209 4.106.426-.407.999-.66 1.634-.66z" fill="#fff"/><path d="m91.903 84.17h.515c.635 0 1.208.253 1.633.66.747-1.049 1.209-2.501 1.209-4.106 0-3.2-1.837-5.794-4.104-5.794-.576 0-1.122.17-1.62.473v5.736c0 1.57-.138 3.108-.391 4.607.142.114.29.216.441.307.224-1.075 1.176-1.883 2.317-1.883z" fill="#fff"/><path d="m67.095 33.063h-10.19c-15.338 0-27.772 12.434-27.772 27.772v3c0-15.338 12.434-27.772 27.772-27.772h10.19c15.338 0 27.772 12.434 27.772 27.772v-3c0-15.337-12.434-27.772-27.772-27.772z" fill="#fff"/><g fill="#ffd7e5"><path d="m16.355 90.937h-.515c-1.307 0-2.366-1.059-2.366-2.366v-2.035c0-1.307 1.059-2.366 2.366-2.366h.515c1.307 0 2.366 1.059 2.366 2.366v2.035c0 1.306-1.059 2.366-2.366 2.366z"/><path d="m21.603 90.937h-.515c-1.307 0-2.366-1.059-2.366-2.366v-2.035c0-1.307 1.059-2.366 2.366-2.366h.515c1.307 0 2.366 1.059 2.366 2.366v2.035c0 1.306-1.06 2.366-2.366 2.366z"/><path d="m26.85 90.937h-.515c-1.307 0-2.366-1.059-2.366-2.366v-2.035c0-1.307 1.059-2.366 2.366-2.366h.515c1.307 0 2.366 1.059 2.366 2.366v2.035c0 1.306-1.059 2.366-2.366 2.366z"/><path d="m32.097 90.937h-.515c-1.307 0-2.366-1.059-2.366-2.366v-2.035c0-1.307 1.059-2.366 2.366-2.366h.515c1.307 0 2.366 1.059 2.366 2.366v2.035c0 1.306-1.059 2.366-2.366 2.366z"/><path d="m92.418 90.937h-.515c-1.307 0-2.366-1.059-2.366-2.366v-2.035c0-1.307 1.059-2.366 2.366-2.366h.515c1.307 0 2.366 1.059 2.366 2.366v2.035c0 1.306-1.059 2.366-2.366 2.366z"/><path d="m97.665 90.937h-.515c-1.307 0-2.366-1.059-2.366-2.366v-2.035c0-1.307 1.059-2.366 2.366-2.366h.515c1.307 0 2.366 1.059 2.366 2.366v2.035c0 1.306-1.059 2.366-2.366 2.366z"/><path d="m102.913 90.937h-.515c-1.307 0-2.366-1.059-2.366-2.366v-2.035c0-1.307 1.059-2.366 2.366-2.366h.515c1.307 0 2.366 1.059 2.366 2.366v2.035c0 1.306-1.06 2.366-2.366 2.366z"/><path d="m108.16 90.937h-.515c-1.307 0-2.366-1.059-2.366-2.366v-2.035c0-1.307 1.059-2.366 2.366-2.366h.515c1.307 0 2.366 1.059 2.366 2.366v2.035c0 1.306-1.059 2.366-2.366 2.366z"/></g><path d="m94.867 63.928c-.553 0-1 .448-1 1v4.301c0 .552.447 1 1 1s1-.448 1-1v-4.301c0-.553-.447-1-1-1z" fill="#3a2c60"/><path d="m45.797 74.531c-1.521 0-2.754 1.233-2.754 2.754s1.233 2.754 2.754 2.754 2.754-1.233 2.754-2.754-1.233-2.754-2.754-2.754z" fill="#3a2c60"/><path d="m70.095 74.531c-1.521 0-2.754 1.233-2.754 2.754s1.233 2.754 2.754 2.754 2.754-1.233 2.754-2.754-1.234-2.754-2.754-2.754z" fill="#3a2c60"/><path d="m77.483 68.915-5.393.94c-.544.095-.908.613-.813 1.157.085.486.507.828.984.828.057 0 .114-.005.173-.015l5.393-.94c.544-.095.908-.613.813-1.157-.095-.543-.606-.906-1.157-.813z" fill="#3a2c60"/><path d="m51.909 69.855-5.393-.94c-.552-.092-1.062.27-1.157.813-.095.544.27 1.062.813 1.157l5.393.94c.059.01.116.015.173.015.478 0 .899-.342.984-.828.095-.544-.269-1.062-.813-1.157z" fill="#3a2c60"/><path d="m117.233 87.297h-5.708v-.762c0-1.856-1.51-3.366-3.365-3.366h-.516c-.922 0-1.758.374-2.366.976-.609-.602-1.444-.976-2.366-.976h-.515c-.922 0-1.758.374-2.366.976-.609-.602-1.444-.976-2.366-.976h-.515c-.462 0-.903.094-1.304.263.265-.826.414-1.739.414-2.709 0-.949-.139-1.846-.393-2.66v-5.261c0-.552-.447-1-1-1s-1 .448-1 1v2.143c-.782-.642-1.706-1.016-2.711-1.016-.209 0-.414.033-.619.065v-6.374c0-.274-.112-.537-.312-.725-.2-.189-.482-.29-.74-.273-.115.005-11.389.556-20.933-2.334-10.774-3.263-16.558-9.583-16.614-9.646-.221-.244-.552-.365-.871-.323-.325.042-.61.241-.762.532-.023.045-2.409 4.588-6.472 6.996-4.145 2.457-9.464 3.265-9.517 3.273-.491.073-.854.494-.854.989v7.888c-.205-.033-.41-.065-.62-.065-1.004 0-1.929.374-2.71 1.015v-14.111c0-14.762 12.01-26.772 26.772-26.772h10.189c14.763 0 26.772 12.01 26.772 26.772v.656c0 .552.447 1 1 1s1-.448 1-1v-.656c0-15.865-12.907-28.772-28.772-28.772h-10.188c-15.865 0-28.772 12.907-28.772 28.772v17.225c-.254.814-.394 1.713-.394 2.663 0 .97.149 1.883.414 2.709-.401-.169-.841-.263-1.303-.263h-.516c-.922 0-1.757.374-2.365.976-.609-.602-1.444-.976-2.366-.976h-.516c-.922 0-1.758.374-2.366.976-.608-.602-1.444-.976-2.365-.976h-.516c-1.856 0-3.366 1.51-3.366 3.366v.762h-5.708c-.553 0-1 .448-1 1s.447 1 1 1h5.792c.334 1.507 1.676 2.639 3.282 2.639h.516c.922 0 1.757-.374 2.365-.976.609.602 1.444.976 2.366.976h.516c.922 0 1.758-.374 2.366-.976.608.602 1.444.976 2.365.976h.516c.922 0 1.758-.374 2.366-.976.609.602 1.444.976 2.366.976h.515c1.606 0 2.949-1.132 3.282-2.639h.029 53.183.03c.334 1.507 1.676 2.639 3.281 2.639h.516c.922 0 1.758-.374 2.366-.976.609.602 1.444.976 2.366.976h.515c.922 0 1.758-.374 2.366-.976.609.602 1.444.976 2.366.976h.515c.922 0 1.758-.374 2.366-.976.609.602 1.444.976 2.366.976h.516c1.606 0 2.948-1.132 3.281-2.639h5.792c.553 0 1-.448 1-1s-.447-1.001-1-1.001zm-26.077-11.367c1.683 0 3.104 2.195 3.104 4.794 0 .993-.222 1.92-.577 2.697-.391-.159-.817-.251-1.265-.251h-.516c-.533 0-1.03.136-1.478.357.067-.794.113-1.591.113-2.388v-4.951-.155c.204-.069.411-.103.619-.103zm-58.313 0c.208 0 .416.034.62.102v.249 4.857c0 .798.046 1.594.112 2.388-.448-.221-.946-.357-1.479-.357h-.515c-.447 0-.873.092-1.264.251-.357-.776-.579-1.703-.579-2.697.001-2.598 1.422-4.793 3.105-4.793zm-16.487 14.006h-.516c-.753 0-1.366-.613-1.366-1.366v-2.035c0-.753.613-1.366 1.366-1.366h.516c.753 0 1.365.613 1.365 1.366v2.035c0 .754-.613 1.366-1.365 1.366zm5.247 0h-.516c-.753 0-1.366-.613-1.366-1.366v-2.035c0-.753.613-1.366 1.366-1.366h.516c.753 0 1.366.613 1.366 1.366v2.035c0 .754-.613 1.366-1.366 1.366zm5.247 0h-.516c-.753 0-1.365-.613-1.365-1.366v-2.035c0-.753.612-1.366 1.365-1.366h.516c.753 0 1.366.613 1.366 1.366v2.035c0 .754-.613 1.366-1.366 1.366zm6.613-1.365c0 .753-.613 1.366-1.366 1.366h-.515c-.753 0-1.366-.613-1.366-1.366v-2.035c0-.753.613-1.366 1.366-1.366h.515c.753 0 1.366.613 1.366 1.366zm2.724-1.274c-.48-2.018-.724-4.086-.724-6.159v-14.191c1.758-.34 5.888-1.305 9.391-3.381 3.262-1.933 5.497-4.976 6.548-6.634 2.107 1.987 7.677 6.574 16.571 9.268 8.256 2.5 17.48 2.528 20.564 2.454v12.484c0 2.071-.243 4.139-.725 6.159zm56.231 2.639h-.516c-.753 0-1.365-.613-1.365-1.366v-2.035c0-.753.612-1.366 1.365-1.366h.516c.753 0 1.366.613 1.366 1.366v2.035c0 .754-.613 1.366-1.366 1.366zm5.247 0h-.515c-.753 0-1.366-.613-1.366-1.366v-2.035c0-.753.613-1.366 1.366-1.366h.515c.753 0 1.366.613 1.366 1.366v2.035c0 .754-.613 1.366-1.366 1.366zm5.247 0h-.515c-.753 0-1.366-.613-1.366-1.366v-2.035c0-.753.613-1.366 1.366-1.366h.515c.753 0 1.366.613 1.366 1.366v2.035c0 .754-.613 1.366-1.366 1.366zm6.613-1.365c0 .753-.612 1.366-1.365 1.366h-.516c-.753 0-1.366-.613-1.366-1.366v-2.035c0-.753.613-1.366 1.366-1.366h.516c.753 0 1.365.613 1.365 1.366z" fill="#3a2c60"/></svg>