<svg id="Flat" enable-background="new 0 0 64 64" height="512" viewBox="0 0 64 64" width="512" xmlns="http://www.w3.org/2000/svg"><path d="m41 2v11c0 19-19 32-19 32s-19-13-19-32v-11c11.893 6.26 26.107 6.26 38 0z" fill="#454a6d"/><path d="m34.306 17.72c-2.375-2.291-6.236-2.291-8.611 0l-1.389-1.439c3.141-3.029 8.248-3.029 11.389 0z" fill="#4ac3ed"/><path d="m18.306 17.72c-2.375-2.291-6.236-2.291-8.611 0l-1.389-1.44c3.141-3.029 8.248-3.029 11.389 0z" fill="#4ac3ed"/><path d="m28 30c-3.316 2.667-8.684 2.667-12 0 0 0 2 5 6 5s6-5 6-5z" fill="#4ac3ed"/><path d="m61 19v11c0 19-19 32-19 32s-19-13-19-32v-11c11.893 6.26 26.107 6.26 38 0z" fill="#e89d43"/><g fill="#454a6d"><path d="m54.306 34.72c-2.375-2.291-6.236-2.291-8.611 0l-1.389-1.439c3.141-3.029 8.248-3.029 11.389 0z"/><path d="m38.306 34.72c-2.375-2.291-6.236-2.291-8.611 0l-1.389-1.439c3.141-3.029 8.248-3.029 11.389 0z"/><path d="m48 47c-3.316 2.667-8.684 2.667-12 0 0 0 2 5 6 5s6-5 6-5z"/></g></svg>