<svg id="Capa_1" enable-background="new 0 0 512 512" height="512" viewBox="0 0 512 512" width="512" xmlns="http://www.w3.org/2000/svg"><g><g><g><g><g><path d="m241.337 493.635h-233.837v-13.496c0-56.349 45.68-102.029 102.029-102.029h29.779c56.349 0 102.029 45.68 102.029 102.029z" fill="#8dcafc"/><path d="m241.333 480.135v13.5h-33.303v-13.5c0-55.764-44.741-101.068-100.27-102.003.585-.021 1.18-.021 1.764-.021h29.785c56.348-.001 102.024 45.675 102.024 102.024z" fill="#64b9fc"/><path d="m10.166 456.884c-1.742 7.47-2.666 15.254-2.666 23.255v13.496h233.837v-13.496c0-8.001-.924-15.785-2.666-23.255z" fill="#fc9744"/><path d="m205.363 456.884c1.742 7.469 2.668 15.251 2.668 23.251v13.5h33.303v-13.5c0-7.999-.923-15.782-2.665-23.251z" fill="#fb8627"/></g><path d="m144.48 357.272v39.53c0 11.08-8.98 20.06-20.06 20.06s-20.06-8.98-20.06-20.06v-39.53z" fill="#fdb0a0"/><path d="m144.48 357.272v38.69c-6.24 1.43-12.73 2.21-19.38 2.26h-.68c-6.89 0-13.61-.77-20.06-2.23v-38.72z" fill="#f9a08f"/><g><g><path d="m28.743 232.169h191.351v57.38h-191.351z" fill="#756f6f"/><g><g><g><g><g><g><g fill="#fdb0a0"><circle cx="202.356" cy="297.253" r="24.618"/><circle cx="46.481" cy="297.253" r="24.618"/></g></g></g></g><path d="m195.394 255.102v51.258c0 39.148-31.302 71.575-70.44 71.864-39.447.289-71.513-31.591-71.513-70.966v-52.156c0-39.2 31.777-70.976 70.976-70.976 19.605 0 37.341 7.939 50.184 20.782 12.844 12.853 20.793 30.589 20.793 50.194z" fill="#ffcec0"/><path d="m195.394 255.102v9.57c-11.676-3.407-22.269-10.314-30.373-20.049-6.07-7.289-13.38-10.83-22.372-10.83-4.604 0-8.414.939-10.272 1.497-2.571.774-5.255 1.177-7.96 1.177s-5.389-.403-7.98-1.177c-1.838-.558-5.647-1.497-10.252-1.497-8.982 0-16.301 3.541-22.361 10.83-8.114 9.735-18.707 16.642-30.383 20.049v-9.57c0-39.2 31.777-70.976 70.976-70.976 19.605 0 37.341 7.939 50.184 20.782 12.844 12.853 20.793 30.589 20.793 50.194z" fill="#fdb0a0"/></g></g></g><path d="m232.089 227.523c-5.533-9.56-11.83-22.624-16.78-38.915-11.171-36.766-70.803-49.764-90.89-27.994-20.088-21.769-79.719-8.771-90.89 27.994-4.95 16.291-11.246 29.354-16.78 38.915-4.866 8.406 1.23 18.917 10.943 18.917h8.855c12.204 0 23.597-5.653 31.406-15.031 19.684-23.64 45.638-18.535 54.446-15.889.658.198 1.333.298 2.02.298.687 0 1.362-.1 2.02-.298 8.809-2.646 34.762-7.751 54.446 15.889 7.809 9.378 19.202 15.031 31.406 15.031h8.855c9.713 0 15.808-10.511 10.943-18.917z" fill="#efe2dd"/><path d="m221.146 246.438h-8.853c-4.444 0-8.783-.756-12.878-2.164 5.153-3.513 7.364-10.679 3.851-16.751-5.537-9.562-11.831-22.626-16.775-38.912-5.991-19.695-25.871-32.56-46.136-36.934 25.906-6.735 65.993 7.457 74.951 36.934 4.956 16.286 11.249 29.35 16.786 38.912 4.863 8.41-1.233 18.915-10.946 18.915z" fill="#e0d3ce"/></g></g></g><g><g><path d="m306.436 265.923v-48.501c0-34.673 28.108-62.78 62.78-62.78h36.731c34.673 0 62.78 28.108 62.78 62.78v48.501z" fill="#fb8627"/><path d="m468.73 217.427v48.498h-33.316v-48.498c0-34.673-28.107-62.79-62.779-62.79h33.316c34.672 0 62.779 28.117 62.779 62.79z" fill="#fb7722"/></g><g><g><g><path d="m504.5 480.142v13.49h-233.84v-13.49c0-56.35 45.68-102.03 102.03-102.03h29.78c56.35 0 102.03 45.68 102.03 102.03z" fill="#26d192"/><path d="m350.921 404.63h73.712v89.005h-73.712z" fill="#5b5555"/><path d="m404.087 404.63h20.546v89.005h-20.546z" fill="#433f43"/><path d="m350.92 451.912h73.71v41.72h-73.71z" fill="#faf7f7"/><path d="m404.087 451.912h20.543v41.72h-20.543z" fill="#efe2dd"/><path d="m504.496 480.135v13.5h-33.303v-13.5c0-55.764-44.741-101.068-100.27-102.003.585-.021 1.18-.021 1.764-.021h29.785c56.348-.001 102.024 45.675 102.024 102.024z" fill="#1ec186"/><g><ellipse cx="350.724" cy="395.299" fill="#faf7f7" rx="21.383" ry="32.269"/><g><path d="m372.11 395.302c0 .54-.01 1.07-.03 1.6-14.85-2.56-28.47-8.73-39.94-17.57 3.68-9.74 10.62-16.3 18.58-16.3 11.81 0 21.39 14.45 21.39 32.27z" fill="#efe2dd"/></g><ellipse cx="424.437" cy="395.299" fill="#faf7f7" rx="21.383" ry="32.269"/><path d="m442.94 379.142c-11.45 8.92-25.05 15.16-39.86 17.74-.02-.52-.03-1.05-.03-1.58 0-17.82 9.58-32.27 21.39-32.27 7.91 0 14.81 6.48 18.5 16.11z" fill="#efe2dd"/></g></g><path d="m407.64 357.272v39.53c0 11.08-8.98 20.06-20.06 20.06s-20.06-8.98-20.06-20.06v-39.53z" fill="#fdb0a0"/><path d="m407.64 357.272v38.69c-6.24 1.44-12.72 2.21-19.37 2.26h-.69c-6.89 0-13.6-.77-20.06-2.23v-38.72z" fill="#f9a08f"/><g><g><g><g><g><g><g><g><g fill="#fdb0a0"><circle cx="465.519" cy="297.253" r="24.618"/><circle cx="309.644" cy="297.253" r="24.618"/></g></g></g></g><path d="m331.061 212.182c-9.066 11.92-14.457 26.788-14.457 42.92v52.156c0 39.375 32.066 71.255 71.513 70.966 39.138-.289 70.44-32.716 70.44-71.864v-51.258c0-16.135-5.393-30.997-14.458-42.92z" fill="#ffcec0"/><path d="m458.56 255.103v51.253c0 12.583-3.231 24.472-8.927 34.818-1.046-3.066-2.247-6.255-3.604-9.59-11.62-28.49 2.775-35.864-3.645-57-9.849-32.456-36.433-31.949-48.716-29.805-2.216.394-4.401-.197-6.089-1.45-1.688 1.253-3.873 1.843-6.089 1.45-12.272-2.144-38.867-2.651-48.715 29.805-6.41 21.137 7.985 28.511-3.645 57-1.408 3.449-2.641 6.762-3.728 9.921-5.603-10.149-8.792-21.831-8.792-34.248v-52.154c0-16.135 5.385-30.996 14.457-42.916h113.038c9.06 11.92 14.455 26.781 14.455 42.916z" fill="#fdb0a0"/></g></g></g></g></g></g></g><g><path d="m384.673 219.872c.954 4.021 4.927 6.558 8.998 5.848 12.279-2.142 38.867-2.65 48.718 29.805 6.414 21.132-7.982 28.503 3.645 56.997 5.881 14.412 8.739 26.31 10.019 35.532.984 7.087 10.768 8.038 13.105 1.275 4.052-11.722 5.776-27.892-1.475-47.825-6.855-18.844 5.761-31.939 6.365-52.213 1.006-33.79-17.326-58.069-55.382-58.069-35.606-.001-36.493 18.108-33.993 28.65z" fill="#fc9744"/><path d="m474.043 249.293c-.601 20.267-13.214 33.368-6.359 52.206 7.249 19.935 5.524 36.107 1.472 47.831-2.337 6.763-12.121 5.813-13.105-1.274-1.281-9.223-4.139-21.123-10.022-35.538-10.978-26.916 1.263-34.983-2.765-53.614.621-3.045 1.056-6.224 1.16-9.611.87-29.101-12.603-51.139-40.669-56.7 4.122-.88 9.041-1.367 14.913-1.367 38.049 0 56.39 24.275 55.375 58.067z" fill="#fb8627"/><path d="m390.49 219.872c-.954 4.021-4.927 6.558-8.998 5.848-12.279-2.142-38.867-2.65-48.718 29.805-6.414 21.132 7.982 28.503-3.645 56.997-5.881 14.412-8.739 26.31-10.019 35.532-.984 7.087-10.768 8.038-13.105 1.275-4.052-11.722-5.776-27.892 1.475-47.825 6.855-18.844-5.761-31.939-6.365-52.213-1.006-33.79 17.326-58.069 55.382-58.069 35.606-.001 36.492 18.108 33.993 28.65z" fill="#fc9744"/></g></g></g></g><g><g><path d="m319.002 94.346c17.358-17.401 17.345-45.578-.039-62.962-17.385-17.385-45.562-17.397-62.963-.039-17.401-17.358-45.578-17.347-62.963.038-17.384 17.384-17.397 45.561-.039 62.962l56.957 56.959c3.339 3.339 8.752 3.339 12.091 0z" fill="#fb4a59"/><path d="m319.006 94.344-56.957 56.957c-3.343 3.343-8.755 3.343-12.098 0l-11.303-11.303 54.358-54.358c17.356-17.398 17.347-45.578-.043-62.959-1.59-1.599-3.275-3.044-5.036-4.352 11.243.12 22.46 4.471 31.035 13.055 17.382 17.383 17.4 45.562.044 62.96z" fill="#f82f40"/></g><g><path d="m221.559 419.302c-3.5 2.216-4.541 6.85-2.325 10.349 3.937 6.218 7.095 12.843 9.464 19.733h-23.672v-2.477c0-4.143-3.358-7.5-7.5-7.5s-7.5 3.357-7.5 7.5v2.477h-131.214v-2.477c0-4.143-3.358-7.5-7.5-7.5s-7.5 3.357-7.5 7.5v2.477h-23.626c11.468-33.022 40.839-58.09 76.671-62.911v10.331c0 15.197 12.364 27.562 27.562 27.562s27.562-12.364 27.562-27.562v-10.34c16.266 2.18 31.634 8.539 44.756 18.593 1.361 1.043 2.965 1.547 4.556 1.547 2.253 0 4.482-1.012 5.959-2.938 2.519-3.288 1.896-7.996-1.392-10.515-12.029-9.216-25.688-15.749-40.201-19.334 16.074-10.106 28.302-25.918 33.89-44.58.933.081 1.87.135 2.811.135 17.706 0 32.11-14.409 32.11-32.12 0-7.479-2.575-14.362-6.876-19.827v-24.524c4.578-1.525 8.48-4.672 10.999-9.04 3.63-6.296 3.626-13.809-.013-20.097-6.634-11.46-12.049-24.021-16.094-37.337-7.282-23.965-30.945-37.329-50.662-41.845-18.515-4.238-35.926-1.856-47.394 6.15-10.814-7.603-26.837-10.139-44.443-6.771-4.068.778-6.735 4.707-5.957 8.775s4.706 6.73 8.775 5.957c13.926-2.663 26.894-.612 34.113 5.188v42.709c-13.097-2.165-36.406-1.988-54.73 20.018-6.525 7.836-15.872 12.33-25.643 12.33h-8.854c-2.68 0-4.006-1.799-4.452-2.572-.442-.766-1.326-2.795.001-5.088 7.209-12.454 13.085-26.077 17.465-40.49 2.138-7.038 6.521-13.359 13.025-18.789 3.18-2.654 3.606-7.384.952-10.564-2.654-3.178-7.384-3.604-10.564-.951-8.786 7.335-14.764 16.063-17.765 25.943-4.046 13.314-9.461 25.877-16.095 37.338-3.639 6.287-3.644 13.799-.013 20.095 2.519 4.369 6.42 7.516 10.999 9.041v24.517c-4.305 5.466-6.883 12.352-6.883 19.833 0 17.711 14.409 32.12 32.12 32.12.866 0 1.728-.047 2.587-.116 3.664 12.616 10.473 24.17 20.061 33.688 4.232 4.201 8.866 7.84 13.798 10.926-20.371 5.078-38.933 15.95-53.513 31.583-18.968 20.338-29.414 46.861-29.414 74.687v13.496c0 4.143 3.358 7.5 7.5 7.5s7.5-3.357 7.5-7.5v-13.496c0-5.36.481-10.619 1.356-15.755h27.456v29.251c0 4.143 3.358 7.5 7.5 7.5s7.5-3.357 7.5-7.5v-29.251h131.214v29.251c0 4.143 3.358 7.5 7.5 7.5s7.5-3.357 7.5-7.5v-29.251h27.486c.871 5.177 1.325 10.444 1.325 15.755v13.496c0 4.143 3.358 7.5 7.5 7.5s7.5-3.357 7.5-7.5v-13.496c0-20.786-5.854-41.019-16.929-58.512-2.216-3.499-6.849-4.541-10.349-2.325zm-97.141-9.937c-6.926 0-12.562-5.635-12.562-12.562v-12.089c4.114.658 8.305 1.01 12.552 1.01.198 0 .396-.001.595-.002 4.072-.029 8.071-.379 11.976-1.019v12.1c.001 6.927-5.634 12.562-12.561 12.562zm78.482-144.219v-10.044c0-.713-.022-1.425-.041-2.137 3.085.631 6.239.974 9.432.974h.302v12.876c-3.053-1.03-6.309-1.612-9.693-1.669zm-.4 49.219c.263-2.633.399-5.302.399-8.003v-26.202c9.183.289 16.57 7.835 16.57 17.092.001 9.393-7.599 17.036-16.969 17.113zm-34.025-155.16c15.62 3.577 34.24 13.753 39.658 31.584 4.38 14.413 10.256 28.036 17.465 40.49 1.327 2.293.442 4.322.001 5.088-.446.773-1.772 2.572-4.453 2.572h-8.854c-9.772 0-19.118-4.494-25.643-12.33-18.323-22.005-41.63-22.184-54.73-20.018v-42.717c7.691-6.23 21.614-8.093 36.556-4.669zm-122.494 93.76c-.019.712-.041 1.424-.041 2.137v10.044c-3.385.056-6.642.639-9.697 1.669v-12.876h.302c3.195 0 6.35-.342 9.436-.974zm-16.621 44.287c0-9.257 7.391-16.803 16.58-17.092v27.092c0 2.389.12 4.759.33 7.109-9.343-.114-16.91-7.74-16.91-17.109zm31.58 10v-52.149c0-2.79.192-5.565.55-8.277 4.544-2.796 8.683-6.363 12.226-10.619 16.519-19.84 38.039-16.053 46.518-13.507 2.715.817 5.656.818 8.362.002 8.486-2.547 30.006-6.334 46.525 13.505 3.544 4.257 7.684 7.825 12.229 10.621.358 2.711.549 5.485.549 8.275v51.26c0 35.24-28.263 64.111-63.005 64.36-17.06.101-33.104-6.418-45.199-18.425-12.094-12.006-18.755-28.004-18.755-45.046z"/><path d="m91.107 282.05h-.067c-4.142 0-7.466 3.357-7.466 7.5s3.391 7.5 7.533 7.5 7.5-3.357 7.5-7.5-3.357-7.5-7.5-7.5z"/><path d="m157.789 297.05h.004s.003 0 .004 0c4.142 0 7.5-3.357 7.5-7.5s-3.358-7.5-7.5-7.5h-.008-.061-.007c-4.142 0-7.466 3.357-7.466 7.5s3.392 7.5 7.534 7.5z"/><path d="m494.935 421.41c-2.224-3.496-6.859-4.525-10.354-2.301-3.494 2.224-4.524 6.859-2.3 10.354 9.629 15.133 14.72 32.655 14.72 50.676v13.496c0 4.143 3.358 7.5 7.5 7.5s7.5-3.357 7.5-7.5v-13.496c-.001-20.878-5.902-41.186-17.066-58.729z"/><path d="m497.64 297.252c0-12.847-7.819-24.389-19.269-29.424 1.578-5.466 2.969-11.503 3.172-18.314.351-11.799-1.482-22.446-5.341-31.595.011-.165.025-.329.025-.497 0-38.753-31.527-70.28-70.28-70.28h-36.73c-38.753 0-70.28 31.527-70.28 70.28 0 .167.014.331.025.496-3.86 9.149-5.693 19.796-5.341 31.596.203 6.812 1.594 12.85 3.173 18.317-11.446 5.036-19.262 16.576-19.262 29.421 0 12.085 6.905 23.14 17.487 28.573-.287 8.919 1.009 17.592 3.9 25.954 2.042 5.907 7.322 9.643 13.41 9.643.486 0 .977-.024 1.472-.072 4.792-.469 8.768-3.135 10.985-7.06 2.517 3.344 5.282 6.471 8.271 9.349-4.544 4.757-7.882 11.255-9.687 18.699-17.583 8.882-32.463 22.325-43.086 38.98-11.201 17.562-17.121 37.901-17.121 58.822v13.496c0 4.143 3.358 7.5 7.5 7.5s7.5-3.357 7.5-7.5v-13.496c0-32.886 16.582-62.615 43.9-79.857 1.437 16.507 9.935 29.604 21.357 33.559v59.794c0 4.143 3.358 7.5 7.5 7.5s7.5-3.357 7.5-7.5v-34.228h58.712v34.228c0 4.143 3.358 7.5 7.5 7.5s7.5-3.357 7.5-7.5v-59.946c11.213-4.115 19.53-17.073 20.96-33.37 2.272 1.444 4.492 2.97 6.63 4.6 1.358 1.036 2.956 1.536 4.542 1.536 2.26 0 4.494-1.018 5.97-2.953 2.511-3.294 1.877-8-1.417-10.511-5.345-4.076-11.09-7.666-17.079-10.689-1.842-7.431-5.22-13.971-9.739-18.718 2.981-2.917 5.743-6.092 8.265-9.5 2.194 4.037 6.225 6.787 11.099 7.263.495.049.985.072 1.472.072 6.088-.001 11.369-3.735 13.411-9.643 2.891-8.362 4.186-17.036 3.899-25.955 10.587-5.434 17.495-16.488 17.495-28.57zm-19.816 11.879c-.819-3.37-1.849-6.768-3.094-10.192-2.115-5.814-1.86-10.984-.621-16.474 5.137 3.009 8.531 8.609 8.531 14.786 0 4.508-1.803 8.746-4.816 11.88zm-108.608-146.989h36.73c21.88 0 40.831 12.779 49.784 31.265-10.035-6.365-22.626-9.686-37.066-9.686-13.493 0-23.912 2.516-31.082 7.469-7.172-4.957-17.578-7.469-31.085-7.469-14.44 0-27.03 3.321-37.065 9.685 8.954-18.486 27.904-31.264 49.784-31.264zm67.069 109.34c-.228 1.784-.55 3.591-.896 5.518-1.408 7.841-3.101 17.349 1.228 31.438-2.608 1.258-5.782 1.884-9.626 1.884-16.729 0-19.9-9.401-19.9-26.75 0-3.571 0-13.06 19.9-13.06 3.523.001 6.629.33 9.294.97zm-9.295-15.969c-20.03 0-32.653 8.816-34.622 23.815h-9.177c-1.969-14.999-14.596-23.815-34.631-23.815-2.84 0-5.527.178-8.064.517 7.846-23.235 25.828-25.344 39.707-22.921 2.548.442 5.066.226 7.377-.52 2.36.76 4.883.953 7.38.52 13.866-2.419 31.832-.317 39.688 22.866-2.416-.304-4.969-.462-7.658-.462zm-87.216 21.487c-.34-1.893-.656-3.67-.884-5.422 2.762-.697 6.038-1.065 9.67-1.065 19.91 0 19.91 9.488 19.91 13.06 0 23.71-10.64 26.75-19.91 26.75-4.02 0-7.386-.569-10.072-1.685 4.408-14.201 2.7-23.76 1.286-31.638zm-47.244 20.252c0-6.174 3.391-11.773 8.524-14.782 1.239 5.489 1.493 10.657-.621 16.469-1.245 3.423-2.275 6.821-3.094 10.192-3.008-3.134-4.809-7.372-4.809-11.879zm19.627 46.651c-3.534-12.399-2.74-25.784 2.373-39.837 4.969-13.661 1.549-24.629-1.758-35.234-2.03-6.51-3.947-12.657-4.159-19.766-.474-15.901 3.727-28.892 12.146-37.565 8.232-8.48 20.256-12.78 35.739-12.78 12.732 0 21.413 2.468 25.104 7.136 2.299 2.908 2.834 7.041 1.59 12.285-.028.117-.214.23-.411.189-27.682-4.833-49.063 8.259-57.184 35.016-3.336 10.992-1.876 19.127-.587 26.304 1.482 8.256 2.882 16.054-2.824 30.037-4.875 11.946-8.242 23.433-10.029 34.215zm32.767 29.139c4.737 3.069 9.797 5.634 15.096 7.633v16.129c0 4.034.878 7.864 2.442 11.321-2.573 7.17-7.236 11.948-11.743 11.948-6.565 0-13.88-10.173-13.88-24.77.001-10.674 3.851-18.524 8.085-22.261zm55.219 23.762c0 6.927-5.635 12.562-12.562 12.562s-12.562-5.635-12.562-12.562v-12.116c4.125.676 8.328 1.037 12.581 1.037.191 0 .382-.001.573-.002 4.059-.029 8.055-.377 11.969-1.008v12.089zm-41.723 47.603v-10.729c5.902-2.166 11.075-6.803 14.854-13.325 4.173 2.545 9.072 4.013 14.307 4.013 5.234 0 10.132-1.467 14.305-4.011 3.862 6.666 9.183 11.358 15.246 13.459v10.594h-58.712zm79.9-49.104c0 14.597-7.315 24.77-13.88 24.77-4.505 0-9.167-4.776-11.741-11.943 1.565-3.458 2.445-7.29 2.445-11.326v-16.068c5.308-2.001 10.361-4.583 15.088-7.682 4.148 3.702 8.088 11.635 8.088 22.249zm-50.255-24.58c-.156.001-.308.002-.463.002-24.369 0-46.847-14.163-57.353-36.182-.14-.293-.302-.568-.473-.834.989-3.593 2.159-7.266 3.497-11.007 4.413 1.735 9.521 2.62 15.287 2.62 18.985 0 31.033-11.152 34.117-30.994h9.934c.611 5.386 1.898 10.81 4.564 15.657 5.597 10.177 15.628 15.337 29.816 15.337 5.533 0 10.494-.938 14.84-2.783 1.314 3.662 2.473 7.261 3.453 10.781-.173.269-.337.547-.478.844-10.631 22.377-32.372 36.385-56.741 36.559zm74.941-26.822c-1.783-10.769-5.151-22.261-10.028-34.214-5.707-13.984-4.307-21.782-2.825-30.037 1.289-7.177 2.749-15.312-.587-26.304-7.508-24.74-26.353-37.788-51.036-35.793.702-5.331.187-10.26-1.513-14.621 3.668-2.2 10.152-4.212 21.649-4.212 15.483 0 27.507 4.3 35.739 12.78 8.419 8.674 12.619 21.664 12.146 37.565-.212 7.108-2.129 13.256-4.159 19.765-3.308 10.606-6.728 21.574-1.758 35.235 5.109 14.047 5.906 27.426 2.372 39.836z"/><path d="m420.959 282.05h-.008-.06-.007c-4.142 0-7.467 3.357-7.467 7.5s3.392 7.5 7.534 7.5h.004s.003 0 .004 0c4.142 0 7.5-3.357 7.5-7.5s-3.357-7.5-7.5-7.5z"/><path d="m354.271 297.05c4.142 0 7.5-3.357 7.5-7.5s-3.358-7.5-7.5-7.5h-.067c-4.142 0-7.466 3.357-7.466 7.5s3.39 7.5 7.533 7.5z"/><path d="m314.474 439.407c-4.142 0-7.5 3.357-7.5 7.5v46.728c0 4.143 3.358 7.5 7.5 7.5s7.5-3.357 7.5-7.5v-46.728c0-4.142-3.358-7.5-7.5-7.5z"/><path d="m460.688 439.407c-4.142 0-7.5 3.357-7.5 7.5v46.728c0 4.143 3.358 7.5 7.5 7.5s7.5-3.357 7.5-7.5v-46.728c0-4.142-3.357-7.5-7.5-7.5z"/><path d="m324.313 99.643c20.243-20.295 20.222-53.295-.046-73.563-18.588-18.587-47.884-20.147-68.267-4.663-20.382-15.483-49.679-13.924-68.266 4.663-20.269 20.268-20.29 53.268-.04 73.568l56.957 56.959v.001c3.031 3.031 7.062 4.7 11.349 4.7s8.318-1.669 11.349-4.701zm-68.313 46.666c-.198 0-.488-.053-.742-.307l-56.95-56.953c-14.41-14.445-14.395-37.935.033-52.361 7.22-7.221 16.708-10.83 26.198-10.83 9.473 0 18.949 3.599 26.165 10.798 2.928 2.92 7.666 2.92 10.594 0 14.445-14.412 37.935-14.396 52.363.032 14.427 14.427 14.442 37.916.04 52.355l-56.957 56.958c-.256.255-.545.308-.744.308z"/><path d="m364.948 54.532c-.008 0-.016 0-.023 0-4.131 0-7.487 3.343-7.5 7.478-.013 4.142 3.335 7.51 7.477 7.522l10.569.032h.023c4.131 0 7.487-3.343 7.5-7.478.013-4.142-3.335-7.51-7.477-7.522z"/><path d="m360.429 43.116c1.311 0 2.639-.344 3.846-1.066l9.168-5.49c3.554-2.128 4.709-6.734 2.582-10.288-2.128-3.554-6.734-4.71-10.288-2.581l-9.168 5.49c-3.554 2.128-4.709 6.734-2.582 10.288 1.406 2.346 3.892 3.647 6.442 3.647z"/><path d="m356.384 94.833 9.138 5.546c1.216.738 2.558 1.09 3.884 1.09 2.535 0 5.008-1.285 6.419-3.609 2.149-3.541 1.021-8.154-2.521-10.303l-9.138-5.546c-3.54-2.149-8.154-1.021-10.303 2.52-2.149 3.54-1.02 8.154 2.521 10.302z"/><path d="m136.505 69.564h.023l10.569-.032c4.142-.013 7.49-3.381 7.477-7.522-.013-4.135-3.368-7.478-7.5-7.478-.007 0-.016 0-.023 0l-10.569.032c-4.142.013-7.49 3.381-7.477 7.522.014 4.136 3.369 7.478 7.5 7.478z"/><path d="m138.557 36.56 9.168 5.49c1.207.723 2.535 1.066 3.846 1.066 2.55 0 5.037-1.301 6.442-3.647 2.128-3.554.972-8.16-2.582-10.288l-9.168-5.49c-3.555-2.129-8.161-.973-10.288 2.581-2.128 3.553-.972 8.16 2.582 10.288z"/><path d="m147.834 82.011-9.138 5.546c-3.541 2.148-4.669 6.762-2.521 10.303 1.411 2.325 3.884 3.609 6.419 3.609 1.325 0 2.668-.352 3.884-1.09l9.138-5.546c3.541-2.148 4.669-6.762 2.521-10.303s-6.762-4.671-10.303-2.519z"/></g></g></g></svg>