<svg height="512" viewBox="0 0 256 256" width="512" xmlns="http://www.w3.org/2000/svg"><path d="m101.445 5.23v25.048a2.14 2.14 0 0 0 2.141 2.14h48.827a2.14 2.14 0 0 0 2.14-2.14v-25.048z" fill="#fc5d3d"/><path d="m109.012 46.835h37.988a3.467 3.467 0 0 0 3.468-3.468v-10.949h-44.934v10.949a3.476 3.476 0 0 0 3.478 3.468z" fill="#fff"/><path d="m146.227 46.84v36.238a6.064 6.064 0 0 1 -12.127 0v-11.714a3.21 3.21 0 0 0 -3.211-3.211h-15.059a6.058 6.058 0 0 1 -6.058-6.058v-15.255z" fill="#ffb69f"/><path d="m61.23 42.27-17.71-17.72-37.56 37.56 17.72 17.71a2.125 2.125 0 0 0 3.02 0l1.38-1.38 31.77-31.76 1.38-1.39a2.125 2.125 0 0 0 0-3.02z" fill="#afafaf"/><path d="m67.59 59.32-.54.54-25.78 25.79-.54.53a3.473 3.473 0 0 1 -4.91 0l-7.74-7.74 31.77-31.76 7.74 7.74a3.452 3.452 0 0 1 0 4.9z" fill="#fff"/><path d="m92.68 94.06a6.06 6.06 0 0 1 -8.58 0l-8.28-8.28a3.217 3.217 0 0 0 -4.54 0l-10.65 10.65a6.072 6.072 0 0 1 -8.57 0l-10.79-10.78 25.78-25.79 25.63 25.63a6.072 6.072 0 0 1 0 8.57z" fill="#ffb69f"/><path d="m212.48 24.55-17.71 17.72a2.125 2.125 0 0 0 0 3.02l1.38 1.39 31.77 31.76 1.38 1.38a2.125 2.125 0 0 0 3.02 0l17.72-17.71z" fill="#afafaf"/><path d="m227.92 78.44-7.74 7.74a3.473 3.473 0 0 1 -4.91 0l-.54-.53-25.78-25.79-.54-.54a3.452 3.452 0 0 1 0-4.9l7.74-7.74z" fill="#fff"/><path d="m214.73 85.65-10.79 10.78a6.072 6.072 0 0 1 -8.57 0l-10.65-10.65a3.217 3.217 0 0 0 -4.54 0l-8.28 8.28a6.063 6.063 0 0 1 -8.58-8.57l25.63-25.63z" fill="#ffb69f"/><path d="m174.17 215.955h-2.79a44.43 44.43 0 0 1 -86.76-.01h-2.82a17.14 17.14 0 0 1 0-34.28h1.78v-9.75h88.84v9.76h1.75a17.127 17.127 0 0 1 17.09 15.93c.92 9.195-6.74 18.35-17.09 18.35z" fill="#ffb69f"/><path d="m83.58 171.915h88.84v6.94h-88.84z" fill="#ea8f7d"/><path d="m183.15 158.915h-10.73v-44.09a4.025 4.025 0 0 0 -4.03-4.03h-80.78a4.025 4.025 0 0 0 -4.03 4.03v44.1h-10.73a6.5 6.5 0 1 0 0 12.99h110.3a6.5 6.5 0 0 0 0-13z" fill="#4c4945"/><path d="m143.4 24.355h-8.667a2.5 2.5 0 0 1 0-5h6.167v-6.834a2.5 2.5 0 1 1 5 0v9.334a2.5 2.5 0 0 1 -2.5 2.5zm-18.667 0h-2.233a2.5 2.5 0 0 1 0-5h2.229a2.5 2.5 0 0 1 0 5z" fill="#ffcbc2"/><path d="m151.7 231.5a2.521 2.521 0 1 1 3.7-.392 2.521 2.521 0 0 1 -3.7.392zm6.211-7.879a2.5 2.5 0 0 1 -1.16-3.34 31.714 31.714 0 0 0 2.424-6.99 2.5 2.5 0 0 1 4.883 1.077 36.738 36.738 0 0 1 -2.807 8.093 2.5 2.5 0 0 1 -3.339 1.157z" fill="#fbe0e2"/><path d="m159.75 149.09a2.5 2.5 0 0 1 -2.5-2.5v-2.3a2.5 2.5 0 1 1 5 0v2.3a2.5 2.5 0 0 1 -2.5 2.5zm0-12.3a2.5 2.5 0 0 1 -2.5-2.5v-9.709h-8.291a2.5 2.5 0 0 1 0-5h10.791a2.5 2.5 0 0 1 2.5 2.5v12.209a2.5 2.5 0 0 1 -2.5 2.505z" fill="#afafaf"/><path d="m73.046 87.553a.714.714 0 0 1 1.006 0l8.283 8.283a8.563 8.563 0 1 0 12.11-12.109l-24.039-24.04a5.967 5.967 0 0 0 -1.044-7.037l-6.013-6.013a4.592 4.592 0 0 0 -.349-6.137l-17.714-17.708a2.5 2.5 0 0 0 -3.535 3.535l17.456 17.457-34.017 34.016-17.458-17.455a2.5 2.5 0 1 0 -3.532 3.535l17.708 17.711a4.6 4.6 0 0 0 6.135.352l6.012 6.013a5.9 5.9 0 0 0 7.014 1.019l9.231 9.225a8.567 8.567 0 0 0 12.1 0zm-35.455-3.132-5.975-5.975 28.236-28.235 5.974 5.975a.965.965 0 0 1 0 1.368l-26.859 26.86a.975.975 0 0 1 -1.376.007zm16.239 10.245-9.018-9.019 22.241-22.242 23.857 23.857a3.563 3.563 0 0 1 -5.04 5.038l-8.283-8.283a5.706 5.706 0 0 0 -8.076 0l-10.648 10.649a3.645 3.645 0 0 1 -5.033 0z"/><path d="m251.8 60.345a2.5 2.5 0 0 0 -3.535 0l-17.454 17.455-34.019-34.016 17.458-17.457a2.5 2.5 0 1 0 -3.535-3.535l-17.715 17.708a4.63 4.63 0 0 0 -.35 6.133l-6.014 6.014a5.956 5.956 0 0 0 -1.021 7.014l-24.059 24.065a8.563 8.563 0 1 0 12.109 12.11l8.283-8.283a.712.712 0 0 1 1.006 0l10.646 10.647a8.567 8.567 0 0 0 12.1 0l9.2-9.2a5.975 5.975 0 0 0 7.036-1.042l6.014-6.014a4.6 4.6 0 0 0 6.133-.351l17.717-17.713a2.5 2.5 0 0 0 0-3.535zm-49.63 34.321a3.563 3.563 0 0 1 -5.032 0l-10.648-10.648a5.708 5.708 0 0 0 -8.077 0l-8.283 8.282a3.649 3.649 0 0 1 -5.039 0 3.56 3.56 0 0 1 0-5.039l23.857-23.857 22.242 22.243zm16.238-10.245a.973.973 0 0 1 -1.375-.007l-26.858-26.86a.969.969 0 0 1 0-1.369l5.975-5.974 28.235 28.235z"/><path d="m103.033 34.863v8.5a5.978 5.978 0 0 0 4.239 5.708v13.029a8.568 8.568 0 0 0 8.558 8.558h15.059a.712.712 0 0 1 .711.711v11.709a8.564 8.564 0 1 0 17.127 0v-34a5.976 5.976 0 0 0 4.238-5.71v-8.5a4.631 4.631 0 0 0 4.088-4.585v-25.053a2.5 2.5 0 1 0 -5 0v24.688h-48.108v-24.688a2.5 2.5 0 0 0 -5 0v25.048a4.631 4.631 0 0 0 4.088 4.585zm40.694 48.215a3.564 3.564 0 1 1 -7.127 0v-11.714a5.718 5.718 0 0 0 -5.711-5.711h-15.059a3.562 3.562 0 0 1 -3.558-3.558v-12.755h31.455zm4.238-48.16v8.449a.969.969 0 0 1 -.968.968h-37.985a.974.974 0 0 1 -.979-.968v-8.449z"/><path d="m174.92 179.212v-4.8h8.231a9 9 0 0 0 0-18h-8.231v-41.587a6.538 6.538 0 0 0 -6.53-6.53h-80.78a6.538 6.538 0 0 0 -6.53 6.53v41.6h-8.23a9 9 0 1 0 0 17.99h8.23v4.785a19.628 19.628 0 0 0 .72 39.243h.867a46.92 46.92 0 0 0 90.665.01h.838c11.669 0 20.659-10.322 19.584-21.021a19.66 19.66 0 0 0 -18.834-18.22zm-88.84-64.387a1.531 1.531 0 0 1 1.53-1.53h80.78a1.531 1.531 0 0 1 1.53 1.53v41.591l-83.84.008zm-17.23 50.59a4 4 0 0 1 4-3.99h10.731l99.57-.01a4 4 0 0 1 0 8h-110.301a4 4 0 0 1 -4-4zm-1.68 33.39a14.653 14.653 0 0 1 13.91-14.622c0 23.673-.16 24.687.535 29.261a14.653 14.653 0 0 1 -14.445-14.639zm79.748 44.95a41.91 41.91 0 0 1 -60.838-37.4v-31.94h83.84v31.94a41.779 41.779 0 0 1 -23.002 37.4zm27.467-30.3c.693-4.569.535-5.747.535-29.26a14.685 14.685 0 0 1 13.853 13.66c.766 7.66-5.615 15.473-14.388 15.599z"/><path d="m112.889 195.363a2.5 2.5 0 0 0 -2.5 2.5 4.243 4.243 0 1 1 -8.485 0 2.5 2.5 0 0 0 -5 0 9.243 9.243 0 1 0 18.485 0 2.5 2.5 0 0 0 -2.5-2.5z"/><path d="m156.6 195.363a2.5 2.5 0 0 0 -2.5 2.5 4.243 4.243 0 1 1 -8.485 0 2.5 2.5 0 0 0 -5 0 9.243 9.243 0 1 0 18.485 0 2.5 2.5 0 0 0 -2.5-2.5z"/><path d="m128 218.541a12.957 12.957 0 0 0 -12.943 12.943v2.171a2.5 2.5 0 0 0 5 0v-2.171a7.944 7.944 0 0 1 15.887 0v2.171a2.5 2.5 0 0 0 5 0v-2.171a12.958 12.958 0 0 0 -12.944-12.943z"/><path d="m128 210.143a2.5 2.5 0 0 0 2.5-2.5v-15.538a2.5 2.5 0 0 0 -5 0v15.538a2.5 2.5 0 0 0 2.5 2.5z"/><path d="m100.688 189.383 12.531-3.154a2.5 2.5 0 1 0 -1.219-4.849l-12.53 3.155a2.5 2.5 0 1 0 1.22 4.848z"/><path d="m142.785 186.229 12.531 3.154a2.5 2.5 0 1 0 1.22-4.848l-12.53-3.155a2.5 2.5 0 0 0 -1.221 4.849z"/></svg>