<svg id="Layer_3" enable-background="new 0 0 64 64" height="512" viewBox="0 0 64 64" width="512" xmlns="http://www.w3.org/2000/svg"><g><path d="m22 62v-3.076c0-3.247-.681-6.457-2-9.424-1.319-2.967-2-6.178-2-9.424v-1.076c0-6.627 5.373-12 12-12 6.627 0 12 5.373 12 12l4 8h-4v9h-6v6" fill="#f2b9a1"/><path d="m36 28.618c-1.766-1.023-3.812-1.618-6-1.618-6.627 0-12 5.373-12 12v1.076c0 3.247.681 6.457 2 9.424.363.816.672 1.652.938 2.5h13.062c1.105 0 2-.895 2-2z" fill="#fbe1ca"/><path d="m22 41c-.552 0-1-.448-1-1v-5c0-.552.448-1 1-1 .552 0 1 .448 1 1v5c0 .552-.448 1-1 1z" fill="#f2b9a1"/><path d="m33 58h-8c-.552 0-1 .448-1 1 0 .552.448 1 1 1h8c.552 0 1-.448 1-1 0-.552-.448-1-1-1z" fill="#fbe1ca"/><path d="m12 6h-3v24h46v-24h-3" fill="#ba4753"/><path d="m15 4h-3v23h3.938c5.37 0 10.734.334 16.062 1 5.328-.666 10.693-1 16.062-1h3.938v-23h-3l-17 4z" fill="#e1656e"/><path d="m32 6c-3.237-2.589-7.258-4-11.403-4h-5.597v22h5.597c4.145 0 8.166 1.411 11.403 4 3.237-2.589 7.258-4 11.403-4h5.597v-22h-5.597c-4.145 0-8.166 1.411-11.403 4z" fill="#f29b99"/><g><path d="m35 40h-4v-2h3v-6h2v7c0 .552-.448 1-1 1z" fill="#e1656e"/></g><g><path d="m28 32h2v10h-2z" fill="#ba4753"/></g><path d="m33 5.267c-.339.236-.676.474-1 .733-.324-.259-.661-.497-1-.733v31.733h2z" fill="#8d353e"/><path d="m18.5 15c-.828 0-1.5-.672-1.5-1.5v-8c0-.828.672-1.5 1.5-1.5.828 0 1.5.672 1.5 1.5v8c0 .828-.672 1.5-1.5 1.5z" fill="#e1656e"/><path d="m9 31h10.772c-1.774 2.27-2.772 5.077-2.772 8v1.076c0 3.409.702 6.716 2.086 9.831 1.27 2.856 1.914 5.89 1.914 9.017v4.076h2v-4.076c0-3.409-.702-6.716-2.086-9.831-1.27-2.856-1.914-5.89-1.914-9.017v-1.076c0-3.035 1.267-5.924 3.469-8h8.531v6h2v-6h4.533c2.201 2.075 3.467 4.97 3.467 8 0 .155.036.309.105.447l3.277 6.553h-2.382c-.552 0-1 .448-1 1v8h-8v2h2v6h2v-6h5c.552 0 1-.448 1-1v-8h3c.347 0 .668-.18.851-.474.182-.295.199-.663.044-.973l-3.897-7.793c-.053-2.833-1.045-5.551-2.77-7.759h14.772c.552 0 1-.448 1-1v-24.001c0-.552-.448-1-1-1h-2v-1c0-.552-.448-1-1-1h-2v-1c0-.552-.448-1-1-1h-5.597c-4.092 0-8.111 1.323-11.403 3.74-3.292-2.417-7.311-3.74-11.403-3.74h-5.597c-.552 0-1 .448-1 1v1h-2c-.552 0-1 .448-1 1v1h-2c-.552 0-1 .448-1 1v24c0 .552.448 1 1 1zm44-4v-20h1v22h-21v-.103c4.986-.588 10.047-.897 15.062-.897h3.938c.552 0 1-.448 1-1zm-3-3v-19h1v21h-2.938c-3.911 0-7.851.183-11.763.536 2.222-1.002 4.648-1.536 7.104-1.536h5.597c.552 0 1-.448 1-1zm-2-21v20h-4.597c-3.689 0-7.313 1.084-10.403 3.066v-19.56c2.985-2.257 6.656-3.506 10.403-3.506zm-32 0h4.597c3.747 0 7.418 1.249 10.403 3.506v19.56c-3.091-1.982-6.714-3.066-10.403-3.066h-4.597zm-3 2h1v19c0 .552.448 1 1 1h5.597c2.457 0 4.883.534 7.104 1.536-3.912-.353-7.852-.536-11.763-.536h-2.938zm-3 2h1v20c0 .552.448 1 1 1h3.938c5.015 0 10.076.309 15.062.897v.103h-21z"/><path d="m36 39v-7h-2v6h-3v2h4c.552 0 1-.448 1-1z"/><path d="m28 32h2v10h-2z"/></g></svg>