<svg id="Capa_1" enable-background="new 0 0 512 512" height="512" viewBox="0 0 512 512" width="512" xmlns="http://www.w3.org/2000/svg"><g><path d="m347 0c-90.981 0-165 75.019-165 166v180c0 90.981 74.019 166 165 166s165-75.019 165-166v-180c0-90.981-74.019-166-165-166z" fill="#b37d8f"/><path d="m512 346v-180c0-90.981-74.019-166-165-166v512c90.981 0 165-75.019 165-166z" fill="#995c70"/><path d="m347 30c-74.443 0-135 61.557-135 136v180c0 74.443 60.557 136 135 136 31.816 0 60.707-12.521 83.806-31l21.194-300 21.707-30c-18.636-52.266-68.119-91-126.707-91z" fill="#e6f2ff"/><path d="m452 151 21.707-30c-18.636-52.266-68.119-91-126.707-91v452c31.816 0 60.707-12.521 83.806-31z" fill="#cce6ff"/><path d="m482 346v-105l-32.17-81.323c-5.856 2.203-11.635 4.688-17.225 7.758-41.383 22.717-70.715 66.587-70.605 118.902-18.706 14.077-30 36.196-30 59.663v15h30.864l29.136 15-22.379 15c5.784 18.745 14.945 38.789 29.542 60h31.642c30.949-24.76 51.195-62.373 51.195-105z" fill="#ffbfb3"/><path d="m452 346h-30c0 8.276-6.724 15-15 15h-44.136c1.073 9.439 3.539 19.574 6.757 30h37.379c24.814 0 45-20.186 45-45z" fill="#ff9580"/><path d="m362 166c0 41.353 33.647 75 75 75h45v-75c0-15.855-3.25-30.855-8.293-45h-111.707z" fill="#333e73"/><path d="m272 286.337c.015-6.973-.498-14.004-1.538-21.006-2.615-17.532-9.261-33.922-18.393-48.766l-70.069-20.565-91 60v118.022l-30.656 40.433c.26 1.862.656 3.715.656 5.592v91.953h121v-61h52.837l4.482-6.431c1.201-1.729 26.748-38.95 31.816-83.569h30.865v-15c0-23.467-11.294-45.586-30-59.663z" fill="#ffd5cc"/><path d="m106 121c-57.99 0-106 47.01-106 105v53.377c0 41.354 15.455 78.978 44.257 105.646 9.186 8.513 14.599 18.807 16.088 29.432l60.655-40.433v-58.022c-16.569 0-30-13.433-30-30 0-16.569 13.431-30 30-30s31 13.431 31 30h30v-30c0-8.286 6.716-15 15-15 21.863 0 41.36-9.51 55.069-24.435 12.264-13.352 19.931-31.006 19.931-50.565v-45z" fill="#4d578c"/></g></svg>