<svg height="512" viewBox="0 0 128 128" width="512" xmlns="http://www.w3.org/2000/svg"><g><g><path d="m64 1.75a62.25 62.25 0 1 0 62.25 62.25 62.25 62.25 0 0 0 -62.25-62.25zm-52.25 62.25a52.222 52.222 0 0 1 85.544-40.237l-73.531 73.531a52.01 52.01 0 0 1 -12.013-33.294zm52.25 52.25a52.01 52.01 0 0 1 -33.154-11.9l73.507-73.507a52.222 52.222 0 0 1 -40.353 85.407z" fill="#ff637b"/><path d="m25.229 60v8a3 3 0 0 0 3 3h4.021v-14h-4.021a3 3 0 0 0 -3 3z" fill="#ff637b"/><path d="m84.75 57.003h18.021v13.994h-18.021z" fill="#596c76"/><g fill="#e1ebf0"><path d="m84.75 70.997v-13.994h-6.555l-13.994 13.994z"/><path d="m32.25 57.003v13.994h17.81l13.995-13.994z"/></g><g fill="#fde4e4"><path d="m26.875 50.878a1.749 1.749 0 0 1 -1.75-1.75 7.634 7.634 0 0 1 7.625-7.628h23.125a4.13 4.13 0 0 0 4.125-4.122v-9.625a1.75 1.75 0 0 1 3.5 0v9.625a7.634 7.634 0 0 1 -7.625 7.622h-23.125a4.13 4.13 0 0 0 -4.125 4.125 1.749 1.749 0 0 1 -1.75 1.753z"/><path d="m45.125 38.628a1.75 1.75 0 0 1 0-3.5 6.007 6.007 0 0 0 6-6v-3.5a1.75 1.75 0 0 1 3.5 0v3.5a9.511 9.511 0 0 1 -9.5 9.5z"/></g></g><g><path d="m64 0a64 64 0 1 0 64 64 64.072 64.072 0 0 0 -64-64zm0 124.5a60.5 60.5 0 1 1 60.5-60.5 60.57 60.57 0 0 1 -60.5 60.5z"/><path d="m87.622 108.627a50.261 50.261 0 0 1 -6.379 2.841 1.75 1.75 0 0 0 1.2 3.289 54.093 54.093 0 0 0 6.825-3.04 1.75 1.75 0 0 0 -1.643-3.09z"/><path d="m105.7 29.733a1.755 1.755 0 0 0 -1.267-.635 1.8 1.8 0 0 0 -1.322.51l-26.153 26.158-13.994 13.994-33.356 33.355a1.752 1.752 0 0 0 .125 2.589 54.057 54.057 0 0 0 34.267 12.296 1.75 1.75 0 0 0 0-3.5 50.558 50.558 0 0 1 -30.527-10.3l31.453-31.453h37.845a1.749 1.749 0 0 0 1.75-1.75v-13.997a1.749 1.749 0 0 0 -1.75-1.75h-20.351l21.78-21.78a50.395 50.395 0 0 1 -1.989 63.508 1.75 1.75 0 0 0 2.648 2.29 53.9 53.9 0 0 0 .845-69.538zm-4.683 39.514h-14.517v-10.494h14.521zm-18.017-10.494v10.494h-14.574l10.494-10.494z"/><path d="m51.3 72.234 13.992-13.994 12.724-12.724a1.75 1.75 0 1 0 -2.475-2.475l-12.212 12.212h-35.1a4.756 4.756 0 0 0 -4.751 4.747v8a4.756 4.756 0 0 0 4.75 4.75h17.607l-21.924 21.922a50.471 50.471 0 0 1 70.761-70.761l-7.834 7.834a1.75 1.75 0 1 0 2.474 2.475l9.219-9.22a1.75 1.75 0 0 0 -.12-2.585 53.972 53.972 0 0 0 -75.995 76 1.747 1.747 0 0 0 1.266.631h.082a1.749 1.749 0 0 0 1.236-.515l26.3-26.294zm-24.322-4.234v-8a1.252 1.252 0 0 1 1.25-1.25h2.272v10.497h-2.272a1.252 1.252 0 0 1 -1.25-1.247zm7.022 1.247v-10.494h25.829l-10.494 10.494z"/><path d="m25.125 49.128a1.75 1.75 0 0 0 3.5 0 4.13 4.13 0 0 1 4.125-4.128h23.125a7.634 7.634 0 0 0 7.625-7.622v-9.625a1.75 1.75 0 0 0 -3.5 0v9.625a4.13 4.13 0 0 1 -4.125 4.122h-23.125a7.634 7.634 0 0 0 -7.625 7.628z"/><path d="m54.625 29.128v-3.5a1.75 1.75 0 0 0 -3.5 0v3.5a6.007 6.007 0 0 1 -6 6 1.75 1.75 0 0 0 0 3.5 9.511 9.511 0 0 0 9.5-9.5z"/></g></g></svg>