<svg id="Capa_1" enable-background="new 0 0 512.004 512.004" height="512" viewBox="0 0 512.004 512.004" width="512" xmlns="http://www.w3.org/2000/svg"><g><g><path d="m328.654 341.524c2.373-5.544 4.755-11.021 7.141-16.429-3.222-26.195-14.741-51.54-32.502-72.748-12.582-15.024-20.71-33.776-20.71-57.151 0-53.683 38.099-81.055 83.493-94.615 44.585-13.319 41.225-77.469-4.403-86.595-159.207-31.842-334.756 49.608-351.283 216.465-8.322 84.018 28.37 153.823 78.658 208.726 53.165 58.044 141.572 59.864 197.703 11.965 10.744-32.534 24.989-70.105 41.903-109.618z" fill="#dbedff"/><path d="m163.567 439.177c-50.288-54.903-86.98-124.708-78.658-208.726 12.875-129.987 122.26-208.137 245.243-221.275-150.053-15.963-304.32 65.373-319.762 221.275-8.322 84.018 28.37 153.823 78.658 208.726 37.665 41.122 93.017 54.016 142.051 41.011-24.961-6.668-48.504-20.237-67.532-41.011z" fill="#b5dcff"/><circle cx="212.518" cy="96.482" fill="#f4dd45" r="32.905"/><circle cx="197.654" cy="390.421" fill="#64d465" r="38.739"/><circle cx="131.432" cy="180.31" fill="#f87c68" r="41.522"/><circle cx="117.392" cy="299.357" fill="#7fb3fa" r="41.522"/><path d="m216.621 96.482c0-11.311 5.709-21.287 14.401-27.209-5.273-3.593-11.642-5.695-18.504-5.695-18.173 0-32.905 14.732-32.905 32.905s14.732 32.905 32.905 32.905c6.862 0 13.231-2.103 18.504-5.696-8.692-5.923-14.401-15.899-14.401-27.21z" fill="#fcc101"/><path d="m195.922 390.421c0-14.693 8.181-27.475 20.236-34.042-5.498-2.995-11.802-4.698-18.504-4.698-21.395 0-38.739 17.344-38.739 38.739s17.344 38.74 38.739 38.74c6.702 0 13.006-1.703 18.504-4.698-12.055-6.566-20.236-19.348-20.236-34.041z" fill="#40c140"/><path d="m126.917 180.31c0-16.281 9.376-30.366 23.019-37.171-5.573-2.78-11.853-4.352-18.504-4.352-22.932 0-41.522 18.59-41.522 41.522s18.59 41.522 41.522 41.522c6.651 0 12.931-1.572 18.504-4.352-13.643-6.803-23.019-20.887-23.019-37.169z" fill="#ec625e"/><path d="m112.877 299.357c0-16.282 9.376-30.366 23.019-37.171-5.573-2.78-11.853-4.352-18.504-4.352-22.932 0-41.522 18.59-41.522 41.522s18.59 41.522 41.522 41.522c6.651 0 12.931-1.572 18.504-4.352-13.643-6.803-23.019-20.888-23.019-37.169z" fill="#64a6f4"/><path d="m415.343 280.02-45-18.667-6.434 1.605c-11.906 23.866-24.193 50.386-36.255 78.565-20.697 48.351-37.404 93.803-48.58 130.664-3.548 11.703 1.998 24.24 13.02 29.537 11.789 5.666 25.941 1.215 32.377-10.172 18.948-33.525 40.29-76.973 60.974-125.291 12.062-28.18 22.77-55.376 31.82-80.464z" fill="#ce775f"/><path d="m307.574 475.93c11.176-36.861 27.883-82.313 48.58-130.664 11.535-26.946 23.273-52.368 34.688-75.409l-20.499-8.503-6.434 1.605c-11.906 23.866-24.193 50.386-36.255 78.565-20.697 48.351-37.404 93.803-48.58 130.664-3.548 11.703 1.998 24.24 13.02 29.537 7.358 3.536 15.636 3.131 22.385-.441-6.804-6.304-9.716-16.083-6.905-25.354z" fill="#c0694e"/><path d="m419.296 162.711 32.272 13.815c1.468.629 2.695 1.584 3.646 2.739 11.516-6.567 31.988-20.846 41.74-43.629 10.745-25.102 2.541-70.656-1.846-90.445-1.078-4.863-6.579-7.218-10.841-4.641-17.346 10.486-55.97 35.994-66.716 61.096-9.753 22.783-5.953 47.451-2.755 60.317 1.494-.109 3.031.119 4.5.748z" fill="#ffe97b"/><path d="m442.886 117.313c8.834-20.637 36.503-41.541 55.708-54.154-1.173-7.036-2.437-13.242-3.485-17.968-1.078-4.863-6.579-7.218-10.841-4.641-17.346 10.486-55.97 35.994-66.716 61.096-9.753 22.783-5.953 47.451-2.755 60.317 1.493-.109 3.03.119 4.499.748l19.389 8.3c-2.593-13.685-4.074-34.368 4.201-53.698z" fill="#f4dd45"/><path d="m402.972 191.699c-11.878 19.164-25.209 43.436-39.062 71.26l53.356 22.84c10.57-29.23 18.929-55.63 24.597-77.453-1.202-.024-2.416-.267-3.586-.768l-32.272-13.815c-1.172-.501-2.186-1.212-3.033-2.064z" fill="#477b9e"/><path d="m392.409 266.701c12.146-24.395 23.89-46.058 34.606-63.943l-21.012-8.995c-1.17-.501-2.184-1.212-3.031-2.065-11.878 19.164-25.209 43.436-39.062 71.26l25.047 10.722c1.154-2.347 2.305-4.679 3.452-6.979z" fill="#3f6d8e"/><path d="m451.996 175.526-32.272-13.815c-4.939-2.114-10.657.176-12.771 5.115l-6.491 15.164c-2.114 4.939.176 10.657 5.115 12.771l32.272 13.815c4.939 2.114 10.657-.176 12.771-5.115l6.491-15.164c2.114-4.939-.176-10.657-5.115-12.771z" fill="#dbedff"/><path d="m424.538 192.356 6.97-16.283c1.396-3.261 4.257-5.441 7.486-6.112l-19.27-8.249c-4.939-2.114-10.657.176-12.771 5.115l-6.491 15.164c-2.114 4.939.176 10.657 5.115 12.771l21.143 9.051c-2.9-2.933-3.905-7.434-2.182-11.457z" fill="#b5dcff"/></g><g><path d="m212.704 137.231c22.279 0 40.405-18.125 40.405-40.404s-18.126-40.405-40.405-40.405-40.404 18.126-40.404 40.405 18.125 40.404 40.404 40.404zm0-65.809c14.009 0 25.405 11.396 25.405 25.405 0 14.008-11.396 25.404-25.405 25.404-14.008 0-25.404-11.396-25.404-25.404s11.396-25.405 25.404-25.405z"/><path d="m197.84 437.005c25.496 0 46.239-20.743 46.239-46.239s-20.743-46.239-46.239-46.239-46.239 20.743-46.239 46.239 20.743 46.239 46.239 46.239zm0-77.478c17.226 0 31.239 14.014 31.239 31.239s-14.014 31.239-31.239 31.239-31.239-14.014-31.239-31.239 14.013-31.239 31.239-31.239z"/><path d="m131.618 131.633c-27.031 0-49.022 21.991-49.022 49.022s21.991 49.022 49.022 49.022 49.022-21.991 49.022-49.022-21.991-49.022-49.022-49.022zm0 83.045c-18.76 0-34.022-15.262-34.022-34.022s15.263-34.022 34.022-34.022 34.022 15.262 34.022 34.022-15.262 34.022-34.022 34.022z"/><path d="m117.578 348.725c27.031 0 49.022-21.991 49.022-49.022s-21.991-49.022-49.022-49.022-49.022 21.991-49.022 49.022 21.991 49.022 49.022 49.022zm0-83.045c18.76 0 34.022 15.262 34.022 34.022s-15.263 34.022-34.022 34.022-34.022-15.262-34.022-34.022 15.262-34.022 34.022-34.022z"/><path d="m166.44 490.454c4.069.749 7.98-1.956 8.725-6.031s-1.956-7.981-6.031-8.725c-28.747-5.249-54.463-19.51-74.368-41.242-57.979-63.299-83.793-131.571-76.726-202.921 15.947-161.023 185.751-241.171 342.349-209.85 21.156 4.231 29.396 21.475 30.021 34.955.619 13.306-5.896 31.005-26.294 37.099-26.355 7.873-47.193 19.364-61.935 34.153-33.788 33.897-36.715 91.09-4.452 129.615 15.931 19.023 26.122 42.091 29.544 66.827-16.984 38.603-34.352 82.319-47.793 122.782-21.595 17.838-48.918 28.647-77.182 30.493-4.134.27-7.266 3.839-6.996 7.973.26 3.967 3.558 7.012 7.478 7.012.164 0 .329-.005.496-.017 24.337-1.589 48.054-9.174 68.674-21.744-4.362 15.196 2.759 31.115 17.081 37.997 15.294 7.35 33.809 1.526 42.155-13.241 14.442-25.553 30.091-56.567 45.252-89.689 1.725-3.766.068-8.217-3.697-9.941-3.768-1.725-8.217-.067-9.941 3.698-14.987 32.743-30.435 63.363-44.672 88.552-4.477 7.921-14.402 11.038-22.6 7.102-7.757-3.728-11.58-12.392-9.09-20.601 19.361-63.866 51.65-141.606 81.229-201.718l40.312 17.256c-9.399 25.614-20.106 52.284-31.031 77.571-1.641 3.803.112 8.216 3.915 9.857 3.809 1.643 8.217-.112 9.858-3.915 20.578-47.754 43.545-107.401 56.948-157.581 4.764-1.711 8.207-5.157 10.032-9.421l6.491-15.164c1.391-3.249 1.698-6.692 1.091-9.93 12.484-7.969 29.958-22.184 39.013-43.338 11.187-26.13 3.753-70.399-1.674-94.461-1.039-4.61-4.255-8.474-8.6-10.334-4.346-1.86-9.36-1.521-13.414.91-21.156 12.685-58.319 37.865-69.504 63.993-9.052 21.145-7.279 43.594-4.43 58.128-2.838 1.841-5.068 4.478-6.429 7.658l-6.491 15.164c-1.84 4.297-1.929 9.151.108 13.761-20.125 32.979-40.105 73.005-56.222 108.123-5.661-19.542-15.271-37.701-28.41-53.391-12.581-15.023-18.96-32.631-18.96-52.336 0-42.524 26.29-71.939 78.14-87.429 23.613-7.054 38.13-27.531 36.985-52.167-.947-20.376-14.321-43.419-42.064-48.968-165.082-33.018-343.348 52.774-360.219 223.079-7.505 75.774 19.61 147.953 80.593 214.531 22.133 24.164 50.742 40.025 82.735 45.866zm238.926-287.359c9.829 4.207 17.333 7.42 27.162 11.627-4.903 18.033-11.545 38.989-19.458 61.388l-38.69-16.562c10.748-21.191 21.325-40.462 30.986-56.453zm45.036-17.404-6.491 15.164c-.525 1.224-1.896 1.612-2.925 1.171l-32.273-13.815c-1.046-.448-1.689-1.714-1.171-2.924l6.491-15.165c.506-1.179 1.844-1.635 2.927-1.17l32.271 13.814c1.04.446 1.68 1.736 1.171 2.925zm-25.51-81.354c3.284-7.672 16.013-28.554 63.163-56.873 12.061 53.667 5.734 77.286 2.45 84.959-7.744 18.092-23.322 30.375-34.144 37.139-.401-.211-.812-.407-1.229-.585l-32.272-13.815h-.001c-.417-.178-.841-.34-1.271-.484-2.574-12.501-4.439-32.251 3.304-50.341z"/></g></g></svg>