<svg height="512" viewBox="0 0 64 64" width="512" xmlns="http://www.w3.org/2000/svg"><g id="Filled_outline" data-name="Filled outline"><path d="m26 9h4v15h-4z" fill="#143441"/><path d="m12.857 40-.857-3c-.248-1.117-.856-2-2-2-1.561 0-2.339 1.476-2 3l1 6h16v-4z" fill="#ffd782"/><path d="m49 44h-24a4.245 4.245 0 0 1 -4.276-4 4.245 4.245 0 0 1 4.276-4h24z" fill="#195c85"/><path d="m34.724 36 3.276-7 1.724-4h13.276l-4 11z" fill="#4f97d5"/><path d="m43 29-3 7h-4a2 2 0 0 0 -2 2 2 2 0 0 0 2 2h7l4-11z" fill="#ffd782"/><path d="m28 22a2.122 2.122 0 0 0 0 3l4 4h6l1.724-4h-5.724l-3-3a2.122 2.122 0 0 0 -3 0z" fill="#ffd782"/><path d="m49 36 4-11 3-8h1c3.012 0 4.041 3.174 3 6l-4 13z" fill="#ad6327"/><path d="m40 10h13v15h-13z" fill="#ffd782"/><path d="m49 36v8h-42a3.817 3.817 0 0 0 -4 4v3h50.969a2.031 2.031 0 0 0 2.031-2.031v-12.969z" fill="#d3843d"/><path d="m47 10h6a0 0 0 0 1 0 0v8a0 0 0 0 1 0 0h-3a3 3 0 0 1 -3-3v-5a0 0 0 0 1 0 0z" fill="#143441"/><path d="m53 10h-13l-3-5h13a3 3 0 0 1 3 3z" fill="#394d5c"/><path d="m5 51h6v8h-6z" fill="#66342e"/><path d="m48 51h6v8h-6z" fill="#66342e"/><path d="m3 52h1v7a1 1 0 0 0 1 1h6a1 1 0 0 0 1-1v-7h35v7a1 1 0 0 0 1 1h6a1 1 0 0 0 1-1v-7.193a3.027 3.027 0 0 0 2-2.838v-12.82l3.938-12.8a6.19 6.19 0 0 0 -.439-5.589 4.129 4.129 0 0 0 -3.499-1.76h-1a1 1 0 0 0 -.937.649l-1.063 2.836v-11.485a4 4 0 0 0 -4-4h-13a1 1 0 0 0 -.857 1.515l2.857 4.762v13.723h-4.586l-2.707-2.707a3.092 3.092 0 0 0 -.707-.514v-11.779a1 1 0 0 0 -1-1h-4a1 1 0 0 0 -1 1v15a1 1 0 0 0 1 1h.779a3.092 3.092 0 0 0 .514.707l4 4a1 1 0 0 0 .707.293h4.427l-2.343 5h-9.084a5.485 5.485 0 0 0 -3.649 1.436 4.993 4.993 0 0 0 -1.517 2.564h-6.221l-.637-2.218c-.394-1.768-1.476-2.782-2.976-2.782a3.091 3.091 0 0 0 -3.08 3.3 4.247 4.247 0 0 0 .094.865l.806 4.835h-.82a4.836 4.836 0 0 0 -5 5v3a1 1 0 0 0 1 1zm7 6h-4v-6h4zm43 0h-4v-6h4zm3.693-40h.307a2.13 2.13 0 0 1 1.859.9 4.3 4.3 0 0 1 .185 3.805l-3.783 12.295h-4.833zm-12.709.328a4.635 4.635 0 0 1 -2.984 1.831v-9.159h5v4a3.827 3.827 0 0 0 4 4h2v5h-11v-1.855c1.085-.032 2.68-.508 4.464-2.473zm4.016-3.328v-4h4v6h-2a1.838 1.838 0 0 1 -2-2zm-9.234-9h11.234a2 2 0 0 1 2 2v1h-11.434zm-11.766 15.652v-11.652h2v10.428a2.893 2.893 0 0 0 -2 1.224zm5.414 6.348-3.707-3.707a1.121 1.121 0 0 1 1.586-1.586l3 3a1 1 0 0 0 .707.293h4.2l-.86 2zm7.968-2h11.19l-3.272 9h-2.418l2.058-5.658a1 1 0 0 0 -.94-1.342h-4a1 1 0 0 0 -.919.606l-2.74 6.394h-3.048zm-4.382 11h4a1 1 0 0 0 .919-.606l2.74-6.394h1.913l-3.272 9h-6.3a1 1 0 0 1 0-2zm-13.3.909a3.466 3.466 0 0 1 2.3-.909h8.184a2.966 2.966 0 0 0 -.184 1 3 3 0 0 0 3 3h7a1 1 0 0 0 .94-.658l1.215-3.342h2.845v6h-23a3.232 3.232 0 0 1 -3.28-3 2.868 2.868 0 0 1 .98-2.091zm-12.7-1.909c.206 0 .752 0 1.039 1.275l.859 3a1 1 0 0 0 .962.725h6.972a4.88 4.88 0 0 0 1 2h-10.985s-.927-5.556-.927-5.7c0-.217.052-1.3 1.08-1.3zm-6 12a2.812 2.812 0 0 1 3-3h42a1 1 0 0 0 1-1v-7h5v11.969a1.032 1.032 0 0 1 -1.031 1.031h-49.969z"/><path d="m43 13h2v2h-2z"/><path d="m32.586 10h2.828v2h-2.828z" transform="matrix(.707 -.707 .707 .707 2.18 27.263)"/><path d="m33.5 16.919h2v3.162h-2z" transform="matrix(.316 -.949 .949 .316 6.04 45.379)"/></g></svg>