<svg id="Layer_1" enable-background="new 0 0 512.192 512.192" height="512" viewBox="0 0 512.192 512.192" width="512" xmlns="http://www.w3.org/2000/svg"><g><g><ellipse cx="152.663" cy="92.78" fill="#ffb69e" rx="37.616" ry="37.617" transform="matrix(.999 -.045 .045 .999 -4.048 7.013)"/><g id="XMLID_5429_"><g><path d="m179.391 512.192c-12.028 0-21.78-9.751-21.78-21.78v-174.09c0-12.029 9.752-21.78 21.78-21.78s21.78 9.751 21.78 21.78v174.09c0 12.029-9.752 21.78-21.78 21.78z" fill="#414b82"/></g></g><g id="XMLID_5430_"><g><path d="m126.814 512.192c-12.028 0-21.78-9.751-21.78-21.78v-174.09c0-12.029 9.752-21.78 21.78-21.78s21.78 9.751 21.78 21.78v174.09c0 12.029-9.752 21.78-21.78 21.78z" fill="#5f6e9b"/></g></g><g fill="#ffb69e"><path d="m255.289 1.435c-9.231-3.9-19.882.424-23.781 9.659l-36.067 85.403 8.427 19.957 23.636-1.728 37.443-89.509c3.901-9.235-.425-19.883-9.658-23.782z"/><path d="m168.096 142.386h-33.775l-.383 2.889c-1.387 10.447 6.742 19.726 17.28 19.726 10.585 0 18.727-9.356 17.265-19.84z"/><path d="m78.96 224.718-18.149 8.327v85.419c-.051 10.024 7.699 18.19 17.724 18.241h.093c9.981 0 18.433-8.066 18.482-18.059v-85.601z"/></g><path d="m195.441 96.496-19.38 45.89h-7.964c.003.061.014.121.016.182.409 9.125-8.058 16.897-16.897 16.897-9.473 0-16.487-7.742-16.897-16.897-.003-.061.005-.121.003-.182h-30.225c-23.563 0-43.167 19.171-43.286 42.736v47.922h36.299v-47.739c.019-3.65 3.338-6.62 6.987-6.62h.937v137.636h96.137v-138.645l26.333-62.951z" fill="#64afff"/></g><g><ellipse cx="359.529" cy="92.78" fill="#ffcd9b" rx="37.617" ry="37.616" transform="matrix(.055 -.999 .999 .055 247.009 446.628)"/><g id="XMLID_695_"><g><path d="m332.802 512.192c12.028 0 21.78-9.751 21.78-21.78v-174.09c0-12.029-9.752-21.78-21.78-21.78s-21.78 9.751-21.78 21.78v174.09c-.001 12.029 9.751 21.78 21.78 21.78z" fill="#828291"/></g></g><g id="XMLID_694_"><g><path d="m385.378 512.192c12.028 0 21.78-9.751 21.78-21.78v-174.09c0-12.029-9.752-21.78-21.78-21.78s-21.78 9.751-21.78 21.78v174.09c0 12.029 9.752 21.78 21.78 21.78z" fill="#695a6e"/></g></g><g fill="#ffcd9b"><path d="m256.903 1.435c9.231-3.9 19.882.424 23.781 9.659l36.067 85.403-8.427 19.957-23.636-1.728-37.443-89.509c-3.9-9.235.425-19.883 9.658-23.782z"/><path d="m344.096 142.386h33.775l.383 2.889c1.387 10.447-6.742 19.726-17.28 19.726-10.585 0-18.727-9.356-17.265-19.84z"/><path d="m433.233 224.718 18.149 8.327v85.419c.051 10.024-7.699 18.19-17.724 18.241h-.093c-9.981 0-18.433-8.066-18.482-18.059v-85.601z"/></g><path d="m316.752 96.496 19.38 45.89h7.964c-.003.061-.014.121-.016.182-.409 9.125 8.058 16.897 16.897 16.897 9.473 0 16.487-7.742 16.897-16.897.003-.061-.005-.121-.003-.182h30.225c23.563 0 43.167 19.171 43.286 42.736v47.922h-36.299v-47.739c-.019-3.65-3.338-6.62-6.987-6.62h-.937v137.636h-96.137v-138.645l-26.333-62.951z" fill="#39ae96"/></g></g></svg>