<svg id="Capa_1" enable-background="new 0 0 512 512" height="512" viewBox="0 0 512 512" width="512" xmlns="http://www.w3.org/2000/svg"><g><g><g clip-rule="evenodd" fill-rule="evenodd"><path d="m43.229 119.695h66.7c19.672 0 35.745 16.102 35.745 35.746v67.295c-.907 5.102-4.933 9.098-10.035 10.006h-118.12c-5.103-.908-9.1-4.904-10.006-10.006v-67.295c-.001-19.644 16.072-35.746 35.716-35.746z" fill="#a5cdff"/><path d="m121.41 155.441v67.295c-.907 5.102-4.933 9.098-10.035 10.006h24.265c5.102-.908 9.128-4.904 10.035-10.006v-67.295c0-19.645-16.073-35.746-35.745-35.746h-24.266c19.673 0 35.746 16.102 35.746 35.746z" fill="#8abfff"/><path d="m222.665 119.695h66.699c19.645 0 35.717 16.102 35.717 35.746v67.295c-.878 5.102-4.903 9.098-10.006 10.006h-118.122c-5.102-.908-9.127-4.904-10.034-10.006v-67.295c0-19.644 16.072-35.746 35.746-35.746z" fill="#ff6978"/><path d="m300.816 155.441v67.295c-.907 5.102-4.904 9.098-10.007 10.006h24.266c5.103-.908 9.128-4.904 10.006-10.006v-67.295c0-19.645-16.072-35.746-35.717-35.746h-24.264c19.643 0 35.716 16.102 35.716 35.746z" fill="#eb616f"/><path d="m402.071 119.695h66.699c19.645 0 35.746 16.102 35.746 35.746v67.295c-.907 5.102-4.933 9.098-10.035 10.006h-118.121c-5.103-.908-9.128-4.904-10.035-10.006v-67.295c0-19.644 16.101-35.746 35.746-35.746z" fill="#ccf49f"/><path d="m480.252 155.441v67.295c-.907 5.102-4.933 9.098-10.036 10.006h24.266c5.103-.908 9.128-4.904 10.035-10.006v-67.295c0-19.645-16.101-35.746-35.746-35.746h-24.265c19.644 0 35.746 16.102 35.746 35.746z" fill="#b3e59f"/><path d="m17.206 296.777h118.774c5.329 0 9.694 4.365 9.694 9.693v170.363c0 5.328-4.365 9.693-9.694 9.693h-118.774c-5.329 0-9.694-4.365-9.694-9.693v-170.362c0-5.328 4.365-9.694 9.694-9.694z" fill="#e1f1ff"/><path d="m196.613 296.777h118.773c5.329 0 9.694 4.365 9.694 9.693v170.363c0 5.328-4.365 9.693-9.694 9.693h-118.773c-5.329 0-9.694-4.365-9.694-9.693v-170.362c0-5.328 4.365-9.694 9.694-9.694z" fill="#e1f1ff"/><path d="m376.048 296.777h118.745c5.358 0 9.724 4.365 9.724 9.693v170.363c0 5.328-4.365 9.693-9.724 9.693h-118.745c-5.358 0-9.723-4.365-9.723-9.693v-170.362c0-5.328 4.365-9.694 9.723-9.694z" fill="#e1f1ff"/><path d="m470.528 296.777h24.265c5.358 0 9.724 4.365 9.724 9.693v170.363c0 5.328-4.365 9.693-9.724 9.693h-24.265c5.358 0 9.724-4.365 9.724-9.693v-170.362c0-5.328-4.365-9.694-9.724-9.694z" fill="#cbe2ff"/><path d="m291.121 296.777h24.266c5.329 0 9.694 4.365 9.694 9.693v170.363c0 5.328-4.365 9.693-9.694 9.693h-24.266c5.329 0 9.695-4.365 9.695-9.693v-170.362c0-5.328-4.366-9.694-9.695-9.694z" fill="#cbe2ff"/><path d="m111.687 296.777h24.293c5.329 0 9.694 4.365 9.694 9.693v170.363c0 5.328-4.365 9.693-9.694 9.693h-24.293c5.357 0 9.723-4.365 9.723-9.693v-170.362c0-5.328-4.366-9.694-9.723-9.694z" fill="#cbe2ff"/><path d="m43.853 281.385h10.29 5.414v-11.594c.51-2.75 2.665-4.934 5.443-5.414h23.188c2.75.48 4.932 2.664 5.414 5.414v11.594h5.415 10.318c2.75.48 4.932 2.664 5.414 5.414v19.928c-.482 2.75-2.664 4.932-5.414 5.414h-65.482c-2.75-.482-4.932-2.664-5.414-5.414v-19.928c.481-2.75 2.664-4.934 5.414-5.414z" fill="#7c8c97"/><path d="m223.26 281.385h10.318 5.414v-11.594c.481-2.75 2.665-4.934 5.414-5.414h23.216c2.75.48 4.904 2.664 5.414 5.414v11.594h5.414 10.29c2.749.48 4.933 2.664 5.414 5.414v19.928c-.481 2.75-2.665 4.932-5.414 5.414h-65.48c-2.749-.482-4.933-2.664-5.414-5.414v-19.928c.481-2.75 2.665-4.934 5.414-5.414z" fill="#7c8c97"/><path d="m402.694 281.385h10.29 5.414v-11.594c.482-2.75 2.665-4.934 5.415-5.414h23.215c2.75.48 4.933 2.664 5.414 5.414v11.594h5.415 10.317c2.75.48 4.905 2.664 5.415 5.414v19.928c-.51 2.75-2.665 4.932-5.415 5.414h-65.48c-2.777-.482-4.932-2.664-5.414-5.414v-19.928c.483-2.75 2.637-4.934 5.414-5.414z" fill="#7c8c97"/></g><path d="m259.969 402.594 14.003 24.379c.057.084.085.17.142.254l13.918 24.18c1.22 2.184.482 4.961-1.672 6.209-.709.396-1.503.594-2.269.594v.029h-56.154c-2.522 0-4.535-2.041-4.535-4.565 0-.992.312-1.898.822-2.637l13.833-24.064 14.031-24.436c1.276-2.154 4.025-2.92 6.208-1.645.709.426 1.275 1.022 1.673 1.702z" fill="#9ad483"/><path clip-rule="evenodd" d="m76.593 460.533c18.454 0 33.506-15.051 33.506-33.533 0-18.453-15.052-33.506-33.506-33.506s-33.534 15.053-33.534 33.506c0 18.482 15.08 33.533 33.534 33.533z" fill="#c19ee3" fill-rule="evenodd"/><path clip-rule="evenodd" d="m411.058 397.803h48.727c2.665 0 4.848 2.184 4.848 4.848v48.729c0 2.664-2.183 4.846-4.848 4.846h-48.727c-2.665 0-4.848-2.182-4.848-4.846v-48.73c0-2.664 2.183-4.847 4.848-4.847z" fill="#79b2ff" fill-rule="evenodd"/><path clip-rule="evenodd" d="m473.307 87.268c0 20.834-17.037 37.898-37.872 37.898-20.862 0-37.898-17.064-37.898-37.898v-40.592c0-11.68 9.553-21.203 21.203-21.203h33.363c11.679 0 21.204 9.523 21.204 21.203z" fill="#ffcbbe" fill-rule="evenodd"/><path clip-rule="evenodd" d="m114.493 87.268c0 20.834-17.066 37.898-37.9 37.898-20.835 0-37.899-17.064-37.899-37.898 0-13.521 0-27.07 0-40.592 0-11.68 9.553-21.203 21.203-21.203h48.927c3.912 0 5.67 2.238 5.67 5.641-.001 18.708-.001 37.445-.001 56.154z" fill="#ffcbbe" fill-rule="evenodd"/><path clip-rule="evenodd" d="m397.536 46.676v24.916l25.908-12.699c3.486-1.701 6.889-1.871 10.403-.68l39.459 13.379v-24.916c0-11.68-9.525-21.203-21.204-21.203h-33.363c-11.65 0-21.203 9.523-21.203 21.203z" fill="#477b9e" fill-rule="evenodd"/><path clip-rule="evenodd" d="m38.694 46.676v12.217h75.799v-27.78c0-3.402-1.757-5.641-5.67-5.641h-48.926c-11.65.001-21.203 9.524-21.203 21.204z" fill="#ffe5a0" fill-rule="evenodd"/><path clip-rule="evenodd" d="m293.899 87.268c0 20.834-17.064 37.898-37.899 37.898s-37.871-17.064-37.871-37.898v-40.592c0-11.68 9.524-21.203 21.203-21.203h33.364c11.65 0 21.203 9.523 21.203 21.203z" fill="#ffcbbe" fill-rule="evenodd"/><path clip-rule="evenodd" d="m218.129 46.676v14.74c10.658 3.969 19.588.652 24.719-2.268 3.996-2.267 4.648-2.721 8.617.736 18.17 15.932 42.435 7.088 42.435 7.088v-20.296c0-11.68-9.553-21.203-21.203-21.203h-33.364c-11.68 0-21.204 9.523-21.204 21.203z" fill="#c68b87" fill-rule="evenodd"/><path clip-rule="evenodd" d="m90.2 58.893v28.375c0 16.611-10.8 30.812-25.739 35.887 3.799 1.305 7.88 2.012 12.132 2.012 20.834 0 37.9-17.064 37.9-37.898v-28.376z" fill="#f7beaf" fill-rule="evenodd"/><path clip-rule="evenodd" d="m90.2 31.113v27.779h24.294v-27.779c0-3.402-1.757-5.641-5.67-5.641h-24.265c3.883.001 5.641 2.239 5.641 5.641z" fill="#f2ce7e" fill-rule="evenodd"/><path clip-rule="evenodd" d="m269.635 87.268c0 16.611-10.828 30.812-25.767 35.887 3.826 1.305 7.908 2.012 12.132 2.012 20.835 0 37.899-17.064 37.899-37.898v-20.296s-11.311 4.109-24.265 1.672v18.623z" fill="#f7beaf" fill-rule="evenodd"/><path clip-rule="evenodd" d="m269.635 46.676v21.969c12.954 2.438 24.265-1.672 24.265-1.672v-20.297c0-11.68-9.553-21.203-21.203-21.203h-24.265c11.65 0 21.203 9.523 21.203 21.203z" fill="#bd7d79" fill-rule="evenodd"/><path clip-rule="evenodd" d="m449.041 87.268c0 16.611-10.828 30.812-25.738 35.887 3.799 1.305 7.88 2.012 12.132 2.012 20.835 0 37.872-17.064 37.872-37.898v-15.677l-24.266-8.221z" fill="#f7beaf" fill-rule="evenodd"/><path clip-rule="evenodd" d="m449.041 46.676v16.695l24.266 8.221v-24.916c0-11.68-9.525-21.203-21.204-21.203h-24.265c11.65 0 21.203 9.523 21.203 21.203z" fill="#365e7d" fill-rule="evenodd"/></g><path d="m114.323 112.41c10.148 1.049 19.304 5.642 26.164 12.473 7.824 7.854 12.7 18.652 12.7 30.559v77.301c0 4.139-3.373 7.512-7.512 7.512-46.063 0-92.127 0-138.162 0-4.139 0-7.512-3.373-7.512-7.512v-77.301c0-11.906 4.876-22.705 12.699-30.559 6.86-6.83 15.988-11.424 26.136-12.473-4.819-7.199-7.625-15.846-7.625-25.143v-28.374-12.217c0-7.908 3.203-15.08 8.419-20.297 5.187-5.188 12.387-8.418 20.268-8.418h54.596c4.138 0 7.483 3.373 7.483 7.512v33.42 28.375c0 9.296-2.807 17.943-7.654 25.142zm351.499-35.461-36.822-12.472-23.98 11.736v11.055c0 8.363 3.43 15.959 8.957 21.459 5.499 5.527 13.097 8.928 21.458 8.928 8.334 0 15.932-3.4 21.459-8.928 5.499-5.5 8.929-13.096 8.929-21.459v-10.319zm-60.802-17.347 19.757-9.666c1.786-1.049 4.025-1.332 6.123-.623l34.923 11.82v-14.457c0-3.77-1.559-7.199-4.054-9.666-2.466-2.494-5.896-4.055-9.666-4.055h-33.363c-3.77 0-7.172 1.56-9.666 4.055-2.495 2.467-4.054 5.896-4.054 9.666zm-358.814-8.192h60.775v-18.455h-47.084c-3.742 0-7.172 1.56-9.666 4.055-2.495 2.467-4.025 5.896-4.025 9.666zm60.774 14.994h-60.774v20.863c0 8.363 3.401 15.959 8.929 21.459 5.499 5.527 13.097 8.928 21.458 8.928 8.334 0 15.931-3.4 21.459-8.928 5.499-5.5 8.929-13.096 8.929-21.459v-20.863zm179.408 9.866c-10.148 1.389-26.306 1.049-39.799-10.715-4.762 2.721-12.104 5.67-20.977 5.074v16.639c0 8.363 3.43 15.959 8.93 21.459 5.527 5.527 13.124 8.928 21.458 8.928 8.362 0 15.959-3.4 21.458-8.928 5.527-5.5 8.93-13.096 8.93-21.459zm-60.776-20.637c6.18.766 12.303-1.359 16.951-5.385 3.118-2.723 7.852-2.383 10.545.764 10.744 12.332 25.625 11.623 33.279 10.178v-14.514c0-3.77-1.531-7.199-4.025-9.666-2.494-2.494-5.925-4.055-9.666-4.055h-33.364c-3.77 0-7.2 1.56-9.694 4.055-2.466 2.467-4.025 5.896-4.025 9.666v8.957zm-170.563 71.574h-11.82c-7.738 0-14.797 3.176-19.928 8.307-5.131 5.102-8.306 12.16-8.306 19.928v69.816h13.975v-56.041c0-4.139 3.374-7.512 7.512-7.512s7.483 3.373 7.483 7.512v56.041h65.226v-56.041c0-4.139 3.373-7.512 7.512-7.512s7.512 3.373 7.512 7.512v56.041h13.947v-69.816c0-7.768-3.175-14.826-8.277-19.928-5.131-5.131-12.189-8.307-19.956-8.307h-11.792c-6.435 3.488-13.776 5.443-21.543 5.443-7.796 0-15.11-1.955-21.545-5.443zm425.769-39.939c0 9.297-2.834 17.943-7.653 25.143 10.148 1.049 19.304 5.642 26.136 12.473 7.852 7.854 12.699 18.652 12.699 30.559v77.301c0 4.139-3.345 7.512-7.483 7.512-46.065 0-92.127 0-138.191 0-4.139 0-7.483-3.373-7.483-7.512v-77.301c0-11.906 4.848-22.705 12.699-30.559 6.86-6.83 15.988-11.424 26.137-12.473-4.819-7.199-7.653-15.846-7.653-25.143v-40.592c0-7.908 3.231-15.08 8.447-20.297 5.188-5.188 12.358-8.418 20.268-8.418h33.363c7.909 0 15.08 3.231 20.297 8.418 5.188 5.217 8.419 12.389 8.419 20.297v40.592zm-23.868 39.939c-6.406 3.488-13.748 5.443-21.516 5.443-7.795 0-15.137-1.984-21.571-5.471l-11.792.027c-7.767 0-14.825 3.176-19.929 8.307-5.131 5.102-8.306 12.16-8.306 19.928v69.816h13.977v-56.041c0-4.139 3.345-7.512 7.482-7.512 4.139 0 7.513 3.373 7.513 7.512v56.041h65.226v-56.041c0-4.139 3.373-7.512 7.512-7.512s7.483 3.373 7.483 7.512v56.041h13.976v-69.816c0-7.768-3.175-14.826-8.306-19.928-5.102-5.131-12.161-8.307-19.929-8.307h-11.82zm-155.566-39.939c0 9.297-2.807 17.943-7.626 25.143 10.148 1.049 19.276 5.642 26.136 12.473 7.824 7.854 12.699 18.652 12.699 30.559v77.301c0 4.139-3.373 7.512-7.512 7.512-46.035 0-92.099 0-138.162 0-4.139 0-7.512-3.373-7.512-7.512v-77.301c0-11.906 4.875-22.705 12.699-30.559 6.859-6.83 16.016-11.424 26.164-12.473-4.818-7.199-7.654-15.846-7.654-25.143v-40.592c0-7.908 3.232-15.08 8.42-20.297 5.216-5.188 12.388-8.418 20.296-8.418h33.364c7.908 0 15.08 3.231 20.268 8.418 5.217 5.217 8.42 12.389 8.42 20.297zm-23.841 39.939c-6.406 3.488-13.748 5.443-21.543 5.443-7.767 0-15.108-1.955-21.515-5.443h-11.82c-7.767 0-14.827 3.176-19.957 8.307-5.102 5.102-8.277 12.16-8.277 19.928v69.816h13.946v-56.041c0-4.139 3.373-7.512 7.513-7.512 4.139 0 7.512 3.373 7.512 7.512v56.041h65.226v-56.041c0-4.139 3.345-7.512 7.483-7.512 4.168 0 7.513 3.373 7.513 7.512v56.041h13.975v-69.816c0-7.768-3.175-14.826-8.306-19.928-5.13-5.131-12.189-8.307-19.928-8.307zm134.647 247.438c-4.138 0-7.512-3.346-7.512-7.484 0-4.139 3.374-7.512 7.512-7.512h46.46c4.139 0 7.513 3.373 7.513 7.512s-3.374 7.484-7.513 7.484zm-14.91-27.497c-4.166 0-7.512-3.346-7.512-7.484 0-4.166 3.346-7.512 7.512-7.512h76.31c4.139 0 7.484 3.346 7.484 7.512 0 4.139-3.346 7.484-7.484 7.484zm-164.524 27.497c-4.139 0-7.483-3.346-7.483-7.484 0-4.139 3.345-7.512 7.483-7.512h46.488c4.139 0 7.512 3.373 7.512 7.512s-3.373 7.484-7.512 7.484zm-14.91-27.497c-4.14 0-7.484-3.346-7.484-7.484 0-4.166 3.345-7.512 7.484-7.512h76.309c4.14 0 7.513 3.346 7.513 7.512 0 4.139-3.373 7.484-7.513 7.484zm-164.497 27.497c-4.138 0-7.483-3.346-7.483-7.484 0-4.139 3.345-7.512 7.483-7.512h46.489c4.139 0 7.484 3.373 7.484 7.512s-3.345 7.484-7.484 7.484zm-14.911-27.497c-4.139 0-7.512-3.346-7.512-7.484 0-4.166 3.373-7.512 7.512-7.512h76.31c4.139 0 7.484 3.346 7.484 7.512 0 4.139-3.345 7.484-7.484 7.484zm367.772 43.143h58.422c4.139 0 7.512 3.373 7.512 7.512v58.422c0 4.139-3.373 7.512-7.512 7.512h-58.422c-4.139 0-7.512-3.373-7.512-7.512v-58.422c0-4.139 3.373-7.512 7.512-7.512zm50.938 14.996h-43.455v43.455h43.455zm-380.555-19.305c11.31 0 21.572 4.592 28.998 12.02 7.427 7.426 12.02 17.688 12.02 28.998 0 11.338-4.592 21.6-12.02 29.027-7.427 7.426-17.688 12.018-28.998 12.018-11.338 0-21.601-4.592-28.999-12.018-7.427-7.427-12.018-17.689-12.018-29.027 0-11.31 4.592-21.572 12.019-28.998 7.398-7.428 17.66-12.02 28.998-12.02zm18.397 22.621c-4.705-4.705-11.225-7.625-18.397-7.625-7.2 0-13.692 2.92-18.397 7.625s-7.625 11.225-7.625 18.397c0 7.199 2.92 13.691 7.625 18.426 4.706 4.705 11.198 7.596 18.397 7.596 7.172 0 13.691-2.891 18.397-7.596 4.706-4.734 7.625-11.227 7.625-18.426 0-7.172-2.919-13.691-7.625-18.397zm167.53-16.468c12.019 20.805 24.01 41.555 36.001 62.361 2.069 3.572.85 8.135-2.722 10.205-1.134.68-2.41 1.02-3.742 1.02h-72.113c-4.139 0-7.483-3.344-7.483-7.482 0-1.559.48-3.006 1.275-4.195 11.934-20.664 23.868-41.301 35.802-61.965 2.041-3.572 6.605-4.82 10.177-2.75 1.218.679 2.182 1.671 2.805 2.806zm-6.52 18.593c-7.682 13.324-15.364 26.674-23.074 39.998h46.148c-7.682-13.324-15.364-26.646-23.074-39.998zm141.28-136.828h13.635v-9.523c0-4.139 3.346-7.512 7.483-7.512h34.044c4.139 0 7.513 3.373 7.513 7.512v9.523h13.635c4.139 0 7.484 3.346 7.484 7.484v7.879h23.442c4.139 0 7.483 3.375 7.483 7.514v189.75c0 4.139-3.345 7.512-7.483 7.512h-138.191c-4.139 0-7.483-3.373-7.483-7.512v-77.896c0-4.139 3.345-7.482 7.483-7.482 4.167 0 7.512 3.344 7.512 7.482v70.414h123.168v-174.785h-15.931v7.881c0 4.139-3.346 7.512-7.484 7.512h-76.31c-4.166 0-7.512-3.373-7.512-7.512v-7.881h-15.932v70.412c0 4.139-3.345 7.484-7.512 7.484-4.139 0-7.483-3.346-7.483-7.484v-77.895c0-4.139 3.345-7.514 7.483-7.514h23.443v-7.879c.002-4.138 3.347-7.484 7.513-7.484zm21.118 14.997h-13.634v15.76h61.312c0-5.272 0-10.516 0-15.76h-13.635c-4.138 0-7.512-3.373-7.512-7.512v-9.525h-19.02v9.525c.002 4.138-3.372 7.512-7.511 7.512zm-200.552-14.997h13.635v-9.523c0-4.139 3.373-7.512 7.512-7.512h34.044c4.139 0 7.483 3.373 7.483 7.512v9.523h13.635c4.14 0 7.513 3.346 7.513 7.484v7.879h23.414c4.139 0 7.512 3.375 7.512 7.514v189.75c0 4.139-3.373 7.512-7.512 7.512h-138.163c-4.139 0-7.512-3.373-7.512-7.512v-77.896c0-4.139 3.373-7.482 7.512-7.482s7.512 3.344 7.512 7.482v70.414h123.167v-174.785h-15.931v7.881c0 4.139-3.373 7.512-7.513 7.512h-76.309c-4.14 0-7.484-3.373-7.484-7.512v-7.881h-15.931v70.412c0 4.139-3.373 7.484-7.512 7.484s-7.512-3.346-7.512-7.484v-77.895c0-4.139 3.373-7.514 7.512-7.514h23.442v-7.879c.001-4.138 3.346-7.484 7.486-7.484zm21.146 14.997h-13.635v15.76h61.313v-15.76h-13.635c-4.167 0-7.512-3.373-7.512-7.512v-9.525h-19.049v9.525c.002 4.138-3.343 7.512-7.482 7.512zm-200.554-14.997h13.635v-9.523c0-4.139 3.345-7.512 7.483-7.512h34.044c4.139 0 7.512 3.373 7.512 7.512v9.523h13.635c4.139 0 7.484 3.346 7.484 7.484v7.879h23.442c4.139 0 7.512 3.375 7.512 7.514v189.75c0 4.139-3.373 7.512-7.512 7.512h-138.161c-4.139 0-7.512-3.373-7.512-7.512v-77.896c0-4.139 3.374-7.482 7.512-7.482s7.483 3.344 7.483 7.482v70.414h123.167v-174.785h-15.931v7.881c0 4.139-3.345 7.512-7.484 7.512h-76.31c-4.139 0-7.512-3.373-7.512-7.512v-7.881h-15.929v70.412c0 4.139-3.345 7.484-7.483 7.484-4.139 0-7.512-3.346-7.512-7.484v-77.895c0-4.139 3.374-7.514 7.512-7.514h23.415v-7.879c-.001-4.138 3.372-7.484 7.51-7.484zm21.119 14.997h-13.635v15.76h61.314c0-5.272 0-10.516 0-15.76h-13.635c-4.138 0-7.483-3.373-7.483-7.512v-9.525h-19.049v9.525c0 4.138-3.345 7.512-7.512 7.512z"/></g></svg>