<svg id="Layer_1" enable-background="new 0 0 512 512" height="512" viewBox="0 0 512 512" width="512" xmlns="http://www.w3.org/2000/svg"><g><circle id="XMLID_92_" cx="256" cy="255.997" fill="#ffea60" r="245.933"/><circle cx="169.015" cy="190.004" fill="#efefef" r="24.996"/><circle cx="342.985" cy="190.004" fill="#efefef" r="24.996"/><path d="m10 261.997h492v180h-492z" fill="#faf7f5"/><g><path d="m431.266 69.44c-47.071-44.229-110.679-69.44-175.266-69.44-88.083 0-171.025 47.223-217.614 121.696-25.063 40.063-38.386 87.038-38.386 134.283v186.021c0 5.522 4.477 10 10 10h81.353c2.282 1.92 4.593 3.81 6.947 5.649 21.12 16.521 44.73 29.591 70.17 38.851 28.25 10.279 57.7 15.5 87.51 15.5 14.29 0 28.7-1.221 42.82-3.63 2.64-.45 4.94-1.9 6.48-4.08 1.54-2.181 2.15-4.83 1.7-7.46-.82-4.82-4.96-8.32-9.85-8.32-.56 0-1.13.05-1.69.14-13.02 2.221-26.3 3.351-39.46 3.351-27.47 0-54.61-4.811-80.67-14.3-18.086-6.579-35.009-15.263-50.547-25.7h262.542c-3.673 2.466-7.412 4.843-11.235 7.1-2.3 1.36-3.94 3.53-4.6 6.12-.67 2.59-.29 5.28 1.07 7.58 1.79 3.03 5.09 4.92 8.62 4.92 1.78 0 3.53-.49 5.08-1.4 12.171-7.184 23.638-15.323 34.365-24.319h81.395c5.523 0 10-4.478 10-10 0 0 0-184.342 0-185.98 0-70.048-29.687-138.619-80.734-186.582zm-396.976 105.87c33.8-92.89 122.9-155.3 221.73-155.31 27.47 0 54.61 4.81 80.67 14.29 91.628 33.341 153.594 120.491 155.27 217.71h-471.916c.442-26.102 5.224-51.89 14.246-76.69zm457.71 256.69h-472v-160h472z"/><circle cx="340.547" cy="486.95" r="10"/><path d="m169.015 155.012c-19.297 0-34.996 15.699-34.996 34.996s15.699 34.996 34.996 34.996 34.996-15.699 34.996-34.996-15.699-34.996-34.996-34.996zm0 49.992c-8.269 0-14.996-6.728-14.996-14.996s6.727-14.996 14.996-14.996 14.996 6.728 14.996 14.996-6.728 14.996-14.996 14.996z"/><path d="m342.985 155.012c-19.297 0-34.996 15.699-34.996 34.996s15.699 34.996 34.996 34.996 34.996-15.699 34.996-34.996-15.699-34.996-34.996-34.996zm0 49.992c-8.269 0-14.996-6.728-14.996-14.996s6.727-14.996 14.996-14.996 14.996 6.728 14.996 14.996-6.727 14.996-14.996 14.996z"/><path d="m277.112 381h2.522l-2.429 11.138c-1.197 5.392 2.204 10.83 7.595 12.027.73.162 1.458.288 2.176.288 4.585 0 8.718-3.343 9.753-8.005l3.391-15.448h19.773l-2.429 11.138c-1.197 5.392 2.204 10.83 7.595 12.027.73.162 1.458.288 2.176.288 4.585 0 8.718-3.343 9.753-8.005l3.392-15.448h10.273c5.523 0 10-4.478 10-10s-4.477-10-10-10h-5.834l4.495-20h7.798c5.523 0 10-4.478 10-10s-4.477-10-10-10h-3.359l2.103-9.403c1.197-5.392-2.204-10.697-7.595-11.895-5.395-1.202-10.732 2.151-11.929 7.543l-3.065 13.755h-19.773l2.103-9.403c1.197-5.392-2.204-10.697-7.595-11.895-5.393-1.202-10.733 2.151-11.929 7.543l-3.066 13.755h-9.437c-5.523 0-10 4.478-10 10s4.477 10 10 10h4.997l-4.495 20h-6.961c-5.523 0-10 4.478-10 10s4.478 10 10.001 10zm31.942-40h19.773l-4.495 20h-19.773z"/><path d="m51.493 396.166c5.55 5.046 12.288 7.872 19.662 8.282.624.035 3.05.038 3.636.008 11.982-.601 22.65-7.17 29.344-13.744l8.464 9.313c3.714 4.087 10.039 4.39 14.126.675 4.087-3.714 4.389-10.039.675-14.126l-10.254-11.283c5.496-7.164 9.164-12.698 9.402-13.058 3.043-4.608 1.774-10.812-2.834-13.855-4.609-3.042-10.812-1.773-13.855 2.834-.045.068-2.523 3.807-6.401 9.017l-13.685-15.058c1.27-.869 2.458-1.74 3.573-2.628 12.503-9.958 12.104-22.283 7.964-29.813-6.121-11.13-20.635-16.097-33.755-11.561-2.04.705-3.795 1.529-5.368 2.52-5.831 3.676-9.738 9.763-10.72 16.7-.95 6.711 1.011 13.377 5.38 18.288.023.025.047.052.071.078l1.354 1.49c-10.009 6.116-16.691 16.053-18.028 26.973-1.33 10.863 2.665 21.143 11.249 28.948zm19.777-72.974c.154-1.09.746-2.056 1.581-2.582.144-.091.495-.28 1.239-.537 4.72-1.632 8.759.592 9.696 2.295.809 1.47-2.273 4.032-2.899 4.53-1.322 1.053-2.9 2.138-4.733 3.286l-4.384-4.824c-.603-.698-.573-1.655-.5-2.168zm-11.174 46.457c.625-5.109 4.312-10.061 9.619-12.92.809-.436 1.6-.862 2.374-1.28l18.579 20.443c-4.65 4.887-11.344 8.312-16.876 8.588-3.448.179-6.349-.845-8.844-3.113-3.701-3.364-5.379-7.416-4.852-11.718z"/><path d="m415.448 359.212-13.431 25.425c-2.58 4.884-.712 10.934 4.171 13.513 1.49.787 3.087 1.16 4.662 1.16 3.354 0 6.584-1.709 8.459-4.7 5.494 6.069 13.429 9.89 22.241 9.89 16.542 0 30-13.458 30-30 0-15.139-11.274-27.687-25.866-29.708l14.298-27.067c2.58-4.884.712-10.934-4.171-13.513-4.884-2.582-10.934-.712-13.513 4.171l-.522.989c-5.493-6.06-13.422-9.872-22.226-9.872-16.542 0-30 13.458-30 30 .001 15.15 11.291 27.705 25.898 29.712zm26.103 5.288c5.514 0 10 4.486 10 10s-4.486 10-10 10-10-4.486-10-10 4.486-10 10-10zm-22-45c5.514 0 10 4.486 10 10s-4.486 10-10 10-10-4.486-10-10 4.486-10 10-10z"/><path d="m236 359.5c5.52 0 10-4.49 10-10v-40c0-5.521-4.48-10-10-10-5.51 0-10 4.479-10 10v40c0 5.51 4.49 10 10 10z"/><circle cx="236.41" cy="394.5" r="10"/><path d="m155.195 388.521c4.9 3.187 8.805 4.818 12.805 5.619v.36c0 5.522 4.477 10 10 10s10-4.478 10-10v-1.491c10-3.492 16.554-11.672 18.268-21.921 2.151-12.869-4.739-24.484-17.313-28.903-4.912-1.726-10.749-3.944-14.467-6.277-.531-.333-1.953-1.345-1.427-3.958.183-.907 1.116-2.197 2.758-2.958 1.262-.585 3.149-.523 3.376-.54 2.627-.055 4.607.842 5.545 1.376.392.223.947.688 1.123.829 4.066 3.269 10.027 2.874 13.614-1.021 3.673-3.984 3.495-10.149-.349-13.916-.074-.072-.632-.379-.705-.444-2.122-1.879-5.422-4.082-10.422-5.466v-.31c0-5.522-4.477-10-10-10s-10 4.478-10 10v.893c-7 2.985-13.348 9.944-14.963 18.542-1.603 8.532 1.38 16.847 7.604 21.699 5.747 4.48 13.874 7.655 21.739 10.42 3.419 1.201 4.905 3.468 4.358 6.736-.435 2.602-2.675 7.014-8.369 7.051-6.135.059-7.589-.184-12.053-3.087-4.632-3.009-10.934-1.699-13.944 2.933-3.012 4.629-1.808 10.823 2.822 13.834z"/><path d="m364.412 101.025c-2.987-4.646-9.175-5.991-13.819-3.005l-53.962 34.688-12.032-18.001c-3.069-4.592-9.279-5.827-13.871-2.757-4.591 3.068-5.826 9.279-2.757 13.87l17.491 26.168c1.926 2.882 5.093 4.444 8.323 4.444 1.853 0 3.727-.515 5.398-1.589l62.225-40c4.645-2.985 5.99-9.172 3.004-13.818z"/><path d="m241.273 111.951c-4.592-3.07-10.801-1.835-13.871 2.757l-12.032 18.001-53.962-34.688c-4.645-2.986-10.833-1.642-13.819 3.005-2.986 4.646-1.641 10.833 3.005 13.819l62.225 40c1.672 1.075 3.545 1.589 5.398 1.589 3.23 0 6.397-1.563 8.323-4.444l17.491-26.168c3.068-4.592 1.833-10.802-2.758-13.871z"/></g></g></svg>