<svg id="Capa_1" enable-background="new 0 0 512 512" height="512" viewBox="0 0 512 512" width="512" xmlns="http://www.w3.org/2000/svg"><g><path d="m366.997 128.906h-30v-35.145c0-11.028-8.972-20-20-20h-121.994c-11.028 0-20 8.972-20 20v35.146h-30v-35.146c0-27.57 22.43-50 50-50h121.994c27.57 0 50 22.43 50 50z" fill="#673322"/><path d="m316.997 43.761h-60.997v30h60.997c11.028 0 20 8.972 20 20v35.146h30v-35.146c0-27.57-22.43-50-50-50z" fill="#2d1206"/><path d="m512 468.239h-207.329l-48.671-16.01-48.671 16.01h-207.329v-349.574h207l49 16.011 48.75-16.011h207.25z" fill="#da755b"/><path d="m304.75 118.665-48.75 16.011v317.553l48.671 16.01h207.329v-349.574z" fill="#a1543f"/><path d="m207.329 118.665h97.342v349.574h-97.342z" fill="#fed843"/><path d="m256 118.665h48.671v349.574h-48.671z" fill="#fabe2c"/><path d="m0 387.633v80.606h79.013c-1.827-43.17-36.066-77.937-79.013-80.606z" fill="#673322"/><path d="m79.013 118.665h-79.013v80.606c42.947-2.669 77.186-37.436 79.013-80.606z" fill="#673322"/><path d="m512 199.271v-80.606h-79.013c1.827 43.17 36.066 77.937 79.013 80.606z" fill="#2d1206"/><path d="m432.987 468.239h79.013v-80.606c-42.947 2.669-77.186 37.436-79.013 80.606z" fill="#2d1206"/><g><g><path d="m325.499 359.227h-138.998v-131.551h138.998zm-108.998-30h78.998v-71.551h-78.998z" fill="#673322"/></g></g><path d="m239.916 277.519h32.166v31.867h-32.166z" fill="#673322"/><g fill="#2d1206"><path d="m295.499 257.676v71.551h-39.499v30h69.499v-131.551h-69.499v30z"/><path d="m256 277.519h16.083v31.867h-16.083z"/></g></g></svg>