<?xml version="1.0" encoding="UTF-8"?>
<!DOCTYPE svg PUBLIC "-//W3C//DTD SVG 1.1//EN" "http://www.w3.org/Graphics/SVG/1.1/DTD/svg11.dtd">
<svg xmlns="http://www.w3.org/2000/svg" xmlns:xlink="http://www.w3.org/1999/xlink" version="1.1" width="736px" height="420px" viewBox="-0.5 -0.5 736 420"><defs/><g><path d="M 0.22 354.52 C 0 283.46 31.42 182.61 108.14 107.57 L 217.57 216.27 C 170.17 265.51 150.02 322.38 155.59 383.85 Z" fill="none" stroke="#000000" stroke-miterlimit="10" transform="translate(367.38,0)scale(-1,1)translate(-367.38,0)" pointer-events="all"/><path d="M 0.22 354.52 C 0 283.46 31.42 182.61 108.14 107.57 L 217.57 216.27 C 170.17 265.51 150.02 322.38 155.59 383.85 Z" fill-opacity="0.4" fill="#ffffff" stroke="#000000" stroke-opacity="0.4" stroke-miterlimit="10" transform="translate(367.38,0)scale(-1,1)translate(-367.38,0)" pointer-events="all"/><rect x="0" y="0.14" width="0" height="0" fill="none" stroke="#000000" transform="translate(367.38,0)scale(-1,1)translate(-367.38,0)" pointer-events="all"/><path d="M 108.14 107.57 C 176.37 40 269.87 0.14 368.07 0.14 L 368.97 154.27 C 310.65 154.08 263.23 173.42 217.57 216.27 Z" fill="none" stroke="#000000" stroke-miterlimit="10" transform="translate(367.38,0)scale(-1,1)translate(-367.38,0)" pointer-events="all"/><path d="M 108.14 107.57 C 176.37 40 269.87 0.14 368.07 0.14 L 368.97 154.27 C 310.65 154.08 263.23 173.42 217.57 216.27 Z" fill-opacity="0.2" fill="#ffffff" stroke="#000000" stroke-opacity="0.2" stroke-miterlimit="10" transform="translate(367.38,0)scale(-1,1)translate(-367.38,0)" pointer-events="all"/><rect x="0" y="0.14" width="0" height="0" fill="none" stroke="#000000" transform="translate(367.38,0)scale(-1,1)translate(-367.38,0)" pointer-events="all"/><path d="M 368.07 0.14 C 464.82 0.14 558.39 38.78 628.9 109.24 L 518.71 217.71 C 484.12 183.6 435.9 155.4 368.97 154.27 Z" fill="none" stroke="#000000" stroke-miterlimit="10" transform="translate(367.38,0)scale(-1,1)translate(-367.38,0)" pointer-events="all"/><path d="M 368.07 0.14 C 464.82 0.14 558.39 38.78 628.9 109.24 L 518.71 217.71 C 484.12 183.6 435.9 155.4 368.97 154.27 Z" fill-opacity="0.1" fill="#ffffff" stroke="#000000" stroke-opacity="0.1" stroke-miterlimit="10" transform="translate(367.38,0)scale(-1,1)translate(-367.38,0)" pointer-events="all"/><rect x="0" y="0.14" width="0" height="0" fill="none" stroke="#000000" transform="translate(367.38,0)scale(-1,1)translate(-367.38,0)" pointer-events="all"/><path d="M 628.9 109.24 C 696.75 173.82 733.84 275.17 734.76 354.57 C 684.84 367.46 632.32 377.17 579.7 383.45 C 582.82 333.7 572.1 272.09 518.71 217.71 Z" fill="none" stroke="#000000" stroke-miterlimit="10" transform="translate(367.38,0)scale(-1,1)translate(-367.38,0)" pointer-events="all"/><path d="M 496.61 215.07 L 363.25 413.47 C 336.27 419 321.76 398.46 322.09 377.57 Z" fill="none" stroke="#000000" stroke-miterlimit="10" transform="translate(367.38,0)scale(-1,1)translate(-367.38,0)" pointer-events="all"/></g></svg>