<?xml version="1.0" encoding="UTF-8"?>
<!DOCTYPE svg PUBLIC "-//W3C//DTD SVG 1.1//EN" "http://www.w3.org/Graphics/SVG/1.1/DTD/svg11.dtd">
<svg xmlns="http://www.w3.org/2000/svg" xmlns:xlink="http://www.w3.org/1999/xlink" version="1.1" width="764px" height="731px" viewBox="-0.5 -0.5 764 731"><defs><linearGradient x1="0%" y1="100%" x2="0%" y2="0%" id="mx-gradient-2267ab-1-3399ff-1-s-0"><stop offset="0%" style="stop-color:#3399FF"/><stop offset="100%" style="stop-color:#2267AB"/></linearGradient></defs><g><rect x="0.01" y="0" width="762.71" height="730" fill="url(#mx-gradient-2267ab-1-3399ff-1-s-0)" stroke="#0e8088" pointer-events="all"/><path d="M 190.26 631.37 L 186.26 631.36 L 187.02 139.76 L 183.37 139.76 L 189.08 98.62 L 194.66 139.77 L 191.02 139.77 Z" fill="#ff9933" stroke="none" pointer-events="all"/><rect x="113.25" y="449.7" width="17.38" height="177.56" fill="#050505" stroke="none" pointer-events="all"/><rect x="68.7" y="429.15" width="17.38" height="194.94" fill="#050505" stroke="none" transform="rotate(5,77.39,526.63)" pointer-events="all"/><rect x="112.57" y="612.04" width="45.19" height="17.38" fill="#050505" stroke="none" pointer-events="all"/><rect x="60.43" y="612.05" width="45.19" height="17.38" fill="#050505" stroke="none" pointer-events="all"/><ellipse cx="316.32" cy="219.23" rx="53.22910020053784" ry="60.83325737204325" fill="#050505" stroke="none" pointer-events="all"/><rect x="316.2" y="322.64" width="64.31" height="13.9" rx="2.09" ry="2.09" fill="#ffaa00" stroke="none" transform="rotate(-195,348.36,329.6)" pointer-events="all"/><rect x="282.64" y="336.55" width="86.9" height="17.38" fill="#050505" stroke="none" transform="rotate(-15,326.09,345.24)" pointer-events="all"/><ellipse cx="347.19" cy="253.57" rx="8.690465338863321" ry="8.690465338863321" fill="#ffffff" stroke="none" pointer-events="all"/><ellipse cx="485.62" cy="200.78" rx="53.22910020053784" ry="60.83325737204325" fill="#050505" stroke="none" pointer-events="all"/><rect x="538.85" y="170.35" width="5.21" height="22.6" rx="0.78" ry="0.78" fill="#ffaa00" stroke="none" pointer-events="all"/><rect x="475.2" y="170.07" width="67.79" height="3.48" rx="0.52" ry="0.52" fill="#ffaa00" stroke="none" pointer-events="all"/><path d="M 598.31 79.69 Q 608.72 79.69 608.72 171.81 Q 608.72 263.93 598.31 263.93 Z" fill-opacity="0.5" fill="#ffaa00" stroke="none" pointer-events="all"/><path d="M 542.99 81.17 L 598.31 173.29 L 542.99 265.41 Z" fill-opacity="0.2" fill="#ffaa00" stroke="none" transform="rotate(180,570.65,173.29)" pointer-events="all"/><path d="M 277.55 148.96 C 273.49 148.96 272.47 166.27 275.72 169.73 C 272.47 177.34 276.13 193.95 278.77 187.03 C 280.6 200.87 286.7 200.87 288.73 187.03 C 292.79 187.03 292.79 173.19 290.25 166.27 C 292.79 152.42 288.73 138.58 285.17 145.5 C 282.63 135.12 278.57 135.12 277.55 148.96 Z" fill="#050505" stroke="#000000" stroke-miterlimit="10" pointer-events="all"/><path d="M 462.45 123.66 C 442.63 123.66 437.68 140.96 453.53 144.42 C 437.68 152.03 455.51 168.64 468.39 161.72 C 477.31 175.57 507.03 175.57 516.94 161.72 C 536.75 161.72 536.75 147.88 524.37 140.96 C 536.75 127.12 516.94 113.28 499.6 120.2 C 487.21 109.81 467.4 109.81 462.45 123.66 Z" fill="#050505" stroke="#000000" stroke-miterlimit="10" pointer-events="all"/><ellipse cx="527.24" cy="182.55" rx="8.690465338863321" ry="8.690465338863321" fill="#ffffff" stroke="none" pointer-events="all"/><rect x="498.3" y="257.78" width="110.42" height="17.38" fill="#050505" stroke="none" transform="rotate(-30,553.51,266.47)" pointer-events="all"/><rect x="122.11" y="370.08" width="81.05" height="17.38" fill="#050505" stroke="none" pointer-events="all"/><path d="M 33.64 280.22 Q 186.92 280.22 186.92 332.54 Q 186.92 384.87 33.64 384.87 Z" fill="#000000" stroke="none" transform="rotate(-90,110.28,332.54)" pointer-events="all"/><path d="M 85.33 380.66 Q 135.72 380.66 135.72 432.99 Q 135.72 485.31 85.33 485.31 Z" fill="#000000" stroke="none" transform="rotate(90,110.53,432.99)" pointer-events="all"/><rect x="288.55" y="446.53" width="17.38" height="177.56" fill="#050505" stroke="none" pointer-events="all"/><rect x="290.93" y="606.72" width="45.19" height="17.38" fill="#050505" stroke="none" pointer-events="all"/><path d="M 203.16 282.54 Q 356.44 282.54 356.44 334.87 Q 356.44 387.2 203.16 387.2 Z" fill="#000000" stroke="none" transform="rotate(-90,279.8,334.87)" pointer-events="all"/><path d="M 254.85 382.99 Q 305.24 382.99 305.24 435.31 Q 305.24 487.64 254.85 487.64 Z" fill="#000000" stroke="none" transform="rotate(90,280.04,435.31)" pointer-events="all"/><rect x="482.61" y="447.37" width="17.38" height="177.56" fill="#050505" stroke="none" pointer-events="all"/><rect x="446.75" y="427.83" width="17.38" height="194.94" fill="#050505" stroke="none" transform="rotate(10,455.44,525.3)" pointer-events="all"/><rect x="401.56" y="609.88" width="45.19" height="17.38" fill="#050505" stroke="none" pointer-events="all"/><rect x="484.99" y="607.55" width="45.19" height="17.38" fill="#050505" stroke="none" pointer-events="all"/><path d="M 403 277.89 Q 556.29 277.89 556.29 330.21 Q 556.29 382.54 403 382.54 Z" fill="#000000" stroke="none" transform="rotate(-90,479.65,330.21)" pointer-events="all"/><path d="M 454.7 378.33 Q 505.08 378.33 505.08 430.66 Q 505.08 482.98 454.7 482.98 Z" fill="#000000" stroke="none" transform="rotate(90,479.89,430.66)" pointer-events="all"/><rect x="253.65" y="446.53" width="17.38" height="177.56" fill="#050505" stroke="none" pointer-events="all"/><rect x="256.03" y="606.72" width="45.19" height="17.38" fill="#050505" stroke="none" pointer-events="all"/><path d="M 293.63 130.35 C 289.57 130.35 288.55 147.65 291.8 151.11 C 288.55 158.72 292.21 175.34 294.85 168.41 C 296.68 182.26 302.77 182.26 304.81 168.41 C 308.87 168.41 308.87 154.57 306.33 147.65 C 308.87 133.81 304.81 119.97 301.25 126.89 C 298.71 116.51 294.65 116.51 293.63 130.35 Z" fill="#050505" stroke="#000000" stroke-miterlimit="10" pointer-events="all"/><path d="M 311.24 141.58 C 307.17 141.58 306.16 158.88 309.41 162.34 C 306.16 169.95 309.82 186.56 312.46 179.64 C 314.29 193.48 320.38 193.48 322.41 179.64 C 326.48 179.64 326.48 165.8 323.94 158.88 C 326.48 145.04 322.41 131.19 318.86 138.12 C 316.32 127.73 312.25 127.73 311.24 141.58 Z" fill="#050505" stroke="#000000" stroke-miterlimit="10" pointer-events="all"/><path d="M 325.14 126.12 C 321.08 126.12 320.06 143.43 323.31 146.89 C 320.06 154.5 323.72 171.11 326.36 164.19 C 328.19 178.03 334.29 178.03 336.32 164.19 C 340.38 164.19 340.38 150.35 337.84 143.43 C 340.38 129.59 336.32 115.74 332.76 122.66 C 330.22 112.28 326.16 112.28 325.14 126.12 Z" fill="#050505" stroke="#000000" stroke-miterlimit="10" pointer-events="all"/><path d="M 345.46 157.9 C 341.4 157.9 340.38 175.2 343.63 178.66 C 340.38 186.27 344.04 202.88 346.68 195.96 C 348.51 209.81 354.6 209.81 356.64 195.96 C 360.7 195.96 360.7 182.12 358.16 175.2 C 360.7 161.36 356.64 147.52 353.08 154.44 C 350.54 144.06 346.48 144.06 345.46 157.9 Z" fill="#050505" stroke="#000000" stroke-miterlimit="10" transform="rotate(75,350.54,175.2)" pointer-events="all"/><path d="M 371.39 166.71 C 367.33 166.71 366.31 184.01 369.56 187.47 C 366.31 195.09 369.97 211.7 372.61 204.78 C 374.44 218.62 380.54 218.62 382.57 204.78 C 386.63 204.78 386.63 190.93 384.09 184.01 C 386.63 170.17 382.57 156.33 379.01 163.25 C 376.47 152.87 372.41 152.87 371.39 166.71 Z" fill="#050505" stroke="#000000" stroke-miterlimit="10" transform="rotate(75,376.47,184.01)" pointer-events="all"/><path d="M 365.78 185.79 C 361.71 185.79 360.7 203.1 363.95 206.56 C 360.7 214.17 364.36 230.78 367 223.86 C 368.83 237.7 374.92 237.7 376.95 223.86 C 381.02 223.86 381.02 210.02 378.48 203.1 C 381.02 189.25 376.95 175.41 373.4 182.33 C 370.86 171.95 366.79 171.95 365.78 185.79 Z" fill="#050505" stroke="#000000" stroke-miterlimit="10" transform="rotate(75,370.86,203.1)" pointer-events="all"/><ellipse cx="106.89" cy="204.73" rx="53.22910020053784" ry="60.83325737204325" fill="#050505" stroke="none" pointer-events="all"/><ellipse cx="147.59" cy="201.57" rx="8.690465338863321" ry="8.690465338863321" fill="#ffffff" stroke="none" pointer-events="all"/><path d="M 46.38 140.97 C 26.57 140.97 21.61 158.27 37.47 161.73 C 21.61 169.34 39.45 185.96 52.33 179.03 C 61.24 192.88 90.96 192.88 100.87 179.03 C 120.69 179.03 120.69 165.19 108.3 158.27 C 120.69 144.43 100.87 130.59 83.53 137.51 C 71.15 127.13 51.34 127.13 46.38 140.97 Z" fill="#050505" stroke="#000000" stroke-miterlimit="10" transform="rotate(-15,71.15,158.27)" pointer-events="all"/><path d="M 81.98 120.09 C 62.16 120.09 57.21 137.4 73.06 140.86 C 57.21 148.47 75.04 165.08 87.92 158.16 C 96.84 172 126.56 172 136.47 158.16 C 156.28 158.16 156.28 144.32 143.9 137.4 C 156.28 123.55 136.47 109.71 119.13 116.63 C 106.75 106.25 86.93 106.25 81.98 120.09 Z" fill="#050505" stroke="#000000" stroke-miterlimit="10" pointer-events="all"/><path d="M 30.87 166.87 C 17.65 166.87 14.35 184.17 24.93 187.63 C 14.35 195.24 26.25 211.85 34.84 204.93 C 40.79 218.77 60.62 218.77 67.23 204.93 C 80.45 204.93 80.45 191.09 72.19 184.17 C 80.45 170.33 67.23 156.48 55.66 163.41 C 47.4 153.02 34.18 153.02 30.87 166.87 Z" fill="#050505" stroke="#000000" stroke-miterlimit="10" transform="rotate(-15,47.4,184.17)" pointer-events="all"/><path d="M 22.62 227.56 C 2.81 227.56 -2.15 244.86 13.71 248.32 C -2.15 255.94 15.69 272.55 28.57 265.63 C 37.48 279.47 67.2 279.47 77.11 265.63 C 96.93 265.63 96.93 251.78 84.54 244.86 C 96.93 231.02 77.11 217.18 59.77 224.1 C 47.39 213.72 27.58 213.72 22.62 227.56 Z" fill="#050505" stroke="#000000" stroke-miterlimit="10" transform="rotate(-100,47.39,244.86)" pointer-events="all"/><path d="M 608.72 273.77 Q 762.01 273.77 762.01 326.09 Q 762.01 378.42 608.72 378.42 Z" fill="#000000" stroke="none" transform="rotate(-90,685.37,326.09)" pointer-events="all"/><rect x="688.33" y="443.46" width="17.38" height="177.36" fill="#050505" stroke="none" pointer-events="all"/><rect x="634.36" y="425.97" width="17.38" height="189.24" fill="#ffaa00" stroke="none" transform="rotate(15,643.05,520.59)" pointer-events="all"/><rect x="610.85" y="605.76" width="45.19" height="17.38" fill="#ffaa00" stroke="none" pointer-events="all"/><rect x="690.71" y="603.43" width="45.19" height="17.38" fill="#050505" stroke="none" pointer-events="all"/><path d="M 660.42 374.21 Q 710.8 374.21 710.8 426.54 Q 710.8 478.86 660.42 478.86 Z" fill="#000000" stroke="none" transform="rotate(90,685.61,426.54)" pointer-events="all"/><ellipse cx="695.94" cy="197.39" rx="52.45054026403365" ry="59.943474587467016" fill="#050505" stroke="none" pointer-events="all"/><rect x="674.56" y="187.94" width="22.66" height="23.88" rx="3.4" ry="3.4" fill="#ffaa00" stroke="none" pointer-events="all"/><rect x="677.12" y="214.26" width="2.92" height="17.54" rx="0.44" ry="0.44" fill="#ffaa00" stroke="none" pointer-events="all"/><rect x="691.74" y="214.26" width="2.92" height="17.54" rx="0.44" ry="0.44" fill="#ffaa00" stroke="none" pointer-events="all"/><rect x="684.43" y="217.18" width="2.92" height="8.04" rx="0.44" ry="0.44" fill="#ffaa00" stroke="none" pointer-events="all"/><rect x="677.12" y="164.54" width="2.92" height="20.47" rx="0.44" ry="0.44" fill="#ffaa00" stroke="none" pointer-events="all"/><rect x="691.74" y="167.47" width="2.92" height="17.54" rx="0.44" ry="0.44" fill="#ffaa00" stroke="none" pointer-events="all"/><rect x="684.43" y="170.39" width="2.92" height="8.04" rx="0.44" ry="0.44" fill="#ffaa00" stroke="none" pointer-events="all"/><rect x="703.44" y="185.01" width="14.62" height="2.92" rx="0.44" ry="0.44" fill="#ffaa00" stroke="none" pointer-events="all"/><rect x="703.44" y="195.25" width="5.85" height="2.92" rx="0.44" ry="0.44" fill="#ffaa00" stroke="none" pointer-events="all"/><rect x="703.44" y="204.75" width="11.7" height="2.92" rx="0.44" ry="0.44" fill="#ffaa00" stroke="none" pointer-events="all"/><rect x="656.65" y="185.01" width="14.62" height="2.92" rx="0.44" ry="0.44" fill="#ffaa00" stroke="none" pointer-events="all"/><rect x="662.5" y="195.25" width="5.85" height="2.92" rx="0.44" ry="0.44" fill="#ffaa00" stroke="none" pointer-events="all"/><rect x="656.65" y="204.75" width="11.7" height="2.92" rx="0.44" ry="0.44" fill="#ffaa00" stroke="none" pointer-events="all"/><ellipse cx="721.3" cy="157.61" rx="9.649437372616639" ry="9.649437372616639" fill="#ffaa00" stroke="none" pointer-events="all"/><ellipse cx="723.3" cy="158.95" rx="26.071396016589965" ry="26.071396016589965" fill-opacity="0.5" fill="#ffaa00" stroke="none" pointer-events="all"/><rect x="594.21" y="356.55" width="183.37" height="14.62" fill="#ffaa00" stroke="none" transform="rotate(90,685.9,363.86)" pointer-events="all"/></g></svg>