<svg height="512" viewBox="0 0 64 64" width="512" xmlns="http://www.w3.org/2000/svg"><g id="Filled_outline" data-name="Filled outline"><path d="m45 19h12v-5h-4v-5h-8z" fill="#ffd782"/><path d="m45 23h12v16h-12z" fill="#b11e48" transform="matrix(-1 0 0 -1 102 62)"/><path d="m41 39h16v6h-16z" fill="#195c85" transform="matrix(-1 0 0 -1 98 84)"/><path d="m41 45h20v16h-20z" fill="#96c3f0" transform="matrix(-1 0 0 -1 102 106)"/><path d="m35 39h6v18h-6z" fill="#ffd782" transform="matrix(-1 0 0 -1 76 96)"/><path d="m33 57h8v4h-8z" fill="#394d5c" transform="matrix(-1 0 0 -1 74 118)"/><path d="m45 5h8v4h-8z" fill="#394d5c"/><path d="m53 3h4v7h-4z" fill="#143441"/><path d="m53 10h4v4h-4z" fill="#d3843d"/><path d="m49 29v1h-8a2 2 0 0 0 -2 2 2 2 0 0 0 2 2h12v-5a2 2 0 0 0 -2-2 2 2 0 0 0 -2 2z" fill="#ffd782"/><path d="m11 14h21v11h-21z" fill="#394d5c"/><path d="m17 33h8v4h-8z" fill="#7d8d9c"/><path d="m19 37h4v24h-4z" fill="#394d5c"/><path d="m19 52-9 9h5l4-4z" fill="#143441"/><path d="m23 52 9 9h-5l-4-4z" fill="#143441"/><path d="m35 30v-1-4h-3-11v4h10v1 4h4 4v-4z" fill="#7d8d9c"/><path d="m30 3h4v7h-4z" fill="#4f97d5"/><path d="m30 6h-2-4v4 4h4v-4h2z" fill="#aabece"/><path d="m20 14h-8l1-5h6z" fill="#aabece"/><path d="m8 5h6a0 0 0 0 1 0 0v4a0 0 0 0 1 0 0h-6a2 2 0 0 1 -2-2 2 2 0 0 1 2-2z" fill="#d3843d"/><path d="m7 16h4v7h-4z" fill="#7d8d9c"/><g fill="#143441"><path d="m7 23-4 2v-11l4 2z"/><path d="m15 18h13v7h-13z"/><path d="m32 14h4v4h-4z"/></g><circle cx="21" cy="29" fill="#aabece" r="4"/><path d="m45 20h12a1 1 0 0 0 1-1v-16a1 1 0 0 0 -1-1h-4a1 1 0 0 0 -1 1v1h-7a1 1 0 0 0 -1 1v14a1 1 0 0 0 1 1zm9-16h2v5h-2zm0 7h2v2h-2zm-8-5h6v2h-6zm0 4h6v4a1 1 0 0 0 1 1h3v3h-10z"/><path d="m48 12h2v2h-2z"/><path d="m61 44h-3v-21a1 1 0 0 0 -1-1h-12a1 1 0 0 0 -1 1v6h-3a2.96 2.96 0 0 0 -1.287.3.993.993 0 0 0 -.713-.3h-3v-4a1 1 0 0 0 -1-1h-2v-5h3a1 1 0 0 0 1-1v-4a1 1 0 0 0 -1-1h-7v-2h5a1 1 0 0 0 1-1v-7a1 1 0 0 0 -1-1h-4a1 1 0 0 0 -1 1v2h-5a1 1 0 0 0 -1 1v7h-2.18l-.84-4.2a1 1 0 0 0 -.98-.8h-4v-3a1 1 0 0 0 -1-1h-6a3 3 0 0 0 0 6h3.78l-.6 3h-.18a1 1 0 0 0 -1 1v1h-2.764l-3.789-1.895a1 1 0 0 0 -1.447.895v11a1 1 0 0 0 1.447.895l3.789-1.895h2.764v1a1 1 0 0 0 1 1h6.026a4.9 4.9 0 0 0 0 6h-.026a1 1 0 0 0 -1 1v4a1 1 0 0 0 1 1h1v13.586l-8.707 8.707a1 1 0 0 0 .707 1.707h5a1 1 0 0 0 .707-.293l2.293-2.293v1.586a1 1 0 0 0 1 1h4a1 1 0 0 0 1-1v-1.586l2.293 2.293a1 1 0 0 0 .707.293h34a1 1 0 0 0 1-1v-16a1 1 0 0 0 -1-1zm-28-29h2v2h-2zm-2-11h2v5h-2zm-25 18.382-2 1v-7.764l2 1zm4-.382h-2v-5h2zm8 34.586-3.414 3.414h-2.172l5.586-5.586zm28-32.586h10v14h-10v-3h7a1 1 0 0 0 1-1v-5a3 3 0 0 0 -6 0h-2zm10 16v4h-14v-4zm-15-9h8a1 1 0 0 0 1-1v-1a1 1 0 0 1 2 0v4h-11a1 1 0 0 1 0-2zm-7-5v4a1 1 0 0 0 1 1h3v2h-6v-4a1 1 0 0 0 -1-1h-5.1a4.954 4.954 0 0 0 -.925-2zm-9-19h4v2h-1a1 1 0 0 0 -1 1v3h-2zm-11.18 3h4.36l.6 3h-5.56zm-5.82-2a1 1 0 0 1 0-2h5v2zm6 10v6h-2v-9h19v9h-2v-6a1 1 0 0 0 -1-1h-13a1 1 0 0 0 -1 1zm2 6v-5h11v5zm8 5a3 3 0 1 1 -3-3 3 3 0 0 1 3 3zm-2 31h-2v-22h2zm-4-24v-2h6v2zm9.414 24-3.414-3.414v-2.172l5.586 5.586zm12.586 0h-6v-2h6zm0-4h-4v-16h4zm-5-18a1 1 0 0 0 -1 1v17h-1a1 1 0 0 0 -1 1v2.586l-8-8v-13.586h1a1 1 0 0 0 1-1v-4a1 1 0 0 0 -1-1h-.026a4.954 4.954 0 0 0 .925-2h4.101v4a1 1 0 0 0 1 1h8a.993.993 0 0 0 .713-.3 2.964 2.964 0 0 0 1.287.3h3v3zm25 22h-18v-14h18z"/><path d="m44 48h2v2h-2z"/><path d="m56 48h2v2h-2z"/></g></svg>