<svg height="512" viewBox="0 0 64 64" width="512" xmlns="http://www.w3.org/2000/svg"><g id="flat"><path d="m49 61h-30l-4-4v-18h38v18a4 4 0 0 1 -4 4z" fill="#50b4f8"/><path d="m11 39h4a0 0 0 0 1 0 0v4a0 0 0 0 1 0 0h-4a2 2 0 0 1 -2-2 2 2 0 0 1 2-2z" fill="#394d5c"/><path d="m53 39h4a2 2 0 0 1 2 2 2 2 0 0 1 -2 2h-4a0 0 0 0 1 0 0v-4a0 0 0 0 1 0 0z" fill="#394d5c"/><path d="m44 56h2v2h-2z" fill="#f4f4e6"/><path d="m48 56h2v2h-2z" fill="#f4f4e6"/><path d="m29 39v8a2 2 0 0 0 4 0 2 2 0 0 1 4 0v5a2 2 0 0 0 4 0v-7a2 2 0 0 1 4 0v2a2 2 0 0 0 4 0v-8z" fill="#66342e"/><path d="m15 53s4.15-4.391 5 0c.5 2.583 1.792 3.458 4 2 1.669-1.1 4.583 2.417 1 6h-6a4 4 0 0 1 -4-4z" fill="#66342e"/><path d="m42 35c0 3-4 4-4 4h-21s-3-4-1-8z" fill="#195c85"/><path d="m43 39 11-11a2.828 2.828 0 0 1 4 0 2.828 2.828 0 0 1 0 4l-7 7z" fill="#7d8d9c"/><circle cx="17" cy="15" fill="#be2821" r="12"/><path d="m24 11-3-3-4 4-4-4-3 3 4 4-4 4 3 3 4-4 4 4 3-3-4-4z" fill="#f4f4e6"/><path d="m35 23h2v3a2 2 0 0 0 4 0v2a2 2 0 0 0 4 0v-2a2 2 0 0 0 4 0 2 2 0 0 0 4 0v-14l-3-5v-4h-13v4l-4 5v9a2 2 0 0 0 2 2z" fill="#ffd782"/><path d="m53 16a1 1 0 0 0 -1 1v9a1 1 0 0 1 -2 0v-9a1 1 0 0 0 -1-1 1 1 0 0 0 -1 1v9a1 1 0 0 1 -2 0v-9a1 1 0 0 0 -1-1 1 1 0 0 0 -1 1v11a1 1 0 0 1 -2 0v-11a1 1 0 0 0 -1-1 1 1 0 0 0 -1 1v9a1 1 0 0 1 -2 0v-9a1 1 0 0 0 -1-1 1 1 0 0 0 -1 1v8.81a3.146 3.146 0 0 0 2.536 3.153 2.94 2.94 0 0 0 1.58-.183 2.983 2.983 0 0 0 5.768 0 2.95 2.95 0 0 0 3.116-.56 2.968 2.968 0 0 0 2.7.7 3.081 3.081 0 0 0 2.3-3.037v-8.883a1 1 0 0 0 -1-1z" fill="#f9bb4b"/></g></svg>