<svg id="Capa_1" enable-background="new 0 0 510.342 510.342" height="512" viewBox="0 0 510.342 510.342" width="512" xmlns="http://www.w3.org/2000/svg"><g><g><path d="m91.59 202.871s-68.578 68.211-30.629 158.924c5.96 14.247 21.414 22.046 36.449 18.515l167.908-39.436-86.298-183.694z" fill="#fb4a59"/><path d="m222.536 249.809c-6.43 3.68-13.41 6.62-20.86 8.68-8.02 2.21-16.26 3.33-24.51 3.33-29.44 0-56.34-14.11-73.33-36.63-1.82.22-3.66.35-5.49.35-7.42 0-14.52-1.83-20.79-5.12 7.72-11.27 14.03-17.55 14.03-17.55l87.43-45.69z" fill="#f82f40"/><g><g><g><g><g><g><g><circle cx="279.229" cy="321.244" fill="#31a7fb" r="181.687"/><path d="m380.386 305.179c0 22.04-17.86 39.9-39.9 39.9-5.24 0-10.24-1.02-14.82-2.85l-142.7 34.06c-.44 4.87-3.92 9.2-9.03 10.4l-53.63 12.6c-1.62.38-3.24.63-4.84.75-14.53-30.19-20.22-63.56-17.09-96.25h51.72c5.06 0 9.55 3.24 11.16 8.04.46 1.36.93 2.7 1.39 4.06l138.75-18.78c3.73-18.17 19.82-31.83 39.09-31.83 22.04 0 39.9 17.86 39.9 39.9z" fill="#1c96f9"/><path d="m295.746 140.309c-.08 7.6-2.12 15.09-6.02 21.85-4.98 8.64-12.52 15.23-21.58 18.99-4.6 35.86-29.91 67.24-66.47 77.34-8.02 2.21-16.26 3.33-24.51 3.33-22.68 0-43.85-8.37-60.14-22.52 8.47-16.78 19.71-32.51 33.73-46.53 39.68-39.68 93.15-57.17 144.99-52.46z" fill="#1c96f9"/><path d="m278.098 436.227-2.1 29.052c-.163 2.259-1.089 4.396-2.624 6.06l-26.488 28.709c-35.21-6.34-68.91-23.11-96.13-50.33-27.49-27.49-44.32-61.59-50.51-97.19l57.69-19.82 63.234 32.38c2.944 1.508 4.952 4.373 5.364 7.655l2.239 17.832c.489 3.893-1.344 7.711-4.686 9.766l-8.365 5.14c-4.093 2.516-5.819 7.587-4.11 12.077l5.974 15.695c1.962 5.153 7.724 7.746 12.882 5.796l34.119-12.898c6.832-2.581 14.038 2.792 13.511 10.076z" fill="#27e19d"/><path d="m221.166 365.089c.82.42 1.56.94 2.22 1.55l-40.42 9.65c-.44 4.87-3.92 9.2-9.03 10.4l-53.63 12.6c-1.62.38-3.24.63-4.84.75-7.31-15.19-12.39-31.19-15.22-47.51l57.69-19.82z" fill="#26d192"/><path d="m407.699 449.719c-40.252 40.252-94.693 57.668-147.218 52.259 40.057-4.139 79.018-21.555 109.722-52.259 70.955-70.955 70.955-185.994 0-256.95-30.704-30.704-69.665-48.12-109.722-52.248 52.525-5.419 106.966 11.997 147.218 52.248 70.955 70.955 70.955 185.994 0 256.95z" fill="#1c96f9"/><path d="m459.516 343.789-46.073 21.134c-3.442 1.579-7.482 1.078-10.434-1.295l-10.558-8.485c-3.426-2.753-8.248-2.947-11.884-.477l-27.77 18.864c-2.889 1.962-6.592 2.275-9.769.826l-9.183-4.188c-3.564-1.625-5.85-5.182-5.85-9.098v-103.133c0-2.265-.769-4.462-2.18-6.233l-31.248-39.202c-2.524-3.167-6.71-4.499-10.6-3.373l-14.025 4.059c-2.906.841-6.038.321-8.516-1.414l-40.731-28.522c-2.404-1.683-3.947-4.337-4.22-7.259l-2.289-24.434c64.91-24.85 141.2-11.11 193.52 41.21 41.22 41.23 58.49 97.33 51.81 151.02z" fill="#27e19d"/><g fill="#26d192"><path d="m380.386 305.179c0 22.04-17.86 39.9-39.9 39.9-4.37 0-8.56-.71-12.49-2.01v-75.79c3.93-1.3 8.13-2 12.49-2 22.04 0 39.9 17.86 39.9 39.9z"/><path d="m407.706 192.769c-31.269-31.269-71.109-48.736-111.961-52.441 0-.006.001-.013.001-.019-27.5-2.5-55.45 1.25-81.56 11.24v.01l2.29 24.43c.27 2.93 1.82 5.58 4.22 7.26l38.68 27.09c4.46-9.1 7.46-18.97 8.77-29.19 9.06-3.76 16.6-10.35 21.58-18.99 1.315-2.28 2.414-4.644 3.296-7.067 1.507-4.137 6.056-6.321 10.203-4.841.049.018.099.035.148.053 3.655 1.308 5.888 5.02 5.258 8.851-.167 1.018-.303 1.949-.366 2.603-1.282 13.32 1.918 26.593 9.271 38.021 8.66 13.45 22.04 22.73 37.68 26.12 4.19.91 8.47 1.37 12.73 1.37h.01c5.26 0 10.398-.708 15.316-2.036 6.525-1.762 13.473.948 16.793 6.836 22.561 40.006 28.781 86.734 18.631 130.441l40.82-18.72c6.68-53.691-10.59-109.791-51.81-151.021z"/></g></g></g></g></g></g></g></g><g><path d="m68.156 95.51h193.763v58.103h-193.763z" fill="#756f6f" transform="matrix(.966 -.259 .259 .966 -26.639 47.017)"/><g><g><g><g><g><g><g fill="#fdb0a0"><circle cx="250.811" cy="139.706" r="24.928"/><circle cx="98.362" cy="180.604" r="24.928"/></g></g></g></g><path d="m232.942 100.304 13.451 50.139c10.27 38.283-11.835 78.211-50.04 88.768-38.505 10.628-78.232-12.137-88.565-50.651l-13.684-51.01c-10.285-38.338 12.464-77.754 50.802-88.039 19.174-5.144 38.608-2.027 54.537 7.164 15.932 9.2 28.358 24.464 33.499 43.629z" fill="#ffcec0"/><path d="m235.216 108.749c-5.84-.15-11.58-1.13-17.1-2.9-6.03-1.93-11.78-4.81-17.11-8.56-5.68-4.01-11.38-5.96-17.43-5.96-8.36 0-15.33 3.76-17.94 5.37-2.25 1.39-4.69 2.45-7.24 3.13-2.27.61-4.64.92-7.02.92-.26 0-.53 0-.8-.01-.3-.01-.62-.01-.97-.01-9.56 0-22.41 3.16-29.36 18.22-5.26 11.41-13.61 20.75-23.88 27.04l-2.26-8.44c-10.29-38.34 12.46-77.75 50.8-88.04 19.17-5.14 38.61-2.02 54.54 7.17 15.93 9.2 28.35 24.46 33.5 43.62z" fill="#fdb0a0"/></g></g></g><path d="m261.595 63.708c-7.92-7.898-17.506-19.023-26.621-33.657-20.572-33.027-82.304-30.093-96.238-3.532-25.358-16.02-80.268 12.338-81.548 51.227-.567 17.231-3.297 31.66-6.201 42.462-2.553 9.498 6.166 18.178 15.665 15.63l8.66-2.323c11.936-3.202 21.596-11.72 26.772-22.941 13.049-28.285 39.772-30.102 49.081-29.825.695.021 1.382-.059 2.054-.239.672-.18 1.306-.455 1.898-.821 7.921-4.899 31.964-16.701 57.419 1.254 10.098 7.123 22.724 9.662 34.66 6.46l8.66-2.323c9.5-2.549 12.703-14.427 5.739-21.372z" fill="#efe2dd"/><path d="m255.855 85.078-8.658 2.323c-4.346 1.166-8.788 1.565-13.162 1.263 4.118-4.788 4.4-12.376-.629-17.394-7.924-7.899-17.507-19.025-26.616-33.656-11.027-17.69-33.846-25.057-54.813-24.018 23.57-13.385 66.499-10.022 82.994 16.458 9.12 14.628 18.702 25.753 26.627 33.652 6.963 6.95 3.757 18.823-5.743 21.372z" fill="#e0d3ce"/></g><path d="m140.528 362.053 207.614-49.566-19.974-42.973-187.64 25.393z" fill="#ffcec0"/><path d="m348.146 312.489-47.81 11.41c-16.43-4.94-28.4-20.18-28.4-38.22 0-2.98.33-5.89.95-8.68l55.28-7.48z" fill="#fdb0a0"/><path d="m116.454 375.837 53.626-12.595c6.874-1.615 10.794-8.873 8.371-15.505-7.206-19.721-14.336-39.468-21.043-59.359-1.618-4.799-6.1-8.042-11.164-8.042h-68.732v64.645c0 20.433 19.05 35.528 38.942 30.856z" fill="#fb4a59"/><circle cx="336.633" cy="281.727" fill="#ffcec0" r="39.903"/><path d="m376.536 281.729c0 22.04-17.87 39.9-39.9 39.9-9.37 0-17.99-3.23-24.8-8.64 1.25.13 2.52.19 3.81.19 22.04 0 39.91-17.86 39.91-39.9 0-12.67-5.91-23.96-15.12-31.27 20.25 1.9 36.1 18.96 36.1 39.72z" fill="#fdb0a0"/><g><g><circle cx="367.913" cy="167.361" fill="#ffcec0" r="39.903"/><path d="m406.906 175.819c-4.67 21.54-25.92 35.21-47.45 30.54-4.61-1-8.86-2.76-12.65-5.12 17.81-.61 33.63-13.2 37.58-31.42 3.67-16.92-3.99-33.67-17.9-42.34 3.25-.12 6.57.17 9.89.89 21.53 4.67 35.21 25.92 30.53 47.45z" fill="#fdb0a0"/></g></g></g><g><g><path d="m364.161 70.099c11.607-6.266 15.948-20.75 9.695-32.368-6.253-11.618-20.734-15.972-32.357-9.735-6.266-11.607-20.75-15.949-32.369-9.695-11.618 6.253-15.972 20.734-9.735 32.356l20.487 38.065c1.201 2.231 3.983 3.067 6.215 1.866z" fill="#fb4a59"/></g><g><path d="m364.165 70.1-38.069 20.49c-2.229 1.2-5.016.363-6.216-1.866l-7.514-13.96 34.632-18.64c10.989-5.931 15.458-19.217 10.601-30.479.7.137 1.398.315 2.078.519 5.862 1.76 11.053 5.751 14.174 11.564 6.254 11.619 1.916 26.103-9.686 32.372z" fill="#f82f40"/></g><g><path d="m99.686 387.45 2.115-.467c9.471 25.638 24.135 48.518 43.653 68.037 36.882 36.882 85.329 55.322 133.775 55.322s96.894-18.44 133.776-55.322c29.546-29.546 48.112-66.995 53.693-108.297 5.399-39.969-2.265-81.347-21.582-116.513-1.995-3.63-6.554-4.958-10.185-2.962-3.63 1.994-4.956 6.554-2.962 10.185 17.344 31.573 23.898 67.027 20.373 101.394l-42.027 19.278c-.866.397-1.865.273-2.608-.323l-10.558-8.486c-6.033-4.848-14.392-5.186-20.796-.834l-27.77 18.863c-.717.486-1.653.567-2.442.206l-9.183-4.187c-.889-.406-1.463-1.299-1.463-2.275v-31.967c.379.009.755.029 1.137.029 26.138 0 47.402-21.265 47.402-47.403s-21.265-47.403-47.402-47.403c-4.693 0-9.224.696-13.508 1.972l-22.692-28.468c-4.436-5.563-11.714-7.886-18.55-5.902l-14.024 4.06c-.733.212-1.508.083-2.131-.354l-13.845-9.695c2.699-7.729 4.245-15.912 4.479-24.287.958-.167 1.909-.375 2.844-.625 8.368-2.24 15.362-7.605 19.692-15.108 1.615-2.798 2.786-5.768 3.505-8.826 13.68.239 27.25 2.087 40.467 5.497-.503 1.543-.934 3.118-1.282 4.725-5.541 25.543 10.731 50.833 36.275 56.375 3.375.732 6.771 1.095 10.145 1.095 8.994 0 17.813-2.573 25.557-7.556 3.64-2.343 6.883-5.131 9.696-8.268 3.168 3.215 6.295 6.636 9.305 10.207 1.483 1.761 3.604 2.667 5.738 2.667 1.706 0 3.423-.579 4.829-1.766 3.168-2.669 3.571-7.4.901-10.567-3.555-4.219-7.266-8.266-11.028-12.029-.496-.496-1.001-.976-1.502-1.466 1.166-2.743 2.088-5.614 2.734-8.592 2.686-12.374.391-25.053-6.461-35.7s-17.439-17.99-29.813-20.675c-12.377-2.686-25.053-.39-35.701 6.461-4.83 3.108-8.972 6.992-12.315 11.456-15.514-4.301-31.507-6.591-47.627-6.861-.064-.262-.121-.525-.191-.787-1.912-7.126-6.096-13.248-11.927-17.584l-6.454-24.056c4.087-2.68 7.086-6.776 8.403-11.708 1.891-7.077-.075-14.39-5.26-19.56-9.5-9.473-18.097-20.344-25.551-32.312-7.291-11.705-19.283-20.2-34.68-24.568-3.985-1.132-8.132 1.183-9.262 5.168-1.13 3.984 1.184 8.132 5.168 9.262 8.193 2.325 19.362 7.347 26.042 18.069 8.062 12.942 17.378 24.719 27.691 35.002 1.934 1.929 1.596 4.187 1.36 5.067-.238.89-1.078 3.034-3.747 3.75l-8.66 2.323c-9.585 2.575-19.934.624-28.393-5.345-23.723-16.734-46.591-10.723-58.788-5.164l-11.252-41.945c4.343-6.003 12.68-10.625 23.4-12.863 4.055-.847 6.656-4.819 5.809-8.875-.847-4.054-4.819-6.65-8.875-5.809-13.305 2.778-24.207 8.761-30.972 16.817-13.299-4.849-30.964-2.624-47.97 6.386-18.076 9.577-37.688 28.828-38.52 54.137-.463 14.089-2.464 27.804-5.947 40.762-1.901 7.07.056 14.385 5.235 19.565 3.608 3.61 8.253 5.636 13.13 5.912l6.459 24.076c-2.882 6.673-3.44 14.067-1.526 21.19 1.877 6.991 5.939 13.015 11.599 17.335-7.721 9.678-19.621 26.941-27.743 49.765-12.896 36.239-11.838 72.772 3.144 108.586 6.197 14.812 20.506 23.98 35.998 23.979 3-.001 6.608-.507 9.646-1.22zm250.693-247.339c5.294-3.406 11.32-5.164 17.469-5.164 2.305 0 4.628.247 6.935.747 17.461 3.789 28.585 21.076 24.797 38.537-1.835 8.458-6.854 15.696-14.133 20.38s-15.947 6.25-24.404 4.417c-17.46-3.789-28.584-21.076-24.797-38.537 1.835-8.459 6.854-15.697 14.133-20.38zm18.657 141.616c0 17.867-14.535 32.403-32.402 32.403s-32.403-14.536-32.403-32.403 14.536-32.403 32.403-32.403 32.402 14.536 32.402 32.403zm-111.914-63.811c4.359 3.055 9.795 3.957 14.905 2.477l14.026-4.06c.971-.279 2.015.049 2.649.844l20.606 25.85c-8.198 5.805-14.476 14.14-17.689 23.864l-127.823 17.298c-3.1-6.859-9.926-11.354-17.554-11.354h-34.369c4.026-13.98 9.765-27.332 17.135-39.851 2.779 2.115 5.701 4.078 8.784 5.842 12.169 6.962 25.638 10.514 39.284 10.514 7.096 0 14.243-.961 21.275-2.902 20.638-5.7 37.115-19.272 47.17-36.645zm8.785-69.499c-2.32 4.019-6.064 6.896-10.543 8.104-.435-2.676-1.007-5.354-1.724-8.026l-6.901-25.719c4.359-1.053 8.877-.419 12.777 1.831 4.032 2.328 6.918 6.087 8.126 10.586 1.208 4.497.591 9.193-1.735 13.224zm-16.767-53.77.387-.104 3.433 12.797c-3.358-.22-6.761.088-10.11.938l-2.658-9.908c-.197-.736-.415-1.467-.633-2.197 3.216-.185 6.425-.68 9.581-1.526zm-40.927-7.576c4.585 3.234 9.574 5.636 14.756 7.174 1.075 2.581 1.999 5.263 2.733 8.006l13.45 50.13c9.259 34.512-10.835 70.219-44.792 79.597-16.674 4.603-34.119 2.41-49.118-6.172s-25.725-22.5-30.203-39.192l-13.689-51.009c-.731-2.727-1.276-5.507-1.645-8.288 3.719-3.927 6.838-8.505 9.19-13.603 10.976-23.788 33.061-25.747 42.05-25.47 1.43.042 2.849-.124 4.211-.49 1.376-.368 2.691-.937 3.906-1.688 7.646-4.729 27.744-14.098 49.151 1.005zm-118.558 108.628c-4.032-2.327-6.918-6.087-8.126-10.586-1.207-4.492-.59-9.186 1.736-13.216 2.25-3.898 5.844-6.709 10.151-7.986l7.136 26.591c.635 2.367 1.384 4.683 2.219 6.955-4.46 1.171-9.115.552-13.116-1.758zm-12.787-54.837.387-.104c3.157-.847 6.183-2.025 9.061-3.475.176.738.35 1.477.546 2.209l2.663 9.921c-3.326.941-6.426 2.379-9.223 4.25zm-18.638-18.708c3.781-14.067 5.953-28.926 6.454-44.161.622-18.902 16.189-33.768 30.55-41.376 13.763-7.292 27.92-9.119 37.102-5.009l11.246 41.922c-13.343 1.288-36.146 7.54-48.308 33.901-4.338 9.401-12.322 16.268-21.906 18.839l-8.66 2.323c-2.672.718-4.47-.721-5.121-1.371-.643-.646-2.066-2.43-1.357-5.068zm37.466 250.854c-11.56 2.721-23.259-3.217-27.815-14.107-30.468-72.831 12.091-131.016 25.053-146.327 1.772.302 3.565.47 5.369.47 2.824 0 5.668-.372 8.47-1.125.863-.233 1.718-.503 2.562-.807 2.461 4.071 5.284 7.898 8.435 11.451-9.575 15.635-16.776 32.509-21.457 50.272h-8.188c-4.142 0-7.5 3.357-7.5 7.5s3.358 7.5 7.5 7.5h58.118c1.834 0 3.465 1.182 4.058 2.939 6.821 20.227 14.175 40.567 21.106 59.536.574 1.569.087 2.864-.253 3.496-.341.632-1.158 1.75-2.788 2.133-.001.001-72.496 17.015-72.67 17.069zm20.815 10.52 55.283-12.985c5.364-1.26 9.941-4.764 12.559-9.612.323-.599.612-1.213.868-1.837l5.31-1.268 27.22 13.939c.737.377 1.238 1.093 1.341 1.914l2.239 17.831c.122.971-.338 1.93-1.171 2.442l-8.365 5.141c-7.155 4.397-10.18 13.286-7.192 21.135l5.974 15.694c3.424 8.996 13.539 13.544 22.543 10.145l34.12-12.898c1.119-.422 1.968.029 2.378.334.41.306 1.085.996.999 2.184l-2.1 29.054c-.041.563-.274 1.101-.655 1.515l-23.591 25.568c-32.346-6.577-63.174-22.372-88.212-47.41-17.529-17.532-30.815-37.995-39.548-60.886zm285.887 60.884c-38.286 38.286-90.108 54.986-140.204 50.106l16.694-18.094c2.677-2.902 4.307-6.669 4.591-10.604l2.1-29.053c.433-5.987-2.182-11.703-6.993-15.291-4.813-3.587-11.036-4.463-16.649-2.34l-34.119 12.898c-1.287.486-2.731-.164-3.221-1.449l-5.974-15.694c-.427-1.121.005-2.392 1.027-3.02l8.366-5.141c5.834-3.587 9.053-10.294 8.2-17.09l-2.239-17.831c-.721-5.748-4.23-10.756-9.388-13.397l-11.611-5.946 21.366-5.101c4.029-.962 6.515-5.008 5.553-9.036-.962-4.029-5.006-6.515-9.037-5.554l-45.886 10.955c-5.291-14.488-10.805-29.739-16.124-45.089l120.396-16.293c.168 12.943 5.543 24.649 14.129 33.115l-37.529 8.96c-4.029.962-6.516 5.008-5.554 9.036.822 3.444 3.896 5.761 7.289 5.761.576 0 1.162-.067 1.747-.207l51.168-12.216v34.271c0 6.835 4.019 13.085 10.238 15.923l9.182 4.187c2.298 1.049 4.772 1.564 7.242 1.564 3.466 0 6.921-1.018 9.854-3.01l27.77-18.863c.914-.622 2.109-.575 2.972.118l10.557 8.485c5.201 4.18 12.198 5.049 18.26 2.267l33.028-15.15c-6.735 32.55-22.676 63.298-47.201 87.823z"/><path d="m138.054 154.114-.066.018c-4.002 1.067-6.349 5.169-5.281 9.171.895 3.354 3.947 5.562 7.268 5.562.643 0 1.295-.083 1.944-.256 4.002-1.067 6.381-5.178 5.314-9.18s-5.178-6.377-9.179-5.315z"/><path d="m205.191 151.368c.643 0 1.295-.083 1.944-.256.14-.037.273-.087.408-.131 3.749-1.226 5.939-5.175 4.917-9.037-1.061-4.005-5.165-6.397-9.17-5.331l-.01.003c-.003.001-.007.001-.01.002l-.066.018c-4.002 1.067-6.349 5.169-5.281 9.171.894 3.353 3.947 5.561 7.268 5.561z"/><path d="m360.924 411.075-.227.226-.225-.226c-2.93-2.928-7.678-2.928-10.607 0-2.929 2.93-2.929 7.678 0 10.607l5.528 5.528c1.465 1.464 3.384 2.196 5.304 2.196 1.919 0 3.839-.732 5.303-2.196l5.529-5.528c2.93-2.929 2.93-7.678.001-10.606s-7.677-2.929-10.606-.001z"/><path d="m413.579 297.111-.226.226-.225-.225c-2.929-2.929-7.678-2.93-10.606-.001-2.93 2.929-2.93 7.678-.001 10.606l5.528 5.529c1.406 1.407 3.314 2.197 5.304 2.197s3.896-.79 5.304-2.196l5.529-5.529c2.929-2.93 2.929-7.678 0-10.607-2.93-2.928-7.678-2.928-10.607 0z"/><path d="m295.971 380.2-.225.226-.227-.226c-2.93-2.93-7.679-2.929-10.606.001-2.929 2.929-2.929 7.678.001 10.606l5.529 5.528c1.465 1.464 3.384 2.196 5.303 2.196s3.839-.732 5.304-2.196l5.528-5.528c2.929-2.93 2.929-7.678 0-10.607-2.929-2.927-7.677-2.927-10.607 0z"/><path d="m313.278 92.276c1.531 2.844 4.077 4.921 7.17 5.849 1.149.345 2.323.516 3.49.516 1.974 0 3.928-.488 5.714-1.449l38.071-20.492c15.221-8.216 20.935-27.292 12.737-42.522-7.101-13.191-22.36-19.26-36.212-15.338-9.408-10.908-25.484-14.24-38.673-7.143-15.23 8.198-20.967 27.267-12.784 42.516zm-.593-67.372c2.466-1.327 5.123-1.956 7.746-1.956 5.841 0 11.507 3.122 14.469 8.609 1.963 3.638 6.498 5.002 10.146 3.046 7.961-4.271 17.922-1.276 22.205 6.682 4.283 7.956 1.298 17.922-6.646 22.209l-35.5 19.107-19.102-35.491c-4.271-7.962-1.274-17.923 6.682-22.206z"/></g></g></g></svg>