<svg id="Layer_1" enable-background="new 0 0 504.5 504.5" height="512" viewBox="0 0 504.5 504.5" width="512" xmlns="http://www.w3.org/2000/svg"><g><g><path d="m65.402 404.167h28.154v73.333h-28.154z" fill="#ffdbb5"/><path d="m93.556 404.167h28.154v73.333h-28.154z" fill="#ffd1a1"/></g><g><g><g><g fill="#cf8230"><path d="m61.182 497h32.425v-24.559h-32.425c-6.782 0-12.279 5.498-12.279 12.279 0 6.782 5.497 12.28 12.279 12.28z"/><path d="m126.033 497h-32.425v-24.559h32.425c6.782 0 12.279 5.498 12.279 12.279 0 6.782-5.497 12.28-12.279 12.28z"/></g><g><path d="m65.402 341.429h56.308v68.712h-56.308z" fill="#cf8230"/><g><g><g><g><path d="m93.555 130.191c-19.509 0-35.324 15.815-35.324 35.324v45.285c0 19.402 15.793 35.131 35.274 35.131h.102c19.481 0 35.274-15.729 35.274-35.131v-45.285c-.001-19.508-15.816-35.324-35.326-35.324z" fill="#ffdbb5"/></g></g></g><path d="m93.556 130.191c-5.364 0-10.446 1.202-15 3.341 12.007 5.641 20.324 17.838 20.324 31.983v45.285c0 14.079-8.318 26.217-20.324 31.821 4.54 2.119 9.604 3.31 14.949 3.31h.101c19.481 0 35.274-15.729 35.274-35.131v-45.284c0-19.509-15.815-35.325-35.324-35.325z" fill="#ffd1a1"/><path d="m140.887 341.429h-94.663v-62.967c0-18.002 14.594-32.596 32.596-32.596h29.471c18.002 0 32.596 14.594 32.596 32.596z" fill="#2ae88f"/><g fill="#ffdbb5"><path d="m58.464 370.161h-.049c-6.732 0-12.19-5.458-12.19-12.19v-73.55h24.43v73.55c-.001 6.733-5.459 12.19-12.191 12.19z"/><path d="m128.697 370.161h-.049c-6.732 0-12.19-5.458-12.19-12.19v-73.55h24.43v73.55c-.001 6.733-5.459 12.19-12.191 12.19z"/></g></g><path d="m101.056 410.141v-36.218c0-4.142-3.357-7.5-7.5-7.5s-7.5 3.358-7.5 7.5v36.218z" fill="#b5630b"/><path d="m128.88 181.112h-12.423l-11.825-12.612-11.077 12.612h-35.116v-15.754c0-19.422 15.745-35.167 35.167-35.167h.106c19.422 0 35.167 15.745 35.167 35.167v15.754z" fill="#cf8230"/><g><path d="m93.713 130.191h-.106c-5.346 0-10.41 1.198-14.947 3.333 11.947 5.619 20.22 17.758 20.22 31.835v9.691l5.752-6.55 11.824 12.613h12.423v-15.754c.001-19.423-15.744-35.168-35.166-35.168z" fill="#c7751e"/></g></g></g><g><g><path d="m272.976 77.161-97.886-1.461v-37.147c0-21.292 17.261-38.553 38.553-38.553h20.78c21.292 0 38.553 17.261 38.553 38.553z" fill="#5d76cf"/><path d="m234.423 0h-20.78c-1.561 0-3.097.104-4.61.284 19.118 2.28 33.943 18.538 33.943 38.269v53.091h30v-53.091c0-21.292-17.26-38.553-38.553-38.553z" fill="#4d69cf"/><g><g><g><path d="m175.09 75.7v21.238c0 26.883 21.881 48.676 48.873 48.676h.141c26.992 0 48.873-21.793 48.873-48.676v-52.656h-19.847c-8.579 0-16.78 3.937-21.833 10.871-6.615 9.079-21.784 20.547-56.207 20.547z" fill="#ffdbb5"/></g></g></g><path d="m253.13 44.282c-3.513 0-6.958.67-10.154 1.926v50.73c0 21.696-14.255 40.068-33.943 46.354 4.707 1.503 9.722 2.322 14.93 2.322h.141c26.992 0 48.873-21.793 48.873-48.676v-52.656z" fill="#ffd1a1"/></g><path d="m224.033 275.25h-33.126v197.192h33.126 33.127v-197.192z" fill="#a6d4ff"/><path d="m279.724 275.25h-111.382v-91.175c0-21.182 17.171-38.353 38.353-38.353h34.677c21.182 0 38.353 17.171 38.353 38.353v91.175z" fill="#ffd52b"/><path d="m182.743 315.546h-.058c-7.922 0-14.343-6.422-14.343-14.343v-103.627h28.745v103.626c0 7.922-6.422 14.344-14.344 14.344z" fill="#ffdbb5"/><path d="m265.381 315.546h-.058c-7.922 0-14.343-6.422-14.343-14.343v-103.627h28.745v103.626c-.001 7.922-6.422 14.344-14.344 14.344z" fill="#ffdbb5"/><g fill="#5d76cf"><path d="m183.917 497h40.116v-24.559h-40.116c-6.782 0-12.279 5.498-12.279 12.279 0 6.782 5.497 12.28 12.279 12.28z"/><path d="m264.149 497h-40.116v-24.559h40.116c6.782 0 12.279 5.498 12.279 12.279 0 6.782-5.497 12.28-12.279 12.28z"/></g><path d="m231.533 472.441v-151.797c0-4.142-3.357-7.5-7.5-7.5s-7.5 3.358-7.5 7.5v151.797z" fill="#79b7f2"/></g><g><circle cx="365.415" cy="61" fill="#5d76cf" r="61"/><path d="m365.416 0c-5.177 0-10.201.65-15 1.864 26.435 6.685 46 30.624 46 59.136s-19.565 52.451-46 59.136c4.799 1.214 9.823 1.864 15 1.864 33.689 0 61-27.311 61-61s-27.311-61-61-61z" fill="#4d69cf"/><g><g><g><g><g><path d="m352.352 49.217c-16.394 0-29.684 13.29-29.684 29.684v24.199c0 23.479 19.111 42.513 42.686 42.513h.123c23.575 0 42.686-19.034 42.686-42.513v-24.199c0-16.394-13.29-29.684-29.684-29.684z" fill="#edb374"/></g></g></g></g><path d="m378.479 49.217h-26.126c-.651 0-1.296.028-1.937.07 15.49.999 27.747 13.872 27.747 29.615v24.198c0 18.244-11.542 33.799-27.747 39.831 4.65 1.731 9.682 2.683 14.938 2.683h.123c23.575 0 42.686-19.034 42.686-42.513v-24.2c0-16.394-13.29-29.684-29.684-29.684z" fill="#e3a35d"/><path d="m365.415 275.25h-33.126v197.192h33.126 33.127v-197.192z" fill="#a6d4ff"/><path d="m421.107 275.25h-111.383v-91.175c0-21.182 17.171-38.353 38.353-38.353h34.677c21.182 0 38.353 17.171 38.353 38.353z" fill="#ff428e"/><path d="m324.126 315.546h-.058c-7.922 0-14.343-6.422-14.343-14.343v-103.627h28.745v103.626c-.001 7.922-6.423 14.344-14.344 14.344z" fill="#edb374"/><g><path d="m325.299 497h59.468v-24.559h-59.468c-6.782 0-12.279 5.498-12.279 12.279 0 6.782 5.498 12.28 12.279 12.28z" fill="#ff428e"/></g></g></g><g><g><path d="m410.944 326.694c-25.407 0-46.003-20.596-46.003-46.003v-33.86c0-25.369 20.565-45.934 45.934-45.934h.139c25.369 0 45.934 20.565 45.934 45.934v33.86c0 25.407-20.597 46.003-46.004 46.003z" fill="#5d76cf"/><path d="m411.014 200.897h-.139c-5.229 0-10.248.886-14.931 2.495 18.036 6.199 31.003 23.299 31.003 43.439v33.86c0 20.153-12.964 37.267-31.003 43.488 4.703 1.622 9.746 2.515 15 2.515 25.407 0 46.003-20.596 46.003-46.003v-33.86c.001-25.369-20.565-45.934-45.933-45.934z" fill="#4d69cf"/><g><g><path d="m382.791 412.833h28.154v64.667h-28.154z" fill="#ffdbb5"/><path d="m410.944 412.833h28.154v64.667h-28.154z" fill="#ffd1a1"/></g><g><g><g><path d="m384.767 246.968v22c0 14.378 11.703 26.034 26.14 26.034h.075c14.436 0 26.14-11.656 26.14-26.034v-22z" fill="#ffdbb5"/></g></g></g><path d="m410.944 246.968v22c0 9.642-5.267 18.054-13.089 22.553 3.842 2.21 8.296 3.481 13.051 3.481h.075c14.437 0 26.14-11.656 26.14-26.034v-22z" fill="#ffd1a1"/><path d="m425.68 295.866h-29.471c-18.002 0-32.596 14.594-32.596 32.596v42.967h19.177v48.712h56.308v-48.712h19.177v-42.967c.001-18.003-14.593-32.596-32.595-32.596z" fill="#ffd52b"/><g fill="#ffdbb5"><path d="m375.853 400.161h-.049c-6.733 0-12.19-5.458-12.19-12.19v-53.55h24.43v53.55c-.001 6.733-5.459 12.19-12.191 12.19z"/><path d="m446.085 400.161h-.049c-6.733 0-12.19-5.458-12.19-12.19v-53.55h24.43v53.55c0 6.733-5.458 12.19-12.191 12.19z"/></g></g></g><g fill="#a6d4ff"><path d="m378.571 497h32.425v-24.559h-32.425c-6.782 0-12.279 5.498-12.279 12.279 0 6.782 5.497 12.28 12.279 12.28z"/><path d="m443.422 497h-32.425v-24.559h32.425c6.782 0 12.279 5.498 12.279 12.279 0 6.782-5.497 12.28-12.279 12.28z"/></g></g></g><path d="m489.56 489.5h-474.62c-4.143 0-7.5 3.358-7.5 7.5s3.357 7.5 7.5 7.5h474.62c4.143 0 7.5-3.358 7.5-7.5s-3.358-7.5-7.5-7.5z" fill="#e9f0f5"/></g></g></svg>