<svg height="512pt" viewBox="0 0 512 512.001" width="512pt" xmlns="http://www.w3.org/2000/svg"><path d="m280.285156 344.179688c-3.078125-2.328126-5.402344-5.5-6.710937-9.132813-3.804688-10.585937-13.132813-34.460937-26.050781-53.574219-6.839844-10.109375-10.328126-22.121094-10.328126-34.328125v-19.0625c0-4.691406-3.808593-8.5-8.5-8.5h-9.25c-12.421874 0-25.921874 10.171875-25.921874 37.832031v46.097657c0 14.589843-19.429688 26.410156-34.019532 26.410156l-66.214844.125c-10.949218 0-19.824218 8.875-19.824218 19.820313 0 10.945312 8.875 19.820312 19.824218 19.820312h-3.75c-10.949218 0-19.824218 8.875-19.824218 19.824219 0 10.945312 8.875 19.820312 19.824218 19.820312h5.835938c-10.949219 0-19.824219 8.875-19.824219 19.824219 0 10.945312 8.875 19.820312 19.824219 19.820312h16.480469c.46875 0 .859375.351563.910156.820313.042969.382813-.167969.746094-.515625.917969-5.515625 2.730468-9.316406 8.40625-9.316406 14.980468 0 14.222657 13.398437 16.71875 13.398437 16.71875h155.132813c9.851562 0 17.839844-7.988281 17.839844-17.839843v-102.261719c0-7.125-3.339844-13.835938-9.019532-18.132812zm0 0" fill="#ebad88"/><path d="m280.285156 344.179688c-3.078125-2.328126-5.402344-5.5-6.710937-9.132813-3.804688-10.585937-13.132813-34.460937-26.050781-53.574219-6.839844-10.109375-10.328126-22.121094-10.328126-34.328125v-19.0625c0-4.691406-3.808593-8.5-8.5-8.5h-9.25c-4.527343 0-9.191406 1.359375-13.300781 4.414063.667969 1.214844 1.050781 2.605468 1.050781 4.085937v19.0625c0 12.207031 3.488282 24.21875 10.328126 34.328125 12.917968 19.109375 22.246093 42.988282 26.050781 53.574219 1.308593 3.628906 3.632812 6.800781 6.710937 9.132813 5.679688 4.296874 9.019532 11.007812 9.019532 18.132812v102.261719c0 9.851562-7.988282 17.839843-17.839844 17.839843h30c9.851562 0 17.839844-7.988281 17.839844-17.839843v-102.261719c0-7.125-3.339844-13.835938-9.019532-18.132812zm0 0" fill="#e89776"/><path d="m363.871094 504.5h-65.195313c-5.191406 0-9.402343-4.210938-9.402343-9.402344v-161.195312c0-5.191406 4.207031-9.402344 9.402343-9.402344h65.195313c5.191406 0 9.402344 4.210938 9.402344 9.402344v161.195312c0 5.191406-4.210938 9.402344-9.402344 9.402344zm0 0" fill="#d8d5ed"/><path d="m363.871094 324.5h-30c5.191406 0 9.402344 4.210938 9.402344 9.402344v161.195312c0 5.191406-4.210938 9.402344-9.402344 9.402344h30c5.191406 0 9.402344-4.210938 9.402344-9.402344v-161.195312c0-5.191406-4.210938-9.402344-9.402344-9.402344zm0 0" fill="#bebade"/><path d="m373.273438 339.65625h131.226562v153.253906h-131.226562zm0 0" fill="#ff2c5c"/><path d="m474.5 339.65625h30v153.253906h-30zm0 0" fill="#e62753"/><path d="m346 377.957031c0 8.285157-6.714844 15-15 15s-15-6.714843-15-15c0-8.285156 6.714844-15 15-15s15 6.714844 15 15zm0 0" fill="#ff2c5c"/><path d="m186.625 7.5h-135.25c-24.230469 0-43.875 19.628906-43.875 43.839844v105.574218c0 24.214844 19.644531 43.839844 43.875 43.839844h42.785156c3.332032 56.183594 41.5625 53.589844 56.773438 50.285156 1.214844-.265624 1.179687-2.003906-.046875-2.222656-29.175781-5.226562-16.527344-48.0625-16.527344-48.0625h52.265625c24.230469 0 43.875-19.625 43.875-43.839844v-105.574218c0-24.210938-19.644531-43.839844-43.875-43.839844zm0 0" fill="#b5fcff"/><path d="m186.625 7.5h-30c24.230469 0 43.875 19.628906 43.875 43.839844v105.574218c0 24.210938-19.644531 43.839844-43.875 43.839844h30c24.230469 0 43.875-19.625 43.875-43.839844v-105.574218c0-24.210938-19.644531-43.839844-43.875-43.839844zm0 0" fill="#71f6fc"/><path d="m179.996094 88.398438c0 21.417968-17.003906 46.648437-58.992188 68.859374-1.871094.988282-4.140625.988282-6.015625 0-41.988281-22.210937-58.992187-47.4375-58.992187-68.859374 0-19.046876 12.648437-35.398438 31-35.398438 13.648437 0 22.824218 7.003906 27.460937 11.722656 1.921875 1.957032 5.15625 1.957032 7.078125 0 4.636719-4.71875 13.8125-11.722656 27.460938-11.722656 18.351562 0 31 16.351562 31 35.398438zm0 0" fill="#ff2c5c"/><path d="m148.996094 53c-6.300782 0-11.636719 1.5-16.027344 3.574219 10.492188 5.832031 17.027344 18.132812 17.027344 31.824219 0 19.25-13.746094 41.574218-47 62.019531 3.75 2.304687 7.738281 4.589843 11.992187 6.839843 1.875.988282 4.144531.988282 6.015625 0 41.988282-22.210937 58.992188-47.441406 58.992188-68.859374 0-19.046876-12.648438-35.398438-31-35.398438zm0 0" fill="#e62753"/><path d="m504.5 332.15625h-24.5c-4.140625 0-7.5 3.359375-7.5 7.5 0 4.144531 3.359375 7.5 7.5 7.5h17v138.253906h-116.226562v-48.703125h61.726562c4.144531 0 7.5-3.359375 7.5-7.5s-3.355469-7.5-7.5-7.5h-61.726562v-74.550781h67.058593c4.144531 0 7.5-3.355469 7.5-7.5 0-4.140625-3.355469-7.5-7.5-7.5h-67.148437c-.875-8.5-8.082032-15.15625-16.8125-15.15625h-65.195313c-9.320312 0-16.902343 7.582031-16.902343 16.902344v.957031c-.457032-.738281-.839844-1.523437-1.140626-2.351563-4.429687-12.324218-13.816406-35.886718-26.894531-55.238281-5.917969-8.742187-9.042969-19.160156-9.042969-30.125v-19.058593c0-8.824219-7.179687-16-16-16h-9.25c-15.417968 0-33.421874 11.871093-33.421874 45.328124v46.101563c0 9.558594-15.183594 18.910156-26.519532 18.910156h-59.839844c-.457031 0-.910156.039063-1.351562.121094h-5.023438c-15.066406 0-27.324218 12.257813-27.324218 27.320313 0 6.917968 2.582031 13.242187 6.835937 18.0625-6.4375 5.003906-10.585937 12.816406-10.585937 21.582031 0 9.339843 4.710937 17.597656 11.878906 22.527343-3.777344 4.6875-6.039062 10.644532-6.039062 17.117188 0 15.066406 12.253906 27.324219 27.320312 27.324219h1.863281c-1.171875 2.863281-1.804687 5.984375-1.804687 9.21875 0 16.179687 12.773437 22.832031 19.527344 24.089843.453124.082032.910156.125 1.371093.125h43.417969c4.140625 0 7.5-3.355468 7.5-7.5 0-4.140624-3.359375-7.5-7.5-7.5h-42.585938c-1.761718-.480468-6.730468-2.4375-6.730468-9.21875 0-3.519531 1.972656-6.6875 5.140625-8.253906.539062-.265625 1.019531-.601562 1.476562-.960937h10.929688c4.140625 0 7.5-3.359375 7.5-7.5 0-4.144531-3.359375-7.5-7.5-7.5h-15.304688c-.132812 0-.261719.011719-.394531.019531-.140625-.007812-.28125-.019531-.425781-.019531h-16.480469c-6.792969 0-12.320312-5.527344-12.320312-12.324219 0-6.792969 5.527343-12.320312 12.320312-12.320312h29.59375c4.144531 0 7.5-3.359376 7.5-7.5 0-4.144532-3.355469-7.5-7.5-7.5h-35.429688c-6.796874 0-12.324218-5.527344-12.324218-12.324219 0-6.792969 5.527344-12.320313 12.324218-12.320313h28.457032c4.144531 0 7.5-3.359375 7.5-7.5s-3.355469-7.5-7.5-7.5h-24.707032c-6.796874 0-12.324218-5.527344-12.324218-12.324218 0-6.792969 5.527344-12.320313 12.324218-12.320313h6.386719c.457031 0 .910157-.042969 1.351563-.121094h58.476562c18.808594 0 41.523438-15.128906 41.523438-33.910156v-46.101563c0-22.363281 9.515625-30.328124 18.417968-30.328124h9.25c.550782 0 1 .445312 1 1v19.058593c0 13.972657 4.019532 27.296875 11.617188 38.53125 12.617188 18.664063 21.832031 42.519531 25.207031 51.910157 1.804688 5.015624 5 9.363281 9.242188 12.574218 3.648437 2.757813 5.855469 7.082032 6.011719 11.640625v103.371094c-.3125 5.421875-4.808594 9.742187-10.308594 9.742187h-79.628906c-4.144532 0-7.5 3.359376-7.5 7.5 0 4.140626 3.355468 7.5 7.5 7.5h79.628906c3.671875 0 7.15625-.792968 10.308594-2.199218v7.382812c0 9.320313 7.582031 16.902344 16.902343 16.902344h65.195313c7.464844 0 13.800781-4.867188 16.035156-11.589844h124.59375c4.144531 0 7.5-3.359375 7.5-7.5v-153.253906c0-4.140625-3.355469-7.5-7.5-7.5zm-138.726562 162.941406c0 1.050782-.855469 1.902344-1.902344 1.902344h-65.195313c-1.050781 0-1.902343-.851562-1.902343-1.902344v-161.195312c0-1.050782.851562-1.902344 1.902343-1.902344h65.195313c1.046875 0 1.902344.851562 1.902344 1.902344zm0 0"/><path d="m331 355.457031c-12.40625 0-22.5 10.09375-22.5 22.5s10.09375 22.5 22.5 22.5 22.5-10.09375 22.5-22.5-10.09375-22.5-22.5-22.5zm0 30c-4.136719 0-7.5-3.363281-7.5-7.5s3.363281-7.5 7.5-7.5 7.5 3.363281 7.5 7.5-3.363281 7.5-7.5 7.5zm0 0"/><path d="m108.039062 250.746094c9.5 7.203125 20.390626 9.246094 29.6875 9.246094 5.789063 0 10.960938-.792969 14.796876-1.625 4.019531-.871094 6.878906-4.484376 6.804687-8.59375-.074219-4.109376-3.066406-7.617188-7.117187-8.34375-4.5625-.816407-7.671876-2.785157-9.789063-6.203126-4.472656-7.210937-3.546875-19.234374-2.109375-26.972656h46.3125c28.328125 0 51.375-23.03125 51.375-51.339844v-105.574218c0-28.308594-23.046875-51.339844-51.375-51.339844h-90.457031c-4.144531 0-7.5 3.359375-7.5 7.5s3.355469 7.5 7.5 7.5h90.457031c20.058594 0 36.375 16.300781 36.375 36.339844v105.574218c0 20.039063-16.316406 36.339844-36.375 36.339844h-52.265625c-3.324219 0-6.25 2.1875-7.191406 5.375-.828125 2.800782-7.785157 27.84375 2.476562 44.460938.277344.449218.566407.890625.867188 1.320312-4.601563-.792968-9.269531-2.480468-13.410157-5.617187-9.148437-6.941407-14.351562-19.890625-15.453124-38.484375-.234376-3.960938-3.519532-7.054688-7.488282-7.054688h-42.785156c-20.054688 0-36.375-16.300781-36.375-36.339844v-105.574218c0-20.039063 16.320312-36.339844 36.375-36.339844h12.625c4.144531 0 7.5-3.359375 7.5-7.5s-3.355469-7.5-7.5-7.5h-12.625c-28.328125 0-51.375 23.03125-51.375 51.339844v105.574218c0 28.308594 23.046875 51.339844 51.375 51.339844h35.917969c2.320312 19.523438 9.28125 33.796875 20.746093 42.492188zm0 0"/><path d="m48.496094 88.398438c0 15.75 8.183594 46.5 62.984375 75.488281 2.039062 1.078125 4.277343 1.617187 6.515625 1.617187 2.238281 0 4.476562-.539062 6.515625-1.617187 54.804687-28.988281 62.984375-59.738281 62.984375-75.488281 0-24.054688-16.910156-42.898438-38.5-42.898438-14.863282 0-25.296875 7.007812-31 12.222656-5.699219-5.214844-16.132813-12.222656-31-12.222656-21.589844 0-38.5 18.84375-38.5 42.898438zm38.5-27.898438c10.578125 0 17.863281 5.15625 22.109375 9.476562 2.316406 2.363282 5.558593 3.714844 8.890625 3.714844 3.332031 0 6.574218-1.351562 8.890625-3.710937 4.246093-4.324219 11.53125-9.480469 22.109375-9.480469 15.265625 0 23.5 14.375 23.5 27.898438 0 20.960937-19.855469 43.527343-54.5 61.964843-34.644532-18.4375-54.5-41.003906-54.5-61.964843 0-13.523438 8.238281-27.898438 23.5-27.898438zm0 0"/></svg>