<svg id="Layer_1" enable-background="new 0 0 512 512" height="512" viewBox="0 0 512 512" width="512" xmlns="http://www.w3.org/2000/svg"><g><g><g><path d="m242.939 241.333h29.333v312h-29.333z" fill="#ff8caf" transform="matrix(0 1 -1 0 654.939 139.728)"/></g><g><path d="m244.272 269.333h26.667v312h-26.667z" fill="#ff6e91" transform="matrix(0 1 -1 0 682.939 167.728)"/></g><g><path d="m242.939 297.333h29.333v312h-29.333z" fill="#e64178" transform="matrix(0 1 -1 0 710.939 195.728)"/></g><g><path d="m413.606 425.333h48v-10.666l-48-32z" fill="#fab991"/></g><g><path d="m413.606 425.333h48v10.667l-48 32z" fill="#f0915a"/></g><g><path d="m461.606 414.667 11.008 7.338c2.375 1.583 2.375 5.073 0 6.656l-11.008 7.339z" fill="#353744"/></g><g><path d="m46.939 413.333h85.333v24h-85.333z" fill="#a5c3dc" transform="matrix(0 1 -1 0 514.939 335.728)"/></g><g><path d="m68.272 392h42.667v24h-42.667z" fill="#d7e6f0" transform="matrix(0 1 -1 0 493.606 314.394)"/></g><g><path d="m37.606 452v-53.333c0-8.837 7.163-16 16-16h24v85.333h-24c-8.837 0-16-7.163-16-16z" fill="#463c4b"/></g><g><path d="m37.606 425.333v-26.667c0-8.837 7.163-16 16-16h24v42.667z" fill="#555a6e"/></g></g><g><path d="m37.606 316v-240c0-17.673 14.327-32 32-32h368c17.673 0 32 14.327 32 32v192l-72 80h-328c-17.674 0-32-14.327-32-32z" fill="#d7e6f0"/></g><g><path d="m469.606 268h-40c-17.673 0-32 14.327-32 32v48z" fill="#a5c3dc"/></g><g><path d="m413.606 228h-48c-8.837 0-16-7.163-16-16v-32c0-8.837 7.163-16 16-16h48c8.837 0 16 7.163 16 16v32c0 8.837-7.164 16-16 16z" fill="#ff6e91"/></g><path d="m347.72 191.448-25.791-25.791c-1.061-1.061-2.5-1.657-4-1.657-3.124 0-5.657 2.533-5.657 5.657v14.343h-27.353l-57.657-57.657c-3.125-3.124-8.189-3.124-11.314 0-3.124 3.124-3.124 8.189 0 11.313l46.344 46.344h-73.372l-57.657-57.657c-3.125-3.124-8.189-3.124-11.314 0-3.124 3.124-3.124 8.189 0 11.313l46.343 46.344h-72.687c-6.627 0-12 5.373-12 12s5.373 12 12 12h72.686l-46.343 46.343c-3.124 3.124-3.124 8.189 0 11.313 1.563 1.562 3.609 2.343 5.657 2.343s4.095-.781 5.657-2.343l57.657-57.656h73.372l-46.343 46.343c-3.124 3.124-3.124 8.189 0 11.313 1.563 1.562 3.609 2.343 5.657 2.343s4.095-.781 5.657-2.343l57.657-57.656h27.353v14.343c0 3.124 2.533 5.657 5.657 5.657 1.5 0 2.939-.596 4-1.657l25.791-25.791c1.207-1.208 1.885-2.845 1.885-4.552s-.678-3.345-1.885-4.552z" fill="#555a6e"/><g><path d="m253.606 140h-48c-8.837 0-16-7.163-16-16v-32c0-8.837 7.163-16 16-16h48c8.837 0 16 7.163 16 16v32c0 8.837-7.164 16-16 16z" fill="#00d2d2"/></g><g><path d="m253.606 316h-48c-8.837 0-16-7.163-16-16v-32c0-8.837 7.163-16 16-16h48c8.837 0 16 7.163 16 16v32c0 8.837-7.164 16-16 16z" fill="#00d2d2"/></g><g><path d="m157.606 140h-48c-8.837 0-16-7.163-16-16v-32c0-8.837 7.163-16 16-16h48c8.837 0 16 7.163 16 16v32c0 8.837-7.164 16-16 16z" fill="#00d2d2"/></g><g><path d="m157.606 316h-48c-8.837 0-16-7.163-16-16v-32c0-8.837 7.163-16 16-16h48c8.837 0 16 7.163 16 16v32c0 8.837-7.164 16-16 16z" fill="#00d2d2"/></g></g></svg>