<svg height="512" viewBox="0 0 54 60" width="512" xmlns="http://www.w3.org/2000/svg"><g id="Page-1" fill="none" fill-rule="evenodd"><g id="051---Survival-Guide" fill-rule="nonzero"><path id="Shape" d="m53 44v12c0 1.6568542-1.3431458 3-3 3h-43c-3.3137085 0-6-2.6862915-6-6s2.6862915-6 6-6h43c1.6568542 0 3-1.3431458 3-3z" fill="#ffe0b2"/><path id="Shape" d="m50 47v9c0 1.6568542-1.3431458 3-3 3h3c1.6568542 0 3-1.3431458 3-3v-12c0 1.6568542-1.3431458 3-3 3z" fill="#dfc49c"/><path id="Shape" d="m53 4v40c0 1.6568542-1.3431458 3-3 3h-43c-3.3137085 0-6 2.6862915-6 6v-46c0-3.3137085 2.6862915-6 6-6h43c1.6568542 0 3 1.34314575 3 3z" fill="#f44335"/><path id="Shape" d="m50 1h-3c1.6568542 0 3 1.34314575 3 3v40c0 1.6568542-1.3431458 3-3 3h3c1.6568542 0 3-1.3431458 3-3v-40c0-1.65685425-1.3431458-3-3-3z" fill="#c81e1e"/><path id="Shape" d="m49 23c-1.98 4.43-7.23 9.12-14.45 10.67-2.25.49-4.02.86-5.42 1.16.0599094-.2512885.0495307-.5142157-.03-.76l-1.82-5.69c-.0761909-.2568265-.2298642-.4838439-.44-.65 6.2832773-2.0709749 12.7489376-3.5408998 19.31-4.39.98-.13 1.94-.25 2.85-.34z" fill="#9e9e9e"/><path id="Shape" d="m46.15 23.34c-.111.015-.229.034-.341.049-2.109 4.311-7.25 8.776-14.259 10.281-.889.194-1.683.364-2.428.523.0515828.2088972.0543203.4268732.008.637 1.4-.3 3.17-.67 5.42-1.16 7.22-1.55 12.47-6.24 14.45-10.67-.91.09-1.87.21-2.85.34z" fill="#707070"/><path id="Shape" d="m29.13 34.83c-.1115778.4952564-.4766975.8946061-.96 1.05l-1.58.5c-.7395846.2417942-1.5363907-.1543832-1.79-.89h-.01c0-.01-.01-.03-.01-.04l-1.81-5.68c-.0950192-.2890582-.0950192-.6009418 0-.89v-.01h.01c.1396716-.4353642.4831354-.7750947.92-.91l1.57-.51c.4745898-.1452626.9904653-.0398282 1.37.28.2101358.1661561.3638091.3931735.44.65l1.82 5.69c.0795307.2457843.0899094.5087115.03.76z" fill="#ff9801"/><path id="Shape" d="m15.33 38.9c-1.0229977.6158236-1.9666943 1.3546608-2.81 2.2-2.43 2.56-9.11.18-7.52-3.37.66504457-1.0144773 1.58606137-1.8354585 2.67-2.38.75764127.9691207 1.70321219 1.7752369 2.78 2.37 1.4340312.9623998 3.1646846 1.3808774 4.88 1.18z" fill="#ff9801"/><path id="Shape" d="m24.79 35.49c-3.3357748.5043956-6.5398568 1.659632-9.43 3.4h-.01c-.0051905.0057054-.0123214.0092708-.02.01-1.7153154.2008774-3.4459688-.2176002-4.88-1.18-1.07678781-.5947631-2.02235873-1.4008793-2.78-2.37.53-.32 1.11-.65 1.73-.97h.01c4.3931535-2.1317352 8.9231376-3.9691181 13.56-5.5-.0950192.2890582-.0950192.6009418 0 .89l1.81 5.68c0 .01.01.03.01.04z" fill="#783e22"/><path id="Shape" d="m23 7c-.5522847 0-1 .44771525-1 1v8c0 .5522847-.4477153 1-1 1s-1-.4477153-1-1v-8c0-.55228475-.4477153-1-1-1s-1 .44771525-1 1v8c0 1.6568542 1.3431458 3 3 3s3-1.3431458 3-3v-8c0-.55228475-.4477153-1-1-1z" fill="#f5f5f5"/><path id="Shape" d="m33 7h-2c-.5522847 0-1 .44771525-1 1v10c0 .5522847.4477153 1 1 1h2c1.6548028-.0049422 2.9950578-1.3451972 3-3v-6c-.0049422-1.6548028-1.3451972-2.9950578-3-3zm1 9c0 .5522847-.4477153 1-1 1h-1v-8h1c.5522847 0 1 .44771525 1 1z" fill="#f5f5f5"/><path id="Shape" d="m27 7c-.5522847 0-1 .44771525-1 1v10c0 .5522847.4477153 1 1 1s1-.4477153 1-1v-10c0-.55228475-.4477153-1-1-1z" fill="#f5f5f5"/><path id="Shape" d="m43 14c.5522847 0 1-.4477153 1-1s-.4477153-1-1-1h-3v-3h3c.5522847 0 1-.44771525 1-1s-.4477153-1-1-1h-4c-.5522847 0-1 .44771525-1 1v10c0 .5522847.4477153 1 1 1h4c.5522847 0 1-.4477153 1-1s-.4477153-1-1-1h-3v-3z" fill="#f5f5f5"/><path id="Shape" d="m13 9c.5522847 0 1 .44771525 1 1 0 .5522847.4477153 1 1 1s1-.4477153 1-1c0-1.65685425-1.3431458-3-3-3s-3 1.34314575-3 3v6c0 1.6568542 1.3431458 3 3 3s3-1.3431458 3-3v-2c0-.5522847-.4477153-1-1-1h-1c-.5522847 0-1 .4477153-1 1s.4477153 1 1 1v1c0 .5522847-.4477153 1-1 1s-1-.4477153-1-1v-6c0-.55228475.4477153-1 1-1z" fill="#f5f5f5"/><g fill="#000"><path id="Shape" d="m50 0h-43c-3.86416566.00440864-6.99559136 3.13583434-7 7v46c.00440864 3.8641657 3.13583434 6.9955914 7 7h43c2.209139 0 4-1.790861 4-4v-52c0-2.209139-1.790861-4-4-4zm-48 7c.00330612-2.76005315 2.23994685-4.99669388 5-5h43c1.1045695 0 2 .8954305 2 2v40c0 1.1045695-.8954305 2-2 2h-43c-1.88158826-.0025347-3.68450614.7546908-5 2.1zm48 51h-43c-2.76142375 0-5-2.2385763-5-5s2.23857625-5 5-5h43c.7042532-.0041446 1.3946535-.1960759 2-.556v2.556h-33c-.5522847 0-1 .4477153-1 1s.4477153 1 1 1h33v2h-4c-.5522847 0-1 .4477153-1 1s.4477153 1 1 1h4c0 1.1045695-.8954305 2-2 2z"/><path id="Shape" d="m7 52h5c.5522847 0 1-.4477153 1-1s-.4477153-1-1-1h-5c-.55228475 0-1 .4477153-1 1s.44771525 1 1 1z"/><path id="Shape" d="m41 54h-34c-.55228475 0-1 .4477153-1 1s.44771525 1 1 1h34c.5522847 0 1-.4477153 1-1s-.4477153-1-1-1z"/><path id="Shape" d="m13.244 41.789c1.886-1.98 6.229-4.342 11.05-5.2.6364789.7509458 1.6626227 1.0445808 2.6.744l1.576-.5c.5856024-.1881154 1.0776022-.5921559 1.376-1.13l.912-.194c1.13-.239 2.452-.521 4-.858 8.27-1.775 13.331-7.164 15.153-11.239.1460265-.3251661.1079286-.7034789-.1-.993-.2105443-.2866694-.555782-.4422161-.91-.41-.921.091-1.892.212-2.884.344-6.4645923.8430487-12.8382715 2.2770512-19.041 4.284-.5625844-.2772315-1.2109036-.3249232-1.808-.133l-1.575.5c-.5576417.1805755-1.0306628.5576419-1.331 1.061-6.362 2.166-16.767 6.122-18.175 9.256-.76182 1.7414843-.06744424 3.7764393 1.6 4.689 1.17034697.754925 2.53329662 1.1569361 3.926 1.158 1.3483289.0583392 2.6613253-.4403173 3.631-1.379zm-2.3-4.936c-.6129407-.3528959-1.18334175-.7749926-1.7-1.258 4.1332856-2.1058646 8.4210316-3.8937069 12.826-5.348l1.424 4.453c-2.9964165.5888794-5.8694847 1.6878432-8.494 3.249-1.4345777.0915527-2.859174-.2937774-4.052-1.096zm35.337-12.522.926-.12c-3.0266086 4.3902903-7.6418289 7.4316022-12.87 8.481-1.545.337-2.864.618-3.992.857l-.337.072-1.7-5.32c5.8647158-1.8413634 11.8783288-3.1696917 17.973-3.97zm-22.081 4.577 1.576-.5c.0434935-.0129818.0886113-.0197159.134-.02.1893746-.000373.3577447.1204667.418.3l1.817 5.683c.0733572.2313528-.0540137.4784969-.285.553l-1.575.5c-.2315937.0726834-.4784678-.0549947-.553-.286l-1.817-5.682c-.0701478-.2298048.0565776-.4734734.285-.548zm-17.4 11.44c-.96-.643-1.26-1.386-.892-2.207.39321801-.6106321.92803266-1.1173166 1.559-1.477.72864678.7558065 1.56257937 1.4024748 2.476 1.92.8209741.4785958 1.6997638.8502751 2.615 1.106-.283.245-.544.486-.767.721-1.086 1.149-3.531.913-4.991-.063z"/><path id="Shape" d="m5 10c.55228475 0 1-.44771525 1-1v-2c0-.55228475.44771525-1 1-1h2c.55228475 0 1-.44771525 1-1s-.44771525-1-1-1h-2c-1.65685425 0-3 1.34314575-3 3v2c0 .55228475.44771525 1 1 1z"/><path id="Shape" d="m49 38c-.5522847 0-1 .4477153-1 1v3h-3c-.5522847 0-1 .4477153-1 1s.4477153 1 1 1h3c1.1045695 0 2-.8954305 2-2v-3c0-.5522847-.4477153-1-1-1z"/><path id="Shape" d="m11 23h14c.5522847 0 1-.4477153 1-1s-.4477153-1-1-1h-14c-.5522847 0-1 .4477153-1 1s.4477153 1 1 1z"/><path id="Shape" d="m11 25c-.5522847 0-1 .4477153-1 1s.4477153 1 1 1h6c.5522847 0 1-.4477153 1-1s-.4477153-1-1-1z"/></g></g></g></svg>