<svg id="Capa_1" enable-background="new 0 0 512 512" height="512" viewBox="0 0 512 512" width="512" xmlns="http://www.w3.org/2000/svg"><g><path d="m425.496 64.381c-39.483-41.518-91.282-64.382-145.855-64.381-52.816.001-99.2 19.305-134.138 55.823-32.467 33.938-52.563 81.237-56.688 133.354-4.532 9.128-31.553 43.006-54.963 70.314-.463.539-.886 1.11-1.268 1.71-8.789 13.812-9.612 30.117-2.202 43.617 7.624 13.89 22.321 22.182 39.311 22.182 1.157 0 2.31-.134 3.436-.398l10.93-2.572 14.723 71.626c.487 13.494 6.86 25.845 17.655 34.09 10.868 8.3 24.568 11.185 37.795 8.001l54.413-5.234v34.487c0 24.813 20.187 45 45 45h116c24.813 0 45-20.187 45-45v-94.071c46.639-40.095 72.786-97.881 71.982-159.682-.711-54.5-22.992-108.76-61.131-148.866z" fill="#27d8f6"/><path d="m280.357.01v511.99h89.287c24.813 0 45-20.187 45-45v-94.071c46.639-40.095 72.786-97.881 71.982-159.682-.71-54.5-22.991-108.76-61.131-148.866-39.309-41.336-90.828-64.173-145.138-64.371z" fill="#3aaaff"/><path d="m346.729 116.031c-17.902-17.484-41.382-27.032-66.344-27.032-.771 0-1.547.01-2.32.027-51.415 1.216-93.003 44.071-92.707 95.531.119 20.569 6.711 40.109 19.061 56.509 13.503 17.929 20.938 40.269 20.938 62.903v8.031c0 30.327 24.673 55 55 55s55-24.673 55-55v-7.006c0-23.37 7.395-46.019 20.822-63.774 12.546-16.591 19.178-36.377 19.178-57.22 0-25.801-10.167-49.939-28.628-67.969z" fill="#ffda2d"/><path d="m280.385 88.999c-.009 0-.019 0-.028 0v278.001c30.327 0 55-24.673 55-55v-7.006c0-23.37 7.395-46.019 20.822-63.774 12.546-16.591 19.178-36.377 19.178-57.22 0-25.801-10.167-49.939-28.628-67.969-17.902-17.484-41.382-27.032-66.344-27.032z" fill="#fdbf00"/><path d="m340.126 273c-36.267 0-82.385 0-119.477 0 1.707 5.544 2.968 11.232 3.747 17l.025.006c.621 4.602.936 9.3.936 13.964v8.03c0 30.327 24.673 55 55 55 14.685 0 28.494-5.722 38.888-16.114 10.391-10.392 16.112-24.201 16.112-38.886v-7.01c0-5.012.338-10.051 1.005-14.979 0 0 .018-.005.038-.01.793-5.794 2.046-11.481 3.726-17.001z" fill="#f5f0eb"/><path d="m280.357 367c14.685 0 28.494-5.722 38.888-16.114 10.391-10.392 16.112-24.201 16.112-38.886v-7.01c0-5.012.338-10.051 1.005-14.979 0 0 .018-.005.038-.01.793-5.795 2.046-11.482 3.727-17.002-18.233 0-38.956 0-59.769 0v94.001z" fill="#dad0cb"/></g></svg>