<svg height="512pt" viewBox="-76 0 512 512" width="512pt" xmlns="http://www.w3.org/2000/svg"><path d="m67.5 97.5h-30l-10 15 10 15h30zm0 0" fill="#ffa754"/><path d="m7.5 97.5h30v30h-30zm0 0" fill="#ffcb63"/><path d="m157.5 412.5h30l15-15v-90h-75zm0 0" fill="#4f4f4f"/><path d="m157.5 412.5h-30l-15-15v-90h45zm0 0" fill="#696969"/><path d="m187.5 172.5h-30l-30 119.988281 75 .011719zm0 0" fill="#fff0d3"/><path d="m127.5 172.5-15 120 45-.011719v-119.988281zm0 0" fill="#fff"/><path d="m207.5 262.5h-50l-25 45 25 45h50zm0 0" fill="#e18f4e"/><path d="m107.5 262.5h50v90h-50zm0 0" fill="#ffa754"/><path d="m117.503906 172.5c-11.042968 0-20 8.953125-20 20l-.003906 220h30v-240zm0 0" fill="#4f4f4f"/><path d="m197.5 172.5h-10v240h30v-220c0-11.046875-8.953125-20-20-20zm0 0" fill="#353535"/><path d="m191.753906 68.335938c.011719-.011719-34.253906-.007813-34.253906-.007813v74.171875c24.847656 0 45-20.152344 45-45 0-11.121094-4.046875-21.316406-10.746094-29.164062zm0 0" fill="#ffb4a9"/><path d="m171.390625 80.507812-48.144531-12.171874c-6.703125 7.847656-10.746094 18.042968-10.746094 29.164062 0 24.847656 20.148438 45 45 45 8.28125 0 15-20.152344 15-45 0-6.011719-.390625-11.75-1.109375-16.992188zm0 0" fill="#ffd9d4"/><path d="m157.5 52.5 13.890625 28.007812c7.449219-2.226562 14.472656-6.292968 20.363281-12.171874-8.25-9.691407-20.535156-15.835938-34.253906-15.835938zm0 0" fill="#60312c"/><path d="m157.5 52.5c-13.71875 0-26.003906 6.144531-34.253906 15.835938 13.039062 13.039062 31.644531 17.105468 48.144531 12.171874-2.230469-16.429687-7.609375-28.007812-13.890625-28.007812zm0 0" fill="#85453d"/><path d="m173.292969 17.5c-2.8125-5.90625-8.816407-10-15.792969-10s-12.984375 4.09375-15.792969 10c-9.664062 0-17.5 7.835938-17.5 17.5s7.835938 17.5 17.5 17.5h31.585938c9.664062 0 17.5-7.835938 17.5-17.5s-7.835938-17.5-17.5-17.5zm0 0" fill="#85453d"/><path d="m277.5 157.5h60v120h-60zm0 0" fill="#ffcb63"/><path d="m262.503906 203 44.996094 59.5h45v15c0 8.277344-6.722656 15-15 15h-74.996094zm0 0" fill="#fff0d3"/><path d="m337.5 142.5c8.277344 0 15 6.71875 15 15v15h-45l-44.996094 80v-110zm0 0" fill="#fff0d3"/><path d="m277.5 172.5v-15c0-8.285156-6.714844-15-14.996094-15-8.285156 0-15 6.714844-15 15v120c0 8.28125 6.714844 15 15 15 8.28125 0 14.996094-6.71875 14.996094-15v-15h30v-90zm0 0" fill="#ffe2a8"/><path d="m219.871094 497.382812-24.871094-8.289062v-69.09375h22.5c4.140625 0 7.5-3.359375 7.5-7.5v-220c0-15.164062-12.335938-27.5-27.5-27.5h-80c-12.5625 0-23.179688 8.472656-26.453125 20h-46.046875v-50h15v2.5c0 4.140625 3.359375 7.5 7.5 7.5s7.5-3.359375 7.5-7.5v-50c0-4.140625-3.359375-7.5-7.5-7.5s-7.5 3.359375-7.5 7.5v2.5h-45v-2.5c0-4.140625-3.359375-7.5-7.5-7.5s-7.5 3.359375-7.5 7.5v50c0 4.140625 3.359375 7.5 7.5 7.5s7.5-3.359375 7.5-7.5v-2.5h15v50h-7.5c-12.40625 0-22.5 10.09375-22.5 22.5s10.09375 22.5 22.5 22.5h15c4.140625 0 7.5-3.359375 7.5-7.5v-22.5h45v212.5c0 4.140625 3.359375 7.5 7.5 7.5h22.5v69.09375l-24.871094 8.289062c-3.929687 1.308594-6.054687 5.558594-4.746094 9.488282 1.050782 3.140625 3.976563 5.128906 7.113282 5.128906.789062 0 1.585937-.125 2.375-.386719l30-10c3.0625-1.019531 5.128906-3.886719 5.128906-7.113281v-74.5h45v74.5c0 3.226562 2.0625 6.09375 5.125 7.113281l30 10c.789062.261719 1.585938.386719 2.375.386719 3.140625 0 6.066406-1.988281 7.113281-5.128906 1.3125-3.929688-.8125-8.179688-4.742187-9.488282zm-204.871094-392.382812h45v15h-45zm15 110h-7.5c-4.136719 0-7.5-3.363281-7.5-7.5s3.363281-7.5 7.5-7.5h7.5zm180-22.5v212.5h-15v-225h2.5c6.890625 0 12.5 5.605469 12.5 12.5zm-52.5 47.5c4.140625 0 7.5-3.359375 7.5-7.5v-52.5h15v75h-45v-75h15v52.5c0 4.140625 3.355469 7.5 7.5 7.5zm-22.5 30h45v75h-45zm-30 135v-212.5c0-6.894531 5.605469-12.5 12.5-12.5h2.5v225zm30 0v-45h45v45zm0 0"/><path d="m117.96875 63.007812c-.273438.273438-.488281.535157-.695312.804688-7.652344 9.121094-12.273438 20.875-12.273438 33.6875 0 28.949219 23.550781 52.5 52.5 52.5s52.5-23.550781 52.5-52.5c0-12.8125-4.621094-24.566406-12.277344-33.6875-.203125-.269531-.421875-.535156-.667968-.78125-2.632813-3.007812-5.570313-5.695312-8.785157-8.03125 6.082031-4.5625 10.023438-11.832031 10.023438-20 0-12.257812-8.871094-22.484375-20.527344-24.601562-4.648437-6.425782-12.203125-10.398438-20.265625-10.398438-8.066406 0-15.617188 3.972656-20.265625 10.402344-11.660156 2.113281-20.527344 12.339844-20.527344 24.597656 0 8.171875 3.941407 15.4375 10.019531 20.003906-3.214843 2.332032-6.148437 5.019532-8.757812 8.003906zm39.53125 71.992188c-20.679688 0-37.5-16.824219-37.5-37.5 0-6.566406 1.699219-12.738281 4.675781-18.113281 9.492188 6.910156 20.871094 10.648437 32.824219 10.648437s23.332031-3.738281 32.820312-10.648437c2.976563 5.371093 4.679688 11.546875 4.679688 18.113281 0 20.675781-16.824219 37.5-37.5 37.5zm-23.03125-67.0625c6.359375-4.964844 14.351562-7.9375 23.03125-7.9375 8.675781 0 16.671875 2.972656 23.03125 7.9375-6.742188 4.613281-14.695312 7.097656-23.03125 7.097656s-16.289062-2.484375-23.03125-7.097656zm7.238281-22.9375c-5.515625 0-10-4.484375-10-10s4.484375-10 10-10c2.894531 0 5.527344-1.664062 6.769531-4.277344 1.683594-3.53125 5.136719-5.722656 9.023438-5.722656 3.882812 0 7.339844 2.191406 9.019531 5.722656 1.242188 2.613282 3.878907 4.277344 6.773438 4.277344 5.511719 0 10 4.484375 10 10s-4.488281 10-10 10zm0 0"/><path d="m352.5 180c4.140625 0 7.5-3.359375 7.5-7.5v-15c0-12.40625-10.09375-22.5-22.5-22.5h-75c-12.40625 0-22.5 10.09375-22.5 22.5v120c0 12.40625 10.09375 22.5 22.5 22.5h75c12.40625 0 22.5-10.09375 22.5-22.5v-15c0-4.144531-3.359375-7.5-7.5-7.5h-7.5v-75zm-15-30c4.132812 0 7.5 3.363281 7.5 7.5v7.5h-60v-7.5c0-2.628906-.453125-5.152344-1.285156-7.5zm7.5 127.5c0 4.136719-3.367188 7.5-7.5 7.5h-53.785156c.832031-2.347656 1.285156-4.875 1.285156-7.5v-7.5h60zm-15-22.5h-52.5c-4.144531 0-7.5 3.355469-7.5 7.5v15c0 4.136719-3.363281 7.5-7.5 7.5s-7.5-3.363281-7.5-7.5v-120c0-4.136719 3.363281-7.5 7.5-7.5s7.5 3.363281 7.5 7.5v15c0 4.140625 3.355469 7.5 7.5 7.5h52.5zm0 0"/></svg>