<svg height="512" viewBox="0 0 512 512" width="512" xmlns="http://www.w3.org/2000/svg"><g id="filled_outline" data-name="filled outline"><path d="m256 224a24 24 0 1 1 24-24 24.027 24.027 0 0 1 -24 24zm0-32a8 8 0 1 0 8 8 8.009 8.009 0 0 0 -8-8z" fill="#ea9d2d"/><circle cx="256" cy="352" fill="#fbb540" r="136"/><circle cx="256" cy="352" fill="#d18d28" r="104"/><path d="m231.44 364a7.954 7.954 0 0 1 -3.628-.875l-27.287-13.919a29.811 29.811 0 0 1 -16.525-26.806v-18.4a8 8 0 0 1 8-8h24a8 8 0 0 1 0 16h-16v10.4a13.924 13.924 0 0 0 7.739 12.522l27.344 13.949a8 8 0 0 1 -3.643 15.129z" fill="#ea9d2d"/><path d="m279.585 364a8 8 0 0 1 -3.541-15.179l28.256-13.921a13.907 13.907 0 0 0 7.7-12.5v-10.4h-16a8 8 0 0 1 0-16h24a8 8 0 0 1 8 8v18.4a29.835 29.835 0 0 1 -16.583 26.833l-28.3 13.941a7.994 7.994 0 0 1 -3.532.826z" fill="#ea9d2d"/><path d="m296 288v30.059a81.941 81.941 0 0 1 -24 57.941v7.65a54.007 54.007 0 0 0 9.069 29.954l6.931 10.396h-64l6.931-10.4a54.007 54.007 0 0 0 9.069-29.95v-7.65a81.941 81.941 0 0 1 -24-57.941v-30.059z" fill="#fbb540"/><path d="m216 152h80l-64-128h-80z" fill="#961b20"/><path d="m296 152h-80l64-128h80z" fill="#e82f3e"/><path d="m256 152 64-128h40l-64 128z" fill="#0296e5"/><rect fill="#ea9d2d" height="32" rx="16" width="128" x="192" y="152"/><path d="m311.05 24h17.95l-64.05 128h-17.95z" fill="#eaeae8"/><path d="m277.958 209.672a23.934 23.934 0 0 0 .666-17.672h25.376a24 24 0 0 0 4.711-47.533l58.444-116.889a8 8 0 0 0 -7.155-11.578h-80a8 8 0 0 0 -7.155 4.422l-16.845 33.689-16.845-33.689a8 8 0 0 0 -7.155-4.422h-80a8 8 0 0 0 -7.155 11.578l58.444 116.889a24 24 0 0 0 4.711 47.533h25.376a23.934 23.934 0 0 0 .666 17.672c-69.018 10.604-122.042 70.39-122.042 142.328 0 79.4 64.6 144 144 144s144-64.6 144-144c0-71.938-53.024-131.724-122.042-142.328zm69.098-177.672-56 112h-22.112l56-112zm-62.112 0h22.112l-56 112h-22.112zm-120 0h62.112l20 40-31.056 62.112zm43.056 144a8 8 0 0 1 0-16h96a8 8 0 0 1 0 16zm56 24a8 8 0 1 1 -8-8 8.009 8.009 0 0 1 8 8zm-8 280a128 128 0 1 1 128-128 128.145 128.145 0 0 1 -128 128z"/><path d="m256 240a112 112 0 1 0 112 112 112.127 112.127 0 0 0 -112-112zm0 208a96 96 0 1 1 96-96 96.108 96.108 0 0 1 -96 96z"/><path d="m320 296h-16v-8a8 8 0 0 0 -8-8h-80a8 8 0 0 0 -8 8v8h-16a8 8 0 0 0 -8 8v18.4a29.835 29.835 0 0 0 16.583 26.833l15.706 7.853a7.856 7.856 0 0 0 .748.32 89.823 89.823 0 0 0 14.963 21.821v4.423a45.86 45.86 0 0 1 -7.726 25.517l-6.93 10.4a8 8 0 0 0 6.656 12.433h64a8 8 0 0 0 6.656-12.438l-6.93-10.4a45.854 45.854 0 0 1 -7.726-25.512v-4.423a89.823 89.823 0 0 0 14.963-21.818 7.856 7.856 0 0 0 .748-.32l15.706-7.853a29.835 29.835 0 0 0 16.583-26.836v-18.4a8 8 0 0 0 -8-8zm-112.261 38.925a13.924 13.924 0 0 1 -7.739-12.525v-10.4h8v6.059a90.822 90.822 0 0 0 1.787 17.89zm80.261-16.866a73.456 73.456 0 0 1 -21.657 52.284 8 8 0 0 0 -2.343 5.657v7.65a61.784 61.784 0 0 0 9.108 32.35h-34.216a61.784 61.784 0 0 0 9.108-32.35v-7.65a8 8 0 0 0 -2.343-5.657 73.456 73.456 0 0 1 -21.657-52.284v-22.059h64zm24 4.344a13.924 13.924 0 0 1 -7.739 12.522l-2.048 1.024a90.822 90.822 0 0 0 1.787-17.89v-6.059h8z"/></g></svg>