<svg id="Capa_1" enable-background="new 0 0 513.411 513.411" height="512" viewBox="0 0 513.411 513.411" width="512" xmlns="http://www.w3.org/2000/svg"><g><g><g id="XMLID_499_"><g><path d="m256.706 7.495c47.27 0 85.59 38.32 85.59 85.6 0 47.27-38.32 85.59-85.59 85.59s-85.59-38.32-85.59-85.59c0-47.28 38.32-85.6 85.59-85.6z" fill="#dff6fd"/></g></g><g><path d="m322.406 147.935c-15.69 18.8-39.3 30.75-65.7 30.75s-50.01-11.95-65.7-30.75c.09-18.41 7.77-35.02 20.05-46.9l22.92-16.16h48.36l20.02 16.16c12.28 11.88 19.96 28.49 20.05 46.9z" fill="#fee97d"/></g><path d="m302.356 101.035-20.02-16.16h-38.957l-20.957 8.146-11.366 8.014c-12.28 11.88-19.96 28.49-20.05 46.9 5.733 6.87 12.527 12.819 20.125 17.61.552-6.844 2.155-13.389 4.644-19.478 3.441-8.416 12.662-12.852 21.419-10.405 6.21 1.735 12.753 2.666 19.512 2.666 22.105 0 41.928-9.9 55.311-25.484-2.763-4.302-6.003-8.269-9.661-11.809z" fill="#fee45a"/><path d="m256.706 7.5c-31.986 0-57.915 25.929-57.915 57.915 0 1.3.058 2.587.143 3.866l4.543-1.923 9.135 26.796 36.744 23.143 15.428 3.293h9.543c23.367-7.457 40.293-29.336 40.293-55.176.001-31.985-25.929-57.914-57.914-57.914z" fill="#ffe5c2"/><path d="m234.031 65.415c0-25.84 16.942-47.724 40.31-55.181-5.557-1.773-11.49-2.734-17.635-2.734-31.986 0-57.915 25.929-57.915 57.915 0 31.985 25.929 57.915 57.915 57.915 6.145 0 12.079-.966 17.636-2.739-23.368-7.457-40.311-29.336-40.311-55.176z" fill="#fed2a4"/><g id="XMLID_501_"><g><path d="m419.63 169.785c47.27 0 85.59 38.32 85.59 85.6 0 47.27-38.32 85.59-85.59 85.59s-85.59-38.32-85.59-85.59c0-47.28 38.32-85.6 85.59-85.6z" fill="#dff6fd"/></g></g><g><path d="m485.33 310.225c-15.69 18.8-39.3 30.75-65.7 30.75s-50.01-11.95-65.7-30.75c.09-18.41 7.77-35.02 20.05-46.9l22.92-16.16h48.36l20.02 16.16c12.28 11.88 19.96 28.49 20.05 46.9z" fill="#5f99d7"/></g><path d="m465.28 263.325-20.02-16.16h-38.957l-20.957 8.146-11.366 8.014c-12.28 11.88-19.96 28.49-20.05 46.9 5.733 6.87 12.527 12.819 20.125 17.61.552-6.844 2.155-13.389 4.644-19.478 3.441-8.416 12.662-12.852 21.419-10.405 6.21 1.735 12.753 2.666 19.512 2.666 22.105 0 41.928-9.9 55.311-25.484-2.763-4.302-6.002-8.269-9.661-11.809z" fill="#3c87d0"/><path d="m419.63 169.789c-31.986 0-57.915 25.929-57.915 57.915 0 1.3.058 2.587.143 3.866l4.543-1.923 9.135 26.796 36.744 23.143 15.428 3.293h9.543c23.367-7.457 40.293-29.336 40.293-55.176.001-31.984-25.929-57.914-57.914-57.914z" fill="#ffe5c2"/><path d="m396.956 227.704c0-25.84 16.942-47.724 40.31-55.181-5.557-1.773-11.491-2.734-17.636-2.734-31.986 0-57.915 25.929-57.915 57.915 0 31.985 25.929 57.915 57.915 57.915 6.145 0 12.079-.966 17.636-2.739-23.368-7.456-40.31-29.335-40.31-55.176z" fill="#fed2a4"/><g id="XMLID_504_"><g><path d="m256.706 334.725c47.27 0 85.59 38.32 85.59 85.6 0 47.27-38.32 85.59-85.59 85.59s-85.59-38.32-85.59-85.59c0-47.28 38.32-85.6 85.59-85.6z" fill="#dff6fd"/></g></g><g><path d="m322.406 475.165c-15.69 18.8-39.3 30.75-65.7 30.75s-50.01-11.95-65.7-30.75c.09-18.41 7.77-35.02 20.05-46.9l22.92-16.16h48.36l20.02 16.16c12.28 11.88 19.96 28.49 20.05 46.9z" fill="#ade194"/></g><path d="m302.356 428.265-20.02-16.16h-38.957l-20.957 8.146-11.366 8.014c-12.28 11.88-19.96 28.49-20.05 46.9 5.733 6.87 12.527 12.819 20.125 17.61.552-6.844 2.155-13.389 4.644-19.478 3.441-8.416 12.662-12.852 21.419-10.405 6.21 1.735 12.753 2.666 19.512 2.666 22.105 0 41.928-9.9 55.311-25.484-2.763-4.302-6.003-8.269-9.661-11.809z" fill="#97da7b"/><path d="m256.706 334.729c-31.986 0-57.915 25.929-57.915 57.915 0 1.3.058 2.587.143 3.866l4.543-1.923 9.135 26.796 36.744 23.143 15.428 3.293h9.543c23.367-7.457 40.293-29.336 40.293-55.176.001-31.984-25.929-57.914-57.914-57.914z" fill="#ffe5c2"/><path d="m234.031 392.645c0-25.84 16.942-47.724 40.31-55.181-5.557-1.773-11.491-2.734-17.636-2.734-31.986 0-57.915 25.929-57.915 57.915 0 31.985 25.929 57.915 57.915 57.915 6.145 0 12.079-.966 17.636-2.739-23.367-7.457-40.31-29.336-40.31-55.176z" fill="#fed2a4"/><g id="XMLID_506_"><g><path d="m93.781 169.785c47.27 0 85.59 38.32 85.59 85.6 0 47.27-38.32 85.59-85.59 85.59s-85.59-38.32-85.59-85.59c0-47.28 38.32-85.6 85.59-85.6z" fill="#dff6fd"/></g></g><g><path d="m159.481 310.225c-15.69 18.8-39.3 30.75-65.7 30.75s-50.01-11.95-65.7-30.75c.09-18.41 7.77-35.02 20.05-46.9l22.92-16.16h48.36l20.02 16.16c12.28 11.88 19.96 28.49 20.05 46.9z" fill="#f37c7c"/></g><path d="m139.431 263.325-20.02-16.16h-38.957l-20.957 8.146-11.366 8.014c-12.28 11.88-19.96 28.49-20.05 46.9 5.733 6.87 12.527 12.819 20.125 17.61.552-6.844 2.155-13.389 4.644-19.478 3.441-8.416 12.662-12.852 21.419-10.405 6.21 1.735 12.753 2.666 19.512 2.666 22.105 0 41.928-9.9 55.311-25.484-2.763-4.302-6.002-8.269-9.661-11.809z" fill="#ee6161"/><path d="m93.781 169.789c-31.986 0-57.915 25.929-57.915 57.915 0 1.3.058 2.587.143 3.866l4.543-1.923 9.135 26.796 36.744 23.143 15.428 3.293h9.543c23.367-7.457 40.293-29.336 40.293-55.176.001-31.984-25.928-57.914-57.914-57.914z" fill="#ffe5c2"/><path d="m71.107 227.704c0-25.84 16.942-47.724 40.31-55.181-5.557-1.773-11.491-2.734-17.636-2.734-31.986 0-57.915 25.929-57.915 57.915 0 31.985 25.929 57.915 57.915 57.915 6.145 0 12.079-.966 17.636-2.739-23.368-7.456-40.31-29.335-40.31-55.176z" fill="#fed2a4"/></g><g><path d="m256.706 186.181c42.252 0 79.269-28.51 90.018-69.329 1.055-4.006-1.337-8.108-5.343-9.163-4.007-1.052-8.108 1.337-9.163 5.343-1.32 5.013-3.125 9.797-5.334 14.325-2.937-9.916-7.979-19.102-14.892-27.041 6.404-10.108 10.13-22.074 10.13-34.901 0-6.607-.986-12.988-2.817-19.004 7.953 10.646 13.279 23.425 14.93 37.445.485 4.114 4.206 7.059 8.326 6.571 4.114-.484 7.056-4.212 6.571-8.325-5.514-46.806-45.249-82.102-92.426-82.102-51.331 0-93.091 41.76-93.091 93.09s41.76 93.091 93.091 93.091zm0-15c-23.058 0-43.805-10.052-58.113-25.996.628-12.139 4.968-23.55 12.458-32.985 11.797 11.515 27.907 18.629 45.654 18.629 17.748 0 33.857-7.115 45.654-18.629 7.503 9.448 11.843 20.881 12.46 33.042-14.463 16.09-35.379 25.939-58.113 25.939zm0-55.352c-27.799 0-50.415-22.616-50.415-50.415s22.616-50.415 50.415-50.415 50.415 22.616 50.415 50.415-22.617 50.415-50.415 50.415zm-62.615-69.347c-1.818 5.995-2.801 12.35-2.801 18.932 0 12.826 3.725 24.792 10.129 34.899-6.909 7.938-11.934 17.126-14.868 27.039-5.076-10.351-7.936-21.978-7.936-34.263 0-17.456 5.759-33.59 15.476-46.607z"/><path d="m256.706 327.229c-51.331 0-93.091 41.761-93.091 93.091s41.76 93.091 93.091 93.091 93.091-41.761 93.091-93.091-41.761-93.091-93.091-93.091zm-50.415 65.416c0-27.799 22.616-50.415 50.415-50.415s50.415 22.616 50.415 50.415-22.616 50.415-50.415 50.415-50.415-22.617-50.415-50.415zm-12.192-18.948c-1.82 6.001-2.808 12.36-2.808 18.947 0 12.829 3.727 24.796 10.133 34.906-6.91 7.94-11.933 17.129-14.866 27.043-5.079-10.354-7.942-21.984-7.942-34.273-.001-17.462 5.761-33.602 15.483-46.623zm62.607 124.714c-23.058 0-43.805-10.052-58.113-25.996.628-12.139 4.967-23.55 12.458-32.985 11.797 11.515 27.907 18.629 45.654 18.629 17.745 0 33.853-7.113 45.65-18.625 7.493 9.431 11.836 20.84 12.466 32.978-14.308 15.946-35.056 25.999-58.115 25.999zm70.163-43.846c-2.937-9.906-7.97-19.086-14.878-27.02 6.404-10.108 10.129-22.074 10.129-34.9 0-6.587-.989-12.946-2.808-18.947 9.721 13.021 15.484 29.161 15.484 46.623 0 12.277-2.856 23.898-7.927 34.244z"/><path d="m419.63 163.614c-51.331 0-93.091 41.761-93.091 93.091s41.76 93.091 93.091 93.091 93.091-41.761 93.091-93.091-41.761-93.091-93.091-93.091zm78.091 93.091c0 12.289-2.863 23.919-7.942 34.273-2.936-9.91-7.967-19.091-14.877-27.028 6.412-10.113 10.142-22.086 10.142-34.921 0-6.587-.989-12.946-2.808-18.947 9.722 13.021 15.485 29.161 15.485 46.623zm-128.506-27.676c0-27.799 22.616-50.415 50.415-50.415s50.415 22.616 50.415 50.415-22.616 50.415-50.415 50.415-50.415-22.616-50.415-50.415zm-12.192-18.947c-1.82 6.001-2.808 12.36-2.808 18.947 0 12.83 3.727 24.798 10.134 34.908-6.909 7.936-11.938 17.117-14.876 27.026-5.074-10.35-7.934-21.975-7.934-34.258 0-17.462 5.763-33.602 15.484-46.623zm62.607 124.714c-23.058 0-43.805-10.052-58.113-25.996.628-12.139 4.968-23.55 12.458-32.985 11.797 11.515 27.907 18.629 45.654 18.629 17.748 0 33.858-7.115 45.655-18.629 7.491 9.434 11.831 20.846 12.458 32.985-14.307 15.944-35.054 25.996-58.112 25.996z"/><path d="m93.781 163.614c-51.331 0-93.091 41.761-93.091 93.091s41.76 93.091 93.091 93.091 93.091-41.761 93.091-93.091-41.76-93.091-93.091-93.091zm78.091 93.091c0 12.28-2.858 23.901-7.93 34.249-2.932-9.894-7.953-19.063-14.845-26.991 6.398-10.124 10.099-22.109 10.099-34.934 0-6.587-.989-12.946-2.808-18.947 9.721 13.021 15.484 29.161 15.484 46.623zm-140.698-46.623c-1.82 6.001-2.808 12.36-2.808 18.947 0 12.571 3.622 24.633 10.115 34.915-6.902 7.934-11.924 17.115-14.857 27.02-5.075-10.35-7.934-21.975-7.934-34.258 0-17.463 5.763-33.603 15.484-46.624zm62.607 124.714c-23.058 0-43.805-10.052-58.113-25.996.627-12.128 4.96-23.531 12.438-32.959 4.107 4.011 8.773 7.516 13.926 10.382 3.619 2.01 8.186.709 10.2-2.909 2.014-3.62.711-8.187-2.909-10.2-16.011-8.904-25.957-25.797-25.957-44.084 0-27.799 22.616-50.415 50.415-50.415s50.415 22.616 50.415 50.415c0 26.847-20.98 48.962-47.765 50.346-4.137.214-7.316 3.74-7.103 7.877.207 4.005 3.52 7.113 7.484 7.113.13 0 .262-.003.394-.01 16.484-.852 31.268-7.76 42.264-18.497 7.47 9.425 11.797 20.821 12.424 32.941-14.307 15.944-35.055 25.996-58.113 25.996z"/><path d="m367.99 96.435c19.245 13.33 35.788 29.827 49.17 49.033 1.458 2.092 3.79 3.213 6.16 3.213 1.479 0 2.975-.438 4.281-1.348 3.398-2.368 4.234-7.042 1.866-10.441-14.407-20.677-32.217-38.438-52.936-52.787-3.404-2.357-8.077-1.511-10.436 1.895-2.358 3.404-1.51 8.076 1.895 10.435z"/><path d="m427.602 366.077c-3.398-2.367-8.073-1.532-10.441 1.865-13.382 19.206-29.926 35.703-49.17 49.033-3.405 2.358-4.253 7.03-1.895 10.436 1.457 2.103 3.794 3.23 6.172 3.23 1.473 0 2.961-.434 4.264-1.336 20.719-14.35 38.529-32.11 52.936-52.787 2.367-3.399 1.532-8.073-1.866-10.441z"/><path d="m145.449 416.302c-18.818-13.203-35.028-29.464-48.178-48.329-2.37-3.399-7.044-4.233-10.442-1.863-3.398 2.368-4.232 7.043-1.864 10.441 14.158 20.31 31.608 37.815 51.869 52.03 1.311.92 2.813 1.361 4.301 1.361 2.361 0 4.687-1.113 6.146-3.193 2.379-3.391 1.559-8.068-1.832-10.447z"/><path d="m86.829 147.301c1.307.911 2.802 1.349 4.283 1.349 2.37 0 4.701-1.121 6.159-3.212 13.15-18.865 29.36-35.126 48.178-48.329 3.391-2.379 4.211-7.057 1.832-10.447-2.38-3.392-7.058-4.21-10.447-1.832-20.26 14.215-37.711 31.721-51.869 52.03-2.368 3.398-1.534 8.073 1.864 10.441z"/></g></g></svg>