<?xml version="1.0" encoding="iso-8859-1"?>
<!-- Generator: Adobe Illustrator 19.0.0, SVG Export Plug-In . SVG Version: 6.00 Build 0)  -->
<svg version="1.1" id="Capa_1" xmlns="http://www.w3.org/2000/svg" xmlns:xlink="http://www.w3.org/1999/xlink" x="0px" y="0px"
	 viewBox="0 0 512 512" style="enable-background:new 0 0 512 512;" xml:space="preserve">
<path style="fill:#F1F1F2;" d="M332.445,393.342c-92.626,0-167.715-75.088-167.715-167.714c0-57.882,29.323-108.916,73.924-139.057
	C233.485,86.194,228.265,86,223,86C105.363,86,10,181.363,10,299s95.363,213,213,213c94.543,0,174.697-61.597,202.525-146.847
	C398.893,382.955,366.884,393.342,332.445,393.342z"/>
<polygon style="fill:#82D2FF;" points="502,124.007 386.672,124.007 442.674,30 393,30 393,0 495.465,0 439.463,94.007 502,94.007 
	"/>
<polygon style="fill:#08B7FC;" points="352.758,216.8 257.735,216.8 300.951,144.257 261.091,144.257 261.091,114.257 
	353.742,114.257 310.526,186.8 352.758,186.8 "/>
<polygon style="fill:#006DFF;" points="438.01,314.758 356.781,314.758 384.134,268.843 359.51,268.843 359.51,238.843 
	436.925,238.843 409.572,284.758 438.01,284.758 "/>
<path style="fill:#E6E6E6;" d="M332.445,393.342c-55.516,0-104.724-26.981-135.249-68.538l-124.81,124.81
	C110.932,488.159,164.182,512,223,512c94.543,0,174.697-61.597,202.525-146.847C398.893,382.955,366.884,393.342,332.445,393.342z"
	/>
<g>
</g>
<g>
</g>
<g>
</g>
<g>
</g>
<g>
</g>
<g>
</g>
<g>
</g>
<g>
</g>
<g>
</g>
<g>
</g>
<g>
</g>
<g>
</g>
<g>
</g>
<g>
</g>
<g>
</g>
</svg>
