<?xml version="1.0" encoding="iso-8859-1"?>
<!-- Generator: Adobe Illustrator 19.0.0, SVG Export Plug-In . SVG Version: 6.00 Build 0)  -->
<svg version="1.1" id="Capa_1" xmlns="http://www.w3.org/2000/svg" xmlns:xlink="http://www.w3.org/1999/xlink" x="0px" y="0px"
	 viewBox="0 0 512 512" style="enable-background:new 0 0 512 512;" xml:space="preserve">
<g>
	<path style="fill:#804231;" d="M15,241c-8.291,0-15-6.709-15-15v-60c0-8.291,6.709-15,15-15s15,6.709,15,15v60
		C30,234.291,23.291,241,15,241z"/>
	<path style="fill:#804231;" d="M76,211H15c-8.291,0-15-6.709-15-15s6.709-15,15-15h61c8.291,0,15,6.709,15,15S84.291,211,76,211z"
		/>
</g>
<g>
	<path style="fill:#663325;" d="M497,241c-8.291,0-15-6.709-15-15v-60c0-8.291,6.709-15,15-15s15,6.709,15,15v60
		C512,234.291,505.291,241,497,241z"/>
	<path style="fill:#663325;" d="M497,211h-61c-8.291,0-15-6.709-15-15s6.709-15,15-15h61c8.291,0,15,6.709,15,15
		S505.291,211,497,211z"/>
</g>
<path style="fill:#3C1B13;" d="M451,211v-15c0-24.853-20.147-45-45-45h-45v60l39.375,30L451,211z"/>
<path style="fill:#582B1F;" d="M151,211l-55.625,30L61,211v-15c0-24.853,20.147-45,45-45h45V211z"/>
<path style="fill:#C4B3AF;" d="M451,61v15c0,8.399-6.599,15-15,15h-75V61c0-16.5,43.5-30,60-30S451,44.5,451,61z"/>
<path style="fill:#EDE9E8;" d="M421,31c-16.5,0-30,13.5-30,30v240H121V76c0-24.901,20.099-45,45-45H421z"/>
<path style="fill:#DFD7D5;" d="M421,31c-16.5,0-30,13.5-30,30v240H256V31H421z"/>
<path style="fill:#D2C5C2;" d="M331,226c0,8.399-6.599,15-15,15H196c-8.401,0-15-6.601-15-15c0-8.401,6.599-15,15-15h120
	C324.401,211,331,217.599,331,226z"/>
<path style="fill:#C4B3AF;" d="M316,241h-60v-30h60c8.401,0,15,6.599,15,15C331,234.399,324.401,241,316,241z"/>
<path style="fill:#FF641A;" d="M376,211c-3.9,0-7.8,1.5-10.499,4.499L309.699,271H202.301L146.5,215.499
	C143.8,212.5,139.9,211,136,211H61v225c0,24.899,20.099,45,45,45h300c24.901,0,45-20.101,45-45V211H376z"/>
<path style="fill:#FF4B00;" d="M451,211v225c0,24.899-20.099,45-45,45H256V271h53.699l55.801-55.501C368.2,212.5,372.1,211,376,211
	H451z"/>
<path style="fill:#582B1F;" d="M106,451h300c8.271,0,15-6.729,15-15c0,0,0-97.681,0-135.001c-91.134,0.001-275.246,0.001-330,0
	C91,358.305,91,436,91,436C91,444.28,97.738,451,106,451z"/>
<path style="fill:#3C1B13;" d="M256,451h150c8.271,0,15-6.729,15-15c0,0,0-97.681,0-135.001c-42.356,0-104.796,0-165,0.001V451z"/>
<g>
	<circle style="fill:#DFD7D5;" cx="135.97" cy="346" r="15"/>
	<circle style="fill:#DFD7D5;" cx="195.97" cy="346" r="15"/>
	<path style="fill:#DFD7D5;" d="M271,346c0,8.399-6.599,15-15,15s-15-6.601-15-15c0-8.401,6.599-15,15-15S271,337.599,271,346z"/>
</g>
<g>
	<circle style="fill:#D2C5C2;" cx="315.97" cy="346" r="15"/>
	<circle style="fill:#D2C5C2;" cx="375.97" cy="346" r="15"/>
</g>
<circle style="fill:#DFD7D5;" cx="135.97" cy="406" r="15"/>
<circle style="fill:#D2C5C2;" cx="375.97" cy="406" r="15"/>
<path style="fill:#DFD7D5;" d="M331,406c0,8.399-6.599,15-15,15H196c-8.401,0-15-6.601-15-15c0-8.401,6.599-15,15-15h120
	C324.401,391,331,397.599,331,406z"/>
<g>
	<path style="fill:#D2C5C2;" d="M331,106c0,8.399-6.599,15-15,15H196c-8.401,0-15-6.601-15-15c0-8.401,6.599-15,15-15h120
		C324.401,91,331,97.599,331,106z"/>
	<path style="fill:#D2C5C2;" d="M331,166c0,8.399-6.599,15-15,15H196c-8.401,0-15-6.601-15-15c0-8.401,6.599-15,15-15h120
		C324.401,151,331,157.599,331,166z"/>
</g>
<g>
	<path style="fill:#C4B3AF;" d="M316,181h-60v-30h60c8.401,0,15,6.599,15,15C331,174.399,324.401,181,316,181z"/>
	<path style="fill:#C4B3AF;" d="M316,121h-60V91h60c8.401,0,15,6.599,15,15C331,114.399,324.401,121,316,121z"/>
</g>
<g>
	<path style="fill:#D2C5C2;" d="M256,361v-30c8.401,0,15,6.599,15,15C271,354.399,264.401,361,256,361z"/>
	<path style="fill:#D2C5C2;" d="M331,406c0,8.399-6.599,15-15,15h-60v-30h60C324.401,391,331,397.599,331,406z"/>
</g>
<g>
</g>
<g>
</g>
<g>
</g>
<g>
</g>
<g>
</g>
<g>
</g>
<g>
</g>
<g>
</g>
<g>
</g>
<g>
</g>
<g>
</g>
<g>
</g>
<g>
</g>
<g>
</g>
<g>
</g>
</svg>
