<?xml version="1.0" encoding="UTF-8"?>
<!DOCTYPE svg PUBLIC "-//W3C//DTD SVG 1.1//EN" "http://www.w3.org/Graphics/SVG/1.1/DTD/svg11.dtd">
<svg xmlns="http://www.w3.org/2000/svg" xmlns:xlink="http://www.w3.org/1999/xlink" version="1.1" width="794px" height="796px" viewBox="-0.5 -0.5 794 796"><defs><linearGradient x1="0%" y1="100%" x2="0%" y2="0%" id="mx-gradient-2267ab-1-3399ff-1-s-0"><stop offset="0%" style="stop-color:#3399FF"/><stop offset="100%" style="stop-color:#2267AB"/></linearGradient></defs><g><ellipse cx="395.48" cy="395" rx="395" ry="395" fill="#000000" stroke="#000000" transform="translate(2,3)" opacity="0.25"/><ellipse cx="395.48" cy="395" rx="395" ry="395" fill="url(#mx-gradient-2267ab-1-3399ff-1-s-0)" stroke="#0e8088" pointer-events="all"/><path d="M 221.44 627.85 L 217.44 627.85 L 218.12 184.79 L 214.47 184.79 L 220.18 143.65 L 225.76 184.81 L 222.12 184.8 Z" fill="#ff9933" stroke="none" pointer-events="all"/><rect x="151.24" y="462.75" width="15.8" height="161.41" fill="#050505" stroke="none" pointer-events="all"/><rect x="110.75" y="444.07" width="15.8" height="177.21" fill="#050505" stroke="none" transform="rotate(5,118.65,532.68)" pointer-events="all"/><rect x="150.63" y="610.32" width="41.08" height="15.8" fill="#050505" stroke="none" pointer-events="all"/><rect x="103.23" y="610.34" width="41.08" height="15.8" fill="#050505" stroke="none" pointer-events="all"/><ellipse cx="335.84" cy="253.24" rx="48.387499999999996" ry="55.300000000000004" fill="#050505" stroke="none" pointer-events="all"/><rect x="335.74" y="347.25" width="58.46" height="12.64" rx="1.9" ry="1.9" fill="#ffaa00" stroke="none" transform="rotate(-195,364.97,353.57)" pointer-events="all"/><rect x="305.23" y="359.89" width="79" height="15.8" fill="#050505" stroke="none" transform="rotate(-15,344.73,367.79)" pointer-events="all"/><ellipse cx="363.91" cy="284.46" rx="7.900000000000001" ry="7.900000000000001" fill="#ffffff" stroke="none" pointer-events="all"/><ellipse cx="489.75" cy="236.48" rx="48.387499999999996" ry="55.300000000000004" fill="#050505" stroke="none" pointer-events="all"/><rect x="538.14" y="208.81" width="4.74" height="20.54" rx="0.71" ry="0.71" fill="#ffaa00" stroke="none" pointer-events="all"/><rect x="480.28" y="208.56" width="61.62" height="3.16" rx="0.47" ry="0.47" fill="#ffaa00" stroke="none" pointer-events="all"/><path d="M 592.19 126.4 Q 601.65 126.4 601.65 210.14 Q 601.65 293.88 592.19 293.88 Z" fill-opacity="0.5" fill="#ffaa00" stroke="none" pointer-events="all"/><path d="M 541.9 127.74 L 592.19 211.48 L 541.9 295.22 Z" fill-opacity="0.2" fill="#ffaa00" stroke="none" transform="rotate(180,567.04,211.48)" pointer-events="all"/><path d="M 300.23 189.37 C 296.53 189.37 295.61 205.1 298.56 208.25 C 295.61 215.17 298.93 230.27 301.33 223.97 C 303 236.56 308.54 236.56 310.38 223.97 C 314.08 223.97 314.08 211.39 311.77 205.1 C 314.08 192.52 310.38 179.93 307.15 186.23 C 304.84 176.79 301.15 176.79 300.23 189.37 Z" fill="#050505" stroke="#000000" stroke-miterlimit="10" pointer-events="all"/><path d="M 468.68 166.37 C 450.67 166.37 446.17 182.1 460.58 185.24 C 446.17 192.16 462.38 207.26 474.08 200.97 C 482.19 213.55 509.21 213.55 518.21 200.97 C 536.23 200.97 536.23 188.39 524.97 182.1 C 536.23 169.51 518.21 156.93 502.45 163.22 C 491.2 153.78 473.18 153.78 468.68 166.37 Z" fill="#050505" stroke="#000000" stroke-miterlimit="10" pointer-events="all"/><ellipse cx="527.58" cy="219.9" rx="7.900000000000001" ry="7.900000000000001" fill="#ffffff" stroke="none" pointer-events="all"/><rect x="501.28" y="288.29" width="100.38" height="15.8" fill="#050505" stroke="none" transform="rotate(-30,551.47,296.19)" pointer-events="all"/><rect x="159.3" y="390.37" width="73.68" height="15.8" fill="#050505" stroke="none" pointer-events="all"/><path d="M 78.88 308.68 Q 218.22 308.68 218.22 356.25 Q 218.22 403.82 78.88 403.82 Z" fill="#000000" stroke="none" transform="rotate(-90,148.55,356.25)" pointer-events="all"/><path d="M 125.87 399.99 Q 171.67 399.99 171.67 447.56 Q 171.67 495.12 125.87 495.12 Z" fill="#000000" stroke="none" transform="rotate(90,148.77,447.56)" pointer-events="all"/><rect x="310.6" y="459.87" width="15.8" height="161.41" fill="#050505" stroke="none" pointer-events="all"/><rect x="312.77" y="605.49" width="41.08" height="15.8" fill="#050505" stroke="none" pointer-events="all"/><path d="M 232.98 310.8 Q 372.32 310.8 372.32 358.37 Q 372.32 405.93 232.98 405.93 Z" fill="#000000" stroke="none" transform="rotate(-90,302.65,358.37)" pointer-events="all"/><path d="M 279.97 402.11 Q 325.77 402.11 325.77 449.68 Q 325.77 497.24 279.97 497.24 Z" fill="#000000" stroke="none" transform="rotate(90,302.87,449.68)" pointer-events="all"/><rect x="487.01" y="460.63" width="15.8" height="161.41" fill="#050505" stroke="none" pointer-events="all"/><rect x="454.41" y="442.87" width="15.8" height="177.21" fill="#050505" stroke="none" transform="rotate(10,462.31,531.48)" pointer-events="all"/><rect x="413.33" y="608.36" width="41.08" height="15.8" fill="#050505" stroke="none" pointer-events="all"/><rect x="489.17" y="606.25" width="41.08" height="15.8" fill="#050505" stroke="none" pointer-events="all"/><path d="M 414.65 306.57 Q 553.99 306.57 553.99 354.13 Q 553.99 401.7 414.65 401.7 Z" fill="#000000" stroke="none" transform="rotate(-90,484.32,354.13)" pointer-events="all"/><path d="M 461.63 397.88 Q 507.44 397.88 507.44 445.44 Q 507.44 493.01 461.63 493.01 Z" fill="#000000" stroke="none" transform="rotate(90,484.54,445.44)" pointer-events="all"/><rect x="278.88" y="459.87" width="15.8" height="161.41" fill="#050505" stroke="none" pointer-events="all"/><rect x="281.04" y="605.49" width="41.08" height="15.8" fill="#050505" stroke="none" pointer-events="all"/><path d="M 315.22 172.45 C 311.53 172.45 310.6 188.18 313.56 191.32 C 310.6 198.24 313.93 213.34 316.33 207.05 C 317.99 219.64 323.53 219.64 325.38 207.05 C 329.07 207.05 329.07 194.47 326.76 188.18 C 329.07 175.59 325.38 163.01 322.15 169.3 C 319.84 159.87 316.14 159.87 315.22 172.45 Z" fill="#050505" stroke="#000000" stroke-miterlimit="10" pointer-events="all"/><path d="M 331.23 182.66 C 327.53 182.66 326.61 198.38 329.56 201.53 C 326.61 208.45 329.93 223.55 332.33 217.26 C 334 229.84 339.54 229.84 341.38 217.26 C 345.08 217.26 345.08 204.68 342.77 198.38 C 345.08 185.8 341.38 173.22 338.15 179.51 C 335.84 170.07 332.15 170.07 331.23 182.66 Z" fill="#050505" stroke="#000000" stroke-miterlimit="10" pointer-events="all"/><path d="M 343.87 168.61 C 340.17 168.61 339.25 184.34 342.2 187.48 C 339.25 194.41 342.57 209.5 344.97 203.21 C 346.64 215.8 352.18 215.8 354.02 203.21 C 357.72 203.21 357.72 190.63 355.41 184.34 C 357.72 171.76 354.02 159.17 350.79 165.46 C 348.48 156.03 344.79 156.03 343.87 168.61 Z" fill="#050505" stroke="#000000" stroke-miterlimit="10" pointer-events="all"/><path d="M 362.34 197.49 C 358.64 197.49 357.72 213.22 360.67 216.37 C 357.72 223.29 361.04 238.39 363.44 232.1 C 365.11 244.68 370.65 244.68 372.49 232.1 C 376.19 232.1 376.19 219.51 373.88 213.22 C 376.19 200.64 372.49 188.05 369.26 194.35 C 366.95 184.91 363.26 184.91 362.34 197.49 Z" fill="#050505" stroke="#000000" stroke-miterlimit="10" transform="rotate(75,366.95,213.22)" pointer-events="all"/><path d="M 385.91 205.5 C 382.22 205.5 381.29 221.23 384.25 224.38 C 381.29 231.3 384.62 246.4 387.02 240.11 C 388.68 252.69 394.22 252.69 396.07 240.11 C 399.76 240.11 399.76 227.52 397.45 221.23 C 399.76 208.65 396.07 196.07 392.84 202.36 C 390.53 192.92 386.83 192.92 385.91 205.5 Z" fill="#050505" stroke="#000000" stroke-miterlimit="10" transform="rotate(75,390.53,221.23)" pointer-events="all"/><path d="M 380.81 222.85 C 377.11 222.85 376.19 238.58 379.14 241.73 C 376.19 248.65 379.51 263.75 381.91 257.45 C 383.58 270.04 389.12 270.04 390.96 257.45 C 394.66 257.45 394.66 244.87 392.35 238.58 C 394.66 226 390.96 213.41 387.73 219.71 C 385.42 210.27 381.73 210.27 380.81 222.85 Z" fill="#050505" stroke="#000000" stroke-miterlimit="10" transform="rotate(75,385.42,238.58)" pointer-events="all"/><ellipse cx="145.47" cy="240.07" rx="48.387499999999996" ry="55.300000000000004" fill="#050505" stroke="none" pointer-events="all"/><ellipse cx="182.46" cy="237.19" rx="7.900000000000001" ry="7.900000000000001" fill="#ffffff" stroke="none" pointer-events="all"/><path d="M 90.46 182.1 C 72.45 182.1 67.95 197.83 82.36 200.98 C 67.95 207.9 84.16 223 95.86 216.71 C 103.97 229.29 130.99 229.29 139.99 216.71 C 158.01 216.71 158.01 204.12 146.75 197.83 C 158.01 185.25 139.99 172.67 124.23 178.96 C 112.98 169.52 94.96 169.52 90.46 182.1 Z" fill="#050505" stroke="#000000" stroke-miterlimit="10" transform="rotate(-15,112.98,197.83)" pointer-events="all"/><path d="M 122.82 163.13 C 104.81 163.13 100.3 178.86 114.71 182 C 100.3 188.92 116.52 204.02 128.22 197.73 C 136.33 210.31 163.35 210.31 172.35 197.73 C 190.36 197.73 190.36 185.15 179.11 178.86 C 190.36 166.27 172.35 153.69 156.59 159.98 C 145.33 150.54 127.32 150.54 122.82 163.13 Z" fill="#050505" stroke="#000000" stroke-miterlimit="10" pointer-events="all"/><path d="M 76.36 205.64 C 64.35 205.64 61.34 221.37 70.96 224.52 C 61.34 231.44 72.16 246.54 79.97 240.25 C 85.38 252.83 103.4 252.83 109.41 240.25 C 121.43 240.25 121.43 227.67 113.92 221.37 C 121.43 208.79 109.41 196.21 98.9 202.5 C 91.39 193.06 79.37 193.06 76.36 205.64 Z" fill="#050505" stroke="#000000" stroke-miterlimit="10" transform="rotate(-15,91.39,221.37)" pointer-events="all"/><path d="M 68.86 260.82 C 50.85 260.82 46.35 276.55 60.76 279.69 C 46.35 286.61 62.56 301.71 74.27 295.42 C 82.37 308.01 109.39 308.01 118.4 295.42 C 136.41 295.42 136.41 282.84 125.15 276.55 C 136.41 263.96 118.4 251.38 102.63 257.67 C 91.38 248.24 73.37 248.24 68.86 260.82 Z" fill="#050505" stroke="#000000" stroke-miterlimit="10" transform="rotate(-100,91.38,276.55)" pointer-events="all"/><path d="M 601.65 302.82 Q 740.99 302.82 740.99 350.39 Q 740.99 397.95 601.65 397.95 Z" fill="#000000" stroke="none" transform="rotate(-90,671.32,350.39)" pointer-events="all"/><rect x="674.02" y="457.08" width="15.8" height="161.22" fill="#050505" stroke="none" pointer-events="all"/><rect x="624.96" y="441.18" width="15.8" height="172.03" fill="#ffaa00" stroke="none" transform="rotate(15,632.86,527.2)" pointer-events="all"/><rect x="603.58" y="604.62" width="41.08" height="15.8" fill="#ffaa00" stroke="none" pointer-events="all"/><rect x="676.18" y="602.5" width="41.08" height="15.8" fill="#050505" stroke="none" pointer-events="all"/><path d="M 648.64 394.13 Q 694.45 394.13 694.45 441.7 Q 694.45 489.26 648.64 489.26 Z" fill="#000000" stroke="none" transform="rotate(90,671.55,441.7)" pointer-events="all"/><ellipse cx="680.94" cy="233.39" rx="47.679756138359146" ry="54.491149872410446" fill="#050505" stroke="none" pointer-events="all"/><rect x="661.5" y="224.8" width="20.6" height="21.71" rx="3.09" ry="3.09" fill="#ffaa00" stroke="none" pointer-events="all"/><rect x="663.83" y="248.73" width="2.66" height="15.95" rx="0.4" ry="0.4" fill="#ffaa00" stroke="none" pointer-events="all"/><rect x="677.12" y="248.73" width="2.66" height="15.95" rx="0.4" ry="0.4" fill="#ffaa00" stroke="none" pointer-events="all"/><rect x="670.47" y="251.38" width="2.66" height="7.31" rx="0.4" ry="0.4" fill="#ffaa00" stroke="none" pointer-events="all"/><rect x="663.83" y="203.53" width="2.66" height="18.61" rx="0.4" ry="0.4" fill="#ffaa00" stroke="none" pointer-events="all"/><rect x="677.12" y="206.19" width="2.66" height="15.95" rx="0.4" ry="0.4" fill="#ffaa00" stroke="none" pointer-events="all"/><rect x="670.47" y="208.85" width="2.66" height="7.31" rx="0.4" ry="0.4" fill="#ffaa00" stroke="none" pointer-events="all"/><rect x="687.75" y="222.14" width="13.29" height="2.66" rx="0.4" ry="0.4" fill="#ffaa00" stroke="none" pointer-events="all"/><rect x="687.75" y="231.45" width="5.32" height="2.66" rx="0.4" ry="0.4" fill="#ffaa00" stroke="none" pointer-events="all"/><rect x="687.75" y="240.09" width="10.63" height="2.66" rx="0.4" ry="0.4" fill="#ffaa00" stroke="none" pointer-events="all"/><rect x="645.22" y="222.14" width="13.29" height="2.66" rx="0.4" ry="0.4" fill="#ffaa00" stroke="none" pointer-events="all"/><rect x="650.54" y="231.45" width="5.32" height="2.66" rx="0.4" ry="0.4" fill="#ffaa00" stroke="none" pointer-events="all"/><rect x="645.22" y="240.09" width="10.63" height="2.66" rx="0.4" ry="0.4" fill="#ffaa00" stroke="none" pointer-events="all"/><ellipse cx="703.99" cy="197.23" rx="8.771746077022167" ry="8.771746077022167" fill="#ffaa00" stroke="none" pointer-events="all"/><ellipse cx="705.81" cy="198.45" rx="23.700000000000003" ry="23.700000000000003" fill-opacity="0.5" fill="#ffaa00" stroke="none" pointer-events="all"/><rect x="588.46" y="378.08" width="166.69" height="13.29" fill="#ffaa00" stroke="none" transform="rotate(90,671.81,384.72)" pointer-events="all"/></g></svg>